<svg id="Ebene_1" data-name="Ebene 1" xmlns="http://www.w3.org/2000/svg" viewBox="0 0 908 324"><defs><style>.cls-1{fill:#627a87;opacity:0.1;}.cls-2{fill:#0054a2;}.cls-3{fill:#f9f9f9;}.cls-4,.cls-5{fill:none;stroke-miterlimit:10;stroke-width:2px;}.cls-4{stroke:#0054a2;}.cls-5{stroke:#2c9984;}.cls-6{fill:#2c9984;}</style></defs><title>Zeichenfläche 1</title><rect class="cls-1" width="908" height="324"/><rect class="cls-2" x="81" y="140" width="149" height="40" rx="6.91"/><path class="cls-3" d="M102.94,162.25v1.56h-6.5v-8.4h6.35V157H98.37v1.83h3.9v1.51h-3.9v1.94Z"/><path class="cls-3" d="M110.22,158a2.86,2.86,0,0,1,.74,2.14v3.69h-1.88v-3.4a1.7,1.7,0,0,0-.33-1.15,1.25,1.25,0,0,0-1-.38,1.49,1.49,0,0,0-1.13.44,1.81,1.81,0,0,0-.42,1.3v3.19h-1.87v-6.45h1.78v.75a2.55,2.55,0,0,1,.93-.63,3.38,3.38,0,0,1,1.21-.22A2.66,2.66,0,0,1,110.22,158Z"/><path class="cls-3" d="M116.81,163.5a1.86,1.86,0,0,1-.68.31,3.28,3.28,0,0,1-.84.1,2.51,2.51,0,0,1-1.78-.59,2.25,2.25,0,0,1-.63-1.73v-2.65h-1V157.5h1v-1.57h1.87v1.57h1.61v1.44h-1.61v2.63a.89.89,0,0,0,.21.63.77.77,0,0,0,.59.22,1.21,1.21,0,0,0,.76-.24Z"/><path class="cls-3" d="M124.24,154.91v8.9h-1.79v-.74a2.45,2.45,0,0,1-2,.84,3.36,3.36,0,0,1-1.65-.41,2.88,2.88,0,0,1-1.16-1.16,3.88,3.88,0,0,1,0-3.51,2.88,2.88,0,0,1,1.16-1.16,3.36,3.36,0,0,1,1.65-.41,2.47,2.47,0,0,1,1.93.78v-3.13Zm-2.3,7a2.08,2.08,0,0,0,0-2.61,1.7,1.7,0,0,0-2.37,0,2,2,0,0,0,0,2.61,1.7,1.7,0,0,0,2.37,0Z"/><path class="cls-3" d="M132.26,161.11h-4.89a1.53,1.53,0,0,0,.63.95,2,2,0,0,0,1.22.35,2.44,2.44,0,0,0,.89-.15,2.22,2.22,0,0,0,.73-.47l1,1.08a3.38,3.38,0,0,1-2.67,1,4.13,4.13,0,0,1-1.93-.43,3.1,3.1,0,0,1-1.3-1.18,3.47,3.47,0,0,1,0-3.42,3.13,3.13,0,0,1,1.23-1.19,3.58,3.58,0,0,1,1.76-.43,3.64,3.64,0,0,1,1.72.41,2.94,2.94,0,0,1,1.2,1.17,3.42,3.42,0,0,1,.44,1.77S132.28,160.8,132.26,161.11ZM127.88,159a1.51,1.51,0,0,0-.53,1h3.18a1.58,1.58,0,0,0-.53-1,1.6,1.6,0,0,0-1.06-.36A1.58,1.58,0,0,0,127.88,159Z"/><path class="cls-3" d="M134.81,163.48a3.13,3.13,0,0,1-1.29-1.18,3.17,3.17,0,0,1-.46-1.71,3.15,3.15,0,0,1,1.75-2.9,3.86,3.86,0,0,1,1.85-.43,3.53,3.53,0,0,1,1.78.43,2.49,2.49,0,0,1,1.11,1.22l-1.45.78a1.58,1.58,0,0,0-1.45-.89,1.64,1.64,0,0,0-1.21.48,2,2,0,0,0,0,2.61,1.64,1.64,0,0,0,1.21.48,1.57,1.57,0,0,0,1.45-.88l1.45.79a2.58,2.58,0,0,1-1.11,1.2,3.53,3.53,0,0,1-1.78.43A3.86,3.86,0,0,1,134.81,163.48Z"/><path class="cls-3" d="M143.36,161.28l-.9.89v1.64h-1.88v-8.9h1.88v5l2.73-2.59h2.23l-2.68,2.73,2.92,3.72H145.4Z"/><path class="cls-3" d="M154.89,157.36v6.45h-1.78v-.76a2.47,2.47,0,0,1-.89.64,2.72,2.72,0,0,1-1.11.22,2.75,2.75,0,0,1-2-.73,2.94,2.94,0,0,1-.74-2.17v-3.65h1.87v3.37c0,1,.44,1.56,1.31,1.56a1.41,1.41,0,0,0,1.08-.44,1.84,1.84,0,0,0,.41-1.3v-3.19Z"/><path class="cls-3" d="M162.49,158a2.86,2.86,0,0,1,.74,2.14v3.69h-1.87v-3.4a1.7,1.7,0,0,0-.34-1.15,1.24,1.24,0,0,0-1-.38,1.51,1.51,0,0,0-1.13.44,1.81,1.81,0,0,0-.42,1.3v3.19h-1.87v-6.45h1.79v.75a2.43,2.43,0,0,1,.92-.63,3.38,3.38,0,0,1,1.21-.22A2.66,2.66,0,0,1,162.49,158Z"/><path class="cls-3" d="M171.65,157.36v5.37a3.45,3.45,0,0,1-.92,2.64,3.81,3.81,0,0,1-2.7.87,6.83,6.83,0,0,1-1.78-.23,3.82,3.82,0,0,1-1.39-.66l.74-1.34a3.18,3.18,0,0,0,1,.53,4.12,4.12,0,0,0,1.24.2,2.05,2.05,0,0,0,1.44-.44,1.73,1.73,0,0,0,.46-1.33v-.27a2.64,2.64,0,0,1-2,.8,3.47,3.47,0,0,1-1.63-.39,3,3,0,0,1-1.17-1.1,3.3,3.3,0,0,1,0-3.26,3,3,0,0,1,1.17-1.1,3.47,3.47,0,0,1,1.63-.39,2.56,2.56,0,0,1,2.14.93v-.83Zm-2.32,4.17a1.48,1.48,0,0,0,.47-1.15,1.46,1.46,0,0,0-.47-1.14,1.91,1.91,0,0,0-2.44,0,1.47,1.47,0,0,0-.48,1.14,1.49,1.49,0,0,0,.48,1.15,1.91,1.91,0,0,0,2.44,0Z"/><path class="cls-3" d="M174,163.71a4,4,0,0,1-1.22-.5l.62-1.34a4.25,4.25,0,0,0,1.05.45,4.14,4.14,0,0,0,1.2.17c.79,0,1.18-.19,1.18-.58a.41.41,0,0,0-.32-.4,4.55,4.55,0,0,0-1-.2,10.17,10.17,0,0,1-1.3-.28,2,2,0,0,1-.9-.55,1.59,1.59,0,0,1-.38-1.13,1.76,1.76,0,0,1,.36-1.09,2.24,2.24,0,0,1,1-.73,4.32,4.32,0,0,1,1.6-.27,6.23,6.23,0,0,1,1.36.15,3.71,3.71,0,0,1,1.13.42l-.63,1.33a3.74,3.74,0,0,0-1.86-.48,1.8,1.8,0,0,0-.9.17.48.48,0,0,0-.3.43.43.43,0,0,0,.33.42,6.35,6.35,0,0,0,1,.23,9.27,9.27,0,0,1,1.29.28,2,2,0,0,1,.88.54,1.57,1.57,0,0,1,.37,1.11,1.73,1.73,0,0,1-.36,1.07,2.29,2.29,0,0,1-1.05.72,4.7,4.7,0,0,1-1.64.26A6.37,6.37,0,0,1,174,163.71Z"/><path class="cls-3" d="M185.22,157.68a2.94,2.94,0,0,1,1.16,1.16,3.84,3.84,0,0,1,0,3.49,3,3,0,0,1-1.16,1.17,3.35,3.35,0,0,1-1.64.41,2.49,2.49,0,0,1-1.94-.78v3h-1.88v-8.78h1.79v.74a2.49,2.49,0,0,1,2-.84A3.26,3.26,0,0,1,185.22,157.68Zm-.78,4.21a2.08,2.08,0,0,0,0-2.61,1.57,1.57,0,0,0-1.18-.48,1.59,1.59,0,0,0-1.19.48,2.08,2.08,0,0,0,0,2.61,1.59,1.59,0,0,0,1.19.48A1.57,1.57,0,0,0,184.44,161.89Z"/><path class="cls-3" d="M193.91,158a2.86,2.86,0,0,1,.73,2.14v3.69h-1.87v-3.4a1.7,1.7,0,0,0-.33-1.15,1.26,1.26,0,0,0-1-.38,1.48,1.48,0,0,0-1.12.44,1.81,1.81,0,0,0-.42,1.3v3.19H188v-8.9h1.88V158a2.31,2.31,0,0,1,.9-.57,3.27,3.27,0,0,1,1.15-.2A2.67,2.67,0,0,1,193.91,158Z"/><path class="cls-3" d="M201.24,158a2.7,2.7,0,0,1,.81,2.15v3.68H200.3V163a2.1,2.1,0,0,1-2,.9,3,3,0,0,1-1.29-.25,2,2,0,0,1-.84-.7,1.81,1.81,0,0,1-.28-1,1.66,1.66,0,0,1,.67-1.41,3.44,3.44,0,0,1,2.1-.52h1.49a1.18,1.18,0,0,0-.38-.94,1.62,1.62,0,0,0-1.11-.33,3.24,3.24,0,0,0-1,.16,2.78,2.78,0,0,0-.84.44l-.67-1.31a3.84,3.84,0,0,1,1.26-.57,5.52,5.52,0,0,1,1.52-.21A3.32,3.32,0,0,1,201.24,158Zm-1.59,4.45a1.25,1.25,0,0,0,.53-.66v-.66h-1.29c-.77,0-1.15.26-1.15.76a.67.67,0,0,0,.28.57,1.29,1.29,0,0,0,.78.21A1.61,1.61,0,0,0,199.65,162.43Z"/><path class="cls-3" d="M204.34,163.71a4,4,0,0,1-1.22-.5l.62-1.34a4.34,4.34,0,0,0,1,.45,4.24,4.24,0,0,0,1.2.17c.8,0,1.19-.19,1.19-.58a.42.42,0,0,0-.32-.4,4.55,4.55,0,0,0-1-.2,10.37,10.37,0,0,1-1.31-.28,2,2,0,0,1-.89-.55,1.59,1.59,0,0,1-.38-1.13,1.76,1.76,0,0,1,.36-1.09,2.24,2.24,0,0,1,1-.73,4.29,4.29,0,0,1,1.6-.27,6.23,6.23,0,0,1,1.36.15,3.64,3.64,0,0,1,1.12.42l-.62,1.33a3.74,3.74,0,0,0-1.86-.48,1.8,1.8,0,0,0-.9.17.48.48,0,0,0-.3.43.43.43,0,0,0,.32.42,6.53,6.53,0,0,0,1,.23,9.61,9.61,0,0,1,1.29.28,2,2,0,0,1,.88.54,1.57,1.57,0,0,1,.37,1.11,1.73,1.73,0,0,1-.36,1.07,2.29,2.29,0,0,1-1,.72,4.74,4.74,0,0,1-1.64.26A6.37,6.37,0,0,1,204.34,163.71Z"/><path class="cls-3" d="M216.4,161.11h-4.88a1.48,1.48,0,0,0,.62.95,2.09,2.09,0,0,0,1.22.35,2.5,2.5,0,0,0,.9-.15,2.18,2.18,0,0,0,.72-.47l1,1.08a3.37,3.37,0,0,1-2.66,1,4.17,4.17,0,0,1-1.94-.43,3,3,0,0,1-1.29-1.18,3.17,3.17,0,0,1-.46-1.71,3.26,3.26,0,0,1,.45-1.71,3.09,3.09,0,0,1,1.24-1.19,3.56,3.56,0,0,1,1.76-.43,3.6,3.6,0,0,1,1.71.41,3,3,0,0,1,1.21,1.17,3.52,3.52,0,0,1,.44,1.77S216.42,160.8,216.4,161.11ZM212,159a1.56,1.56,0,0,0-.53,1h3.18a1.54,1.54,0,0,0-.53-1,1.57,1.57,0,0,0-1-.36A1.61,1.61,0,0,0,212,159Z"/><rect class="cls-2" x="275" y="140" width="149" height="40" rx="6.91"/><path class="cls-3" d="M308.32,155.79a2.85,2.85,0,0,1,1.26,1.05,3.14,3.14,0,0,1,0,3.24,2.79,2.79,0,0,1-1.26,1,4.66,4.66,0,0,1-1.94.37h-1.69v2.31h-1.95v-8.4h3.64A4.66,4.66,0,0,1,308.32,155.79Zm-.72,3.75a1.5,1.5,0,0,0,0-2.16,2,2,0,0,0-1.33-.38h-1.58v2.91h1.58A2,2,0,0,0,307.6,159.54Z"/><path class="cls-3" d="M311.39,154.91h1.88v8.9h-1.88Z"/><path class="cls-3" d="M319.91,158a2.7,2.7,0,0,1,.81,2.15v3.68H319V163a2.1,2.1,0,0,1-2,.9,3,3,0,0,1-1.29-.25,2,2,0,0,1-.84-.7,1.81,1.81,0,0,1-.28-1,1.66,1.66,0,0,1,.67-1.41,3.44,3.44,0,0,1,2.1-.52h1.49a1.18,1.18,0,0,0-.38-.94,1.62,1.62,0,0,0-1.11-.33,3.24,3.24,0,0,0-1,.16,2.78,2.78,0,0,0-.84.44l-.67-1.31a3.84,3.84,0,0,1,1.26-.57,5.52,5.52,0,0,1,1.52-.21A3.32,3.32,0,0,1,319.91,158Zm-1.59,4.45a1.25,1.25,0,0,0,.53-.66v-.66h-1.29c-.77,0-1.15.26-1.15.76a.67.67,0,0,0,.28.57,1.29,1.29,0,0,0,.78.21A1.61,1.61,0,0,0,318.32,162.43Z"/><path class="cls-3" d="M328.27,158a2.86,2.86,0,0,1,.74,2.14v3.69h-1.87v-3.4a1.65,1.65,0,0,0-.34-1.15,1.24,1.24,0,0,0-1-.38,1.51,1.51,0,0,0-1.13.44,1.81,1.81,0,0,0-.42,1.3v3.19h-1.87v-6.45h1.79v.75a2.51,2.51,0,0,1,.92-.63,3.38,3.38,0,0,1,1.21-.22A2.66,2.66,0,0,1,328.27,158Z"/><path class="cls-3" d="M337.21,157.36v6.45h-1.78v-.76a2.47,2.47,0,0,1-.89.64,2.72,2.72,0,0,1-1.11.22,2.75,2.75,0,0,1-2-.73,2.9,2.9,0,0,1-.74-2.17v-3.65h1.87v3.37c0,1,.43,1.56,1.31,1.56a1.44,1.44,0,0,0,1.08-.44,1.84,1.84,0,0,0,.4-1.3v-3.19Z"/><path class="cls-3" d="M344.81,158a2.86,2.86,0,0,1,.73,2.14v3.69h-1.87v-3.4a1.7,1.7,0,0,0-.33-1.15,1.25,1.25,0,0,0-1-.38,1.49,1.49,0,0,0-1.13.44,1.81,1.81,0,0,0-.42,1.3v3.19h-1.88v-6.45h1.79v.75a2.55,2.55,0,0,1,.93-.63,3.34,3.34,0,0,1,1.21-.22A2.67,2.67,0,0,1,344.81,158Z"/><path class="cls-3" d="M354,157.36v5.37a3.45,3.45,0,0,1-.92,2.64,3.81,3.81,0,0,1-2.7.87,6.83,6.83,0,0,1-1.78-.23,3.82,3.82,0,0,1-1.39-.66l.74-1.34a3.12,3.12,0,0,0,1,.53,4.24,4.24,0,0,0,1.25.2,2.05,2.05,0,0,0,1.44-.44,1.77,1.77,0,0,0,.46-1.33v-.27a2.64,2.64,0,0,1-2,.8,3.44,3.44,0,0,1-1.63-.39,3,3,0,0,1-1.17-1.1,3.1,3.1,0,0,1,1.17-4.36,3.44,3.44,0,0,1,1.63-.39,2.54,2.54,0,0,1,2.13.93v-.83Zm-2.32,4.17a1.51,1.51,0,0,0,.47-1.15,1.49,1.49,0,0,0-.47-1.14,1.91,1.91,0,0,0-2.44,0,1.47,1.47,0,0,0-.48,1.14,1.49,1.49,0,0,0,.48,1.15,1.91,1.91,0,0,0,2.44,0Z"/><path class="cls-3" d="M356.31,163.71a4,4,0,0,1-1.22-.5l.62-1.34a4.34,4.34,0,0,0,1,.45,4.24,4.24,0,0,0,1.2.17c.8,0,1.19-.19,1.19-.58a.42.42,0,0,0-.32-.4,4.55,4.55,0,0,0-1-.2,10.37,10.37,0,0,1-1.31-.28,2,2,0,0,1-.89-.55,1.59,1.59,0,0,1-.38-1.13,1.76,1.76,0,0,1,.36-1.09,2.24,2.24,0,0,1,1-.73,4.29,4.29,0,0,1,1.6-.27,6.23,6.23,0,0,1,1.36.15,3.64,3.64,0,0,1,1.12.42l-.62,1.33a3.74,3.74,0,0,0-1.86-.48,1.8,1.8,0,0,0-.9.17.48.48,0,0,0-.3.43.43.43,0,0,0,.32.42,6.53,6.53,0,0,0,1,.23,9.61,9.61,0,0,1,1.29.28,2,2,0,0,1,.88.54,1.57,1.57,0,0,1,.37,1.11,1.73,1.73,0,0,1-.36,1.07,2.29,2.29,0,0,1-1.05.72,4.74,4.74,0,0,1-1.64.26A6.37,6.37,0,0,1,356.31,163.71Z"/><path class="cls-3" d="M367.53,157.68a2.88,2.88,0,0,1,1.16,1.16,3.84,3.84,0,0,1,0,3.49,3,3,0,0,1-1.16,1.17,3.32,3.32,0,0,1-1.63.41,2.49,2.49,0,0,1-1.95-.78v3h-1.87v-8.78h1.79v.74a2.48,2.48,0,0,1,2-.84A3.22,3.22,0,0,1,367.53,157.68Zm-.78,4.21a2,2,0,0,0,0-2.61,1.69,1.69,0,0,0-2.36,0,2.08,2.08,0,0,0,0,2.61,1.69,1.69,0,0,0,2.36,0Z"/><path class="cls-3" d="M376.22,158a2.86,2.86,0,0,1,.74,2.14v3.69h-1.87v-3.4a1.65,1.65,0,0,0-.34-1.15,1.22,1.22,0,0,0-1-.38,1.51,1.51,0,0,0-1.13.44,1.81,1.81,0,0,0-.42,1.3v3.19h-1.87v-8.9h1.87V158a2.47,2.47,0,0,1,.9-.57,3.32,3.32,0,0,1,1.16-.2A2.65,2.65,0,0,1,376.22,158Z"/><path class="cls-3" d="M383.56,158a2.7,2.7,0,0,1,.8,2.15v3.68h-1.75V163a2.09,2.09,0,0,1-2,.9,3.06,3.06,0,0,1-1.29-.25,1.92,1.92,0,0,1-.83-.7,1.81,1.81,0,0,1-.29-1,1.67,1.67,0,0,1,.68-1.41A3.4,3.4,0,0,1,381,160h1.49a1.18,1.18,0,0,0-.37-.94,1.65,1.65,0,0,0-1.12-.33,3.18,3.18,0,0,0-1,.16,3,3,0,0,0-.85.44l-.67-1.31a3.9,3.9,0,0,1,1.27-.57,5.52,5.52,0,0,1,1.52-.21A3.34,3.34,0,0,1,383.56,158Zm-1.6,4.45a1.21,1.21,0,0,0,.53-.66v-.66h-1.28c-.77,0-1.15.26-1.15.76a.67.67,0,0,0,.28.57,1.26,1.26,0,0,0,.77.21A1.58,1.58,0,0,0,382,162.43Z"/><path class="cls-3" d="M386.66,163.71a4.07,4.07,0,0,1-1.23-.5l.63-1.34a4,4,0,0,0,1,.45,4.24,4.24,0,0,0,1.2.17c.79,0,1.19-.19,1.19-.58a.42.42,0,0,0-.33-.4,4.31,4.31,0,0,0-1-.2,10,10,0,0,1-1.31-.28,2,2,0,0,1-.89-.55,1.55,1.55,0,0,1-.38-1.13,1.82,1.82,0,0,1,.35-1.09,2.29,2.29,0,0,1,1-.73,4.38,4.38,0,0,1,1.61-.27,6.3,6.3,0,0,1,1.36.15,3.74,3.74,0,0,1,1.12.42l-.62,1.33a3.74,3.74,0,0,0-1.86-.48,1.8,1.8,0,0,0-.9.17.48.48,0,0,0-.3.43.42.42,0,0,0,.32.42,6.62,6.62,0,0,0,1,.23,9.81,9.81,0,0,1,1.3.28,1.94,1.94,0,0,1,.87.54,1.57,1.57,0,0,1,.38,1.11,1.73,1.73,0,0,1-.36,1.07,2.29,2.29,0,0,1-1.05.72,4.74,4.74,0,0,1-1.64.26A6.31,6.31,0,0,1,386.66,163.71Z"/><path class="cls-3" d="M398.72,161.11h-4.89a1.53,1.53,0,0,0,.63.95,2,2,0,0,0,1.22.35,2.44,2.44,0,0,0,.89-.15,2.22,2.22,0,0,0,.73-.47l1,1.08a3.38,3.38,0,0,1-2.67,1,4.13,4.13,0,0,1-1.93-.43,3.1,3.1,0,0,1-1.3-1.18,3.47,3.47,0,0,1,0-3.42,3.13,3.13,0,0,1,1.23-1.19,3.58,3.58,0,0,1,1.76-.43,3.64,3.64,0,0,1,1.72.41,2.94,2.94,0,0,1,1.2,1.17,3.42,3.42,0,0,1,.44,1.77S398.74,160.8,398.72,161.11ZM394.34,159a1.51,1.51,0,0,0-.53,1H397a1.58,1.58,0,0,0-.53-1,1.6,1.6,0,0,0-1.06-.36A1.58,1.58,0,0,0,394.34,159Z"/><rect class="cls-2" x="469" y="140" width="149" height="40" rx="6.91"/><path class="cls-3" d="M503.34,163.69a4.76,4.76,0,0,1-1.5-.7l.66-1.47a4.32,4.32,0,0,0,1.29.64,4.77,4.77,0,0,0,1.48.24,2.33,2.33,0,0,0,1.23-.25.74.74,0,0,0,.39-.65.61.61,0,0,0-.23-.5,1.9,1.9,0,0,0-.6-.32,9.53,9.53,0,0,0-1-.26,13.67,13.67,0,0,1-1.57-.46,2.47,2.47,0,0,1-1.05-.73,2,2,0,0,1-.44-1.34,2.31,2.31,0,0,1,.4-1.33,2.6,2.6,0,0,1,1.19-.94,4.89,4.89,0,0,1,1.95-.35,6.31,6.31,0,0,1,1.57.19,4.84,4.84,0,0,1,1.35.55l-.6,1.48a4.72,4.72,0,0,0-2.33-.66,2.24,2.24,0,0,0-1.21.26.81.81,0,0,0-.39.7.68.68,0,0,0,.45.64,7.27,7.27,0,0,0,1.38.42,13.9,13.9,0,0,1,1.57.45,2.54,2.54,0,0,1,1.05.72,1.94,1.94,0,0,1,.44,1.33,2.31,2.31,0,0,1-.41,1.32,2.7,2.7,0,0,1-1.2.94,5,5,0,0,1-2,.35A6.85,6.85,0,0,1,503.34,163.69Z"/><path class="cls-3" d="M512.8,161.28l-.9.89v1.64H510v-8.9h1.88v5l2.73-2.59h2.24l-2.69,2.73,2.92,3.72h-2.26Z"/><path class="cls-3" d="M518,156.16a1,1,0,0,1,0-1.49,1.34,1.34,0,0,1,1.68,0,.91.91,0,0,1,.33.72,1,1,0,0,1-.33.77,1.13,1.13,0,0,1-.84.31A1.2,1.2,0,0,1,518,156.16Zm-.09,1.2h1.87v6.45H517.9Z"/><path class="cls-3" d="M526.83,162.37v1.44h-5.77v-1.12l3.29-3.89h-3.2v-1.44h5.57v1.13l-3.29,3.88Z"/><path class="cls-3" d="M533.34,162.37v1.44h-5.76v-1.12l3.29-3.89h-3.2v-1.44h5.56v1.13L530,162.37Z"/><path class="cls-3" d="M540.75,161.11h-4.89a1.53,1.53,0,0,0,.63.95,2,2,0,0,0,1.22.35,2.44,2.44,0,0,0,.89-.15,2.33,2.33,0,0,0,.73-.47l1,1.08a3.38,3.38,0,0,1-2.67,1,4.13,4.13,0,0,1-1.93-.43,3.1,3.1,0,0,1-1.3-1.18,3.47,3.47,0,0,1,0-3.42,3.13,3.13,0,0,1,1.23-1.19,3.58,3.58,0,0,1,1.76-.43,3.67,3.67,0,0,1,1.72.41,2.94,2.94,0,0,1,1.2,1.17,3.42,3.42,0,0,1,.44,1.77S540.77,160.8,540.75,161.11ZM536.37,159a1.51,1.51,0,0,0-.53,1H539a1.58,1.58,0,0,0-.53-1,1.6,1.6,0,0,0-1.06-.36A1.58,1.58,0,0,0,536.37,159Z"/><path class="cls-3" d="M547.89,158a2.86,2.86,0,0,1,.74,2.14v3.69h-1.87v-3.4a1.65,1.65,0,0,0-.34-1.15,1.24,1.24,0,0,0-1-.38,1.51,1.51,0,0,0-1.13.44,1.81,1.81,0,0,0-.42,1.3v3.19H542v-6.45h1.79v.75a2.43,2.43,0,0,1,.92-.63,3.38,3.38,0,0,1,1.21-.22A2.66,2.66,0,0,1,547.89,158Z"/><path class="cls-3" d="M555.77,157.68a2.88,2.88,0,0,1,1.16,1.16,3.84,3.84,0,0,1,0,3.49,3,3,0,0,1-1.16,1.17,3.32,3.32,0,0,1-1.63.41,2.51,2.51,0,0,1-1.95-.78v3h-1.87v-8.78h1.79v.74a2.48,2.48,0,0,1,2-.84A3.22,3.22,0,0,1,555.77,157.68Zm-.77,4.21a2.08,2.08,0,0,0,0-2.61,1.59,1.59,0,0,0-1.19-.48,1.57,1.57,0,0,0-1.18.48,2.08,2.08,0,0,0,0,2.61,1.57,1.57,0,0,0,1.18.48A1.59,1.59,0,0,0,555,161.89Z"/><path class="cls-3" d="M564.46,158a2.86,2.86,0,0,1,.74,2.14v3.69h-1.87v-3.4a1.65,1.65,0,0,0-.34-1.15,1.24,1.24,0,0,0-1-.38,1.51,1.51,0,0,0-1.13.44,1.81,1.81,0,0,0-.42,1.3v3.19H558.6v-8.9h1.87V158a2.47,2.47,0,0,1,.9-.57,3.31,3.31,0,0,1,1.15-.2A2.66,2.66,0,0,1,564.46,158Z"/><path class="cls-3" d="M571.8,158a2.7,2.7,0,0,1,.8,2.15v3.68h-1.75V163a2.09,2.09,0,0,1-2,.9,3.06,3.06,0,0,1-1.29-.25,1.92,1.92,0,0,1-.83-.7,1.81,1.81,0,0,1-.29-1,1.67,1.67,0,0,1,.68-1.41,3.4,3.4,0,0,1,2.09-.52h1.49a1.18,1.18,0,0,0-.37-.94,1.65,1.65,0,0,0-1.12-.33,3.18,3.18,0,0,0-1,.16,3,3,0,0,0-.85.44l-.67-1.31a3.9,3.9,0,0,1,1.27-.57,5.52,5.52,0,0,1,1.52-.21A3.34,3.34,0,0,1,571.8,158Zm-1.6,4.45a1.21,1.21,0,0,0,.53-.66v-.66h-1.28c-.77,0-1.15.26-1.15.76a.67.67,0,0,0,.28.57,1.26,1.26,0,0,0,.77.21A1.58,1.58,0,0,0,570.2,162.43Z"/><path class="cls-3" d="M574.9,163.71a4.07,4.07,0,0,1-1.23-.5l.63-1.34a4,4,0,0,0,1,.45,4.24,4.24,0,0,0,1.2.17c.79,0,1.19-.19,1.19-.58a.42.42,0,0,0-.33-.4,4.31,4.31,0,0,0-1-.2,10,10,0,0,1-1.31-.28,2,2,0,0,1-.89-.55,1.55,1.55,0,0,1-.38-1.13,1.82,1.82,0,0,1,.35-1.09,2.29,2.29,0,0,1,1-.73,4.38,4.38,0,0,1,1.61-.27,6.3,6.3,0,0,1,1.36.15,3.74,3.74,0,0,1,1.12.42l-.62,1.33a3.74,3.74,0,0,0-1.86-.48,1.8,1.8,0,0,0-.9.17.48.48,0,0,0-.3.43.42.42,0,0,0,.32.42,6.62,6.62,0,0,0,1,.23,9.81,9.81,0,0,1,1.3.28,1.94,1.94,0,0,1,.87.54,1.57,1.57,0,0,1,.38,1.11,1.73,1.73,0,0,1-.36,1.07,2.29,2.29,0,0,1-1,.72,4.74,4.74,0,0,1-1.64.26A6.31,6.31,0,0,1,574.9,163.71Z"/><path class="cls-3" d="M587,161.11h-4.89a1.53,1.53,0,0,0,.63.95,2,2,0,0,0,1.22.35,2.44,2.44,0,0,0,.89-.15,2.22,2.22,0,0,0,.73-.47l1,1.08a3.38,3.38,0,0,1-2.67,1,4.13,4.13,0,0,1-1.93-.43,3.1,3.1,0,0,1-1.3-1.18,3.47,3.47,0,0,1,0-3.42,3.13,3.13,0,0,1,1.23-1.19,3.58,3.58,0,0,1,1.76-.43,3.64,3.64,0,0,1,1.72.41,2.94,2.94,0,0,1,1.2,1.17,3.42,3.42,0,0,1,.44,1.77S587,160.8,587,161.11ZM582.58,159a1.51,1.51,0,0,0-.53,1h3.18a1.58,1.58,0,0,0-.53-1,1.6,1.6,0,0,0-1.06-.36A1.58,1.58,0,0,0,582.58,159Z"/><line class="cls-4" x1="230" y1="160" x2="265.83" y2="160"/><polygon class="cls-2" points="259.2 168.18 257.84 166.72 265.06 160 257.84 153.29 259.2 151.82 268 160 259.2 168.18"/><line class="cls-4" x1="424" y1="160" x2="459.83" y2="160"/><polygon class="cls-2" points="453.2 168.18 451.84 166.72 459.06 160 451.84 153.29 453.2 151.82 462 160 453.2 168.18"/><line class="cls-4" x1="618" y1="160" x2="653.83" y2="160"/><polygon class="cls-2" points="647.2 168.18 645.84 166.72 653.06 160 645.84 153.29 647.2 151.82 656 160 647.2 168.18"/><path class="cls-5" d="M710.46,85.41a83.56,83.56,0,0,1,81.88,144.81"/><polygon class="cls-6" points="719.77 90.45 720.46 88.57 711.2 85.18 715.25 76.19 713.42 75.37 708.49 86.32 719.77 90.45"/><path class="cls-5" d="M781.54,236.59A83.56,83.56,0,0,1,699.26,92.07"/><polygon class="cls-6" points="772.23 231.55 771.54 233.43 780.8 236.82 776.75 245.81 778.58 246.63 783.51 235.68 772.23 231.55"/><path class="cls-6" d="M692.67,141.41h2v8.4h-2Z"/><path class="cls-6" d="M702.34,144a2.86,2.86,0,0,1,.74,2.14v3.69h-1.87v-3.4a1.7,1.7,0,0,0-.34-1.15,1.24,1.24,0,0,0-1-.38,1.51,1.51,0,0,0-1.13.44,1.81,1.81,0,0,0-.42,1.3v3.19h-1.87v-6.45h1.79v.75a2.43,2.43,0,0,1,.92-.63,3.38,3.38,0,0,1,1.21-.22A2.66,2.66,0,0,1,702.34,144Z"/><path class="cls-6" d="M708.93,149.5a1.89,1.89,0,0,1-.67.31,3.36,3.36,0,0,1-.85.1,2.51,2.51,0,0,1-1.78-.59,2.25,2.25,0,0,1-.63-1.73v-2.65h-1V143.5h1v-1.57h1.87v1.57h1.61v1.44h-1.61v2.63a.89.89,0,0,0,.21.63.77.77,0,0,0,.59.22,1.21,1.21,0,0,0,.76-.24Z"/><path class="cls-6" d="M716.07,147.11h-4.88a1.51,1.51,0,0,0,.62.95,2.1,2.1,0,0,0,1.23.35,2.48,2.48,0,0,0,.89-.15,2.33,2.33,0,0,0,.73-.47l1,1.08a3.36,3.36,0,0,1-2.66,1,4.13,4.13,0,0,1-1.93-.43,3,3,0,0,1-1.3-1.18,3.26,3.26,0,0,1-.46-1.71,3.35,3.35,0,0,1,.45-1.71,3.15,3.15,0,0,1,1.24-1.19,3.56,3.56,0,0,1,1.76-.43,3.6,3.6,0,0,1,1.71.41,2.9,2.9,0,0,1,1.21,1.17,3.52,3.52,0,0,1,.44,1.77S716.1,146.8,716.07,147.11ZM711.69,145a1.5,1.5,0,0,0-.52,1h3.17a1.57,1.57,0,0,0-.52-1,1.6,1.6,0,0,0-1.06-.36A1.63,1.63,0,0,0,711.69,145Z"/><path class="cls-6" d="M720.05,143.5a3.38,3.38,0,0,1,1.32-.24V145l-.42,0a1.7,1.7,0,0,0-1.26.45,1.8,1.8,0,0,0-.46,1.35v3h-1.87v-6.45h1.79v.85A2.06,2.06,0,0,1,720.05,143.5Z"/><path class="cls-6" d="M727.35,144a2.7,2.7,0,0,1,.81,2.15v3.68h-1.75V149a2.1,2.1,0,0,1-2,.9,3,3,0,0,1-1.29-.25,1.89,1.89,0,0,1-.84-.7,1.81,1.81,0,0,1-.29-1,1.67,1.67,0,0,1,.68-1.41,3.42,3.42,0,0,1,2.1-.52h1.49a1.18,1.18,0,0,0-.38-.94,1.62,1.62,0,0,0-1.11-.33,3.2,3.2,0,0,0-1,.16,2.78,2.78,0,0,0-.84.44l-.67-1.31a3.84,3.84,0,0,1,1.26-.57,5.52,5.52,0,0,1,1.52-.21A3.32,3.32,0,0,1,727.35,144Zm-1.59,4.45a1.3,1.3,0,0,0,.53-.66v-.66H725c-.77,0-1.15.26-1.15.76a.67.67,0,0,0,.28.57,1.29,1.29,0,0,0,.78.21A1.61,1.61,0,0,0,725.76,148.43Z"/><path class="cls-6" d="M734,149.5a1.86,1.86,0,0,1-.68.31,3.28,3.28,0,0,1-.84.1,2.51,2.51,0,0,1-1.78-.59,2.25,2.25,0,0,1-.63-1.73v-2.65h-1V143.5h1v-1.57H732v1.57h1.61v1.44H732v2.63a.89.89,0,0,0,.21.63.77.77,0,0,0,.59.22,1.21,1.21,0,0,0,.76-.24Z"/><path class="cls-6" d="M735.17,142.16a1,1,0,0,1,0-1.49,1.16,1.16,0,0,1,.83-.3,1.25,1.25,0,0,1,.85.29.93.93,0,0,1,.32.72,1,1,0,0,1-.32.77,1.17,1.17,0,0,1-.85.31A1.16,1.16,0,0,1,735.17,142.16Zm-.1,1.2h1.87v6.45h-1.87Z"/><path class="cls-6" d="M745.09,143.36l-2.73,6.45h-1.93l-2.71-6.45h1.93l1.79,4.39,1.85-4.39Z"/><path class="cls-6" d="M752,147.11h-4.88a1.53,1.53,0,0,0,.63.95,2,2,0,0,0,1.22.35,2.44,2.44,0,0,0,.89-.15,2.33,2.33,0,0,0,.73-.47l1,1.08a3.34,3.34,0,0,1-2.66,1,4.13,4.13,0,0,1-1.93-.43,3.1,3.1,0,0,1-1.3-1.18,3.47,3.47,0,0,1,0-3.42,3.13,3.13,0,0,1,1.23-1.19,3.58,3.58,0,0,1,1.76-.43,3.67,3.67,0,0,1,1.72.41,2.94,2.94,0,0,1,1.2,1.17,3.42,3.42,0,0,1,.44,1.77S752,146.8,752,147.11ZM747.58,145a1.55,1.55,0,0,0-.52,1h3.18a1.58,1.58,0,0,0-.53-1,1.6,1.6,0,0,0-1.06-.36A1.63,1.63,0,0,0,747.58,145Z"/><path class="cls-6" d="M755.94,143.5a3.38,3.38,0,0,1,1.32-.24V145l-.42,0a1.7,1.7,0,0,0-1.26.45,1.8,1.8,0,0,0-.46,1.35v3h-1.87v-6.45H755v.85A2.06,2.06,0,0,1,755.94,143.5Z"/><path class="cls-6" d="M767.52,141.79a2.88,2.88,0,0,1,1.27,1.05,3.2,3.2,0,0,1,0,3.24,2.81,2.81,0,0,1-1.27,1,4.63,4.63,0,0,1-1.94.37h-1.69v2.31H762v-8.4h3.63A4.63,4.63,0,0,1,767.52,141.79Zm-.71,3.75a1.34,1.34,0,0,0,.45-1.08,1.33,1.33,0,0,0-.45-1.08,2,2,0,0,0-1.33-.38h-1.59v2.91h1.59A2.07,2.07,0,0,0,766.81,145.54Z"/><path class="cls-6" d="M773.17,143.5a3.38,3.38,0,0,1,1.32-.24V145l-.42,0a1.7,1.7,0,0,0-1.26.45,1.8,1.8,0,0,0-.46,1.35v3h-1.87v-6.45h1.79v.85A2.06,2.06,0,0,1,773.17,143.5Z"/><path class="cls-6" d="M776.79,149.48a3.08,3.08,0,0,1-1.27-1.18,3.26,3.26,0,0,1-.46-1.71,3.3,3.3,0,0,1,.46-1.72,3.15,3.15,0,0,1,1.27-1.18,3.8,3.8,0,0,1,1.83-.43,3.76,3.76,0,0,1,1.82.43,3.12,3.12,0,0,1,1.26,1.18,3.3,3.3,0,0,1,.46,1.72,3.26,3.26,0,0,1-.46,1.71,3.05,3.05,0,0,1-1.26,1.18,3.76,3.76,0,0,1-1.82.43A3.8,3.8,0,0,1,776.79,149.48Zm3-1.59a2.08,2.08,0,0,0,0-2.61,1.57,1.57,0,0,0-1.18-.48,1.59,1.59,0,0,0-1.19.48,2,2,0,0,0,0,2.61,1.59,1.59,0,0,0,1.19.48A1.57,1.57,0,0,0,779.8,147.89Z"/><path class="cls-6" d="M788.64,148.37v1.44h-5.76v-1.12l3.29-3.89H783v-1.44h5.57v1.13l-3.29,3.88Z"/><path class="cls-6" d="M796,147.11h-4.88a1.51,1.51,0,0,0,.62.95,2.1,2.1,0,0,0,1.23.35,2.48,2.48,0,0,0,.89-.15,2.18,2.18,0,0,0,.72-.47l1,1.08a3.37,3.37,0,0,1-2.66,1,4.1,4.1,0,0,1-1.93-.43,3,3,0,0,1-1.3-1.18,3.17,3.17,0,0,1-.46-1.71,3.26,3.26,0,0,1,.45-1.71,3.15,3.15,0,0,1,1.24-1.19,3.56,3.56,0,0,1,1.76-.43,3.6,3.6,0,0,1,1.71.41,2.9,2.9,0,0,1,1.21,1.17,3.52,3.52,0,0,1,.44,1.77S796.06,146.8,796,147.11ZM791.66,145a1.56,1.56,0,0,0-.53,1h3.18a1.57,1.57,0,0,0-.52-1,1.76,1.76,0,0,0-2.13,0Z"/><path class="cls-6" d="M797.92,149.71a4,4,0,0,1-1.22-.5l.62-1.34a4.47,4.47,0,0,0,2.25.62c.79,0,1.19-.19,1.19-.58a.42.42,0,0,0-.33-.4,4.43,4.43,0,0,0-1-.2,10,10,0,0,1-1.31-.28,2.11,2.11,0,0,1-.9-.55,1.59,1.59,0,0,1-.37-1.13,1.75,1.75,0,0,1,.35-1.09,2.29,2.29,0,0,1,1-.73,4.36,4.36,0,0,1,1.6-.27,6.39,6.39,0,0,1,1.37.15,3.74,3.74,0,0,1,1.12.42l-.62,1.33a3.75,3.75,0,0,0-1.87-.48,1.75,1.75,0,0,0-.89.17.5.5,0,0,0-.31.43.43.43,0,0,0,.33.42,6.62,6.62,0,0,0,1,.23,9.81,9.81,0,0,1,1.3.28,2,2,0,0,1,.87.54,1.57,1.57,0,0,1,.37,1.11,1.78,1.78,0,0,1-.35,1.07,2.32,2.32,0,0,1-1.06.72,4.68,4.68,0,0,1-1.63.26A6.45,6.45,0,0,1,797.92,149.71Z"/><path class="cls-6" d="M804.3,149.71a4.19,4.19,0,0,1-1.23-.5l.63-1.34a4,4,0,0,0,1,.45,4.24,4.24,0,0,0,1.2.17c.79,0,1.19-.19,1.19-.58a.42.42,0,0,0-.33-.4,4.31,4.31,0,0,0-1-.2,10,10,0,0,1-1.31-.28,2,2,0,0,1-.89-.55,1.59,1.59,0,0,1-.38-1.13,1.82,1.82,0,0,1,.35-1.09,2.27,2.27,0,0,1,1-.73,4.29,4.29,0,0,1,1.6-.27,6.3,6.3,0,0,1,1.36.15,3.74,3.74,0,0,1,1.12.42l-.62,1.33a3.74,3.74,0,0,0-1.86-.48,1.8,1.8,0,0,0-.9.17.48.48,0,0,0-.3.43.42.42,0,0,0,.32.42,6.62,6.62,0,0,0,1,.23,9.81,9.81,0,0,1,1.3.28,1.94,1.94,0,0,1,.87.54,1.57,1.57,0,0,1,.38,1.11,1.73,1.73,0,0,1-.36,1.07,2.29,2.29,0,0,1-1,.72,4.74,4.74,0,0,1-1.64.26A6.31,6.31,0,0,1,804.3,149.71Z"/><path class="cls-6" d="M692.58,163.19a.89.89,0,0,1-.26-.66.87.87,0,0,1,.26-.65.89.89,0,0,1,.64-.25.89.89,0,0,1,.9.9.89.89,0,0,1-.27.65.85.85,0,0,1-.63.27A.9.9,0,0,1,692.58,163.19Z"/><path class="cls-6" d="M705.16,158.18a2.9,2.9,0,0,1,0,4.22,3.81,3.81,0,0,1-2.52.76h-2.26v2.65h-.89v-8.4h3.15A3.81,3.81,0,0,1,705.16,158.18Zm-.64,3.66a2.16,2.16,0,0,0,0-3.11,2.9,2.9,0,0,0-1.91-.55h-2.23v4.2h2.23A3,3,0,0,0,704.52,161.84Z"/><path class="cls-6" d="M709.36,159.78a3,3,0,0,1,1.47-.33v.83h-.2a2,2,0,0,0-1.56.61,2.43,2.43,0,0,0-.57,1.72v3.21h-.85V159.5h.82v1.24A2,2,0,0,1,709.36,159.78Z"/><path class="cls-6" d="M713.24,165.46a3.1,3.1,0,0,1-1.15-1.15,3.24,3.24,0,0,1-.42-1.65,3.28,3.28,0,0,1,.42-1.66,3,3,0,0,1,1.15-1.14,3.36,3.36,0,0,1,1.65-.41,3.33,3.33,0,0,1,1.64.41,2.93,2.93,0,0,1,1.15,1.14,3.38,3.38,0,0,1,.41,1.66,3.34,3.34,0,0,1-.41,1.65,3,3,0,0,1-1.15,1.15,3.22,3.22,0,0,1-1.64.41A3.26,3.26,0,0,1,713.24,165.46Zm2.85-.65a2.07,2.07,0,0,0,.84-.87,2.66,2.66,0,0,0,.3-1.28,2.73,2.73,0,0,0-.3-1.29,2.2,2.2,0,0,0-.84-.87,2.38,2.38,0,0,0-1.2-.3,2.44,2.44,0,0,0-1.21.3,2.34,2.34,0,0,0-.84.87,2.73,2.73,0,0,0-.3,1.29,2.66,2.66,0,0,0,.3,1.28,2.2,2.2,0,0,0,.84.87,2.34,2.34,0,0,0,1.21.31A2.28,2.28,0,0,0,716.09,164.81Z"/><path class="cls-6" d="M723.16,165.43a1.73,1.73,0,0,1-.6.33,2.25,2.25,0,0,1-.74.11A1.67,1.67,0,0,1,720,164v-3.82h-1.13v-.72H720v-1.38h.85v1.38h1.92v.72h-1.92V164a1.19,1.19,0,0,0,.28.86,1.1,1.1,0,0,0,.81.29,1.7,1.7,0,0,0,.51-.08,1.49,1.49,0,0,0,.43-.24Z"/><path class="cls-6" d="M725.41,165.46a3,3,0,0,1-1.15-1.15,3.24,3.24,0,0,1-.42-1.65,3.28,3.28,0,0,1,.42-1.66,2.93,2.93,0,0,1,1.15-1.14,3.51,3.51,0,0,1,3.29,0,2.93,2.93,0,0,1,1.15,1.14,3.38,3.38,0,0,1,.41,1.66,3.34,3.34,0,0,1-.41,1.65,3,3,0,0,1-1.15,1.15,3.51,3.51,0,0,1-3.29,0Zm2.85-.65a2.07,2.07,0,0,0,.84-.87,2.66,2.66,0,0,0,.3-1.28,2.73,2.73,0,0,0-.3-1.29,2.2,2.2,0,0,0-.84-.87,2.4,2.4,0,0,0-1.2-.3,2.44,2.44,0,0,0-1.21.3,2.2,2.2,0,0,0-.84.87,2.73,2.73,0,0,0-.31,1.29,2.66,2.66,0,0,0,.31,1.28,2.07,2.07,0,0,0,.84.87,2.34,2.34,0,0,0,1.21.31A2.31,2.31,0,0,0,728.26,164.81Z"/><path class="cls-6" d="M735.32,165.43a1.68,1.68,0,0,1-.59.33,2.29,2.29,0,0,1-.74.11,1.86,1.86,0,0,1-1.37-.48,1.83,1.83,0,0,1-.48-1.35v-3.82H731v-.72h1.12v-1.38H733v1.38h1.92v.72H733V164a1.19,1.19,0,0,0,.28.86,1.1,1.1,0,0,0,.81.29,1.81,1.81,0,0,0,.51-.08,1.44,1.44,0,0,0,.42-.24Z"/><path class="cls-6" d="M742.06,159.5l-3.16,7.07a3,3,0,0,1-.89,1.26,2,2,0,0,1-1.21.37,2.61,2.61,0,0,1-.85-.14,2,2,0,0,1-.69-.43l.4-.64a1.56,1.56,0,0,0,1.15.48,1.15,1.15,0,0,0,.74-.24,2.24,2.24,0,0,0,.57-.82l.28-.61-2.82-6.3h.88l2.38,5.37,2.38-5.37Z"/><path class="cls-6" d="M748.12,159.86a2.77,2.77,0,0,1,1.12,1.13,3.28,3.28,0,0,1,.41,1.67,3.32,3.32,0,0,1-.41,1.68,2.83,2.83,0,0,1-1.12,1.13,3.18,3.18,0,0,1-1.61.4,3,3,0,0,1-1.39-.31,2.73,2.73,0,0,1-1-.93v3.51h-.85V159.5h.81v1.25a2.61,2.61,0,0,1,1-1,3,3,0,0,1,1.42-.34A3.24,3.24,0,0,1,748.12,159.86Zm-.47,4.95a2.07,2.07,0,0,0,.84-.87,2.8,2.8,0,0,0,0-2.56,2.2,2.2,0,0,0-.84-.87,2.34,2.34,0,0,0-3.25.87,2.88,2.88,0,0,0,0,2.56,2.2,2.2,0,0,0,.84.87,2.5,2.5,0,0,0,2.41,0Z"/><path class="cls-6" d="M751.38,157.94a.58.58,0,0,1-.18-.43.58.58,0,0,1,.18-.42.6.6,0,0,1,.44-.18.64.64,0,0,1,.45.17.58.58,0,0,1,.18.42.6.6,0,0,1-.18.44.61.61,0,0,1-.45.18A.6.6,0,0,1,751.38,157.94Zm0,1.56h.85v6.31h-.85Z"/><path class="cls-6" d="M759.73,160.14a2.69,2.69,0,0,1,.7,2v3.66h-.85v-3.57a2.07,2.07,0,0,0-.5-1.5,1.8,1.8,0,0,0-1.4-.52,2.12,2.12,0,0,0-1.61.61,2.26,2.26,0,0,0-.6,1.67v3.31h-.85V159.5h.82v1.17a2.32,2.32,0,0,1,1-.9,3.12,3.12,0,0,1,1.44-.32A2.59,2.59,0,0,1,759.73,160.14Z"/><path class="cls-6" d="M768.61,159.5v5.55a3.23,3.23,0,0,1-.78,2.38,3.3,3.3,0,0,1-2.37.77,5.12,5.12,0,0,1-1.67-.26,3.37,3.37,0,0,1-1.27-.71l.43-.65a3.18,3.18,0,0,0,1.11.64,4.15,4.15,0,0,0,1.37.23,2.46,2.46,0,0,0,1.77-.56,2.38,2.38,0,0,0,.56-1.74v-.8a2.54,2.54,0,0,1-1,.91,3.18,3.18,0,0,1-1.42.31,3.33,3.33,0,0,1-1.61-.39,2.79,2.79,0,0,1-1.14-1.09,3,3,0,0,1-.42-1.59,3,3,0,0,1,.42-1.58,2.73,2.73,0,0,1,1.13-1.08,3.35,3.35,0,0,1,1.62-.39,3.13,3.13,0,0,1,1.45.33,2.69,2.69,0,0,1,1,.93V159.5Zm-2,5a2.12,2.12,0,0,0,.86-.82,2.38,2.38,0,0,0,.3-1.2,2.34,2.34,0,0,0-.3-1.19,2.23,2.23,0,0,0-.85-.82,2.68,2.68,0,0,0-1.25-.29,2.54,2.54,0,0,0-1.23.29,2.14,2.14,0,0,0-.85.81,2.55,2.55,0,0,0,0,2.4,2.16,2.16,0,0,0,.85.82,2.69,2.69,0,0,0,2.47,0Z"/><path class="cls-6" d="M692.58,177.59a.89.89,0,0,1-.26-.66.87.87,0,0,1,.26-.65.89.89,0,0,1,.64-.25.89.89,0,0,1,.9.9.89.89,0,0,1-.27.65.85.85,0,0,1-.63.27A.9.9,0,0,1,692.58,177.59Z"/><path class="cls-6" d="M705.41,176h.85v3.21a4.13,4.13,0,0,1-1.39.79,5.3,5.3,0,0,1-1.69.28,4.63,4.63,0,0,1-2.27-.56,3.94,3.94,0,0,1-1.58-1.53,4.17,4.17,0,0,1-.58-2.19,4.22,4.22,0,0,1,.58-2.19,4.08,4.08,0,0,1,1.58-1.53,5.06,5.06,0,0,1,4-.24,3.45,3.45,0,0,1,1.36.9l-.55.57a3.45,3.45,0,0,0-2.53-1,3.78,3.78,0,0,0-1.85.45,3.3,3.3,0,0,0-1.29,1.25,3.61,3.61,0,0,0,0,3.56,3.37,3.37,0,0,0,1.29,1.25,4,4,0,0,0,4-.19Z"/><path class="cls-6" d="M710.3,174.18a3,3,0,0,1,1.47-.33v.83h-.21a2,2,0,0,0-1.56.61,2.47,2.47,0,0,0-.56,1.72v3.21h-.85V173.9h.81v1.24A2,2,0,0,1,710.3,174.18Z"/><path class="cls-6" d="M717.4,174.47a2.38,2.38,0,0,1,.66,1.83v3.91h-.82v-1a1.94,1.94,0,0,1-.85.77,3,3,0,0,1-1.32.27,2.55,2.55,0,0,1-1.68-.5,1.72,1.72,0,0,1,0-2.63,2.81,2.81,0,0,1,1.85-.49h2v-.38a1.65,1.65,0,0,0-.45-1.25,1.91,1.91,0,0,0-1.33-.42,3.26,3.26,0,0,0-1.16.2,2.89,2.89,0,0,0-.94.54l-.39-.63a3.21,3.21,0,0,1,1.15-.63,4.45,4.45,0,0,1,1.42-.23A2.7,2.7,0,0,1,717.4,174.47Zm-1,4.8a2,2,0,0,0,.76-1v-1h-2c-1.08,0-1.62.37-1.62,1.12a1,1,0,0,0,.42.87,1.88,1.88,0,0,0,1.18.32A2.27,2.27,0,0,0,716.44,179.27Z"/><path class="cls-6" d="M721.63,172.27a1.25,1.25,0,0,0-.29.89v.74h1.95v.72h-1.92v5.59h-.85v-5.59h-1.13v-.72h1.13v-.78a1.89,1.89,0,0,1,.49-1.37,1.94,1.94,0,0,1,1.41-.5,2.32,2.32,0,0,1,.7.1,1.58,1.58,0,0,1,.56.3l-.28.63a1.4,1.4,0,0,0-.94-.31A1.07,1.07,0,0,0,721.63,172.27Zm3.76.07a.58.58,0,0,1-.18-.43.58.58,0,0,1,.18-.42.6.6,0,0,1,.44-.18.64.64,0,0,1,.45.17.58.58,0,0,1,.18.42.6.6,0,0,1-.18.44.61.61,0,0,1-.45.18A.6.6,0,0,1,725.39,172.34Zm0,1.56h.85v6.31h-.85Z"/><path class="cls-6" d="M728.85,180.05a3.14,3.14,0,0,1-1.1-.56l.39-.67a3.07,3.07,0,0,0,1,.51,4,4,0,0,0,1.25.2,2.39,2.39,0,0,0,1.28-.27.86.86,0,0,0,.41-.76.67.67,0,0,0-.23-.55,1.54,1.54,0,0,0-.57-.3,8.84,8.84,0,0,0-.93-.2,9.46,9.46,0,0,1-1.23-.29,1.83,1.83,0,0,1-.8-.51,1.42,1.42,0,0,1-.33-1,1.55,1.55,0,0,1,.66-1.29,2.94,2.94,0,0,1,1.84-.51,4.72,4.72,0,0,1,1.22.17,3.37,3.37,0,0,1,1,.42l-.37.69a3.19,3.19,0,0,0-1.86-.54,2.15,2.15,0,0,0-1.23.28.9.9,0,0,0-.42.76.75.75,0,0,0,.24.58,1.35,1.35,0,0,0,.58.31,8.23,8.23,0,0,0,1,.21c.5.1.91.2,1.21.29a1.88,1.88,0,0,1,.78.49,1.36,1.36,0,0,1,.32,1,1.53,1.53,0,0,1-.69,1.32,3.29,3.29,0,0,1-1.91.48A4.8,4.8,0,0,1,728.85,180.05Z"/><path class="cls-6" d="M735.44,179.87a3.05,3.05,0,0,1-1.16-1.15,3.49,3.49,0,0,1,0-3.32,3,3,0,0,1,1.16-1.14,3.41,3.41,0,0,1,1.67-.41,3.27,3.27,0,0,1,1.46.32,2.33,2.33,0,0,1,1,.93l-.63.43a2,2,0,0,0-.79-.7,2.45,2.45,0,0,0-1-.23,2.54,2.54,0,0,0-1.23.3,2.22,2.22,0,0,0-.85.87,2.73,2.73,0,0,0-.31,1.29,2.67,2.67,0,0,0,.31,1.29,2.13,2.13,0,0,0,.85.86,2.56,2.56,0,0,0,2.28.08,1.89,1.89,0,0,0,.79-.7l.63.44a2.42,2.42,0,0,1-1,.93,3.25,3.25,0,0,1-1.45.31A3.41,3.41,0,0,1,735.44,179.87Z"/><path class="cls-6" d="M746.26,174.54a2.69,2.69,0,0,1,.7,2v3.66h-.85v-3.57a2.07,2.07,0,0,0-.49-1.5,1.83,1.83,0,0,0-1.4-.52,2.16,2.16,0,0,0-1.62.61,2.3,2.3,0,0,0-.59,1.67v3.31h-.85v-8.9H742V175a2.29,2.29,0,0,1,1-.86,3.13,3.13,0,0,1,1.4-.3A2.59,2.59,0,0,1,746.26,174.54Z"/><path class="cls-6" d="M754.8,177.32h-5.28a2.24,2.24,0,0,0,.76,1.59,2.46,2.46,0,0,0,1.72.61,2.67,2.67,0,0,0,1.08-.21,2.4,2.4,0,0,0,.86-.62l.48.55a2.71,2.71,0,0,1-1,.77,3.51,3.51,0,0,1-1.39.26,3.45,3.45,0,0,1-1.72-.41,3,3,0,0,1-1.17-1.15,3.24,3.24,0,0,1-.42-1.65,3.37,3.37,0,0,1,.4-1.66,2.94,2.94,0,0,1,1.1-1.14,3.13,3.13,0,0,1,1.58-.41,3,3,0,0,1,1.57.41,2.87,2.87,0,0,1,1.1,1.14,3.42,3.42,0,0,1,.39,1.66Zm-4.58-2.15a2.31,2.31,0,0,0-.7,1.52H754a2.27,2.27,0,0,0-.71-1.52,2.32,2.32,0,0,0-3.07,0Z"/><path class="cls-6" d="M756.77,180.05a3.09,3.09,0,0,1-1.09-.56l.38-.67a3.13,3.13,0,0,0,1,.51,4,4,0,0,0,1.24.2,2.37,2.37,0,0,0,1.28-.27.85.85,0,0,0,.42-.76.7.7,0,0,0-.23-.55,1.59,1.59,0,0,0-.58-.3,9.15,9.15,0,0,0-.92-.2,9.66,9.66,0,0,1-1.24-.29,1.83,1.83,0,0,1-.8-.51,1.42,1.42,0,0,1-.33-1,1.55,1.55,0,0,1,.66-1.29,3,3,0,0,1,1.84-.51,4.6,4.6,0,0,1,1.22.17,3.27,3.27,0,0,1,1,.42l-.37.69a3.19,3.19,0,0,0-1.86-.54,2.2,2.2,0,0,0-1.23.28.89.89,0,0,0-.41.76.75.75,0,0,0,.23.58,1.41,1.41,0,0,0,.58.31,8.23,8.23,0,0,0,1,.21c.51.1.91.2,1.21.29a1.76,1.76,0,0,1,.78.49,1.37,1.37,0,0,1,.33,1,1.53,1.53,0,0,1-.69,1.32,3.32,3.32,0,0,1-1.92.48A4.8,4.8,0,0,1,756.77,180.05Z"/><path class="cls-6" d="M768.35,176.27,766.63,178v2.2h-.89v-8.4h.89v5.08l4.93-5.08h1L769,175.62l3.89,4.59h-1.06Z"/><path class="cls-6" d="M774.74,179.86a3.1,3.1,0,0,1-1.15-1.15,3.24,3.24,0,0,1-.42-1.65,3.28,3.28,0,0,1,.42-1.66,3,3,0,0,1,1.15-1.14,3.36,3.36,0,0,1,1.65-.41,3.33,3.33,0,0,1,1.64.41,2.93,2.93,0,0,1,1.15,1.14,3.38,3.38,0,0,1,.41,1.66,3.34,3.34,0,0,1-.41,1.65,3,3,0,0,1-1.15,1.15,3.22,3.22,0,0,1-1.64.41A3.26,3.26,0,0,1,774.74,179.86Zm2.85-.65a2.07,2.07,0,0,0,.84-.87,2.66,2.66,0,0,0,.3-1.28,2.73,2.73,0,0,0-.3-1.29,2.2,2.2,0,0,0-.84-.87,2.38,2.38,0,0,0-1.2-.3,2.44,2.44,0,0,0-1.21.3,2.34,2.34,0,0,0-.84.87,2.73,2.73,0,0,0-.3,1.29,2.66,2.66,0,0,0,.3,1.28,2.2,2.2,0,0,0,.84.87,2.34,2.34,0,0,0,1.21.31A2.28,2.28,0,0,0,777.59,179.21Z"/><path class="cls-6" d="M786.44,174.54a2.69,2.69,0,0,1,.7,2v3.66h-.85v-3.57a2.11,2.11,0,0,0-.49-1.5,1.84,1.84,0,0,0-1.41-.52,2.12,2.12,0,0,0-1.61.61,2.26,2.26,0,0,0-.6,1.67v3.31h-.85V173.9h.82v1.17a2.32,2.32,0,0,1,1-.9,3.15,3.15,0,0,1,1.44-.32A2.59,2.59,0,0,1,786.44,174.54Z"/><path class="cls-6" d="M793.91,179.51v.7h-5.14v-.56l4-5h-3.9v-.72h5v.57l-4,5Z"/><path class="cls-6" d="M801,177.32H795.7a2.23,2.23,0,0,0,.75,1.59,2.49,2.49,0,0,0,1.73.61,2.74,2.74,0,0,0,1.08-.21,2.36,2.36,0,0,0,.85-.62l.48.55a2.71,2.71,0,0,1-1.05.77,3.83,3.83,0,0,1-3.11-.15,3,3,0,0,1-1.17-1.15,3.24,3.24,0,0,1-.42-1.65,3.38,3.38,0,0,1,.41-1.66,2.81,2.81,0,0,1,1.1-1.14,3.1,3.1,0,0,1,1.58-.41,3.06,3.06,0,0,1,1.57.41,2.85,2.85,0,0,1,1.09,1.14,3.32,3.32,0,0,1,.4,1.66Zm-4.58-2.15a2.26,2.26,0,0,0-.7,1.52h4.47a2.26,2.26,0,0,0-.7-1.52,2.15,2.15,0,0,0-1.54-.58A2.13,2.13,0,0,0,796.4,175.17Z"/><path class="cls-6" d="M807.59,174.26a2.86,2.86,0,0,1,1.13,1.13,3.38,3.38,0,0,1,.4,1.67,3.42,3.42,0,0,1-.4,1.68,2.92,2.92,0,0,1-1.13,1.13,3.18,3.18,0,0,1-1.61.4,3.05,3.05,0,0,1-1.39-.31,2.73,2.73,0,0,1-1-.93v3.51h-.85V173.9h.81v1.25a2.61,2.61,0,0,1,1-1,3,3,0,0,1,1.42-.34A3.24,3.24,0,0,1,807.59,174.26Zm-.47,5a2.16,2.16,0,0,0,.85-.87,2.88,2.88,0,0,0,0-2.56,2.29,2.29,0,0,0-.85-.87,2.34,2.34,0,0,0-3.25.87,2.88,2.88,0,0,0,0,2.56,2.2,2.2,0,0,0,.84.87,2.5,2.5,0,0,0,2.41,0Z"/><path class="cls-6" d="M814.19,179.83a1.73,1.73,0,0,1-.6.33,2.23,2.23,0,0,1-.73.11,1.67,1.67,0,0,1-1.85-1.83v-3.82h-1.13v-.72H811v-1.38h.85v1.38h1.92v.72h-1.92v3.77a1.19,1.19,0,0,0,.28.86,1.1,1.1,0,0,0,.81.29,1.7,1.7,0,0,0,.51-.08,1.49,1.49,0,0,0,.43-.24Z"/><path class="cls-6" d="M692.58,192a.89.89,0,0,1-.26-.66.87.87,0,0,1,.26-.65.89.89,0,0,1,.64-.25.89.89,0,0,1,.9.9.89.89,0,0,1-.27.65.85.85,0,0,1-.63.27A.9.9,0,0,1,692.58,192Z"/><path class="cls-6" d="M699.73,194.4a12.54,12.54,0,0,1-.36-3.07,12.71,12.71,0,0,1,.36-3.09,8.66,8.66,0,0,1,1-2.53h.81a9.63,9.63,0,0,0-1,2.6,13.94,13.94,0,0,0,0,6,9.5,9.5,0,0,0,1,2.6h-.81A9,9,0,0,1,699.73,194.4Z"/><path class="cls-6" d="M709.1,187a2.88,2.88,0,0,1,0,4.22,3.77,3.77,0,0,1-2.52.76h-2.25v2.65h-.89v-8.4h3.14A3.78,3.78,0,0,1,709.1,187Zm-.63,3.66a2.16,2.16,0,0,0,0-3.11,2.9,2.9,0,0,0-1.91-.55h-2.23v4.2h2.23A3,3,0,0,0,708.47,190.64Z"/><path class="cls-6" d="M713.31,188.58a3,3,0,0,1,1.47-.33v.83h-.2a2,2,0,0,0-1.56.61,2.43,2.43,0,0,0-.57,1.72v3.21h-.85V188.3h.82v1.24A2,2,0,0,1,713.31,188.58Z"/><path class="cls-6" d="M717.19,194.26a3,3,0,0,1-1.15-1.15,3.24,3.24,0,0,1-.42-1.65,3.28,3.28,0,0,1,.42-1.66,2.93,2.93,0,0,1,1.15-1.14,3.51,3.51,0,0,1,3.29,0,2.93,2.93,0,0,1,1.15,1.14,3.38,3.38,0,0,1,.41,1.66,3.34,3.34,0,0,1-.41,1.65,3,3,0,0,1-1.15,1.15,3.51,3.51,0,0,1-3.29,0Zm2.85-.65a2.07,2.07,0,0,0,.84-.87,2.66,2.66,0,0,0,.3-1.28,2.73,2.73,0,0,0-.3-1.29,2.2,2.2,0,0,0-.84-.87,2.4,2.4,0,0,0-1.2-.3,2.44,2.44,0,0,0-1.21.3,2.2,2.2,0,0,0-.84.87,2.73,2.73,0,0,0-.31,1.29,2.66,2.66,0,0,0,.31,1.28,2.07,2.07,0,0,0,.84.87,2.34,2.34,0,0,0,1.21.31A2.31,2.31,0,0,0,720,193.61Z"/><path class="cls-6" d="M729.62,188.3v5.55a3.23,3.23,0,0,1-.78,2.38,3.3,3.3,0,0,1-2.37.77,5,5,0,0,1-1.66-.26,3.42,3.42,0,0,1-1.28-.71l.43-.65a3.18,3.18,0,0,0,1.11.64,4.19,4.19,0,0,0,1.37.23,2.46,2.46,0,0,0,1.77-.56,2.38,2.38,0,0,0,.56-1.74v-.8a2.54,2.54,0,0,1-1,.91,3.15,3.15,0,0,1-1.42.31,3.33,3.33,0,0,1-1.61-.39,2.79,2.79,0,0,1-1.14-1.09,3,3,0,0,1-.42-1.59,3,3,0,0,1,.42-1.58,2.73,2.73,0,0,1,1.13-1.08,3.35,3.35,0,0,1,1.62-.39,3.13,3.13,0,0,1,1.45.33,2.62,2.62,0,0,1,1,.93V188.3Zm-2,5a2.06,2.06,0,0,0,.86-.82,2.38,2.38,0,0,0,.31-1.2,2.34,2.34,0,0,0-.31-1.19,2.16,2.16,0,0,0-.85-.82,2.67,2.67,0,0,0-1.24-.29,2.48,2.48,0,0,0-1.23.29,2.1,2.1,0,0,0-.86.81,2.55,2.55,0,0,0,0,2.4,2.12,2.12,0,0,0,.86.82,2.49,2.49,0,0,0,1.23.3A2.54,2.54,0,0,0,727.63,193.32Z"/><path class="cls-6" d="M733.72,188.58a3,3,0,0,1,1.47-.33v.83H735a2,2,0,0,0-1.56.61,2.43,2.43,0,0,0-.57,1.72v3.21H732V188.3h.82v1.24A2,2,0,0,1,733.72,188.58Z"/><path class="cls-6" d="M740.82,188.87a2.38,2.38,0,0,1,.66,1.83v3.91h-.82v-1a2,2,0,0,1-.84.77,3,3,0,0,1-1.33.27,2.59,2.59,0,0,1-1.68-.5,1.65,1.65,0,0,1-.62-1.33,1.61,1.61,0,0,1,.58-1.3,2.84,2.84,0,0,1,1.85-.49h2v-.38a1.62,1.62,0,0,0-.46-1.25,1.9,1.9,0,0,0-1.33-.42,3.2,3.2,0,0,0-1.15.2,2.84,2.84,0,0,0-1,.54l-.38-.63a3.13,3.13,0,0,1,1.15-.63,4.43,4.43,0,0,1,1.41-.23A2.68,2.68,0,0,1,740.82,188.87Zm-1,4.8a2,2,0,0,0,.77-.95v-1h-2c-1.08,0-1.62.37-1.62,1.12a1,1,0,0,0,.42.87,1.85,1.85,0,0,0,1.17.32A2.25,2.25,0,0,0,739.86,193.67Z"/><path class="cls-6" d="M753.53,188.94a2.7,2.7,0,0,1,.68,2v3.66h-.85V191a2.16,2.16,0,0,0-.47-1.5,1.73,1.73,0,0,0-1.34-.52,2,2,0,0,0-1.55.61,2.33,2.33,0,0,0-.56,1.67v3.31h-.86V191a2.11,2.11,0,0,0-.47-1.5,1.73,1.73,0,0,0-1.35-.52,2,2,0,0,0-1.54.61,2.33,2.33,0,0,0-.57,1.67v3.31h-.85V188.3h.81v1.15a2.28,2.28,0,0,1,.94-.88,2.93,2.93,0,0,1,1.38-.32,2.73,2.73,0,0,1,1.37.34,2,2,0,0,1,.87,1,2.42,2.42,0,0,1,1-1,3.08,3.08,0,0,1,1.5-.36A2.48,2.48,0,0,1,753.53,188.94Z"/><path class="cls-6" d="M766.27,188.94a2.74,2.74,0,0,1,.67,2v3.66h-.85V191a2.16,2.16,0,0,0-.47-1.5,1.71,1.71,0,0,0-1.34-.52,2,2,0,0,0-1.55.61,2.37,2.37,0,0,0-.56,1.67v3.31h-.85V191a2.11,2.11,0,0,0-.48-1.5,1.71,1.71,0,0,0-1.35-.52,2,2,0,0,0-1.54.61,2.33,2.33,0,0,0-.57,1.67v3.31h-.85V188.3h.81v1.15a2.28,2.28,0,0,1,.94-.88,2.93,2.93,0,0,1,1.38-.32,2.7,2.7,0,0,1,1.37.34,2,2,0,0,1,.87,1,2.45,2.45,0,0,1,1-1,3,3,0,0,1,1.49-.36A2.52,2.52,0,0,1,766.27,188.94Z"/><path class="cls-6" d="M769.25,186.74a.58.58,0,0,1-.18-.43.58.58,0,0,1,.18-.42.6.6,0,0,1,.44-.18.64.64,0,0,1,.45.17.58.58,0,0,1,.18.42.6.6,0,0,1-.18.44.61.61,0,0,1-.45.18A.6.6,0,0,1,769.25,186.74Zm0,1.56h.85v6.31h-.85Z"/><path class="cls-6" d="M778,191.72H772.7a2.24,2.24,0,0,0,.76,1.59,2.49,2.49,0,0,0,1.73.61,2.74,2.74,0,0,0,1.08-.21,2.36,2.36,0,0,0,.85-.62l.48.55a2.71,2.71,0,0,1-1.05.77,3.83,3.83,0,0,1-3.11-.15,3,3,0,0,1-1.17-1.15,3.24,3.24,0,0,1-.42-1.65,3.48,3.48,0,0,1,.4-1.66,2.9,2.9,0,0,1,1.11-1.14,3.23,3.23,0,0,1,3.15,0,2.85,2.85,0,0,1,1.09,1.14,3.43,3.43,0,0,1,.4,1.66Zm-4.57-2.15a2.27,2.27,0,0,0-.71,1.52h4.48a2.31,2.31,0,0,0-.7-1.52,2.15,2.15,0,0,0-1.54-.58A2.13,2.13,0,0,0,773.41,189.57Z"/><path class="cls-6" d="M781.45,188.58a3,3,0,0,1,1.47-.33v.83h-.21a2,2,0,0,0-1.56.61,2.47,2.47,0,0,0-.56,1.72v3.21h-.85V188.3h.81v1.24A2,2,0,0,1,781.45,188.58Z"/><path class="cls-6" d="M790.24,188.3v6.31h-.82v-1.15a2.34,2.34,0,0,1-.92.9,2.83,2.83,0,0,1-1.35.31,2.44,2.44,0,0,1-2.66-2.71V188.3h.85v3.58a2.1,2.1,0,0,0,.49,1.51,1.88,1.88,0,0,0,1.41.52,2.09,2.09,0,0,0,1.57-.61,2.37,2.37,0,0,0,.57-1.69V188.3Z"/><path class="cls-6" d="M797.73,188.94a2.69,2.69,0,0,1,.7,2v3.66h-.85V191a2.07,2.07,0,0,0-.49-1.5,1.84,1.84,0,0,0-1.41-.52,2.12,2.12,0,0,0-1.61.61,2.26,2.26,0,0,0-.59,1.67v3.31h-.86V188.3h.82v1.17a2.28,2.28,0,0,1,1-.9,3.08,3.08,0,0,1,1.43-.32A2.59,2.59,0,0,1,797.73,188.94Z"/><path class="cls-6" d="M806.62,188.3v5.55a2.77,2.77,0,0,1-3.16,3.15,5.06,5.06,0,0,1-1.66-.26,3.42,3.42,0,0,1-1.28-.71l.43-.65a3.27,3.27,0,0,0,1.11.64,4.25,4.25,0,0,0,1.38.23,2.43,2.43,0,0,0,1.76-.56,2.33,2.33,0,0,0,.56-1.74v-.8a2.58,2.58,0,0,1-1,.91,3.22,3.22,0,0,1-1.43.31,3.33,3.33,0,0,1-1.61-.39,2.91,2.91,0,0,1-1.14-1.09,3,3,0,0,1-.42-1.59,3,3,0,0,1,.42-1.58,2.8,2.8,0,0,1,1.13-1.08,3.35,3.35,0,0,1,1.62-.39,3.2,3.2,0,0,1,1.46.33,2.59,2.59,0,0,1,1,.93V188.3Zm-2,5a2.06,2.06,0,0,0,.86-.82,2.28,2.28,0,0,0,.31-1.2,2.25,2.25,0,0,0-.31-1.19,2.16,2.16,0,0,0-.85-.82,2.64,2.64,0,0,0-1.24-.29,2.48,2.48,0,0,0-1.23.29,2,2,0,0,0-.85.81,2.48,2.48,0,0,0,0,2.4,2,2,0,0,0,.85.82,2.49,2.49,0,0,0,1.23.3A2.52,2.52,0,0,0,804.62,193.32Z"/><path class="cls-6" d="M808.29,196.94a9.22,9.22,0,0,0,1.05-2.6,13.54,13.54,0,0,0,0-6,9.22,9.22,0,0,0-1.05-2.6h.82a8.66,8.66,0,0,1,1,2.53,13.22,13.22,0,0,1,0,6.17,8.63,8.63,0,0,1-1,2.53Z"/></svg>