<?xml version="1.0" encoding="UTF-8"?>
<svg width="1152px" height="298px" viewBox="0 0 1152 298" version="1.1" xmlns="http://www.w3.org/2000/svg" xmlns:xlink="http://www.w3.org/1999/xlink">
    <!-- Generator: Sketch 60.1 (88133) - https://sketch.com -->
    <title>header</title>
    <desc>Created with Sketch.</desc>
    <defs>
        <linearGradient x1="0%" y1="48.4525034%" x2="101.999998%" y2="51.5784465%" id="linearGradient-1">
            <stop stop-color="#233DAF" offset="0%"></stop>
            <stop stop-color="#6DA7D7" offset="100%"></stop>
        </linearGradient>
        <linearGradient x1="50%" y1="0%" x2="50%" y2="100%" id="linearGradient-2">
            <stop stop-color="#F13D79" offset="0%"></stop>
            <stop stop-color="#F76B1C" offset="100%"></stop>
        </linearGradient>
        <linearGradient x1="50%" y1="0%" x2="50%" y2="100%" id="linearGradient-3">
            <stop stop-color="#F2F5AF" offset="0%"></stop>
            <stop stop-color="#41F5AE" offset="100%"></stop>
        </linearGradient>
        <filter x="-51.7%" y="-51.7%" width="203.4%" height="203.4%" filterUnits="objectBoundingBox" id="filter-4">
            <feGaussianBlur stdDeviation="20" in="SourceGraphic"></feGaussianBlur>
        </filter>
        <filter x="-51.7%" y="-51.7%" width="203.4%" height="203.4%" filterUnits="objectBoundingBox" id="filter-5">
            <feGaussianBlur stdDeviation="20" in="SourceGraphic"></feGaussianBlur>
        </filter>
    </defs>
    <g id="header" stroke="none" stroke-width="1" fill="none" fill-rule="evenodd">
        <path d="M196,168.59292 C262.902743,114.781947 334.765164,113.184562 411.587262,163.800767 C488.40936,214.416972 560.546939,216.014357 628,168.59292 L196,168.59292 Z" id="Path" fill="url(#linearGradient-1)" style="mix-blend-mode: lighten;"></path>
        <path d="M50,169.105877 C95.5530438,166.922211 123.886377,162.585022 135,156.09431 C212.516349,110.822278 245.634854,99.0267736 301.301261,169.105877 C368.939118,254.255983 435.522752,254.255983 501.052161,169.105877 C618.021884,10.298041 729.762363,10.298041 836.273599,169.105877 C934.782777,315.982675 908,219.150363 1004,185.120112 C1020.82096,179.15739 1053.48762,173.819312 1102,169.105877 L50,169.105877 Z" id="Path-2" fill="url(#linearGradient-2)" style="mix-blend-mode: lighten;"></path>
        <path d="M50,156.722229 C76.3164743,156.545153 96.3164743,153.880686 110,148.728829 C179,122.750279 217.25979,139.363284 254,156.722229 C340,197.355345 433.666667,197.688403 535,157.721404 C623,109.094887 681.333333,108.761829 710,156.722229 C733.817913,196.570482 809.752463,226.2883 919.791571,185.410147 C964.871752,168.663423 1025.60789,159.100784 1102,156.722229 L50,156.722229 Z" id="Path-3" fill="url(#linearGradient-3)" style="mix-blend-mode: lighten;" transform="translate(576.000000, 163.000000) scale(1, -1) translate(-576.000000, -163.000000) "></path>
        <circle id="Oval" fill="#FFFFFF" filter="url(#filter-4)" cx="50" cy="170" r="58"></circle>
        <circle id="Oval" fill="#FFFFFF" filter="url(#filter-5)" cx="1106" cy="171" r="58"></circle>
    </g>
</svg>