<?xml version="1.0" encoding="UTF-8"?>
<svg width="1152px" height="266px" viewBox="0 0 1152 266" version="1.1" xmlns="http://www.w3.org/2000/svg" xmlns:xlink="http://www.w3.org/1999/xlink">
    <!-- Generator: Sketch 60.1 (88133) - https://sketch.com -->
    <title>hn-6</title>
    <desc>Created with Sketch.</desc>
    <defs>
        <linearGradient x1="0.960208007%" y1="47.3651885%" x2="101.811635%" y2="52.7295844%" id="linearGradient-1">
            <stop stop-color="#FFFBFD" offset="0%"></stop>
            <stop stop-color="#F5F8FF" offset="99.9076225%"></stop>
        </linearGradient>
        <linearGradient x1="45.5%" y1="0%" x2="54.6799998%" y2="100.999999%" id="linearGradient-2">
            <stop stop-color="#3023AE" offset="0%"></stop>
            <stop stop-color="#C86DD7" offset="100%"></stop>
        </linearGradient>
        <linearGradient x1="48.875%" y1="0%" x2="51.17%" y2="100.999999%" id="linearGradient-3">
            <stop stop-color="#3023AE" offset="0%"></stop>
            <stop stop-color="#C86DD7" offset="100%"></stop>
        </linearGradient>
        <linearGradient x1="49.5%" y1="0%" x2="50.52%" y2="100.999999%" id="linearGradient-4">
            <stop stop-color="#3023AE" offset="0%"></stop>
            <stop stop-color="#C86DD7" offset="100%"></stop>
        </linearGradient>
        <linearGradient x1="50%" y1="0%" x2="50%" y2="100%" id="linearGradient-5">
            <stop stop-color="#FFFFFF" offset="0%"></stop>
            <stop stop-color="#D4D4D4" offset="50.2692145%"></stop>
            <stop stop-color="#D4D4D4" offset="100%"></stop>
        </linearGradient>
    </defs>
    <g id="hn-6" stroke="none" stroke-width="1" fill="none" fill-rule="evenodd">
        <rect id="Rectangle-Copy-7" fill="url(#linearGradient-1)" x="0" y="0" width="1152" height="267" rx="3"></rect>
        <rect id="Rectangle" fill="url(#linearGradient-2)" x="1039" y="59.75" width="3" height="10" rx="1.5"></rect>
        <rect id="Rectangle-Copy-4" fill="url(#linearGradient-2)" x="1079" y="59.75" width="3" height="10" rx="1.5"></rect>
        <rect id="Rectangle-Copy-6" fill="url(#linearGradient-2)" x="1099" y="59.75" width="3" height="10" rx="1.5"></rect>
        <rect id="Rectangle-Copy" fill="url(#linearGradient-3)" x="1049" y="55.25" width="3" height="20" rx="1.5"></rect>
        <rect id="Rectangle-Copy-5" fill="url(#linearGradient-3)" x="1089" y="55.25" width="3" height="20" rx="1.5"></rect>
        <rect id="Rectangle-Copy-3" fill="url(#linearGradient-3)" x="1069" y="55.25" width="3" height="20" rx="1.5"></rect>
        <rect id="Rectangle-Copy-2" fill="url(#linearGradient-4)" x="1059" y="50" width="3" height="30" rx="1.5"></rect>
        <path d="M761.798288,132.593751 L760.021301,128.656255 L763.102264,124.744327 L761.77272,124.744327 L758.551132,128.579551 L758.525564,128.707391 L758.538348,128.707391 L758.525564,128.758528 L760.468744,132.593751 L761.798288,132.593751 Z M758.525564,132.593751 L756.748577,128.656255 L759.82954,124.744327 L758.499996,124.744327 L755.278408,128.579551 L755.25284,128.707391 L755.265624,128.707391 L755.25284,128.758528 L757.19602,132.593751 L758.525564,132.593751 Z M765.98718,134 L768.160473,120.909103 L766.575247,120.909103 L764.401954,134 L765.98718,134 Z M770.048226,125.281258 C771.198793,124.463077 772.029758,123.107965 772.195951,122.05967 L772.374928,120.909103 L770.943111,120.909103 L770.738566,122.085239 C770.572373,123.03126 769.997089,123.849441 769.332317,124.616486 L770.048226,125.281258 Z M773.879157,134 L774.901883,127.863642 C775.131997,126.431825 776.359268,125.409099 777.535404,125.409099 C778.685971,125.409099 779.350743,126.150576 779.171766,127.275575 L778.046767,134 L779.580856,134 L780.654719,127.607961 C780.859264,126.329553 781.805286,125.409099 783.185966,125.409099 C784.259829,125.409099 785.07801,125.971599 784.847897,127.428984 L783.748466,134 L785.256987,134 L786.356418,127.428984 C786.73994,125.127849 785.666078,124.053987 783.927443,124.053987 C782.521194,124.053987 781.370636,124.693191 780.705855,125.715917 L780.603583,125.715917 C780.296765,124.667623 779.52972,124.053987 778.251312,124.053987 C776.972904,124.053987 775.92461,124.667623 775.336542,125.715917 L775.208701,125.715917 L775.464383,124.181828 L774.006998,124.181828 L772.370636,134 L773.879157,134 Z M796.191587,134.204545 C798.467153,134.204545 800.231356,132.951706 800.512606,131.264207 C800.742719,129.883527 800.026811,129.039777 798.339312,128.605119 L796.933064,128.247165 C795.833633,127.965915 795.373406,127.556824 795.501247,126.815348 C795.629088,125.971599 796.626246,125.357963 797.827949,125.357963 C799.157494,125.357963 799.566584,126.073871 799.719993,126.764211 L801.15181,126.380689 C800.896128,124.97444 800.001243,124.053987 798.058063,124.053987 C795.987042,124.053987 794.248407,125.230122 793.967158,126.892052 C793.737044,128.247165 794.401816,129.14205 796.140451,129.576709 L797.700109,129.960231 C798.671699,130.190345 799.055221,130.650571 798.92738,131.340912 C798.799539,132.184661 797.776813,132.875001 796.370564,132.875001 C795.143293,132.875001 794.452953,132.33807 794.376248,131.289775 L792.867727,131.64773 C792.944431,133.30966 794.171703,134.204545 796.191587,134.204545 Z M806.312291,134.204545 C808.920243,134.204545 810.991264,132.235797 811.477059,129.244323 C811.98203,126.125008 810.505469,124.053987 807.795244,124.053987 C805.187292,124.053987 803.116271,126.022735 802.630476,129.039777 C802.131897,132.133525 803.602066,134.204545 806.312291,134.204545 Z M806.337859,132.849433 C804.369111,132.849433 803.781043,131.161935 804.087861,129.244323 C804.413855,127.224438 805.698655,125.409099 807.769676,125.409099 C809.738424,125.409099 810.326492,127.122166 810.019674,129.039777 C809.69368,131.066054 808.40888,132.849433 806.337859,132.849433 Z M814.413112,134 L815.435838,127.786938 C815.665951,126.457394 816.867655,125.485804 818.299472,125.485804 C818.708562,125.485804 819.117653,125.562508 819.219925,125.588076 L819.475607,124.053987 C819.29663,124.028419 818.913107,124.028419 818.682994,124.028419 C817.506859,124.028419 816.356292,124.693191 815.844928,125.664781 L815.742656,125.664781 L815.998337,124.181828 L814.540952,124.181828 L812.90459,134 L814.413112,134 Z M821.056543,134 L822.07927,127.786938 C822.309383,126.457394 823.511087,125.485804 824.942903,125.485804 C825.351994,125.485804 825.761084,125.562508 825.863357,125.588076 L826.119039,124.053987 C825.940062,124.028419 825.556539,124.028419 825.326426,124.028419 C824.150291,124.028419 822.999723,124.693191 822.48836,125.664781 L822.386088,125.664781 L822.641769,124.181828 L821.184384,124.181828 L819.548022,134 L821.056543,134 Z M826.86901,137.656247 C828.198555,137.656247 829.31077,136.972298 830.141735,135.419033 L836.163036,124.181828 L834.462753,124.181828 L830.448553,132.031252 L830.34628,132.031252 L828.940031,124.181828 L827.36759,124.181828 L829.336338,134 L828.914463,134.767045 C828.109066,136.230822 827.457078,136.428975 826.408784,136.147725 L825.795148,137.477269 C825.935773,137.553974 826.357647,137.656247 826.86901,137.656247 Z M837.117555,134.102273 C837.743975,134.102273 838.255338,133.590909 838.268122,132.951706 C838.280906,132.33807 837.743975,131.826707 837.117555,131.826707 C836.491135,131.826707 835.954204,132.312502 835.966988,132.951706 C835.979772,133.590909 836.465567,134.102273 837.117555,134.102273 Z M850.89021,134 L852.83339,122.315352 L856.949864,122.315352 L857.179977,120.909103 L847.361805,120.909103 L847.131691,122.315352 L851.248165,122.315352 L849.304985,134 L850.89021,134 Z M858.684214,134 L859.655804,128.093756 C859.962622,126.380689 861.215462,125.409103 862.698415,125.409103 C864.104663,125.409103 864.820572,126.303985 864.56489,127.863642 L863.542164,134 L865.050685,134 L866.09898,127.76137 C866.50807,125.230122 865.357503,124.053987 863.363187,124.053987 C861.803529,124.053987 860.806371,124.693191 860.192735,125.715917 L860.064894,125.715917 L860.857507,120.909103 L859.348986,120.909103 L857.175693,134 L858.684214,134 Z M870.581906,122.519897 C871.169973,122.519897 871.655768,122.05967 871.655768,121.497171 C871.655768,120.934672 871.169973,120.474445 870.581906,120.474445 C869.993838,120.474445 869.508043,120.934672 869.508043,121.497171 C869.508043,122.05967 869.993838,122.519897 870.581906,122.519897 Z M869.239578,134 L870.87594,124.181828 L869.367418,124.181828 L867.731056,134 L869.239578,134 Z M875.192667,134.204545 C877.468233,134.204545 879.232436,132.951706 879.513685,131.264207 C879.743799,129.883527 879.02789,129.039777 877.340392,128.605119 L875.934143,128.247165 C874.834713,127.965915 874.374486,127.556824 874.502327,126.815348 C874.630167,125.971599 875.627325,125.357963 876.829029,125.357963 C878.158573,125.357963 878.567664,126.073871 878.721073,126.764211 L880.152889,126.380689 C879.897208,124.97444 879.002322,124.053987 877.059142,124.053987 C874.988122,124.053987 873.249487,125.230122 872.968237,126.892052 C872.738124,128.247165 873.402896,129.14205 875.14153,129.576709 L876.701188,129.960231 C877.672778,130.190345 878.0563,130.650571 877.92846,131.340912 C877.800619,132.184661 876.777893,132.875001 875.371644,132.875001 C874.144372,132.875001 873.454032,132.33807 873.377328,131.289775 L871.868806,131.64773 C871.945511,133.30966 873.172782,134.204545 875.192667,134.204545 Z M890.192598,134.204545 C892.359499,134.204545 893.995861,132.875001 894.564753,131.136366 L893.056232,131.136366 C892.589613,132.210229 891.592455,132.849433 890.422711,132.849433 C888.626548,132.849433 887.706095,131.36648 888.096009,129.090914 C888.447571,126.866484 889.879388,125.409099 891.649983,125.409099 C892.973135,125.409099 893.637907,126.22728 893.721004,127.122166 L895.229525,127.122166 C895.274269,125.281258 893.919157,124.053987 891.854528,124.053987 C889.189048,124.053987 887.066891,126.150576 886.587488,129.14205 C886.095301,132.082388 887.424845,134.204545 890.192598,134.204545 Z M900.262166,134.204545 C902.870118,134.204545 904.941139,132.235797 905.426934,129.244323 C905.931905,126.125008 904.455344,124.053987 901.745119,124.053987 C899.137167,124.053987 897.066146,126.022735 896.580351,129.039777 C896.081772,132.133525 897.551941,134.204545 900.262166,134.204545 Z M900.287734,132.849433 C898.318986,132.849433 897.730918,131.161935 898.037736,129.244323 C898.36373,127.224438 899.64853,125.409099 901.719551,125.409099 C903.688299,125.409099 904.276367,127.122166 903.969549,129.039777 C903.643555,131.066054 902.358755,132.849433 900.287734,132.849433 Z M909.999349,134.127841 C911.482302,134.127841 912.607301,133.335228 913.220937,132.33807 L913.323209,132.33807 L913.041959,134 L914.550481,134 L916.186843,124.181828 L914.678322,124.181828 L913.706732,129.985799 C913.399914,131.826707 911.865824,132.670456 910.740825,132.670456 C909.487986,132.670456 908.746509,131.750002 908.976622,130.318185 L909.999349,124.181828 L908.490827,124.181828 L907.442533,130.420458 C907.033442,132.926137 908.158441,134.127841 909.999349,134.127841 Z M918.739373,134 L920.912666,120.909103 L919.404145,120.909103 L917.230852,134 L918.739373,134 Z M925.127121,134.204545 C927.012773,134.204545 927.85013,133.02841 928.272004,132.491479 L928.450981,132.491479 L928.1953,134 L929.652685,134 L931.825978,120.909103 L930.317457,120.909103 L929.51206,125.741485 L929.384219,125.741485 C929.141322,125.230122 928.745015,124.053987 926.827403,124.053987 C924.347292,124.053987 922.308232,126.022735 921.790476,129.116482 C921.279113,132.235797 922.666186,134.204545 925.127121,134.204545 Z M925.497859,132.849433 C923.605816,132.849433 922.96022,131.187503 923.311782,129.090914 C923.65056,127.019893 924.813911,125.409099 926.725131,125.409099 C928.57243,125.409099 929.352259,126.892052 928.987913,129.090914 C928.617174,131.315343 927.313198,132.849433 925.497859,132.849433 Z M942.198075,134.204545 C944.652618,134.204545 946.69807,132.235797 947.209433,129.116482 C947.720797,126.022735 946.340116,124.053987 943.860005,124.053987 C941.942393,124.053987 941.14978,125.230122 940.74069,125.741485 L940.612849,125.741485 L941.405462,120.909103 L939.89694,120.909103 L937.723647,134 L939.181032,134 L939.436714,132.491479 L939.615691,132.491479 C939.871372,133.02841 940.306031,134.204545 942.198075,134.204545 Z M942.223643,132.849433 C940.408304,132.849433 939.666827,131.315343 940.024781,129.090914 C940.382735,126.892052 941.610007,125.409099 943.450914,125.409099 C945.368526,125.409099 946.033298,127.019893 945.700912,129.090914 C945.342958,131.187503 944.115686,132.849433 942.223643,132.849433 Z M952.702302,134.204545 C954.703011,134.204545 956.313805,133.207387 957.023321,131.724434 L955.64264,131.315343 C955.086533,132.33807 954.140511,132.849433 952.932416,132.849433 C951.040372,132.849433 950.03043,132.005684 950.394776,129.602277 L957.534684,129.602277 L957.636957,128.963073 C958.256985,125.306826 956.288236,124.053987 954.236392,124.053987 C951.583695,124.053987 949.461538,126.150576 948.969351,129.167618 C948.46438,132.184661 949.870629,134.204545 952.702302,134.204545 Z M956.20514,128.298301 L950.605713,128.298301 C950.906139,126.904836 952.357132,125.409099 954.006278,125.409099 C955.649033,125.409099 956.492782,126.636371 956.20514,128.298301 Z M971.646123,137.681815 L973.870553,124.181828 L972.413168,124.181828 L972.151094,125.741485 L971.972117,125.741485 C971.729219,125.230122 971.326521,124.053987 969.408909,124.053987 C966.928798,124.053987 964.896129,126.022735 964.384766,129.116482 C963.860619,132.235797 965.254084,134.204545 967.708627,134.204545 C969.60067,134.204545 970.425243,133.02841 970.859902,132.491479 L970.987743,132.491479 L970.137602,137.681815 L971.646123,137.681815 Z M968.136893,132.849433 C966.24485,132.849433 965.567293,131.187503 965.899679,129.090914 C966.257634,127.019893 967.452945,125.409099 969.370557,125.409099 C971.211464,125.409099 971.946549,126.892052 971.57581,129.090914 C971.19868,131.315343 969.952232,132.849433 968.136893,132.849433 Z M978.053053,134.127841 C979.536006,134.127841 980.661005,133.335228 981.274641,132.33807 L981.376914,132.33807 L981.095664,134 L982.604185,134 L984.240547,124.181828 L982.732026,124.181828 L981.760436,129.985799 C981.453618,131.826707 979.919529,132.670456 978.79453,132.670456 C977.54169,132.670456 976.800214,131.750002 977.030327,130.318185 L978.053053,124.181828 L976.544532,124.181828 L975.496238,130.420458 C975.087147,132.926137 976.212146,134.127841 978.053053,134.127841 Z M988.135406,122.519897 C988.723473,122.519897 989.209268,122.05967 989.209268,121.497171 C989.209268,120.934672 988.723473,120.474445 988.135406,120.474445 C987.547338,120.474445 987.061543,120.934672 987.061543,121.497171 C987.061543,122.05967 987.547338,122.519897 988.135406,122.519897 Z M986.793078,134 L988.42944,124.181828 L986.920918,124.181828 L985.284556,134 L986.793078,134 Z M992.771735,134.127841 C993.334234,134.127841 993.717757,134.025568 993.94787,133.948864 L993.845598,132.593751 C993.717757,132.619319 993.513212,132.670456 993.180825,132.670456 C992.516053,132.670456 991.902418,132.465911 992.106963,131.187503 L993.059377,125.460235 L995.175142,125.460235 L995.379687,124.181828 L993.276706,124.181828 L993.66662,121.829557 L992.158099,121.829557 L991.768185,124.181828 L990.291624,124.181828 L990.087078,125.460235 L991.557247,125.460235 L990.547305,131.596593 C990.266056,133.30966 991.493327,134.127841 992.771735,134.127841 Z M999.92653,134.204545 C1001.92724,134.204545 1003.53803,133.207387 1004.24755,131.724434 L1002.86687,131.315343 C1002.31076,132.33807 1001.36474,132.849433 1000.15664,132.849433 C998.264599,132.849433 997.254657,132.005684 997.619003,129.602277 L1004.75891,129.602277 L1004.86118,128.963073 C1005.48121,125.306826 1003.51246,124.053987 1001.46062,124.053987 C998.807923,124.053987 996.685766,126.150576 996.193579,129.167618 C995.688608,132.184661 997.094856,134.204545 999.92653,134.204545 Z M1003.42937,128.298301 L997.829941,128.298301 C998.130367,126.904836 999.58136,125.409099 1001.23051,125.409099 C1002.87326,125.409099 1003.71701,126.636371 1003.42937,128.298301 Z M1014.51737,134.204545 C1016.79294,134.204545 1018.55714,132.951706 1018.83839,131.264207 C1019.0685,129.883527 1018.35259,129.039777 1016.6651,128.605119 L1015.25885,128.247165 C1014.15942,127.965915 1013.69919,127.556824 1013.82703,126.815348 C1013.95487,125.971599 1014.95203,125.357963 1016.15373,125.357963 C1017.48328,125.357963 1017.89237,126.073871 1018.04578,126.764211 L1019.47759,126.380689 C1019.22191,124.97444 1018.32703,124.053987 1016.38385,124.053987 C1014.31283,124.053987 1012.57419,125.230122 1012.29294,126.892052 C1012.06283,128.247165 1012.7276,129.14205 1014.46624,129.576709 L1016.02589,129.960231 C1016.99748,130.190345 1017.381,130.650571 1017.25316,131.340912 C1017.12532,132.184661 1016.1026,132.875001 1014.69635,132.875001 C1013.46908,132.875001 1012.77874,132.33807 1012.70203,131.289775 L1011.19351,131.64773 C1011.27022,133.30966 1012.49749,134.204545 1014.51737,134.204545 Z M1024.66364,134.204545 C1026.66435,134.204545 1028.27515,133.207387 1028.98466,131.724434 L1027.60398,131.315343 C1027.04787,132.33807 1026.10185,132.849433 1024.89376,132.849433 C1023.00171,132.849433 1021.99177,132.005684 1022.35612,129.602277 L1029.49603,129.602277 L1029.5983,128.963073 C1030.21833,125.306826 1028.24958,124.053987 1026.19773,124.053987 C1023.54504,124.053987 1021.42288,126.150576 1020.93069,129.167618 C1020.42572,132.184661 1021.83197,134.204545 1024.66364,134.204545 Z M1028.16648,128.298301 L1022.56705,128.298301 C1022.86748,126.904836 1024.31847,125.409099 1025.96762,125.409099 C1027.61037,125.409099 1028.45412,126.636371 1028.16648,128.298301 Z M1032.50878,134 L1033.53151,127.786938 C1033.76162,126.457394 1034.96333,125.485804 1036.39514,125.485804 C1036.80423,125.485804 1037.21332,125.562508 1037.3156,125.588076 L1037.57128,124.053987 C1037.3923,124.028419 1037.00878,124.028419 1036.77866,124.028419 C1035.60253,124.028419 1034.45196,124.693191 1033.9406,125.664781 L1033.83833,125.664781 L1034.09401,124.181828 L1032.63662,124.181828 L1031.00026,134 L1032.50878,134 Z M1040.49454,122.519897 C1041.08261,122.519897 1041.5684,122.05967 1041.5684,121.497171 C1041.5684,120.934672 1041.08261,120.474445 1040.49454,120.474445 C1039.90647,120.474445 1039.42068,120.934672 1039.42068,121.497171 C1039.42068,122.05967 1039.90647,122.519897 1040.49454,122.519897 Z M1039.15221,134 L1040.78858,124.181828 L1039.28005,124.181828 L1037.64369,134 L1039.15221,134 Z M1045.89792,134.204545 C1048.50587,134.204545 1050.57689,132.235797 1051.06268,129.244323 C1051.56765,126.125008 1050.09109,124.053987 1047.38087,124.053987 C1044.77292,124.053987 1042.7019,126.022735 1042.2161,129.039777 C1041.71752,132.133525 1043.18769,134.204545 1045.89792,134.204545 Z M1045.92348,132.849433 C1043.95474,132.849433 1043.36667,131.161935 1043.67349,129.244323 C1043.99948,127.224438 1045.28428,125.409099 1047.3553,125.409099 C1049.32405,125.409099 1049.91212,127.122166 1049.6053,129.039777 C1049.2793,131.066054 1047.9945,132.849433 1045.92348,132.849433 Z M1055.6351,134.127841 C1057.11805,134.127841 1058.24305,133.335228 1058.85669,132.33807 L1058.95896,132.33807 L1058.67771,134 L1060.18623,134 L1061.82259,124.181828 L1060.31407,124.181828 L1059.34248,129.985799 C1059.03566,131.826707 1057.50157,132.670456 1056.37658,132.670456 C1055.12374,132.670456 1054.38226,131.750002 1054.61237,130.318185 L1055.6351,124.181828 L1054.12658,124.181828 L1053.07828,130.420458 C1052.66919,132.926137 1053.79419,134.127841 1055.6351,134.127841 Z M1066.13933,134.204545 C1068.41489,134.204545 1070.17909,132.951706 1070.46034,131.264207 C1070.69046,129.883527 1069.97455,129.039777 1068.28705,128.605119 L1066.8808,128.247165 C1065.78137,127.965915 1065.32114,127.556824 1065.44899,126.815348 C1065.57683,125.971599 1066.57398,125.357963 1067.77569,125.357963 C1069.10523,125.357963 1069.51432,126.073871 1069.66773,126.764211 L1071.09955,126.380689 C1070.84387,124.97444 1069.94898,124.053987 1068.0058,124.053987 C1065.93478,124.053987 1064.19615,125.230122 1063.9149,126.892052 C1063.68478,128.247165 1064.34955,129.14205 1066.08819,129.576709 L1067.64785,129.960231 C1068.61944,130.190345 1069.00296,130.650571 1068.87512,131.340912 C1068.74728,132.184661 1067.72455,132.875001 1066.3183,132.875001 C1065.09103,132.875001 1064.40069,132.33807 1064.32399,131.289775 L1062.81547,131.64773 C1062.89217,133.30966 1064.11944,134.204545 1066.13933,134.204545 Z M1073.4731,134.102273 C1074.09952,134.102273 1074.61088,133.590909 1074.62367,132.951706 C1074.63645,132.33807 1074.09952,131.826707 1073.4731,131.826707 C1072.84668,131.826707 1072.30975,132.312502 1072.32253,132.951706 C1072.33532,133.590909 1072.82111,134.102273 1073.4731,134.102273 Z M756.35227,159 L757.144883,154.218755 L760.008517,154.218755 C763.051128,154.218755 764.738626,152.352279 765.122148,150.051145 C765.505671,147.724443 764.431808,145.909103 761.363629,145.909103 L756.940338,145.909103 L754.767045,159 L756.35227,159 Z M760.187494,152.812506 L757.381389,152.812506 L758.29545,147.315352 L761.08238,147.315352 C763.204537,147.315352 763.818172,148.465919 763.562491,150.051145 C763.306809,151.610803 762.284083,152.812506 760.187494,152.812506 Z M769.873541,159.204545 C771.874249,159.204545 773.485043,158.207387 774.19456,156.724434 L772.813879,156.315343 C772.257772,157.33807 771.31175,157.849433 770.103654,157.849433 C768.211611,157.849433 767.201669,157.005684 767.566015,154.602277 L774.705923,154.602277 L774.808195,153.963073 C775.428223,150.306826 773.459475,149.053987 771.40763,149.053987 C768.754934,149.053987 766.632777,151.150576 766.14059,154.167618 C765.635619,157.184661 767.041868,159.204545 769.873541,159.204545 Z M773.376379,153.298301 L767.776952,153.298301 C768.077378,151.904836 769.528371,150.409099 771.177517,150.409099 C772.820271,150.409099 773.66402,151.636371 773.376379,153.298301 Z M780.275496,159.204545 C782.883448,159.204545 784.954468,157.235797 785.440263,154.244323 C785.945234,151.125008 784.468673,149.053987 781.758449,149.053987 C779.150497,149.053987 777.079476,151.022735 776.593681,154.039777 C776.095102,157.133525 777.565271,159.204545 780.275496,159.204545 Z M780.301064,157.849433 C778.332316,157.849433 777.744248,156.161935 778.051066,154.244323 C778.37706,152.224438 779.66186,150.409099 781.732881,150.409099 C783.701629,150.409099 784.289696,152.122166 783.982878,154.039777 C783.656884,156.066054 782.372084,157.849433 780.301064,157.849433 Z M787.76268,162.681815 L788.631998,157.491479 L788.759839,157.491479 C789.01552,158.02841 789.450179,159.204545 791.342222,159.204545 C793.796766,159.204545 795.842218,157.235797 796.353581,154.116482 C796.864944,151.022735 795.484264,149.053987 793.004153,149.053987 C791.086541,149.053987 790.293928,150.230122 789.884837,150.741485 L789.70586,150.741485 L789.961542,149.181828 L788.504157,149.181828 L786.254159,162.681815 L787.76268,162.681815 Z M791.367791,157.849433 C789.552451,157.849433 788.810975,156.315343 789.168929,154.090914 C789.526883,151.892052 790.754155,150.409099 792.595062,150.409099 C794.512674,150.409099 795.177446,152.019893 794.84506,154.090914 C794.487106,156.187503 793.259834,157.849433 791.367791,157.849433 Z M799.264066,159 L801.43736,145.909103 L799.928838,145.909103 L797.755545,159 L799.264066,159 Z M806.035336,159.204545 C808.036045,159.204545 809.646839,158.207387 810.356355,156.724434 L808.975675,156.315343 C808.419567,157.33807 807.473545,157.849433 806.26545,157.849433 C804.373406,157.849433 803.363464,157.005684 803.72781,154.602277 L810.867718,154.602277 L810.969991,153.963073 C811.590019,150.306826 809.621271,149.053987 807.569426,149.053987 C804.91673,149.053987 802.794573,151.150576 802.302385,154.167618 C801.797414,157.184661 803.203663,159.204545 806.035336,159.204545 Z M809.538174,153.298301 L803.938748,153.298301 C804.239173,151.904836 805.690166,150.409099 807.339313,150.409099 C808.982067,150.409099 809.825816,151.636371 809.538174,153.298301 Z M821.060837,159 L824.461402,151.457394 L824.614811,151.457394 L825.509696,159 L826.992649,159 L831.620486,149.181828 L830.03526,149.181828 L826.660263,156.673298 L826.557991,156.673298 L825.73981,149.181828 L824.129016,149.181828 L820.779587,156.698866 L820.677314,156.698866 L819.807997,149.181828 L818.222771,149.181828 L819.577884,159 L821.060837,159 Z M834.748304,147.519897 C835.336371,147.519897 835.822166,147.05967 835.822166,146.497171 C835.822166,145.934672 835.336371,145.474445 834.748304,145.474445 C834.160236,145.474445 833.674441,145.934672 833.674441,146.497171 C833.674441,147.05967 834.160236,147.519897 834.748304,147.519897 Z M833.405975,159 L835.042337,149.181828 L833.533816,149.181828 L831.897454,159 L833.405975,159 Z M839.384633,159.127841 C839.947132,159.127841 840.330655,159.025568 840.560768,158.948864 L840.458495,157.593751 C840.330655,157.619319 840.126109,157.670456 839.793723,157.670456 C839.128951,157.670456 838.515315,157.465911 838.719861,156.187503 L839.672274,150.460235 L841.788039,150.460235 L841.992585,149.181828 L839.889604,149.181828 L840.279518,146.829557 L838.770997,146.829557 L838.381083,149.181828 L836.904521,149.181828 L836.699976,150.460235 L838.170145,150.460235 L837.160203,156.596593 C836.878953,158.30966 838.106225,159.127841 839.384633,159.127841 Z M844.263862,159 L845.235452,153.093756 C845.54227,151.380689 846.795109,150.409103 848.278062,150.409103 C849.684311,150.409103 850.400219,151.303985 850.144538,152.863642 L849.121812,159 L850.630333,159 L851.678627,152.76137 C852.087718,150.230122 850.937151,149.053987 848.942834,149.053987 C847.383177,149.053987 846.386019,149.693191 845.772383,150.715917 L845.644542,150.715917 L846.437155,145.909103 L844.928634,145.909103 L842.75534,159 L844.263862,159 Z M861.564928,159.204545 C863.840494,159.204545 865.604697,157.951706 865.885947,156.264207 C866.11606,154.883527 865.400152,154.039777 863.712653,153.605119 L862.306405,153.247165 C861.206974,152.965915 860.746747,152.556824 860.874588,151.815348 C861.002429,150.971599 861.999587,150.357963 863.20129,150.357963 C864.530834,150.357963 864.939925,151.073871 865.093334,151.764211 L866.525151,151.380689 C866.269469,149.97444 865.374584,149.053987 863.431404,149.053987 C861.360383,149.053987 859.621748,150.230122 859.340498,151.892052 C859.110385,153.247165 859.775157,154.14205 861.513792,154.576709 L863.073449,154.960231 C864.045039,155.190345 864.428562,155.650571 864.300721,156.340912 C864.17288,157.184661 863.150154,157.875001 861.743905,157.875001 C860.516634,157.875001 859.826293,157.33807 859.749589,156.289775 L858.241068,156.64773 C858.317772,158.30966 859.545044,159.204545 861.564928,159.204545 Z M870.471144,147.519897 C871.059212,147.519897 871.545007,147.05967 871.545007,146.497171 C871.545007,145.934672 871.059212,145.474445 870.471144,145.474445 C869.883077,145.474445 869.397282,145.934672 869.397282,146.497171 C869.397282,147.05967 869.883077,147.519897 870.471144,147.519897 Z M869.128816,159 L870.765178,149.181828 L869.256657,149.181828 L867.620295,159 L869.128816,159 Z M873.317703,159 L874.340429,152.863642 C874.570542,151.431825 875.797814,150.409099 876.973949,150.409099 C878.124516,150.409099 878.789288,151.150576 878.610311,152.275575 L877.485312,159 L879.019402,159 L880.093264,152.607961 C880.29781,151.329553 881.243831,150.409099 882.624512,150.409099 C883.698374,150.409099 884.516556,150.971599 884.286442,152.428984 L883.187011,159 L884.695533,159 L885.794963,152.428984 C886.178486,150.127849 885.104623,149.053987 883.365988,149.053987 C881.95974,149.053987 880.809181,149.693191 880.144401,150.715917 L880.042128,150.715917 C879.73531,149.667623 878.968265,149.053987 877.689857,149.053987 C876.41145,149.053987 875.363155,149.667623 874.775088,150.715917 L874.647247,150.715917 L874.902928,149.181828 L873.445543,149.181828 L871.809181,159 L873.317703,159 Z M890.226758,147.519897 C890.814826,147.519897 891.300621,147.05967 891.300621,146.497171 C891.300621,145.934672 890.814826,145.474445 890.226758,145.474445 C889.63869,145.474445 889.152895,145.934672 889.152895,146.497171 C889.152895,147.05967 889.63869,147.519897 890.226758,147.519897 Z M888.88443,159 L890.520792,149.181828 L889.012271,149.181828 L887.375909,159 L888.88443,159 Z M893.073316,159 L895.24661,145.909103 L893.738088,145.909103 L891.564795,159 L893.073316,159 Z M898.617315,159.230113 C900.330381,159.230113 901.378676,158.30966 901.787766,157.670456 L901.864471,157.670456 L901.634357,159 L903.142879,159 L904.216741,152.531256 C904.728105,149.411941 902.42697,149.053987 901.174131,149.053987 C899.691178,149.053987 897.901407,149.56535 896.853112,151.355121 L898.182656,151.866484 C898.642883,151.150576 899.614473,150.383531 901.04629,150.383531 C902.42697,150.383531 902.938334,151.125008 902.733788,152.377847 L902.733788,152.428984 C902.605947,153.144892 901.864471,153.093756 900.049132,153.323869 C898.182656,153.553987 896.137204,153.963073 895.753681,156.213071 C895.446863,158.130683 896.750839,159.230113 898.617315,159.230113 Z M899.051974,157.875001 C897.85027,157.875001 897.083225,157.33807 897.262203,156.289775 C897.44118,155.139208 898.566179,154.781254 899.767882,154.627845 C900.407086,154.551141 902.145721,154.372164 902.452539,154.065346 L902.222425,155.446026 C902.01788,156.673298 900.841745,157.875001 899.051974,157.875001 Z M907.331771,159 L908.354497,152.786938 C908.58461,151.457394 909.786314,150.485804 911.218131,150.485804 C911.627221,150.485804 912.036312,150.562508 912.138584,150.588076 L912.394266,149.053987 C912.215289,149.028419 911.831766,149.028419 911.601653,149.028419 C910.425518,149.028419 909.274951,149.693191 908.763588,150.664781 L908.661315,150.664781 L908.916997,149.181828 L907.459612,149.181828 L905.823249,159 L907.331771,159 Z M920.720905,159.204545 C922.996471,159.204545 924.760674,157.951706 925.041924,156.264207 C925.272037,154.883527 924.556129,154.039777 922.868631,153.605119 L921.462382,153.247165 C920.362951,152.965915 919.902724,152.556824 920.030565,151.815348 C920.158406,150.971599 921.155564,150.357963 922.357268,150.357963 C923.686812,150.357963 924.095902,151.073871 924.249311,151.764211 L925.681128,151.380689 C925.425446,149.97444 924.530561,149.053987 922.587381,149.053987 C920.51636,149.053987 918.777725,150.230122 918.496476,151.892052 C918.266362,153.247165 918.931134,154.14205 920.669769,154.576709 L922.229427,154.960231 C923.201017,155.190345 923.584539,155.650571 923.456698,156.340912 C923.328857,157.184661 922.306131,157.875001 920.899883,157.875001 C919.672611,157.875001 918.982271,157.33807 918.905566,156.289775 L917.397045,156.64773 C917.473749,158.30966 918.701021,159.204545 920.720905,159.204545 Z M927.14701,162.656247 C928.476555,162.656247 929.58877,161.972298 930.419735,160.419033 L936.441036,149.181828 L934.740753,149.181828 L930.726553,157.031252 L930.62428,157.031252 L929.218031,149.181828 L927.64559,149.181828 L929.614338,159 L929.192463,159.767045 C928.387066,161.230822 927.735078,161.428975 926.686784,161.147725 L926.073148,162.477269 C926.213773,162.553974 926.635647,162.656247 927.14701,162.656247 Z M938.239305,159 L939.262031,152.863642 C939.492145,151.431825 940.719416,150.409099 941.895551,150.409099 C943.046118,150.409099 943.710891,151.150576 943.531913,152.275575 L942.406915,159 L943.941004,159 L945.014867,152.607961 C945.219412,151.329553 946.165434,150.409099 947.546114,150.409099 C948.619977,150.409099 949.438158,150.971599 949.208044,152.428984 L948.108614,159 L949.617135,159 L950.716566,152.428984 C951.100088,150.127849 950.026225,149.053987 948.287591,149.053987 C946.881342,149.053987 945.730784,149.693191 945.066003,150.715917 L944.96373,150.715917 C944.656912,149.667623 943.889868,149.053987 942.61146,149.053987 C941.333052,149.053987 940.284757,149.667623 939.69669,150.715917 L939.568849,150.715917 L939.824531,149.181828 L938.367146,149.181828 L936.730784,159 L938.239305,159 Z M953.192396,162.681815 L954.061714,157.491479 L954.189554,157.491479 C954.445236,158.02841 954.879895,159.204545 956.771938,159.204545 C959.226481,159.204545 961.271934,157.235797 961.783297,154.116482 C962.29466,151.022735 960.91398,149.053987 958.433869,149.053987 C956.516257,149.053987 955.723644,150.230122 955.314553,150.741485 L955.135576,150.741485 L955.391258,149.181828 L953.933873,149.181828 L951.683875,162.681815 L953.192396,162.681815 Z M956.797507,157.849433 C954.982167,157.849433 954.240691,156.315343 954.598645,154.090914 C954.956599,151.892052 956.183871,150.409099 958.024778,150.409099 C959.94239,150.409099 960.607162,152.019893 960.274776,154.090914 C959.916822,156.187503 958.68955,157.849433 956.797507,157.849433 Z M966.483553,159.127841 C967.046053,159.127841 967.429575,159.025568 967.659688,158.948864 L967.557416,157.593751 C967.429575,157.619319 967.22503,157.670456 966.892644,157.670456 C966.227872,157.670456 965.614236,157.465911 965.818781,156.187503 L966.771195,150.460235 L968.88696,150.460235 L969.091505,149.181828 L966.988524,149.181828 L967.378439,146.829557 L965.869917,146.829557 L965.480003,149.181828 L964.003442,149.181828 L963.798897,150.460235 L965.269066,150.460235 L964.259123,156.596593 C963.977874,158.30966 965.205145,159.127841 966.483553,159.127841 Z M973.61278,159.204545 C976.220732,159.204545 978.291752,157.235797 978.777547,154.244323 C979.282519,151.125008 977.805957,149.053987 975.095733,149.053987 C972.487781,149.053987 970.41676,151.022735 969.930965,154.039777 C969.432386,157.133525 970.902555,159.204545 973.61278,159.204545 Z M973.638348,157.849433 C971.6696,157.849433 971.081532,156.161935 971.38835,154.244323 C971.714344,152.224438 972.999144,150.409099 975.070165,150.409099 C977.038913,150.409099 977.62698,152.122166 977.320163,154.039777 C976.994168,156.066054 975.709369,157.849433 973.638348,157.849433 Z M981.7136,159 L982.736327,152.863642 C982.96644,151.431825 984.193712,150.409099 985.369847,150.409099 C986.520414,150.409099 987.185186,151.150576 987.006209,152.275575 L985.88121,159 L987.415299,159 L988.489162,152.607961 C988.693707,151.329553 989.639729,150.409099 991.02041,150.409099 C992.094272,150.409099 992.912453,150.971599 992.68234,152.428984 L991.582909,159 L993.09143,159 L994.190861,152.428984 C994.574383,150.127849 993.500521,149.053987 991.761886,149.053987 C990.355638,149.053987 989.205079,149.693191 988.540298,150.715917 L988.438026,150.715917 C988.131208,149.667623 987.364163,149.053987 986.085755,149.053987 C984.807347,149.053987 983.759053,149.667623 983.170985,150.715917 L983.043144,150.715917 L983.298826,149.181828 L981.841441,149.181828 L980.205079,159 L981.7136,159 Z M999.04453,159.204545 C1001.3201,159.204545 1003.0843,157.951706 1003.36555,156.264207 C1003.59566,154.883527 1002.87975,154.039777 1001.19226,153.605119 L999.786007,153.247165 C998.686576,152.965915 998.226349,152.556824 998.35419,151.815348 C998.482031,150.971599 999.479189,150.357963 1000.68089,150.357963 C1002.01044,150.357963 1002.41953,151.073871 1002.57294,151.764211 L1004.00475,151.380689 C1003.74907,149.97444 1002.85419,149.053987 1000.91101,149.053987 C998.839985,149.053987 997.10135,150.230122 996.820101,151.892052 C996.589987,153.247165 997.254759,154.14205 998.993394,154.576709 L1000.55305,154.960231 C1001.52464,155.190345 1001.90816,155.650571 1001.78032,156.340912 C1001.65248,157.184661 1000.62976,157.875001 999.223508,157.875001 C997.996236,157.875001 997.305896,157.33807 997.229191,156.289775 L995.72067,156.64773 C995.797374,158.30966 997.024646,159.204545 999.04453,159.204545 Z M1013.22628,159.127841 C1014.70923,159.127841 1015.83423,158.335228 1016.44787,157.33807 L1016.55014,157.33807 L1016.26889,159 L1017.77741,159 L1019.41377,149.181828 L1017.90525,149.181828 L1016.93366,154.985799 C1016.62685,156.826707 1015.09276,157.670456 1013.96776,157.670456 C1012.71492,157.670456 1011.97344,156.750002 1012.20355,155.318185 L1013.22628,149.181828 L1011.71776,149.181828 L1010.66946,155.420458 C1010.26037,157.926137 1011.38537,159.127841 1013.22628,159.127841 Z M1023.73051,159.204545 C1026.00607,159.204545 1027.77028,157.951706 1028.05153,156.264207 C1028.28164,154.883527 1027.56573,154.039777 1025.87823,153.605119 L1024.47198,153.247165 C1023.37255,152.965915 1022.91233,152.556824 1023.04017,151.815348 C1023.16801,150.971599 1024.16517,150.357963 1025.36687,150.357963 C1026.69641,150.357963 1027.1055,151.073871 1027.25891,151.764211 L1028.69073,151.380689 C1028.43505,149.97444 1027.54016,149.053987 1025.59698,149.053987 C1023.52596,149.053987 1021.78733,150.230122 1021.50608,151.892052 C1021.27596,153.247165 1021.94074,154.14205 1023.67937,154.576709 L1025.23903,154.960231 C1026.21062,155.190345 1026.59414,155.650571 1026.4663,156.340912 C1026.33846,157.184661 1025.31573,157.875001 1023.90948,157.875001 C1022.68221,157.875001 1021.99187,157.33807 1021.91517,156.289775 L1020.40665,156.64773 C1020.48335,158.30966 1021.71062,159.204545 1023.73051,159.204545 Z M1032.93076,159.127841 C1034.41371,159.127841 1035.53871,158.335228 1036.15235,157.33807 L1036.25462,157.33807 L1035.97337,159 L1037.48189,159 L1039.11825,149.181828 L1037.60973,149.181828 L1036.63814,154.985799 C1036.33132,156.826707 1034.79723,157.670456 1033.67223,157.670456 C1032.41939,157.670456 1031.67792,156.750002 1031.90803,155.318185 L1032.93076,149.181828 L1031.42224,149.181828 L1030.37394,155.420458 C1029.96485,157.926137 1031.08985,159.127841 1032.93076,159.127841 Z M1043.02589,159.230113 C1044.73896,159.230113 1045.78726,158.30966 1046.19635,157.670456 L1046.27305,157.670456 L1046.04294,159 L1047.55146,159 L1048.62532,152.531256 C1049.13668,149.411941 1046.83555,149.053987 1045.58271,149.053987 C1044.09976,149.053987 1042.30999,149.56535 1041.26169,151.355121 L1042.59124,151.866484 C1043.05146,151.150576 1044.02305,150.383531 1045.45487,150.383531 C1046.83555,150.383531 1047.34691,151.125008 1047.14237,152.377847 L1047.14237,152.428984 C1047.01453,153.144892 1046.27305,153.093756 1044.45771,153.323869 C1042.59124,153.553987 1040.54578,153.963073 1040.16226,156.213071 C1039.85544,158.130683 1041.15942,159.230113 1043.02589,159.230113 Z M1043.46055,157.875001 C1042.25885,157.875001 1041.49181,157.33807 1041.67078,156.289775 C1041.84976,155.139208 1042.97476,154.781254 1044.17646,154.627845 C1044.81567,154.551141 1046.5543,154.372164 1046.86112,154.065346 L1046.631,155.446026 C1046.42646,156.673298 1045.25032,157.875001 1043.46055,157.875001 Z M1051.74035,159 L1053.91364,145.909103 L1052.40512,145.909103 L1050.23183,159 L1051.74035,159 Z M1055.92924,159 L1058.10253,145.909103 L1056.59401,145.909103 L1054.42072,159 L1055.92924,159 Z M1058.98034,162.656247 C1060.30988,162.656247 1061.4221,161.972298 1062.25306,160.419033 L1068.27437,149.181828 L1066.57408,149.181828 L1062.55988,157.031252 L1062.45761,157.031252 L1061.05136,149.181828 L1059.47892,149.181828 L1061.44767,159 L1061.02579,159.767045 C1060.2204,161.230822 1059.56841,161.428975 1058.52011,161.147725 L1057.90648,162.477269 C1058.0471,162.553974 1058.46898,162.656247 1058.98034,162.656247 Z M756.071021,184 L757.042611,178.093756 C757.349429,176.380689 758.551132,175.409099 760.008517,175.409099 C761.414766,175.409099 762.105106,176.329553 761.849424,177.863642 L760.826698,184 L762.335219,184 L763.383514,177.76137 C763.792604,175.25569 762.642037,174.053987 760.673289,174.053987 C759.190336,174.053987 758.142042,174.718759 757.528406,175.715917 L757.400565,175.715917 L757.656247,174.181828 L756.198862,174.181828 L754.562499,184 L756.071021,184 Z M769.106496,184.204545 C771.107204,184.204545 772.717998,183.207387 773.427514,181.724434 L772.046834,181.315343 C771.490726,182.33807 770.544704,182.849433 769.336609,182.849433 C767.444565,182.849433 766.434623,182.005684 766.798969,179.602277 L773.938877,179.602277 L774.04115,178.963073 C774.661178,175.306826 772.69243,174.053987 770.640585,174.053987 C767.987889,174.053987 765.865732,176.150576 765.373545,179.167618 C764.868573,182.184661 766.274822,184.204545 769.106496,184.204545 Z M772.609333,178.298301 L767.009907,178.298301 C767.310333,176.904836 768.761325,175.409099 770.410472,175.409099 C772.053226,175.409099 772.896975,176.636371 772.609333,178.298301 Z M779.534018,184.204545 C781.534727,184.204545 783.145521,183.207387 783.855037,181.724434 L782.474356,181.315343 C781.918249,182.33807 780.972227,182.849433 779.764132,182.849433 C777.872088,182.849433 776.862146,182.005684 777.226492,179.602277 L784.3664,179.602277 L784.468673,178.963073 C785.0887,175.306826 783.119952,174.053987 781.068108,174.053987 C778.415411,174.053987 776.293254,176.150576 775.801067,179.167618 C775.296096,182.184661 776.702345,184.204545 779.534018,184.204545 Z M783.036856,178.298301 L777.437429,178.298301 C777.737855,176.904836 779.188848,175.409099 780.837994,175.409099 C782.480748,175.409099 783.324498,176.636371 783.036856,178.298301 Z M789.578019,184.204545 C791.46367,184.204545 792.301027,183.02841 792.722902,182.491479 L792.901879,182.491479 L792.646198,184 L794.103583,184 L796.276876,170.909103 L794.768355,170.909103 L793.962958,175.741485 L793.835117,175.741485 C793.592219,175.230122 793.195913,174.053987 791.278301,174.053987 C788.79819,174.053987 786.759129,176.022735 786.241374,179.116482 C785.730011,182.235797 787.117084,184.204545 789.578019,184.204545 Z M789.948757,182.849433 C788.056713,182.849433 787.411117,181.187503 787.762679,179.090914 C788.101458,177.019893 789.264809,175.409099 791.176028,175.409099 C793.023328,175.409099 793.803157,176.892052 793.43881,179.090914 C793.068072,181.315343 791.764096,182.849433 789.948757,182.849433 Z M804.833633,184.230113 C806.5467,184.230113 807.594994,183.30966 808.004085,182.670456 L808.080789,182.670456 L807.850676,184 L809.359197,184 L810.43306,177.531256 C810.944423,174.411941 808.643289,174.053987 807.390449,174.053987 C805.907496,174.053987 804.117725,174.56535 803.06943,176.355121 L804.398974,176.866484 C804.859201,176.150576 805.830791,175.383531 807.262608,175.383531 C808.643289,175.383531 809.154652,176.125008 808.950106,177.377847 L808.950106,177.428984 C808.822266,178.144892 808.080789,178.093756 806.26545,178.323869 C804.398974,178.553987 802.353522,178.963073 801.969999,181.213071 C801.663182,183.130683 802.967158,184.230113 804.833633,184.230113 Z M805.268292,182.875001 C804.066588,182.875001 803.299544,182.33807 803.478521,181.289775 C803.657498,180.139208 804.782497,179.781254 805.9842,179.627845 C806.623404,179.551141 808.362039,179.372164 808.668857,179.065346 L808.438743,180.446026 C808.234198,181.673298 807.058063,182.875001 805.268292,182.875001 Z M813.548089,184 L814.519679,178.093756 C814.826497,176.380689 816.0282,175.409099 817.485585,175.409099 C818.891834,175.409099 819.582174,176.329553 819.326493,177.863642 L818.303766,184 L819.812288,184 L820.860582,177.76137 C821.269672,175.25569 820.119105,174.053987 818.150357,174.053987 C816.667404,174.053987 815.61911,174.718759 815.005474,175.715917 L814.877633,175.715917 L815.133315,174.181828 L813.67593,174.181828 L812.039568,184 L813.548089,184 Z M831.628984,184.191761 C834.070743,184.191761 835.87969,183.009234 836.576423,181.187503 L834.089919,181.02131 C833.687221,181.769178 832.920176,182.159093 832.012506,182.159093 C830.619042,182.159093 829.92231,181.404832 830.171599,179.857958 L830.184383,179.787646 L836.870456,179.787646 L836.991905,179.039777 C837.548013,175.703133 835.809378,174.053987 833.207818,174.053987 C830.318616,174.053987 828.10697,176.105831 827.601999,179.135658 C827.077852,182.248581 828.60555,184.191761 831.628984,184.191761 Z M834.575714,178.100148 L830.491201,178.100148 C830.721315,177.019893 831.763217,176.086655 832.93296,176.086655 C834.109095,176.086655 834.767475,176.930404 834.575714,178.100148 Z M840.605514,184 L841.602672,178.10654 C841.762473,177.019893 842.580654,176.297593 843.481932,176.297593 C844.383209,176.297593 844.881789,176.911228 844.734772,177.876426 L843.699261,184 L846.339173,184 L847.355508,178.004267 C847.508917,176.981541 848.205649,176.297593 849.196415,176.297593 C850.065732,176.297593 850.62184,176.840916 850.455647,177.933955 L849.432921,184 L852.155929,184 L853.25536,177.397023 C853.613314,175.268474 852.53306,174.053987 850.71772,174.053987 C849.27312,174.053987 848.033064,174.782679 847.451388,175.91407 L847.349116,175.91407 C847.214883,174.776287 846.326389,174.053987 844.996845,174.053987 C843.660909,174.053987 842.542302,174.757111 841.94145,175.91407 L841.832786,175.91407 L842.114035,174.181828 L839.52526,174.181828 L837.888897,184 L840.605514,184 Z M858.652353,184.191761 C861.094112,184.191761 862.90306,183.009234 863.599792,181.187503 L861.113289,181.02131 C860.71059,181.769178 859.943545,182.159093 859.035876,182.159093 C857.642411,182.159093 856.945679,181.404832 857.194968,179.857958 L857.207753,179.787646 L863.893826,179.787646 L864.015274,179.039777 C864.571382,175.703133 862.832747,174.053987 860.231187,174.053987 C857.341985,174.053987 855.13034,176.105831 854.625369,179.135658 C854.101221,182.248581 855.628919,184.191761 858.652353,184.191761 Z M861.599084,178.100148 L857.51457,178.100148 C857.744684,177.019893 858.786586,176.086655 859.956329,176.086655 C861.132465,176.086655 861.790845,176.930404 861.599084,178.100148 Z M867.616099,184 L868.530161,178.445318 C868.74749,177.237222 869.763825,176.406257 870.952744,176.406257 C871.342658,176.406257 871.847629,176.470178 872.084135,176.553274 L872.493225,174.130691 C872.25672,174.073163 871.930726,174.041203 871.655868,174.041203 C870.556438,174.041203 869.546495,174.680407 868.983996,175.894894 L868.881723,175.894894 L869.169365,174.181828 L866.529453,174.181828 L864.893091,184 L867.616099,184 Z M875.531547,187.82244 C878.324868,187.82244 880.536514,186.550424 880.932821,184.095881 L882.581967,174.181828 L879.878134,174.181828 L879.609668,175.830974 L879.501004,175.830974 C879.264498,175.031969 878.638078,174.053987 876.995324,174.053987 C874.841207,174.053987 872.731834,175.728701 872.182119,179.071738 C871.645187,182.33807 873.166493,183.859375 875.378138,183.859375 C876.937796,183.859375 877.947738,183.073154 878.433533,182.261365 L878.54859,182.261365 L878.254556,184.057528 C878.050011,185.342328 877.078421,185.866475 875.895893,185.866475 C874.687798,185.866475 874.195611,185.355112 874.054986,184.811789 L871.472602,185.150567 C871.562091,186.63352 872.872459,187.82244 875.531547,187.82244 Z M876.554274,181.813923 C875.211945,181.813923 874.69419,180.752844 874.969048,179.058954 C875.237513,177.390631 876.119615,176.220888 877.474727,176.220888 C878.791487,176.220888 879.373163,177.339495 879.091913,179.058954 C878.810663,180.791196 877.85825,181.813923 876.554274,181.813923 Z M887.486768,184.191761 C889.928527,184.191761 891.737474,183.009234 892.434207,181.187503 L889.947703,181.02131 C889.545005,181.769178 888.77796,182.159093 887.870291,182.159093 C886.476826,182.159093 885.780094,181.404832 886.029383,179.857958 L886.042167,179.787646 L892.728241,179.787646 L892.849689,179.039777 C893.405797,175.703133 891.667162,174.053987 889.065602,174.053987 C886.1764,174.053987 883.964755,176.105831 883.459783,179.135658 C882.935636,182.248581 884.463334,184.191761 887.486768,184.191761 Z M890.433498,178.100148 L886.348985,178.100148 C886.579099,177.019893 887.621001,176.086655 888.790744,176.086655 C889.966879,176.086655 890.62526,176.930404 890.433498,178.100148 Z M896.463298,184 L897.40932,178.323869 C897.626649,177.058245 898.502359,176.316769 899.608182,176.316769 C900.707612,176.316769 901.23176,177.032677 901.033606,178.23438 L900.068408,184 L902.791417,184 L903.839712,177.748586 C904.223234,175.453843 903.104627,174.053987 901.065567,174.053987 C899.60179,174.053987 898.419262,174.763503 897.799234,175.91407 L897.69057,175.91407 L897.97182,174.181828 L895.383044,174.181828 L893.746682,184 L896.463298,184 Z M909.249484,184.191761 C911.863828,184.191761 913.74948,182.657672 914.267235,180.401282 L911.697635,180.401282 C911.358857,181.443184 910.579028,182.037644 909.633007,182.037644 C908.360991,182.037644 907.715395,180.970173 908.028605,179.090914 C908.322638,177.237222 909.338973,176.176144 910.617381,176.176144 C911.601755,176.176144 912.132294,176.840916 912.11951,177.812506 L914.682718,177.812506 C914.951183,175.543332 913.487406,174.053987 910.924198,174.053987 C907.945508,174.053987 905.746647,176.118615 905.260852,179.129266 C904.755881,182.114348 906.22605,184.191761 909.249484,184.191761 Z M916.410675,187.662639 C918.424167,187.662639 919.677007,186.646304 920.50158,185.061079 L926.120183,174.181828 L923.1351,174.181828 L919.881552,181.404832 L919.77928,181.404832 L918.948314,174.181828 L916.186953,174.181828 L918.027861,184.262074 L917.784963,184.677556 C917.24164,185.56605 916.608828,185.649146 915.694766,185.34872 L914.735961,187.387781 C915.106699,187.547582 915.713943,187.662639 916.410675,187.662639 Z M934.299808,184.191761 C936.914152,184.191761 938.799804,182.657672 939.317559,180.401282 L936.747959,180.401282 C936.409181,181.443184 935.629352,182.037644 934.68333,182.037644 C933.411315,182.037644 932.765719,180.970173 933.078929,179.090914 C933.372962,177.237222 934.389297,176.176144 935.667704,176.176144 C936.652079,176.176144 937.182618,176.840916 937.169834,177.812506 L939.733041,177.812506 C940.001507,175.543332 938.53773,174.053987 935.974522,174.053987 C932.995832,174.053987 930.79697,176.118615 930.311175,179.129266 C929.806204,182.114348 931.276373,184.191761 934.299808,184.191761 Z M943.154889,184.185369 C944.605882,184.185369 945.654177,183.552557 946.280596,182.638496 L946.357301,182.638496 L946.127187,184 L948.709571,184 L949.815394,177.377847 C950.198917,175.038361 948.377185,174.053987 946.203892,174.053987 C943.845229,174.053987 942.100203,175.178986 941.435431,176.968757 L943.915542,177.173302 C944.209576,176.521314 944.906308,176.041911 945.877898,176.041911 C946.798352,176.041911 947.23301,176.50853 947.105169,177.313927 L947.105169,177.352279 C946.990113,177.978699 946.29338,178.061795 944.573922,178.23438 C942.598782,178.413358 940.751482,179.071738 940.380744,181.257815 C940.061142,183.194603 941.288414,184.185369 943.154889,184.185369 Z M944.247928,182.30611 C943.397787,182.30611 942.880031,181.909803 942.995088,181.168327 C943.116537,180.401282 943.826053,180.024152 944.810427,179.889919 C945.404887,179.794038 946.408437,179.666197 946.759999,179.448868 L946.593806,180.49077 C946.414829,181.519889 945.443239,182.30611 944.247928,182.30611 Z M953.467355,184 L954.381417,178.445318 C954.598746,177.237222 955.61508,176.406257 956.804,176.406257 C957.193914,176.406257 957.698885,176.470178 957.935391,176.553274 L958.344481,174.130691 C958.107976,174.073163 957.781982,174.041203 957.507124,174.041203 C956.407693,174.041203 955.397751,174.680407 954.835252,175.894894 L954.732979,175.894894 L955.020621,174.181828 L952.380708,174.181828 L950.744346,184 L953.467355,184 Z M962.022007,184.191761 C964.463766,184.191761 966.272713,183.009234 966.969445,181.187503 L964.482942,181.02131 C964.080244,181.769178 963.313199,182.159093 962.405529,182.159093 C961.012065,182.159093 960.315332,181.404832 960.564622,179.857958 L960.577406,179.787646 L967.263479,179.787646 L967.384928,179.039777 C967.941035,175.703133 966.202401,174.053987 963.600841,174.053987 C960.711639,174.053987 958.499993,176.105831 957.995022,179.135658 C957.470875,182.248581 958.998572,184.191761 962.022007,184.191761 Z M964.968737,178.100148 L960.884224,178.100148 C961.114337,177.019893 962.15624,176.086655 963.325983,176.086655 C964.502118,176.086655 965.160498,176.930404 964.968737,178.100148 Z M969.835186,184.102273 C970.461606,184.102273 970.972969,183.590909 970.985753,182.951706 C970.998537,182.33807 970.461606,181.826707 969.835186,181.826707 C969.208766,181.826707 968.671835,182.312502 968.684619,182.951706 C968.697403,183.590909 969.183198,184.102273 969.835186,184.102273 Z M983.914659,184.178977 C987.033974,184.178977 989.616358,182.107956 990.127721,178.8608 L990.383403,177.454552 L985.397612,177.454552 L985.141931,178.8608 L988.600024,178.8608 C988.178149,181.206679 986.260537,182.696024 984.0425,182.696024 C981.613525,182.696024 980.181708,180.855117 980.744207,177.454552 C981.306707,174.053987 983.607841,172.213079 985.934543,172.213079 C987.826587,172.213079 988.798177,173.286942 989.053859,175.000009 L990.690221,175.000009 C990.639084,172.468761 988.798177,170.730126 986.036816,170.730126 C982.687387,170.730126 979.87489,173.31251 979.210118,177.454552 C978.519778,181.596593 980.43739,184.178977 983.914659,184.178977 Z M995.774001,184.204545 C998.381953,184.204545 1000.45297,182.235797 1000.93877,179.244323 C1001.44374,176.125008 999.967179,174.053987 997.256954,174.053987 C994.649002,174.053987 992.577982,176.022735 992.092187,179.039777 C991.593608,182.133525 993.063777,184.204545 995.774001,184.204545 Z M995.799569,182.849433 C993.830821,182.849433 993.242754,181.161935 993.549572,179.244323 C993.875566,177.224438 995.160365,175.409099 997.231386,175.409099 C999.200134,175.409099 999.788202,177.122166 999.481384,179.039777 C999.15539,181.066054 997.87059,182.849433 995.799569,182.849433 Z M1010.64609,184.127841 C1011.20859,184.127841 1011.59211,184.025568 1011.82223,183.948864 L1011.71996,182.593751 C1011.59211,182.619319 1011.38757,182.670456 1011.05518,182.670456 C1010.39041,182.670456 1009.77678,182.465911 1009.98132,181.187503 L1010.93373,175.460235 L1013.0495,175.460235 L1013.25404,174.181828 L1011.15106,174.181828 L1011.54098,171.829557 L1010.03246,171.829557 L1009.64254,174.181828 L1008.16598,174.181828 L1007.96144,175.460235 L1009.43161,175.460235 L1008.42166,181.596593 C1008.14041,183.30966 1009.36769,184.127841 1010.64609,184.127841 Z M1017.77532,184.204545 C1020.38327,184.204545 1022.45429,182.235797 1022.94009,179.244323 C1023.44506,176.125008 1021.9685,174.053987 1019.25827,174.053987 C1016.65032,174.053987 1014.5793,176.022735 1014.0935,179.039777 C1013.59493,182.133525 1015.06509,184.204545 1017.77532,184.204545 Z M1017.80089,182.849433 C1015.83214,182.849433 1015.24407,181.161935 1015.55089,179.244323 C1015.87688,177.224438 1017.16168,175.409099 1019.2327,175.409099 C1021.20145,175.409099 1021.78952,177.122166 1021.4827,179.039777 C1021.15671,181.066054 1019.87191,182.849433 1017.80089,182.849433 Z M1032.21275,184.230113 C1033.92582,184.230113 1034.97411,183.30966 1035.3832,182.670456 L1035.45991,182.670456 L1035.22979,184 L1036.73832,184 L1037.81218,177.531256 C1038.32354,174.411941 1036.02241,174.053987 1034.76957,174.053987 C1033.28662,174.053987 1031.49684,174.56535 1030.44855,176.355121 L1031.77809,176.866484 C1032.23832,176.150576 1033.20991,175.383531 1034.64173,175.383531 C1036.02241,175.383531 1036.53377,176.125008 1036.32923,177.377847 L1036.32923,177.428984 C1036.20138,178.144892 1035.45991,178.093756 1033.64457,178.323869 C1031.77809,178.553987 1029.73264,178.963073 1029.34912,181.213071 C1029.0423,183.130683 1030.34628,184.230113 1032.21275,184.230113 Z M1032.64741,182.875001 C1031.44571,182.875001 1030.67866,182.33807 1030.85764,181.289775 C1031.03662,180.139208 1032.16162,179.781254 1033.36332,179.627845 C1034.00252,179.551141 1035.74116,179.372164 1036.04798,179.065346 L1035.81786,180.446026 C1035.61332,181.673298 1034.43718,182.875001 1032.64741,182.875001 Z M1045.90871,184 L1046.8803,178.093756 C1047.18712,176.380689 1048.38882,175.409099 1049.8462,175.409099 C1051.25245,175.409099 1051.94279,176.329553 1051.68711,177.863642 L1050.66439,184 L1052.17291,184 L1053.2212,177.76137 C1053.63029,175.25569 1052.47972,174.053987 1050.51098,174.053987 C1049.02802,174.053987 1047.97973,174.718759 1047.36609,175.715917 L1047.23825,175.715917 L1047.49393,174.181828 L1046.03655,174.181828 L1044.40019,184 L1045.90871,184 Z M1058.94418,184.204545 C1060.94489,184.204545 1062.55569,183.207387 1063.2652,181.724434 L1061.88452,181.315343 C1061.32841,182.33807 1060.38239,182.849433 1059.1743,182.849433 C1057.28225,182.849433 1056.27231,182.005684 1056.63666,179.602277 L1063.77656,179.602277 L1063.87884,178.963073 C1064.49887,175.306826 1062.53012,174.053987 1060.47827,174.053987 C1057.82558,174.053987 1055.70342,176.150576 1055.21123,179.167618 C1054.70626,182.184661 1056.11251,184.204545 1058.94418,184.204545 Z M1062.44702,178.298301 L1056.84759,178.298301 C1057.14802,176.904836 1058.59901,175.409099 1060.24816,175.409099 C1061.89091,175.409099 1062.73466,176.636371 1062.44702,178.298301 Z M1068.14443,184.230113 C1069.8575,184.230113 1070.9058,183.30966 1071.31489,182.670456 L1071.39159,182.670456 L1071.16148,184 L1072.67,184 L1073.74386,177.531256 C1074.25522,174.411941 1071.95409,174.053987 1070.70125,174.053987 C1069.2183,174.053987 1067.42853,174.56535 1066.38023,176.355121 L1067.70978,176.866484 C1068.17,176.150576 1069.14159,175.383531 1070.57341,175.383531 C1071.95409,175.383531 1072.46545,176.125008 1072.26091,177.377847 L1072.26091,177.428984 C1072.13307,178.144892 1071.39159,178.093756 1069.57625,178.323869 C1067.70978,178.553987 1065.66432,178.963073 1065.2808,181.213071 C1064.97398,183.130683 1066.27796,184.230113 1068.14443,184.230113 Z M1068.57909,182.875001 C1067.37739,182.875001 1066.61034,182.33807 1066.78932,181.289775 C1066.9683,180.139208 1068.0933,179.781254 1069.295,179.627845 C1069.93421,179.551141 1071.67284,179.372164 1071.97966,179.065346 L1071.74954,180.446026 C1071.545,181.673298 1070.36886,182.875001 1068.57909,182.875001 Z M1076.85889,184 L1077.88162,177.786938 C1078.11173,176.457394 1079.31343,175.485804 1080.74525,175.485804 C1081.15434,175.485804 1081.56343,175.562508 1081.6657,175.588076 L1081.92139,174.053987 C1081.74241,174.028419 1081.35889,174.028419 1081.12877,174.028419 C1079.95264,174.028419 1078.80207,174.693191 1078.29071,175.664781 L1078.18843,175.664781 L1078.44412,174.181828 L1076.98673,174.181828 L1075.35037,184 L1076.85889,184 Z M1091.65427,184.204545 C1094.10882,184.204545 1096.15427,182.235797 1096.66563,179.116482 C1097.177,176.022735 1095.79631,174.053987 1093.3162,174.053987 C1091.39859,174.053987 1090.60598,175.230122 1090.19689,175.741485 L1090.06905,175.741485 L1090.86166,170.909103 L1089.35314,170.909103 L1087.17985,184 L1088.63723,184 L1088.89291,182.491479 L1089.07189,182.491479 C1089.32757,183.02841 1089.76223,184.204545 1091.65427,184.204545 Z M1091.67984,182.849433 C1089.8645,182.849433 1089.12303,181.315343 1089.48098,179.090914 C1089.83893,176.892052 1091.06621,175.409099 1092.90711,175.409099 C1094.82472,175.409099 1095.4895,177.019893 1095.15711,179.090914 C1094.79916,181.187503 1093.57189,182.849433 1091.67984,182.849433 Z M1098.08038,187.656247 C1099.40992,187.656247 1100.52214,186.972298 1101.3531,185.419033 L1107.37441,174.181828 L1105.67412,174.181828 L1101.65992,182.031252 L1101.55765,182.031252 L1100.1514,174.181828 L1098.57896,174.181828 L1100.54771,184 L1100.12583,184.767045 C1099.32044,186.230822 1098.66845,186.428975 1097.62015,186.147725 L1097.00652,187.477269 C1097.14714,187.553974 1097.56902,187.656247 1098.08038,187.656247 Z M759.561074,209.191761 C761.990049,209.191761 763.626411,208.009234 764.009934,206.187503 L761.49147,206.02131 C761.216612,206.769178 760.513488,207.159093 759.605819,207.159093 C758.244314,207.159093 757.381389,206.257815 757.381389,204.794038 L757.381389,204.787646 L764.067462,204.787646 L764.067462,204.039777 C764.067462,200.703133 762.047578,199.053987 759.45241,199.053987 C756.563208,199.053987 754.69034,201.105831 754.69034,204.135658 C754.69034,207.248581 756.53764,209.191761 759.561074,209.191761 Z M761.504254,203.100148 L757.381389,203.100148 C757.438917,201.981541 758.289058,201.086655 759.497154,201.086655 C760.679681,201.086655 761.497862,201.930404 761.504254,203.100148 Z M768.486468,209 L768.486468,203.10654 C768.486468,202.019893 769.176808,201.297593 770.084478,201.297593 C770.979363,201.297593 771.580215,201.911228 771.580215,202.876426 L771.580215,209 L774.220127,209 L774.220127,203.004267 C774.220127,201.987933 774.801803,201.297593 775.792569,201.297593 C776.661886,201.297593 777.313874,201.840916 777.313874,202.933955 L777.313874,209 L780.030491,209 L780.030491,202.397023 C780.030491,200.268474 778.764867,199.053987 776.936744,199.053987 C775.498535,199.053987 774.379928,199.789071 773.97723,200.91407 L773.874957,200.91407 C773.561747,199.776287 772.558197,199.053987 771.209477,199.053987 C769.886325,199.053987 768.882774,199.757111 768.473684,200.91407 L768.358627,200.91407 L768.358627,199.181828 L765.763459,199.181828 L765.763459,209 L768.486468,209 Z M786.571659,209.191761 C789.000634,209.191761 790.636997,208.009234 791.020519,206.187503 L788.502055,206.02131 C788.227198,206.769178 787.524073,207.159093 786.616404,207.159093 C785.254899,207.159093 784.391974,206.257815 784.391974,204.794038 L784.391974,204.787646 L791.078047,204.787646 L791.078047,204.039777 C791.078047,200.703133 789.058163,199.053987 786.462995,199.053987 C783.573793,199.053987 781.700925,201.105831 781.700925,204.135658 C781.700925,207.248581 783.548225,209.191761 786.571659,209.191761 Z M788.514839,203.100148 L784.391974,203.100148 C784.449502,201.981541 785.299644,201.086655 786.507739,201.086655 C787.690266,201.086655 788.508447,201.930404 788.514839,203.100148 Z M795.497053,209 L795.497053,203.445318 C795.497053,202.237222 796.379155,201.406257 797.580858,201.406257 C797.957988,201.406257 798.475744,201.470178 798.731425,201.553274 L798.731425,199.137083 C798.488528,199.079555 798.14975,199.041203 797.874892,199.041203 C796.775461,199.041203 795.874184,199.680407 795.516229,200.894894 L795.413957,200.894894 L795.413957,199.181828 L792.774044,199.181828 L792.774044,209 L795.497053,209 Z M804.013353,212.82244 C806.819458,212.82244 808.813774,211.544032 808.813774,209.095881 L808.813774,199.181828 L806.109942,199.181828 L806.109942,200.830974 L806.007669,200.830974 C805.643323,200.031969 804.844318,199.053987 803.201564,199.053987 C801.047446,199.053987 799.225715,200.728701 799.225715,204.071738 C799.225715,207.33807 800.99631,208.859375 803.207956,208.859375 C804.774005,208.859375 805.649715,208.073154 806.007669,207.261365 L806.122726,207.261365 L806.122726,209.057528 C806.122726,210.342328 805.2598,210.866475 804.077273,210.866475 C802.87557,210.866475 802.268326,210.342328 802.044605,209.811789 L799.526141,210.150567 C799.852135,211.63352 801.367048,212.82244 804.013353,212.82244 Z M804.070881,206.813923 C802.734945,206.813923 802.006252,205.752844 802.006252,204.058954 C802.006252,202.390631 802.722161,201.220888 804.070881,201.220888 C805.394033,201.220888 806.13551,202.339495 806.13551,204.058954 C806.13551,205.791196 805.381249,206.813923 804.070881,206.813923 Z M815.380506,209.191761 C817.809481,209.191761 819.445843,208.009234 819.829365,206.187503 L817.310902,206.02131 C817.036044,206.769178 816.33292,207.159093 815.42525,207.159093 C814.063746,207.159093 813.200821,206.257815 813.200821,204.794038 L813.200821,204.787646 L819.886894,204.787646 L819.886894,204.039777 C819.886894,200.703133 817.867009,199.053987 815.271841,199.053987 C812.38264,199.053987 810.509772,201.105831 810.509772,204.135658 C810.509772,207.248581 812.357071,209.191761 815.380506,209.191761 Z M817.323686,203.100148 L813.200821,203.100148 C813.258349,201.981541 814.10849,201.086655 815.316586,201.086655 C816.499113,201.086655 817.317294,201.930404 817.323686,203.100148 Z M824.3059,209 L824.3059,203.323869 C824.312292,202.058245 825.066552,201.316769 826.165983,201.316769 C827.259022,201.316769 827.917402,202.032677 827.91101,203.23438 L827.91101,209 L830.634019,209 L830.634019,202.748586 C830.634019,200.460235 829.29169,199.053987 827.246238,199.053987 C825.788853,199.053987 824.734166,199.769895 824.293116,200.91407 L824.178059,200.91407 L824.178059,199.181828 L821.582891,199.181828 L821.582891,209 L824.3059,209 Z M837.130438,209.191761 C839.744782,209.191761 841.387536,207.657672 841.515377,205.401282 L838.945777,205.401282 C838.785976,206.449576 838.095636,207.037644 837.162398,207.037644 C835.890382,207.037644 835.065809,205.970173 835.065809,204.090914 C835.065809,202.237222 835.896774,201.176144 837.162398,201.176144 C838.159556,201.176144 838.79876,201.834524 838.945777,202.812506 L841.515377,202.812506 C841.40032,200.543332 839.680862,199.053987 837.117654,199.053987 C834.138963,199.053987 832.298056,201.118615 832.298056,204.129266 C832.298056,207.114348 834.107003,209.191761 837.130438,209.191761 Z M844.866912,212.662639 C846.893189,212.662639 847.973443,211.63352 848.523159,210.061079 L852.339206,199.194612 L849.456396,199.181828 L847.404552,206.392048 L847.302279,206.392048 L845.269611,199.181828 L842.405977,199.181828 L845.927991,209.28125 L845.76819,209.696732 C845.384667,210.585226 844.726287,210.649146 843.767481,210.34872 L843.153846,212.387781 C843.54376,212.547582 844.176572,212.662639 844.866912,212.662639 Z M861.362581,209.159801 C862.947807,209.159801 863.77238,208.245739 864.14951,207.427558 L864.264567,207.427558 L864.264567,209 L866.949223,209 L866.949223,195.909103 L864.232606,195.909103 L864.232606,200.830974 L864.14951,200.830974 C863.785164,200.031969 862.998943,199.053987 861.356189,199.053987 C859.202071,199.053987 857.38034,200.728701 857.38034,204.103698 C857.38034,207.389206 859.125367,209.159801 861.362581,209.159801 Z M862.225506,206.9929 C860.88957,206.9929 860.160877,205.80398 860.160877,204.090914 C860.160877,202.390631 860.876786,201.220888 862.225506,201.220888 C863.548658,201.220888 864.290135,202.339495 864.290135,204.090914 C864.290135,205.842333 863.535874,206.9929 862.225506,206.9929 Z M873.573483,209.191761 C876.002458,209.191761 877.63882,208.009234 878.022343,206.187503 L875.503879,206.02131 C875.229022,206.769178 874.525897,207.159093 873.618228,207.159093 C872.256723,207.159093 871.393798,206.257815 871.393798,204.794038 L871.393798,204.787646 L878.079871,204.787646 L878.079871,204.039777 C878.079871,200.703133 876.059987,199.053987 873.464819,199.053987 C870.575617,199.053987 868.702749,201.105831 868.702749,204.135658 C868.702749,207.248581 870.550049,209.191761 873.573483,209.191761 Z M875.516663,203.100148 L871.393798,203.100148 C871.451326,201.981541 872.301468,201.086655 873.509563,201.086655 C874.69209,201.086655 875.510271,201.930404 875.516663,203.100148 Z M882.498877,212.681815 L882.498877,207.427558 L882.581974,207.427558 C882.959104,208.245739 883.783677,209.159801 885.368903,209.159801 C887.606116,209.159801 889.351143,207.389206 889.351143,204.103698 C889.351143,200.728701 887.529412,199.053987 885.375295,199.053987 C883.732541,199.053987 882.94632,200.031969 882.581974,200.830974 L882.460525,200.830974 L882.460525,199.181828 L879.775868,199.181828 L879.775868,212.681815 L882.498877,212.681815 Z M884.505977,206.9929 C883.195609,206.9929 882.441349,205.842333 882.441349,204.090914 C882.441349,202.339495 883.182825,201.220888 884.505977,201.220888 C885.854698,201.220888 886.570606,202.390631 886.570606,204.090914 C886.570606,205.80398 885.841914,206.9929 884.505977,206.9929 Z M893.878814,209.185369 C895.329807,209.185369 896.269437,208.552557 896.74884,207.638496 L896.825545,207.638496 L896.825545,209 L899.407929,209 L899.407929,202.377847 C899.407929,200.038361 897.426396,199.053987 895.240319,199.053987 C892.888048,199.053987 891.341175,200.178986 890.964045,201.968757 L893.482508,202.173302 C893.667877,201.521314 894.249553,201.041911 895.227535,201.041911 C896.15438,201.041911 896.68492,201.50853 896.68492,202.313927 L896.68492,202.352279 C896.68492,202.985091 896.013756,203.068187 894.307081,203.23438 C892.363901,203.413358 890.618874,204.065346 890.618874,206.257815 C890.618874,208.200995 892.005947,209.185369 893.878814,209.185369 Z M894.658643,207.30611 C893.821286,207.30611 893.220434,206.916195 893.220434,206.168327 C893.220434,205.401282 893.853246,205.024152 894.812052,204.889919 C895.406512,204.806822 896.378102,204.666197 896.704096,204.448868 L896.704096,205.49077 C896.704096,206.519889 895.853955,207.30611 894.658643,207.30611 Z M904.165712,209 L904.165712,203.445318 C904.165712,202.237222 905.047814,201.406257 906.249517,201.406257 C906.626647,201.406257 907.144403,201.470178 907.400084,201.553274 L907.400084,199.137083 C907.157187,199.079555 906.818409,199.041203 906.543551,199.041203 C905.44412,199.041203 904.542843,199.680407 904.184888,200.894894 L904.082616,200.894894 L904.082616,199.181828 L901.442704,199.181828 L901.442704,209 L904.165712,209 Z M913.257296,209.134233 C913.960421,209.108665 914.459,208.96804 914.733857,208.878551 L914.305591,206.852275 C914.171358,206.877843 913.883716,206.941763 913.628035,206.941763 C913.084711,206.941763 912.707581,206.737218 912.707581,205.982957 L912.707581,201.22728 L914.55488,201.22728 L914.55488,199.181828 L912.707581,199.181828 L912.707581,196.829557 L909.984572,196.829557 L909.984572,199.181828 L908.642244,199.181828 L908.642244,201.22728 L909.984572,201.22728 L909.984572,206.340912 C909.971788,208.264915 911.282156,209.217329 913.257296,209.134233 Z M918.967491,209 L918.967491,203.10654 C918.967491,202.019893 919.657831,201.297593 920.565501,201.297593 C921.460386,201.297593 922.061238,201.911228 922.061238,202.876426 L922.061238,209 L924.70115,209 L924.70115,203.004267 C924.70115,201.987933 925.282826,201.297593 926.273592,201.297593 C927.142909,201.297593 927.794897,201.840916 927.794897,202.933955 L927.794897,209 L930.511514,209 L930.511514,202.397023 C930.511514,200.268474 929.24589,199.053987 927.417767,199.053987 C925.979558,199.053987 924.860951,199.789071 924.458252,200.91407 L924.35598,200.91407 C924.04277,199.776287 923.03922,199.053987 921.690499,199.053987 C920.367347,199.053987 919.363797,199.757111 918.954707,200.91407 L918.83965,200.91407 L918.83965,199.181828 L916.244482,199.181828 L916.244482,209 L918.967491,209 Z M937.052682,209.191761 C939.481657,209.191761 941.118019,208.009234 941.501542,206.187503 L938.983078,206.02131 C938.70822,206.769178 938.005096,207.159093 937.097426,207.159093 C935.735922,207.159093 934.872997,206.257815 934.872997,204.794038 L934.872997,204.787646 L941.55907,204.787646 L941.55907,204.039777 C941.55907,200.703133 939.539186,199.053987 936.944018,199.053987 C934.054816,199.053987 932.181948,201.105831 932.181948,204.135658 C932.181948,207.248581 934.029248,209.191761 937.052682,209.191761 Z M938.995862,203.100148 L934.872997,203.100148 C934.930525,201.981541 935.780666,201.086655 936.988762,201.086655 C938.171289,201.086655 938.98947,201.930404 938.995862,203.100148 Z M945.978076,209 L945.978076,203.323869 C945.984468,202.058245 946.738729,201.316769 947.838159,201.316769 C948.931198,201.316769 949.589578,202.032677 949.583186,203.23438 L949.583186,209 L952.306195,209 L952.306195,202.748586 C952.306195,200.460235 950.963867,199.053987 948.918414,199.053987 C947.461029,199.053987 946.406343,199.769895 945.965292,200.91407 L945.850235,200.91407 L945.850235,199.181828 L943.255067,199.181828 L943.255067,209 L945.978076,209 Z M958.291251,209.134233 C958.994375,209.108665 959.492954,208.96804 959.767812,208.878551 L959.339545,206.852275 C959.205313,206.877843 958.917671,206.941763 958.661989,206.941763 C958.118666,206.941763 957.741536,206.737218 957.741536,205.982957 L957.741536,201.22728 L959.588835,201.22728 L959.588835,199.181828 L957.741536,199.181828 L957.741536,196.829557 L955.018527,196.829557 L955.018527,199.181828 L953.676198,199.181828 L953.676198,201.22728 L955.018527,201.22728 L955.018527,206.340912 C955.005743,208.264915 956.316111,209.217329 958.291251,209.134233 Z M971.156238,210.546874 C969.820302,208.859375 968.803967,205.484378 968.803967,202.454552 C968.803967,199.431117 969.820302,196.05612 971.156238,194.368622 L968.554678,194.368622 C966.809651,196.644188 965.972294,199.277708 965.972294,202.454552 C965.972294,205.631395 966.809651,208.271308 968.554678,210.546874 L971.156238,210.546874 Z M981.551797,209 L981.551797,206.718042 L975.472968,206.718042 L975.472968,203.592335 L981.072394,203.592335 L981.072394,201.310377 L975.472968,201.310377 L975.472968,198.191061 L981.526229,198.191061 L981.526229,195.909103 L972.705215,195.909103 L972.705215,209 L981.551797,209 Z M986.418246,209 L986.418246,204.359379 L988.438131,204.359379 L990.918242,209 L993.973637,209 L991.1931,203.911937 C992.682445,203.272733 993.507018,201.975149 993.507018,200.185378 C993.507018,197.583818 991.787559,195.909103 988.815261,195.909103 L983.650493,195.909103 L983.650493,209 L986.418246,209 Z M988.297506,202.13495 L986.418246,202.13495 L986.418246,198.171885 L988.284722,198.171885 C989.882732,198.171885 990.656168,198.881402 990.656168,200.185378 C990.656168,201.482962 989.882732,202.13495 988.297506,202.13495 Z M997.337957,210.540481 C999.082984,208.264915 999.920341,205.631395 999.920341,202.454552 C999.920341,199.277708 999.082984,196.637796 997.337957,194.36223 L994.736397,194.36223 C996.072333,196.049728 997.088668,199.424725 997.088668,202.454552 C997.088668,205.477986 996.072333,208.852983 994.736397,210.540481 L997.337957,210.540481 Z M1009.42951,209 L1009.42951,203.445318 C1009.42951,202.237222 1010.31161,201.406257 1011.51331,201.406257 C1011.89044,201.406257 1012.4082,201.470178 1012.66388,201.553274 L1012.66388,199.137083 C1012.42098,199.079555 1012.0822,199.041203 1011.80735,199.041203 C1010.70792,199.041203 1009.80664,199.680407 1009.44868,200.894894 L1009.34641,200.894894 L1009.34641,199.181828 L1006.7065,199.181828 L1006.7065,209 L1009.42951,209 Z M1015.35064,197.916204 C1016.16243,197.916204 1016.8272,197.296176 1016.8272,196.535523 C1016.8272,195.781263 1016.16243,195.161235 1015.35064,195.161235 C1014.54524,195.161235 1013.88047,195.781263 1013.88047,196.535523 C1013.88047,197.296176 1014.54524,197.916204 1015.35064,197.916204 Z M1016.70575,209 L1016.70575,199.181828 L1013.98274,199.181828 L1013.98274,209 L1016.70575,209 Z M1023.22134,212.82244 C1026.02745,212.82244 1028.02176,211.544032 1028.02176,209.095881 L1028.02176,199.181828 L1025.31793,199.181828 L1025.31793,200.830974 L1025.21566,200.830974 C1024.85131,200.031969 1024.05231,199.053987 1022.40955,199.053987 C1020.25544,199.053987 1018.4337,200.728701 1018.4337,204.071738 C1018.4337,207.33807 1020.2043,208.859375 1022.41594,208.859375 C1023.98199,208.859375 1024.8577,208.073154 1025.21566,207.261365 L1025.33071,207.261365 L1025.33071,209.057528 C1025.33071,210.342328 1024.46779,210.866475 1023.28526,210.866475 C1022.08356,210.866475 1021.47631,210.342328 1021.25259,209.811789 L1018.73413,210.150567 C1019.06012,211.63352 1020.57504,212.82244 1023.22134,212.82244 Z M1023.27887,206.813923 C1021.94293,206.813923 1021.21424,205.752844 1021.21424,204.058954 C1021.21424,202.390631 1021.93015,201.220888 1023.27887,201.220888 C1024.60202,201.220888 1025.3435,202.339495 1025.3435,204.058954 C1025.3435,205.791196 1024.58924,206.813923 1023.27887,206.813923 Z M1032.83708,209 L1032.83708,203.323869 C1032.84347,202.058245 1033.6169,201.316769 1034.72912,201.316769 C1035.83494,201.316769 1036.48693,202.026285 1036.48054,203.23438 L1036.48054,209 L1039.20357,209 L1039.20357,202.748586 C1039.20994,200.447451 1037.85483,199.053987 1035.80937,199.053987 C1034.32003,199.053987 1033.32287,199.757111 1032.87543,200.91407 L1032.76037,200.91407 L1032.76037,195.909103 L1030.11407,195.909103 L1030.11407,209 L1032.83708,209 Z M1045.195,209.134233 C1045.89812,209.108665 1046.3967,208.96804 1046.67156,208.878551 L1046.24329,206.852275 C1046.10906,206.877843 1045.82142,206.941763 1045.56573,206.941763 C1045.02241,206.941763 1044.64528,206.737218 1044.64528,205.982957 L1044.64528,201.22728 L1046.49258,201.22728 L1046.49258,199.181828 L1044.64528,199.181828 L1044.64528,196.829557 L1041.92227,196.829557 L1041.92227,199.181828 L1040.57994,199.181828 L1040.57994,201.22728 L1041.92227,201.22728 L1041.92227,206.340912 C1041.90949,208.264915 1043.21986,209.217329 1045.195,209.134233 Z M1054.9982,209 L1054.9982,203.323869 C1055.00459,202.058245 1055.75885,201.316769 1056.85828,201.316769 C1057.95132,201.316769 1058.6097,202.032677 1058.60331,203.23438 L1058.60331,209 L1061.32631,209 L1061.32631,202.748586 C1061.32631,200.460235 1059.98399,199.053987 1057.93853,199.053987 C1056.48115,199.053987 1055.42646,199.769895 1054.98541,200.91407 L1054.87035,200.91407 L1054.87035,199.181828 L1052.27519,199.181828 L1052.27519,209 L1054.9982,209 Z M1067.82273,209.191761 C1070.80142,209.191761 1072.65512,207.152701 1072.65512,204.129266 C1072.65512,201.086655 1070.80142,199.053987 1067.82273,199.053987 C1064.84404,199.053987 1062.99035,201.086655 1062.99035,204.129266 C1062.99035,207.152701 1064.84404,209.191761 1067.82273,209.191761 Z M1067.83552,207.082388 C1066.46123,207.082388 1065.7581,205.823156 1065.7581,204.11009 C1065.7581,202.397023 1066.46123,201.1314 1067.83552,201.1314 C1069.18424,201.1314 1069.88736,202.397023 1069.88736,204.11009 C1069.88736,205.823156 1069.18424,207.082388 1067.83552,207.082388 Z M1078.92142,209 L1080.60892,202.82529 L1080.73037,202.82529 L1082.41787,209 L1085.30068,209 L1087.96616,199.181828 L1085.21758,199.181828 L1083.72184,205.74006 L1083.63875,205.74006 L1082.02795,199.181828 L1079.32412,199.181828 L1077.73889,205.778412 L1077.6494,205.778412 L1076.1281,199.181828 L1073.37313,199.181828 L1076.045,209 L1078.92142,209 Z M1089.59184,209.166193 C1090.41003,209.166193 1091.11954,208.482245 1091.12593,207.632104 C1091.11954,206.794746 1090.41003,206.110798 1089.59184,206.110798 C1088.74809,206.110798 1088.05136,206.794746 1088.05775,207.632104 C1088.05136,208.482245 1088.74809,209.166193 1089.59184,209.166193 Z M1094.13229,207.593751 L1097.35388,203.758528 L1097.37945,203.630687 L1097.36667,203.630687 L1097.37945,203.579551 L1095.43627,199.744327 L1094.10673,199.744327 L1095.88371,203.681823 L1092.80275,207.593751 L1094.13229,207.593751 Z M1097.40502,207.593751 L1100.62661,203.758528 L1100.65217,203.630687 L1100.63939,203.630687 L1100.65217,203.579551 L1098.70899,199.744327 L1097.37945,199.744327 L1099.15644,203.681823 L1096.07547,207.593751 L1097.40502,207.593751 Z" id="Imsorry.Thiscouldbequiteserious.Peoplewithsimilarsymptomsusuallyneedanemergencycare.Gotoanearbyemergencydepartment(ER)rightnow." fill="#000000" fill-rule="nonzero"></path>
        <rect id="Rectangle" fill="url(#linearGradient-5)" x="575.5" y="50" width="1" height="166"></rect>
        <circle id="Oval" fill="#D4D4D4" cx="576" cy="217" r="3"></circle>
        <path d="M590.54801,139.5 L591.64531,136.410514 L596.055817,136.410514 L597.153117,139.5 L598.538059,139.5 L594.532381,128.590919 L593.168746,128.590919 L589.163068,139.5 L590.54801,139.5 Z M595.640334,135.23864 L592.060792,135.23864 L593.80795,130.31677 L593.893177,130.31677 L595.640334,135.23864 Z M601.261759,139.5 L601.261759,128.590919 L600.004658,128.590919 L600.004658,139.5 L601.261759,139.5 Z M606.925791,139.670454 C608.587721,139.670454 609.802209,138.839489 610.185731,137.603695 L608.971244,137.262786 C608.651642,138.115058 607.91123,138.541194 606.925791,138.541194 C605.450295,138.541194 604.432896,137.587715 604.374302,135.835231 L610.313572,135.835231 L610.313572,135.302561 C610.313572,132.255689 608.502494,131.211656 606.79795,131.211656 C604.582043,131.211656 603.111874,132.958813 603.111874,135.473015 C603.111874,137.987217 604.560737,139.670454 606.925791,139.670454 Z M609.035164,134.748584 L604.374302,134.748584 C604.459529,133.475503 605.359741,132.340916 606.79795,132.340916 C608.161585,132.340916 609.035164,133.363642 609.035164,134.748584 Z M612.888123,139.5 L614.848348,136.325287 L616.808574,139.5 L618.257436,139.5 L615.615393,135.409095 L618.257436,131.31819 L616.808574,131.31819 L614.848348,134.663357 L612.888123,131.31819 L611.439261,131.31819 L614.03869,135.409095 L611.439261,139.5 L612.888123,139.5 Z M622.387383,139.691761 C623.814938,139.691761 624.560676,138.924716 624.816358,138.392047 L624.880278,138.392047 L624.880278,139.5 L626.137379,139.5 L626.137379,134.10938 C626.137379,131.509951 624.155847,131.211656 623.111814,131.211656 C621.87602,131.211656 620.469771,131.637792 619.830567,133.129267 L621.023748,133.555403 C621.300736,132.958813 621.95592,132.319609 623.154428,132.319609 C624.310321,132.319609 624.880278,132.93218 624.880278,133.981539 L624.880278,134.024153 C624.880278,134.631397 624.262381,134.57813 622.770905,134.769891 C621.252796,134.966979 619.596192,135.302561 619.596192,137.177559 C619.596192,138.775569 620.831987,139.691761 622.387383,139.691761 Z M622.579144,138.562501 C621.577725,138.562501 620.853294,138.115058 620.853294,137.241479 C620.853294,136.282674 621.726872,135.984378 622.706985,135.856538 C623.239655,135.792617 624.66721,135.64347 624.880278,135.387788 L624.880278,136.538355 C624.880278,137.561081 624.07062,138.562501 622.579144,138.562501 Z" id="Alexa" fill="#3023AE" fill-rule="nonzero" transform="translate(607.650224, 134.141340) rotate(-90.000000) translate(-607.650224, -134.141340) "></path>
        <path d="M531.795509,139.5 L531.795509,131.211656 L531.902043,131.211656 L535.311131,139.5 L536.504311,139.5 L539.913399,131.211656 L540.019933,131.211656 L540.019933,139.5 L541.255727,139.5 L541.255727,128.590919 L539.679024,128.590919 L535.971641,137.646309 L535.843801,137.646309 L532.136418,128.590919 L530.559715,128.590919 L530.559715,139.5 L531.795509,139.5 Z M544.639941,129.954555 C545.129998,129.954555 545.534827,129.571032 545.534827,129.102283 C545.534827,128.633533 545.129998,128.250011 544.639941,128.250011 C544.149885,128.250011 543.745056,128.633533 543.745056,129.102283 C543.745056,129.571032 544.149885,129.954555 544.639941,129.954555 Z M545.257839,139.5 L545.257839,131.31819 L544.000738,131.31819 L544.000738,139.5 L545.257839,139.5 Z M548.748577,139.5 L548.748577,136.437148 L549.627483,135.622163 L552.690335,139.5 L554.288345,139.5 L550.575635,134.812504 L554.032663,131.31819 L552.477267,131.31819 L548.897725,134.961652 L548.748577,134.961652 L548.748577,128.590919 L547.491476,128.590919 L547.491476,139.5 L548.748577,139.5 Z M558.673973,139.670454 C560.335903,139.670454 561.550391,138.839489 561.933913,137.603695 L560.719425,137.262786 C560.399824,138.115058 559.659412,138.541194 558.673973,138.541194 C557.198477,138.541194 556.181078,137.587715 556.122484,135.835231 L562.061754,135.835231 L562.061754,135.302561 C562.061754,132.255689 560.250676,131.211656 558.546132,131.211656 C556.330225,131.211656 554.860056,132.958813 554.860056,135.473015 C554.860056,137.987217 556.308918,139.670454 558.673973,139.670454 Z M560.783346,134.748584 L556.122484,134.748584 C556.207711,133.475503 557.107923,132.340916 558.546132,132.340916 C559.909767,132.340916 560.783346,133.363642 560.783346,134.748584 Z" id="Mike" fill="#000000" fill-rule="nonzero" transform="translate(546.310734, 133.960233) rotate(-90.000000) translate(-546.310734, -133.960233) "></path>
    </g>
</svg>