<?xml version="1.0" encoding="utf-8"?>
<!-- Generator: Adobe Illustrator 24.0.1, SVG Export Plug-In . SVG Version: 6.00 Build 0)  -->
<svg version="1.1" id="Ebene_1" xmlns="http://www.w3.org/2000/svg" xmlns:xlink="http://www.w3.org/1999/xlink" x="0px" y="0px"
	 viewBox="0 0 279.61801 269.87231" style="enable-background:new 0 0 279.61801 269.87231;" xml:space="preserve">
<style type="text/css">
	.st0{fill-rule:evenodd;clip-rule:evenodd;fill:url(#SVGID_1_);}
	.st1{fill-rule:evenodd;clip-rule:evenodd;fill:#009FE3;}
	.st2{fill-rule:evenodd;clip-rule:evenodd;fill:#0069B4;}
	.st3{fill-rule:evenodd;clip-rule:evenodd;fill:#008638;}
	.st4{fill-rule:evenodd;clip-rule:evenodd;fill:#E67900;}
	.st5{fill:#009FE3;}
	.st6{fill:#FFFFFF;}
	.st7{font-family:'OpenSans-Regular';}
	.st8{font-size:9px;}
</style>
<linearGradient id="SVGID_1_" gradientUnits="userSpaceOnUse" x1="158.57314" y1="223.00461" x2="232.27414" y2="223.00461" gradientTransform="matrix(0.70711 -0.70711 0.70711 0.70711 -100.44981 203.50191)">
	<stop  offset="0" style="stop-color:#E67900"/>
	<stop  offset="0.09227" style="stop-color:#DC7A02"/>
	<stop  offset="0.24988" style="stop-color:#C17B09"/>
	<stop  offset="0.4537" style="stop-color:#947E14"/>
	<stop  offset="0.69588" style="stop-color:#578123"/>
	<stop  offset="0.96765" style="stop-color:#0A8536"/>
	<stop  offset="1" style="stop-color:#008638"/>
</linearGradient>
<path class="st0" d="M221.48088,196.94737c14.38327,14.38326,14.38324,37.7305-0.00002,52.11375
	c-14.38396,14.38397-37.7312,14.38397-52.11446,0.00073c-14.38327-14.38327-14.38327-37.73053,0.0007-52.11449
	C183.75037,182.56412,207.09763,182.56412,221.48088,196.94737"/>
<g>
	<path class="st1" d="M175.01518,46.3646c0,20.341-16.509,36.85001-36.84998,36.85001c-20.341,0-36.85-16.509-36.85-36.85001
		s16.509-36.84998,36.85-36.84998C158.50618,9.51463,175.01518,26.0236,175.01518,46.3646"/>
	<path class="st2" d="M81.9562,113.68461c0,20.34101-16.509,36.85001-36.85001,36.85001c-20.34199,0-36.851-16.509-36.851-36.85001
		s16.509-36.85001,36.851-36.85001C65.4472,76.8346,81.9562,93.34361,81.9562,113.68461"/>
	<path class="st3" d="M267.35519,113.68461c0,20.34101-16.50899,36.85001-36.84999,36.85001s-36.85001-16.509-36.85001-36.85001
		s16.509-36.85001,36.85001-36.85001S267.35519,93.34361,267.35519,113.68461"/>
</g>
<path class="st4" d="M117.7152,223.00462c0,20.341-16.509,36.84996-36.85001,36.84996c-20.342,0-36.851-16.50896-36.851-36.84996
	s16.509-36.85001,36.851-36.85001C101.2062,186.15462,117.7152,202.66362,117.7152,223.00462"/>
<polygon class="st5" points="96.24017,80.20115 94.57095,78.06178 82.96355,87.11845 77.84457,80.55775 89.45196,71.50108 
	87.79128,69.37269 97.43114,70.55271 "/>
<polygon class="st5" points="185.40788,84.21378 187.32704,82.29459 176.91429,71.88184 182.79976,65.99638 193.21251,76.40913 
	195.12184,74.49979 195.1317,84.21378 "/>
<polygon class="st5" points="209.16643,171.10887 211.64201,172.22169 217.67979,158.79005 225.27159,162.20271 
	219.23381,175.63435 221.6967,176.74147 212.61876,180.19951 "/>
<polygon class="st5" points="133.69649,216.63615 133.69649,219.34978 148.41963,219.34978 148.41963,227.67155 
	133.69649,227.67155 133.69649,230.37126 126.82198,223.51067 "/>
<polygon class="st5" points="66.13342,162.75151 63.54772,163.57274 68.00341,177.6017 60.07399,180.12013 55.61831,166.09117 
	53.04589,166.90819 57.50257,158.28157 "/>
<text transform="matrix(1 0 0 1 119.27862 44.15574)" class="st6 st7 st8">«Konto» </text>
<text transform="matrix(1 0 0 1 115.14678 54.15574)"><tspan x="0" y="0" class="st6 st7 st8">beim</tspan><tspan x="21.2124" y="0" class="st6 st7 st8"> </tspan><tspan x="23.24463" y="0" class="st6 st7 st8">SVPS</tspan></text>
<text transform="matrix(1 0 0 1 205.39629 112.24607)"><tspan x="0" y="0" class="st6 st7 st8">Nenngeld</tspan><tspan x="40.6543" y="0" class="st6 st7 st8"> </tspan><tspan x="42.68555" y="0" class="st6 st7 st8">an</tspan></text>
<text transform="matrix(1 0 0 1 205.42363 122.24656)"><tspan x="0" y="0" class="st6 st7 st8">V</tspan><tspan x="5.00586" y="0" class="st6 st7 st8">e</tspan><tspan x="10.05566" y="0" class="st6 st7 st8">r</tspan><tspan x="13.64844" y="0" class="st6 st7 st8">an</tspan><tspan x="24.17773" y="0" class="st6 st7 st8">s</tspan><tspan x="28.38965" y="0" class="st6 st7 st8">talter</tspan></text>
<text transform="matrix(1 0 0 1 171.25078 216.09129)"><tspan x="0" y="0" class="st6 st7 st8">G</tspan><tspan x="6.55176" y="0" class="st6 st7 st8">e</tspan><tspan x="11.5293" y="0" class="st6 st7 st8">winngeld </tspan></text>
<text transform="matrix(1 0 0 1 190.37578 226.09032)" class="st6 st7 st8">an </text>
<text transform="matrix(1 0 0 1 166.46269 236.09032)"><tspan x="0" y="0" class="st6 st7 st8">E</tspan><tspan x="5.00586" y="0" class="st6 st7 st8">v</tspan><tspan x="9.43359" y="0" class="st6 st7 st8">entC</tspan><tspan x="28.86133" y="0" class="st6 st7 st8">l</tspan><tspan x="30.92188" y="0" class="st6 st7 st8">earing</tspan></text>
<text transform="matrix(1 0 0 1 56.61357 216.09129)"><tspan x="0" y="0" class="st6 st7 st8">G</tspan><tspan x="6.55225" y="0" class="st6 st7 st8">e</tspan><tspan x="11.52979" y="0" class="st6 st7 st8">winngeld </tspan></text>
<text transform="matrix(1 0 0 1 55.00859 226.09032)"><tspan x="0" y="0" class="st6 st7 st8">an</tspan><tspan x="10.5293" y="0" class="st6 st7 st8"> </tspan><tspan x="12.55225" y="0" class="st6 st7 st8">Reiter</tspan><tspan x="37.3418" y="0" class="st6 st7 st8"> </tspan><tspan x="39.36475" y="0" class="st6 st7 st8">bei</tspan></text>
<text transform="matrix(1 0 0 1 51.82451 236.09032)"><tspan x="0" y="0" class="st6 st7 st8">E</tspan><tspan x="5.00537" y="0" class="st6 st7 st8">v</tspan><tspan x="9.43311" y="0" class="st6 st7 st8">entC</tspan><tspan x="28.86133" y="0" class="st6 st7 st8">l</tspan><tspan x="30.92188" y="0" class="st6 st7 st8">earing</tspan></text>
<text transform="matrix(1 0 0 1 21.8211 112.58103)"><tspan x="0" y="0" class="st6 st7 st8">Bank</tspan><tspan x="21.08496" y="0" class="st6 st7 st8">k</tspan><tspan x="25.74609" y="0" class="st6 st7 st8">onto</tspan></text>
<text transform="matrix(1 0 0 1 20.72686 122.58054)"><tspan x="0" y="0" class="st6 st7 st8">des</tspan><tspan x="14.85791" y="0" class="st6 st7 st8"> </tspan><tspan x="16.88086" y="0" class="st6 st7 st8">Reite</tspan><tspan x="37.99658" y="0" class="st6 st7 st8">r</tspan><tspan x="41.58057" y="0" class="st6 st7 st8">s</tspan></text>
<polyline class="st4" points="129.9362,84.59461 132.62019,96.15961 128.17418,94.62861 96.6982,187.03862 93.6852,186.00063 
	125.16021,93.59159 120.7142,92.06062 129.9362,84.59461 "/>
</svg>
