<?xml version="1.0" encoding="utf-8"?>
<!-- Generator: Adobe Illustrator 24.0.1, SVG Export Plug-In . SVG Version: 6.00 Build 0)  -->
<svg version="1.1" id="Ebene_1" xmlns="http://www.w3.org/2000/svg" xmlns:xlink="http://www.w3.org/1999/xlink" x="0px" y="0px"
	 viewBox="0 0 511.37494 479.62622" style="enable-background:new 0 0 511.37494 479.62622;" xml:space="preserve">
<style type="text/css">
	.st0{fill:#878787;}
	.st1{font-family:'OpenSans-Regular';}
	.st2{font-size:8.2px;}
	.st3{fill:#3C3C3B;}
	.st4{font-size:8px;}
	.st5{letter-spacing:1;}
	.st6{fill:#B1B1B1;}
	.st7{clip-path:url(#SVGID_2_);fill:#D9D9E0;}
	.st8{clip-path:url(#SVGID_2_);fill:#EBEBF0;}
	.st9{clip-path:url(#SVGID_2_);fill:#123BCC;}
	.st10{clip-path:url(#SVGID_2_);fill:#29D4A6;}
	.st11{letter-spacing:-1;}
	.st12{clip-path:url(#SVGID_4_);fill:#123BCC;}
	.st13{fill:#CCCCD6;}
	.st14{fill:#29D4A6;}
</style>
<text transform="matrix(1 0 0 1 375.03571 409.81601)"><tspan x="0" y="0" class="st0 st1 st2">A</tspan><tspan x="5.27148" y="0" class="st0 st1 st2">bb</tspan><tspan x="15.40234" y="0" class="st0 st1 st2">.</tspan><tspan x="17.61816" y="0" class="st0 st1 st2"> </tspan><tspan x="19.78906" y="0" class="st0 st1 st2">4</tspan></text>
<text transform="matrix(1 0 0 1 396.17535 409.81601)" class="st0 st1 st2"> </text>
<text transform="matrix(1 0 0 1 375.03571 420.01523)"><tspan x="0" y="0" class="st0 st1 st2">F</tspan><tspan x="4.16699" y="0" class="st0 st1 st2">r</tspan><tspan x="7.55469" y="0" class="st0 st1 st2">ag</tspan><tspan x="16.67285" y="0" class="st0 st1 st2">e</tspan><tspan x="21.4541" y="0" class="st0 st1 st2">:</tspan><tspan x="23.66895" y="0" class="st0 st1 st2"> </tspan><tspan x="25.83984" y="0" class="st0 st1 st2">B</tspan><tspan x="31.25977" y="0" class="st0 st1 st2">i</tspan><tspan x="33.49805" y="0" class="st0 st1 st2">t</tspan><tspan x="36.32715" y="0" class="st0 st1 st2">te </tspan><tspan x="46.0752" y="0" class="st0 st1 st2">g</tspan><tspan x="50.60059" y="0" class="st0 st1 st2">e</tspan><tspan x="55.24219" y="0" class="st0 st1 st2">b</tspan><tspan x="60.38184" y="0" class="st0 st1 st2">en</tspan><tspan x="70.09668" y="0" class="st0 st1 st2"> </tspan><tspan x="72.25977" y="0" class="st0 st1 st2">S</tspan><tspan x="76.875" y="0" class="st0 st1 st2">i</tspan><tspan x="78.98242" y="0" class="st0 st1 st2">e </tspan><tspan x="85.79492" y="0" class="st0 st1 st2">a</tspan><tspan x="90.3877" y="0" class="st0 st1 st2">n</tspan><tspan x="95.55176" y="0" class="st0 st1 st2">, </tspan></text>
<text transform="matrix(1 0 0 1 375.03571 430.2164)"><tspan x="0" y="0" class="st0 st1 st2">w</tspan><tspan x="6.46875" y="0" class="st0 st1 st2">e</tspan><tspan x="11.11035" y="0" class="st0 st1 st2">l</tspan><tspan x="13.2168" y="0" class="st0 st1 st2">che</tspan><tspan x="26.87695" y="0" class="st0 st1 st2"> </tspan><tspan x="29.04004" y="0" class="st0 st1 st2">de</tspan><tspan x="38.74707" y="0" class="st0 st1 st2">r</tspan><tspan x="42.12695" y="0" class="st0 st1 st2"> </tspan><tspan x="44.29785" y="0" class="st0 st1 st2">a</tspan><tspan x="48.80957" y="0" class="st0 st1 st2">u</tspan><tspan x="53.99023" y="0" class="st0 st1 st2">f</tspan><tspan x="56.94043" y="0" class="st0 st1 st2">ge</tspan><tspan x="66.11621" y="0" class="st0 st1 st2">f</tspan><tspan x="68.98438" y="0" class="st0 st1 st2">ü</tspan><tspan x="74.05078" y="0" class="st0 st1 st2">h</tspan><tspan x="79.12402" y="0" class="st0 st1 st2">r</tspan><tspan x="82.88965" y="0" class="st0 st1 st2">t</tspan><tspan x="85.81738" y="0" class="st0 st1 st2">e</tspan><tspan x="90.45898" y="0" class="st0 st1 st2">n </tspan></text>
<text transform="matrix(1 0 0 1 375.03571 440.41757)"><tspan x="0" y="0" class="st0 st1 st2">Z</tspan><tspan x="4.79492" y="0" class="st0 st1 st2">a</tspan><tspan x="9.37207" y="0" class="st0 st1 st2">h</tspan><tspan x="14.44629" y="0" class="st0 st1 st2">l</tspan><tspan x="16.51172" y="0" class="st0 st1 st2">u</tspan><tspan x="21.57715" y="0" class="st0 st1 st2">n</tspan><tspan x="26.65137" y="0" class="st0 st1 st2">g</tspan><tspan x="31.08691" y="0" class="st0 st1 st2">s</tspan><tspan x="35.06348" y="0" class="st0 st1 st2">m</tspan><tspan x="42.73242" y="0" class="st0 st1 st2">i</tspan><tspan x="44.97852" y="0" class="st0 st1 st2">t</tspan><tspan x="47.80762" y="0" class="st0 st1 st2">te</tspan><tspan x="55.38477" y="0" class="st0 st1 st2">l</tspan><tspan x="57.49219" y="0" class="st0 st1 st2">/</tspan><tspan x="60.54395" y="0" class="st0 st1 st2">B</tspan><tspan x="65.96387" y="0" class="st0 st1 st2">e</tspan><tspan x="70.70312" y="0" class="st0 st1 st2">z</tspan><tspan x="74.60449" y="0" class="st0 st1 st2">a</tspan><tspan x="79.18164" y="0" class="st0 st1 st2">h</tspan><tspan x="84.25586" y="0" class="st0 st1 st2">la</tspan><tspan x="90.95605" y="0" class="st0 st1 st2">r</tspan><tspan x="94.71289" y="0" class="st0 st1 st2">te</tspan><tspan x="102.29004" y="0" class="st0 st1 st2">n </tspan></text>
<text transform="matrix(1 0 0 1 375.03571 450.61777)"><tspan x="0" y="0" class="st0 st1 st2">S</tspan><tspan x="4.61523" y="0" class="st0 st1 st2">i</tspan><tspan x="6.72168" y="0" class="st0 st1 st2">e </tspan><tspan x="13.53418" y="0" class="st0 st1 st2">k</tspan><tspan x="17.80566" y="0" class="st0 st1 st2">ennen</tspan><tspan x="42.31055" y="0" class="st0 st1 st2">.</tspan></text>
<text transform="matrix(1 0 0 1 375.03571 463.65585)"><tspan x="0" y="0" class="st0 st1 st2">B</tspan><tspan x="5.40332" y="0" class="st0 st1 st2">a</tspan><tspan x="9.94727" y="0" class="st0 st1 st2">s</tspan><tspan x="13.86719" y="0" class="st0 st1 st2">i</tspan><tspan x="15.98242" y="0" class="st0 st1 st2">s</tspan><tspan x="19.92676" y="0" class="st0 st1 st2">: </tspan><tspan x="24.32129" y="0" class="st0 st1 st2">A</tspan><tspan x="29.5918" y="0" class="st0 st1 st2">lle </tspan><tspan x="40.63477" y="0" class="st0 st1 st2">B</tspan><tspan x="46.01367" y="0" class="st0 st1 st2">e</tspan><tspan x="50.74512" y="0" class="st0 st1 st2">f</tspan><tspan x="53.63086" y="0" class="st0 st1 st2">r</tspan><tspan x="56.9209" y="0" class="st0 st1 st2">a</tspan><tspan x="61.51367" y="0" class="st0 st1 st2">g</tspan><tspan x="66.09668" y="0" class="st0 st1 st2">t</tspan><tspan x="69.03223" y="0" class="st0 st1 st2">e</tspan><tspan x="73.66504" y="0" class="st0 st1 st2">n</tspan></text>
<text transform="matrix(1 0 0 1 130.70171 22.22273)"><tspan x="0" y="0" class="st3 st1 st4">B</tspan><tspan x="6.12793" y="0" class="st3 st1 st4 st5">E</tspan><tspan x="11.57715" y="0" class="st3 st1 st4 st5">K</tspan><tspan x="17.55078" y="0" class="st3 st1 st4 st5">A</tspan><tspan x="23.64551" y="0" class="st3 st1 st4 st5">N</tspan><tspan x="30.72461" y="0" class="st3 st1 st4 st5">N</tspan><tspan x="37.77148" y="0" class="st3 st1 st4 st5">T</tspan><tspan x="43.19727" y="0" class="st3 st1 st4 st5">H</tspan><tspan x="50.14844" y="0" class="st3 st1 st4">E</tspan><tspan x="55.58887" y="0" class="st3 st1 st4 st5">I</tspan><tspan x="58.84375" y="0" class="st3 st1 st4 st5">T </tspan><tspan x="67.34766" y="0" class="st3 st1 st4 st5">N</tspan><tspan x="74.42676" y="0" class="st3 st1 st4 st5">E</tspan><tspan x="79.87598" y="0" class="st3 st1 st4 st5">U</tspan><tspan x="86.76465" y="0" class="st3 st1 st4 st5">ERE </tspan><tspan x="106.68652" y="0" class="st3 st1 st4 st5">Z</tspan><tspan x="112.48438" y="0" class="st3 st1 st4 st5">A</tspan><tspan x="118.5791" y="0" class="st3 st1 st4 st5">H</tspan><tspan x="125.52148" y="0" class="st3 st1 st4">L</tspan><tspan x="130.58594" y="0" class="st3 st1 st4 st5">U</tspan><tspan x="137.48242" y="0" class="st3 st1 st4 st5">N</tspan><tspan x="144.57715" y="0" class="st3 st1 st4 st5">G</tspan><tspan x="151.44922" y="0" class="st3 st1 st4 st5">S</tspan><tspan x="156.83984" y="0" class="st3 st1 st4 st5">I</tspan><tspan x="160.11816" y="0" class="st3 st1 st4">N</tspan><tspan x="167.11035" y="0" class="st3 st1 st4">S</tspan><tspan x="172.4043" y="0" class="st3 st1 st4 st5">TRU</tspan><tspan x="190.59961" y="0" class="st3 st1 st4 st5">M</tspan><tspan x="198.87012" y="0" class="st3 st1 st4 st5">E</tspan><tspan x="204.31934" y="0" class="st3 st1 st4 st5">N</tspan><tspan x="211.36719" y="0" class="st3 st1 st4 st5">T</tspan><tspan x="216.79297" y="0" class="st3 st1 st4">E</tspan></text>
<text transform="matrix(1 0 0 1 37.23491 54.72811)"><tspan x="0" y="0" class="st6 st1 st2">K</tspan><tspan x="5.11475" y="0" class="st6 st1 st2">on</tspan><tspan x="15.18262" y="0" class="st6 st1 st2">t</tspan><tspan x="18.11035" y="0" class="st6 st1 st2">a</tspan><tspan x="22.71191" y="0" class="st6 st1 st2">k</tspan><tspan x="27.2373" y="0" class="st6 st1 st2">t</tspan><tspan x="30.14844" y="0" class="st6 st1 st2">l</tspan><tspan x="32.26367" y="0" class="st6 st1 st2">o</tspan><tspan x="37.29004" y="0" class="st6 st1 st2">s</tspan><tspan x="41.25928" y="0" class="st6 st1 st2">e</tspan><tspan x="45.92529" y="0" class="st6 st1 st2">s</tspan><tspan x="49.87012" y="0" class="st6 st1 st2"> </tspan><tspan x="52.04102" y="0" class="st6 st1 st2">B</tspan><tspan x="57.41992" y="0" class="st6 st1 st2">e</tspan><tspan x="62.06152" y="0" class="st6 st1 st2">z</tspan><tspan x="65.9541" y="0" class="st6 st1 st2">a</tspan><tspan x="70.54785" y="0" class="st6 st1 st2">hl</tspan><tspan x="77.73633" y="0" class="st6 st1 st2">e</tspan><tspan x="82.37012" y="0" class="st6 st1 st2">n</tspan></text>
<text transform="matrix(1 0 0 1 83.48882 64.7325)"><tspan x="0" y="0" class="st6 st1 st2">D</tspan><tspan x="6.06836" y="0" class="st6 st1 st2">e</tspan><tspan x="10.73438" y="0" class="st6 st1 st2">b</tspan><tspan x="15.79199" y="0" class="st6 st1 st2">i</tspan><tspan x="17.96387" y="0" class="st6 st1 st2">t</tspan><tspan x="20.86719" y="0" class="st6 st1 st2">k</tspan><tspan x="25.31934" y="0" class="st6 st1 st2">a</tspan><tspan x="29.91211" y="0" class="st6 st1 st2">r</tspan><tspan x="33.62012" y="0" class="st6 st1 st2">t</tspan><tspan x="36.54785" y="0" class="st6 st1 st2">e</tspan></text>
<text transform="matrix(1 0 0 1 35.10405 83.73152)"><tspan x="0" y="0" class="st6 st1 st2">K</tspan><tspan x="5.11475" y="0" class="st6 st1 st2">on</tspan><tspan x="15.18262" y="0" class="st6 st1 st2">t</tspan><tspan x="18.11035" y="0" class="st6 st1 st2">a</tspan><tspan x="22.71191" y="0" class="st6 st1 st2">k</tspan><tspan x="27.2373" y="0" class="st6 st1 st2">t</tspan><tspan x="30.14844" y="0" class="st6 st1 st2">l</tspan><tspan x="32.26367" y="0" class="st6 st1 st2">o</tspan><tspan x="37.29004" y="0" class="st6 st1 st2">s</tspan><tspan x="41.25928" y="0" class="st6 st1 st2">e</tspan><tspan x="45.92529" y="0" class="st6 st1 st2">s</tspan><tspan x="49.87012" y="0" class="st6 st1 st2"> </tspan><tspan x="52.04102" y="0" class="st6 st1 st2">B</tspan><tspan x="57.41992" y="0" class="st6 st1 st2">e</tspan><tspan x="62.06152" y="0" class="st6 st1 st2">z</tspan><tspan x="65.9541" y="0" class="st6 st1 st2">a</tspan><tspan x="70.54785" y="0" class="st6 st1 st2">hl</tspan><tspan x="77.73633" y="0" class="st6 st1 st2">e</tspan><tspan x="82.37012" y="0" class="st6 st1 st2">n </tspan></text>
<text transform="matrix(1 0 0 1 81.06987 93.73592)"><tspan x="0" y="0" class="st6 st1 st2">K</tspan><tspan x="5.13135" y="0" class="st6 st1 st2">r</tspan><tspan x="8.46191" y="0" class="st6 st1 st2">e</tspan><tspan x="13.12793" y="0" class="st6 st1 st2">d</tspan><tspan x="18.19434" y="0" class="st6 st1 st2">i</tspan><tspan x="20.375" y="0" class="st6 st1 st2">t</tspan><tspan x="23.27734" y="0" class="st6 st1 st2">k</tspan><tspan x="27.72949" y="0" class="st6 st1 st2">a</tspan><tspan x="32.32324" y="0" class="st6 st1 st2">r</tspan><tspan x="36.03125" y="0" class="st6 st1 st2">t</tspan><tspan x="38.9668" y="0" class="st6 st1 st2">e</tspan></text>
<text transform="matrix(1 0 0 1 38.63432 114.73592)"><tspan x="0" y="0" class="st6 st1 st2">M</tspan><tspan x="7.37842" y="0" class="st6 st1 st2">o</tspan><tspan x="12.37256" y="0" class="st6 st1 st2">b</tspan><tspan x="17.43018" y="0" class="st6 st1 st2">il</tspan><tspan x="21.66016" y="0" class="st6 st1 st2">e</tspan><tspan x="26.32617" y="0" class="st6 st1 st2">s</tspan><tspan x="30.271" y="0" class="st6 st1 st2"> </tspan><tspan x="32.44189" y="0" class="st6 st1 st2">B</tspan><tspan x="37.8125" y="0" class="st6 st1 st2">e</tspan><tspan x="42.4458" y="0" class="st6 st1 st2">z</tspan><tspan x="46.34668" y="0" class="st6 st1 st2">a</tspan><tspan x="50.94043" y="0" class="st6 st1 st2">hle</tspan><tspan x="62.77051" y="0" class="st6 st1 st2">n</tspan><tspan x="67.83691" y="0" class="st6 st1 st2"> </tspan><tspan x="70.00781" y="0" class="st6 st1 st2">P</tspan><tspan x="75.0752" y="0" class="st6 st1 st2">O</tspan><tspan x="81.50293" y="0" class="st6 st1 st2">S</tspan></text>
<text transform="matrix(1 0 0 1 23.66948 141.23836)"><tspan x="0" y="0" class="st6 st1 st2">M</tspan><tspan x="7.37842" y="0" class="st6 st1 st2">o</tspan><tspan x="12.37256" y="0" class="st6 st1 st2">b</tspan><tspan x="17.43018" y="0" class="st6 st1 st2">il</tspan><tspan x="21.66016" y="0" class="st6 st1 st2">e</tspan><tspan x="26.32617" y="0" class="st6 st1 st2">s</tspan><tspan x="30.271" y="0" class="st6 st1 st2"> </tspan><tspan x="32.44189" y="0" class="st6 st1 st2">B</tspan><tspan x="37.8125" y="0" class="st6 st1 st2">e</tspan><tspan x="42.4541" y="0" class="st6 st1 st2">z</tspan><tspan x="46.35547" y="0" class="st6 st1 st2">a</tspan><tspan x="50.94873" y="0" class="st6 st1 st2">hlen </tspan><tspan x="70.02344" y="0" class="st6 st1 st2">I</tspan><tspan x="72.26953" y="0" class="st6 st1 st2">n</tspan><tspan x="77.34277" y="0" class="st6 st1 st2">t</tspan><tspan x="80.27051" y="0" class="st6 st1 st2">e</tspan><tspan x="84.91211" y="0" class="st6 st1 st2">r</tspan><tspan x="88.25098" y="0" class="st6 st1 st2">n</tspan><tspan x="93.3252" y="0" class="st6 st1 st2">e</tspan><tspan x="98.07324" y="0" class="st6 st1 st2">t</tspan></text>
<text transform="matrix(1 0 0 1 83.67973 167.7408)"><tspan x="0" y="0" class="st6 st1 st2">P2P </tspan><tspan x="16.85596" y="0" class="st6 st1 st2">I</tspan><tspan x="19.10107" y="0" class="st6 st1 st2">n</tspan><tspan x="24.17529" y="0" class="st6 st1 st2">l</tspan><tspan x="26.26611" y="0" class="st6 st1 st2">a</tspan><tspan x="30.85889" y="0" class="st6 st1 st2">n</tspan><tspan x="35.93311" y="0" class="st6 st1 st2">d</tspan></text>
<text transform="matrix(1 0 0 1 76.88139 194.74324)"><tspan x="0" y="0" class="st6 st1 st2">P2P </tspan><tspan x="16.85645" y="0" class="st6 st1 st2">A</tspan><tspan x="22.00391" y="0" class="st6 st1 st2">u</tspan><tspan x="27.07812" y="0" class="st6 st1 st2">s</tspan><tspan x="30.97363" y="0" class="st6 st1 st2">l</tspan><tspan x="33.06445" y="0" class="st6 st1 st2">a</tspan><tspan x="37.66504" y="0" class="st6 st1 st2">n</tspan><tspan x="42.73145" y="0" class="st6 st1 st2">d</tspan></text>
<text transform="matrix(1 0 0 1 65.47807 220.74568)"><tspan x="0" y="0" class="st6 st1 st2">I</tspan><tspan x="2.24512" y="0" class="st6 st1 st2">n</tspan><tspan x="7.27002" y="0" class="st6 st1 st2">-</tspan><tspan x="9.87549" y="0" class="st6 st1 st2">A</tspan><tspan x="15.14697" y="0" class="st6 st1 st2">p</tspan><tspan x="20.20459" y="0" class="st6 st1 st2">p</tspan><tspan x="25.41797" y="0" class="st6 st1 st2">-</tspan><tspan x="27.94141" y="0" class="st6 st1 st2">Z</tspan><tspan x="32.77832" y="0" class="st6 st1 st2">a</tspan><tspan x="37.37988" y="0" class="st6 st1 st2">h</tspan><tspan x="42.44531" y="0" class="st6 st1 st2">l</tspan><tspan x="44.52734" y="0" class="st6 st1 st2">u</tspan><tspan x="49.59277" y="0" class="st6 st1 st2">n</tspan><tspan x="54.66699" y="0" class="st6 st1 st2">g</tspan></text>
<text transform="matrix(1 0 0 1 30.31206 247.74763)"><tspan x="0" y="0" class="st6 st1 st2">I</tspan><tspan x="2.24512" y="0" class="st6 st1 st2">n</tspan><tspan x="7.31104" y="0" class="st6 st1 st2">t</tspan><tspan x="10.24658" y="0" class="st6 st1 st2">e</tspan><tspan x="14.87988" y="0" class="st6 st1 st2">r</tspan><tspan x="18.21924" y="0" class="st6 st1 st2">n</tspan><tspan x="23.29297" y="0" class="st6 st1 st2">e</tspan><tspan x="28.04102" y="0" class="st6 st1 st2">t</tspan><tspan x="30.94385" y="0" class="st6 st1 st2">be</tspan><tspan x="40.63525" y="0" class="st6 st1 st2">z</tspan><tspan x="44.53662" y="0" class="st6 st1 st2">a</tspan><tspan x="49.12939" y="0" class="st6 st1 st2">hl</tspan><tspan x="56.31836" y="0" class="st6 st1 st2">v</tspan><tspan x="60.45898" y="0" class="st6 st1 st2">e</tspan><tspan x="65.10059" y="0" class="st6 st1 st2">r</tspan><tspan x="68.80859" y="0" class="st6 st1 st2">f</tspan><tspan x="71.66113" y="0" class="st6 st1 st2">a</tspan><tspan x="76.25488" y="0" class="st6 st1 st2">h</tspan><tspan x="81.32812" y="0" class="st6 st1 st2">r</tspan><tspan x="84.65137" y="0" class="st6 st1 st2">e</tspan><tspan x="89.29297" y="0" class="st6 st1 st2">n</tspan></text>
<text transform="matrix(1 0 0 1 25.5313 274.75058)"><tspan x="0" y="0" class="st6 st1 st2">Onlin</tspan><tspan x="20.80518" y="0" class="st6 st1 st2">e</tspan><tspan x="25.43848" y="0" class="st6 st1 st2">z</tspan><tspan x="29.33984" y="0" class="st6 st1 st2">a</tspan><tspan x="33.93311" y="0" class="st6 st1 st2">h</tspan><tspan x="39.00684" y="0" class="st6 st1 st2">l</tspan><tspan x="41.08887" y="0" class="st6 st1 st2">ung </tspan><tspan x="57.94141" y="0" class="st6 st1 st2">D</tspan><tspan x="64.00928" y="0" class="st6 st1 st2">e</tspan><tspan x="68.66748" y="0" class="st6 st1 st2">b</tspan><tspan x="73.73291" y="0" class="st6 st1 st2">i</tspan><tspan x="75.91357" y="0" class="st6 st1 st2">t</tspan><tspan x="78.82471" y="0" class="st6 st1 st2">k</tspan><tspan x="83.26807" y="0" class="st6 st1 st2">a</tspan><tspan x="87.86963" y="0" class="st6 st1 st2">r</tspan><tspan x="91.57764" y="0" class="st6 st1 st2">t</tspan><tspan x="94.50537" y="0" class="st6 st1 st2">e</tspan></text>
<text transform="matrix(1 0 0 1 116.78471 274.75058)" class="st6 st1 st2"> </text>
<text transform="matrix(1 0 0 1 117.17046 274.75058)" class="st6 st1 st2">*</text>
<text transform="matrix(1 0 0 1 23.15337 298.75253)"><tspan x="0" y="0" class="st6 st1 st2">Onlin</tspan><tspan x="20.80518" y="0" class="st6 st1 st2">e</tspan><tspan x="25.43848" y="0" class="st6 st1 st2">z</tspan><tspan x="29.33984" y="0" class="st6 st1 st2">a</tspan><tspan x="33.93311" y="0" class="st6 st1 st2">h</tspan><tspan x="39.00684" y="0" class="st6 st1 st2">l</tspan><tspan x="41.08887" y="0" class="st6 st1 st2">u</tspan><tspan x="46.16309" y="0" class="st6 st1 st2">n</tspan><tspan x="51.22852" y="0" class="st6 st1 st2">g </tspan><tspan x="57.93311" y="0" class="st6 st1 st2">K</tspan><tspan x="63.06396" y="0" class="st6 st1 st2">r</tspan><tspan x="66.39502" y="0" class="st6 st1 st2">e</tspan><tspan x="71.06104" y="0" class="st6 st1 st2">d</tspan><tspan x="76.11865" y="0" class="st6 st1 st2">i</tspan><tspan x="78.29932" y="0" class="st6 st1 st2">t</tspan><tspan x="81.20264" y="0" class="st6 st1 st2">k</tspan><tspan x="85.65479" y="0" class="st6 st1 st2">a</tspan><tspan x="90.24756" y="0" class="st6 st1 st2">r</tspan><tspan x="93.95557" y="0" class="st6 st1 st2">t</tspan><tspan x="96.8833" y="0" class="st6 st1 st2">e</tspan></text>
<text transform="matrix(1 0 0 1 116.78374 298.75253)" class="st6 st1 st2"> </text>
<text transform="matrix(1 0 0 1 117.16948 298.75253)" class="st6 st1 st2">*</text>
<text transform="matrix(1 0 0 1 42.72661 321.75351)"><tspan x="0" y="0" class="st6 st1 st2">V</tspan><tspan x="4.86426" y="0" class="st6 st1 st2">i</tspan><tspan x="6.97949" y="0" class="st6 st1 st2">r</tspan><tspan x="10.6875" y="0" class="st6 st1 st2">t</tspan><tspan x="13.54102" y="0" class="st6 st1 st2">u</tspan><tspan x="18.61523" y="0" class="st6 st1 st2">e</tspan><tspan x="23.27295" y="0" class="st6 st1 st2">ll</tspan><tspan x="27.50293" y="0" class="st6 st1 st2">e</tspan><tspan x="32.13623" y="0" class="st6 st1 st2"> </tspan><tspan x="34.30762" y="0" class="st6 st1 st2">W</tspan><tspan x="41.52148" y="0" class="st6 st1 st2">ä</tspan><tspan x="46.11475" y="0" class="st6 st1 st2">h</tspan><tspan x="51.18896" y="0" class="st6 st1 st2">r</tspan><tspan x="54.50342" y="0" class="st6 st1 st2">ungen</tspan><tspan x="78.8999" y="0" class="st6 st1 st2">/</tspan></text>
<text transform="matrix(1 0 0 1 64.73589 331.75742)"><tspan x="0" y="0" class="st6 st1 st2">K</tspan><tspan x="5.13135" y="0" class="st6 st1 st2">r</tspan><tspan x="8.83105" y="0" class="st6 st1 st2">y</tspan><tspan x="12.95508" y="0" class="st6 st1 st2">p</tspan><tspan x="18.10303" y="0" class="st6 st1 st2">t</tspan><tspan x="21.03027" y="0" class="st6 st1 st2">o</tspan><tspan x="26" y="0" class="st6 st1 st2">w</tspan><tspan x="32.28809" y="0" class="st6 st1 st2">ä</tspan><tspan x="36.88086" y="0" class="st6 st1 st2">h</tspan><tspan x="41.95508" y="0" class="st6 st1 st2">r</tspan><tspan x="45.26953" y="0" class="st6 st1 st2">u</tspan><tspan x="50.34277" y="0" class="st6 st1 st2">n</tspan><tspan x="55.40918" y="0" class="st6 st1 st2">g</tspan></text>
<text transform="matrix(1 0 0 1 40.08891 353.25742)"><tspan x="0" y="0" class="st6 st1 st2">Z</tspan><tspan x="4.84473" y="0" class="st6 st1 st2">a</tspan><tspan x="9.43799" y="0" class="st6 st1 st2">h</tspan><tspan x="14.51172" y="0" class="st6 st1 st2">l</tspan><tspan x="16.59375" y="0" class="st6 st1 st2">u</tspan><tspan x="21.66797" y="0" class="st6 st1 st2">n</tspan><tspan x="26.7334" y="0" class="st6 st1 st2">g </tspan><tspan x="33.43799" y="0" class="st6 st1 st2">m</tspan><tspan x="41.09814" y="0" class="st6 st1 st2">i</tspan><tspan x="43.27881" y="0" class="st6 st1 st2">t</tspan><tspan x="46.20654" y="0" class="st6 st1 st2"> </tspan><tspan x="48.37744" y="0" class="st6 st1 st2">W</tspan><tspan x="55.65771" y="0" class="st6 st1 st2">e</tspan><tspan x="60.29053" y="0" class="st6 st1 st2">a</tspan><tspan x="64.89209" y="0" class="st6 st1 st2">r</tspan><tspan x="68.18213" y="0" class="st6 st1 st2">ab</tspan><tspan x="77.83252" y="0" class="st6 st1 st2">l</tspan><tspan x="79.94775" y="0" class="st6 st1 st2">e</tspan></text>
<g>
	<defs>
		<rect id="SVGID_1_" x="-330.51508" y="-70.1143" width="841.89001" height="595.276"/>
	</defs>
	<clipPath id="SVGID_2_">
		<use xlink:href="#SVGID_1_"  style="overflow:visible;"/>
	</clipPath>
	<path class="st7" d="M437.3125,54.1353l-204.38301,0.06201v0.12302L437.3125,54.2603c0.14197,0,0.27795-0.02197,0.40594-0.06299
		C437.59045,54.15731,437.45447,54.1353,437.3125,54.1353"/>
	<path class="st8" d="M437.3125,51.56841l-204.38301,0.07303v3.14899l204.38301-0.07501c0.14197,0,0.27795,0.02701,0.40594,0.07703
		c0.547-0.21103,0.94305-0.83603,0.94305-1.57401C438.6615,52.30544,438.05646,51.56841,437.3125,51.56841"/>
	<path class="st9" d="M130.60011,51.53621h273.31799c0.56403,0,1.021,0.73203,1.021,1.63501v0.03
		c0,0.90302-0.45697,1.63501-1.021,1.63501H130.60011V51.53621z"/>
	<path class="st8" d="M232.92973,59.69881L232.92973,59.69881v3.19702l204.38301-0.07202c0.74597,0,1.34796-0.71597,1.34796-1.59998
		c0-0.71402-0.396-1.319-0.94196-1.52402c-0.12805,0.048-0.26501,0.07401-0.40601,0.07401l-204.38301,0.07101V59.69881z"/>
	<path class="st10" d="M130.60011,59.59581h286.341c0.56299,0,1.02002,0.70901,1.02002,1.58401v0.02899
		c0,0.87402-0.45703,1.58401-1.02002,1.58401h-286.341V59.59581z"/>
	<path class="st7" d="M437.3125,82.2115l-204.38301,0.06003v0.125L437.3125,82.3365c0.14197,0,0.27795-0.02197,0.40594-0.06299
		C437.59045,82.23253,437.45447,82.2115,437.3125,82.2115"/>
	<path class="st8" d="M437.3125,79.63829L232.92949,79.7093v3.07999L437.3125,82.7173c0.14197,0,0.27795,0.026,0.40594,0.07401
		c0.547-0.20599,0.94305-0.81799,0.94305-1.54099C438.6615,80.3593,438.05646,79.63829,437.3125,79.63829"/>
	<path class="st9" d="M130.60011,79.70961h290.34802c0.56299,0,1.02002,0.716,1.02002,1.60101v0.02802
		c0,0.883-0.45703,1.59998-1.02002,1.59998H130.60011V79.70961z"/>
	<path class="st8" d="M232.92973,87.67101L232.92973,87.67101v3.30002l204.38301-0.07501c0.74597,0,1.34796-0.73999,1.34796-1.64999
		c0-0.73801-0.396-1.362-0.94196-1.573c-0.12805,0.04999-0.26501,0.077-0.40601,0.077l-204.38301,0.073V87.67101z"/>
	<path class="st10" d="M130.60011,87.67149h291.01599c0.56305,0,1.02002,0.73203,1.02002,1.634v0.03
		c0,0.90302-0.45697,1.63501-1.02002,1.63501H130.60011V87.67149z"/>
	<path class="st8" d="M437.3125,106.30959l-204.38301,0.07401v3.14902l204.38301-0.07602c0.14197,0,0.27795,0.02701,0.40594,0.07703
		c0.547-0.21103,0.94305-0.83603,0.94305-1.57602C438.6615,107.04759,438.05646,106.30959,437.3125,106.30959"/>
	<path class="st9" d="M130.60011,106.30919h285.67303c0.56299,0,1.01996,0.73203,1.01996,1.63602v0.02899
		c0,0.90302-0.45697,1.63501-1.01996,1.63501H130.60011V106.30919z"/>
	<path class="st8" d="M232.92973,114.4156L232.92973,114.4156v3.22702l204.38301-0.07401c0.74597,0,1.34796-0.72198,1.34796-1.61301
		c0-0.72101-0.396-1.332-0.94196-1.539c-0.12805,0.04901-0.26501,0.07501-0.40601,0.07501l-204.38301,0.07098V114.4156z"/>
	<path class="st10" d="M130.60011,114.34291h287.00903c0.56299,0,1.01996,0.716,1.01996,1.59903v0.02899
		c0,0.883-0.45697,1.599-1.01996,1.599H130.60011V114.34291z"/>
	<path class="st7" d="M437.3125,135.54259l-204.38301,0.06003v0.125l204.38301-0.06201c0.14099,0,0.27594-0.021,0.40399-0.061
		C437.58844,135.56361,437.45349,135.54259,437.3125,135.54259"/>
	<path class="st8" d="M437.3125,132.96739l-204.38301,0.07303v3.04797l204.38301-0.07098c0.14099,0,0.27594,0.02499,0.40399,0.073
		c0.54797-0.20401,0.94501-0.81,0.94501-1.52499C438.6615,133.6834,438.05646,132.96739,437.3125,132.96739"/>
	<path class="st9" d="M130.60011,133.07091h264.97101c0.56299,0,1.02002,0.70901,1.02002,1.58401v0.02802
		c0,0.87598-0.45703,1.58398-1.02002,1.58398H130.60011V133.07091z"/>
	<path class="st8" d="M232.92973,141.0269L232.92973,141.0269v3.26703l204.38301-0.07303c0.74597,0,1.34796-0.73199,1.34796-1.633
		c0-0.733-0.39697-1.35199-0.94397-1.56c-0.12799,0.04901-0.26404,0.07501-0.40399,0.07501l-204.38301,0.07401V141.0269z"/>
	<path class="st10" d="M130.60011,141.0587h280.33002c0.56403,0,1.021,0.72501,1.021,1.621v0.02802
		c0,0.89401-0.45697,1.61899-1.021,1.61899H130.60011V141.0587z"/>
	<path class="st7" d="M437.31555,162.21049h-0.00305l-204.38301,0.06003v0.125l204.38301-0.06201
		c0.14099,0,0.27704-0.022,0.40503-0.06201C437.59052,162.23152,437.45551,162.21049,437.31555,162.21049"/>
	<path class="st8" d="M437.3125,159.63579l-204.38301,0.07303v3.04199l204.38301-0.07101h0.00299
		c0.13995,0,0.27496,0.026,0.40198,0.07202c0.54797-0.203,0.94403-0.80801,0.94403-1.52103
		C438.6615,160.35081,438.05646,159.63579,437.3125,159.63579"/>
	<path class="st9" d="M130.60011,159.74571h214.55101c0.56299,0,1.01898,0.70801,1.01898,1.58102v0.02698
		c0,0.87402-0.45599,1.582-1.01898,1.582H130.60011V159.74571z"/>
	<path class="st8" d="M232.92973,167.70131L232.92973,167.70131v3.26001l204.38301-0.07199
		c0.74597-0.00201,1.34796-0.73102,1.34796-1.63c0-0.73099-0.39697-1.35001-0.94299-1.55701
		c-0.12799,0.048-0.26398,0.07501-0.40497,0.07501l-204.38301,0.07401V167.70131z"/>
	<path class="st10" d="M130.60011,167.73878h241.59697c0.56305,0,1.02002,0.72403,1.02002,1.617v0.02802
		c0,0.89398-0.45697,1.617-1.02002,1.617H130.60011V167.73878z"/>
	<path class="st7" d="M437.3125,188.8961l-204.38301,0.06201v0.12302l204.38301-0.06003c0.14197,0,0.27795-0.02197,0.40594-0.06299
		C437.59045,188.91811,437.45447,188.8961,437.3125,188.8961"/>
	<path class="st8" d="M437.3125,186.32329l-204.38301,0.07303v3.11398l204.38301-0.07498c0.14197,0,0.27795,0.02698,0.40594,0.07599
		c0.547-0.20901,0.94305-0.827,0.94305-1.556C438.6615,187.05229,438.05646,186.32329,437.3125,186.32329"/>
	<path class="st9" d="M130.60011,186.35991h170.80901c0.56299,0,1.01996,0.72403,1.01996,1.617v0.02902
		c0,0.89398-0.45697,1.61697-1.01996,1.61697H130.60011V186.35991z"/>
	<path class="st8" d="M232.92973,194.3936L232.92973,194.3936v3.263l204.38301-0.073c0.74597,0,1.34796-0.73099,1.34796-1.633
		c0-0.729-0.396-1.34698-0.94196-1.556c-0.12805,0.04901-0.26501,0.07602-0.40601,0.07602l-204.38301,0.07098V194.3936z"/>
	<path class="st10" d="M130.60011,194.35701h189.17302c0.56396,0,1.01996,0.72403,1.01996,1.617v0.02802
		c0,0.89398-0.45599,1.61798-1.01996,1.61798H130.60011V194.35701z"/>
	<path class="st7" d="M437.3125,221.56801l-204.38301,0.06201v0.12302l204.38301-0.06003c0.14197,0,0.27795-0.02197,0.40594-0.06299
		C437.59045,221.59001,437.45447,221.56801,437.3125,221.56801"/>
	<path class="st8" d="M437.3125,212.99519l-204.38301,0.07401v3.14902l204.38301-0.07602c0.14197,0,0.27795,0.02701,0.40594,0.07703
		c0.547-0.21103,0.94305-0.83701,0.94305-1.57602C438.6615,213.7332,438.05646,212.99519,437.3125,212.99519"/>
	<path class="st9" d="M130.60011,212.99471h274.987c0.56403,0,1.021,0.73203,1.021,1.63501v0.03
		c0,0.90302-0.45697,1.63501-1.021,1.63501h-274.987V212.99471z"/>
	<path class="st8" d="M232.92973,221.10069L232.92973,221.10069v3.22702l204.38301-0.07401
		c0.74597,0,1.34796-0.72299,1.34796-1.61301c0-0.72101-0.396-1.332-0.94196-1.539
		c-0.12805,0.04901-0.26501,0.07401-0.40601,0.07401l-204.38301,0.07199V221.10069z"/>
	<path class="st10" d="M130.60011,221.02791h277.659c0.56403,0,1.021,0.716,1.021,1.59903v0.02899
		c0,0.883-0.45697,1.60001-1.021,1.60001h-277.659V221.02791z"/>
	<path class="st7" d="M437.3125,242.25591l-204.38301,0.06003v0.125l204.38301-0.06003c0.14197,0,0.27795-0.02197,0.40594-0.06299
		C437.59045,242.27791,437.45447,242.25591,437.3125,242.25591"/>
	<path class="st8" d="M437.3125,239.6881l-204.38301,0.07602v3.147l204.38301-0.07401c0.14197,0,0.27795,0.02701,0.40594,0.077
		c0.547-0.211,0.94305-0.83701,0.94305-1.57599C438.6615,240.42812,438.05646,239.6881,437.3125,239.6881"/>
	<path class="st9" d="M130.60011,239.64949h270.31201c0.565,0,1.021,0.73203,1.021,1.63501v0.03
		c0,0.90302-0.45599,1.63501-1.021,1.63501H130.60011V239.64949z"/>
	<path class="st8" d="M232.92973,247.82478L232.92973,247.82478v3.19101l204.38301-0.073c0.74597,0,1.34796-0.71399,1.34796-1.595
		c0-0.71298-0.396-1.31601-0.94196-1.51999c-0.12805,0.048-0.26501,0.073-0.40601,0.073l-204.38301,0.07098V247.82478z"/>
	<path class="st10" d="M130.60011,247.7159h273.65204c0.56396,0,1.021,0.70801,1.021,1.58002v0.02899
		c0,0.87201-0.45703,1.58002-1.021,1.58002H130.60011V247.7159z"/>
	<path class="st8" d="M437.3125,271.04791l-204.38301,0.07199v3.22702l204.38301-0.07101c0.74597,0,1.349-0.724,1.349-1.61499
		C438.6615,271.7699,438.05646,271.04791,437.3125,271.04791"/>
	<path class="st10" d="M130.60011,271.11969h269.979c0.56403,0,1.021,0.716,1.021,1.60001v0.02902
		c0,0.883-0.45697,1.599-1.021,1.599h-269.979V271.11969z"/>
	<path class="st8" d="M437.3125,294.19049l-204.38301,0.07202v3.228l204.38301-0.07401c0.74597,0,1.349-0.72299,1.349-1.61301
		C438.6615,294.9115,438.05646,294.19049,437.3125,294.19049"/>
	<path class="st10" d="M130.60011,294.2442h301.03204c0.56396,0,1.021,0.716,1.021,1.60001v0.02802
		c0,0.883-0.45703,1.60001-1.021,1.60001H130.60011V294.2442z"/>
	<path class="st7" d="M437.3125,326.12701l-204.38301,0.06201v0.12399l204.38301-0.06c0.14197,0,0.27899-0.022,0.40796-0.06302
		C437.59149,326.14902,437.45447,326.12701,437.3125,326.12701"/>
	<path class="st8" d="M437.3125,317.5538l-204.38301,0.07401v3.112l204.38301-0.07397c0.14197,0,0.27899,0.02597,0.40796,0.07599
		c0.54602-0.20999,0.94104-0.827,0.94104-1.55701C438.6615,318.28482,438.05646,317.5538,437.3125,317.5538"/>
	<path class="st9" d="M130.60011,317.5899h226.90501c0.56396,0,1.021,0.72501,1.021,1.61801v0.02802
		c0,0.89398-0.45703,1.61798-1.021,1.61798H130.60011V317.5899z"/>
	<path class="st8" d="M232.92973,325.62411L232.92973,325.62411v3.263l204.38301-0.07501c0.74597,0,1.34796-0.72998,1.34796-1.63098
		c0-0.729-0.39496-1.34702-0.94-1.556c-0.12897,0.04999-0.26599,0.077-0.40796,0.078l-204.38301,0.07098V325.62411z"/>
	<path class="st10" d="M130.60011,325.58701h239.92796c0.56305,0,1.02002,0.724,1.02002,1.61801v0.02798
		c0,0.89301-0.45697,1.61801-1.02002,1.61801H130.60011V325.58701z"/>
	<path class="st8" d="M437.3125,344.9332l-204.38301,0.07401v3.112l204.38301-0.073c0.14197,0,0.27795,0.02701,0.40594,0.07602
		c0.547-0.20901,0.94305-0.827,0.94305-1.55801C438.6615,345.66422,438.05646,344.9332,437.3125,344.9332"/>
	<path class="st9" d="M130.60011,344.97031h104.694c0.56396,0,1.021,0.724,1.021,1.617v0.02899c0,0.89301-0.45703,1.617-1.021,1.617
		h-104.694V344.97031z"/>
	<path class="st7" d="M437.3125,353.5079l-204.38301,0.06003v0.125l204.38301-0.06003c0.14197,0,0.27795-0.02197,0.40594-0.06299
		C437.59045,353.52991,437.45447,353.5079,437.3125,353.5079"/>
	<path class="st8" d="M232.92973,353.00452L232.92973,353.00452v3.263l204.38301-0.07501c0.74597,0,1.34796-0.72998,1.34796-1.62997
		c0-0.73102-0.396-1.34802-0.94196-1.55502c-0.12805,0.048-0.26501,0.07501-0.40601,0.07501l-204.38301,0.07199V353.00452z"/>
	<path class="st10" d="M130.60011,352.96741h121.72397c0.56299,0,1.02002,0.72501,1.02002,1.617v0.02899
		c0,0.89301-0.45703,1.617-1.02002,1.617H130.60011V352.96741z"/>
</g>
<text transform="matrix(1 0 0 1 124.5894 378.95078)" class="st6 st1 st2">0</text>
<text transform="matrix(1 0 0 1 128.88628 378.95078)"><tspan x="0" y="0" class="st6 st1 st2 st11"> </tspan><tspan x="1.12988" y="0" class="st6 st1 st2"> </tspan></text>
<text transform="matrix(1 0 0 1 130.25639 378.95078)" class="st6 st1 st2">%</text>
<text transform="matrix(1 0 0 1 199.84917 378.95078)"><tspan x="0" y="0" class="st6 st1 st2">2</tspan><tspan x="4.71289" y="0" class="st6 st1 st2">5</tspan></text>
<text transform="matrix(1 0 0 1 207.95952 378.95078)"><tspan x="0" y="0" class="st6 st1 st2 st11"> </tspan><tspan x="1.12988" y="0" class="st6 st1 st2"> </tspan></text>
<text transform="matrix(1 0 0 1 209.32866 378.95078)" class="st6 st1 st2">%</text>
<text transform="matrix(1 0 0 1 354.35406 378.95078)"><tspan x="0" y="0" class="st6 st1 st2">7</tspan><tspan x="4.7373" y="0" class="st6 st1 st2">5</tspan></text>
<text transform="matrix(1 0 0 1 362.13531 378.95078)"><tspan x="0" y="0" class="st6 st1 st2 st11"> </tspan><tspan x="1.12988" y="0" class="st6 st1 st2"> </tspan></text>
<text transform="matrix(1 0 0 1 363.50543 378.95078)" class="st6 st1 st2">%</text>
<text transform="matrix(1 0 0 1 276.815 378.95078)" class="st6 st1 st2">50</text>
<text transform="matrix(1 0 0 1 285.34235 378.95078)"><tspan x="0" y="0" class="st6 st1 st2 st11"> </tspan><tspan x="1.12988" y="0" class="st6 st1 st2"> </tspan></text>
<text transform="matrix(1 0 0 1 286.71246 378.95078)" class="st6 st1 st2">%</text>
<text transform="matrix(1 0 0 1 428.90094 378.95078)"><tspan x="0" y="0" class="st6 st1 st2">10</tspan><tspan x="9.34473" y="0" class="st6 st1 st2">0</tspan></text>
<text transform="matrix(1 0 0 1 440.92926 378.95078)"><tspan x="0" y="0" class="st6 st1 st2 st11"> </tspan><tspan x="1.12988" y="0" class="st6 st1 st2"> </tspan></text>
<text transform="matrix(1 0 0 1 443.29938 378.95078)" class="st6 st1 st2">%</text>
<text transform="matrix(1 0 0 1 134.02788 440.41757)"><tspan x="0" y="0" class="st6 st1 st2">*n</tspan><tspan x="9.63965" y="0" class="st6 st1 st2">e</tspan><tspan x="14.27246" y="0" class="st6 st1 st2">u </tspan><tspan x="21.51758" y="0" class="st6 st1 st2">a</tspan><tspan x="26.09473" y="0" class="st6 st1 st2">u</tspan><tspan x="31.2334" y="0" class="st6 st1 st2">f</tspan><tspan x="34.13574" y="0" class="st6 st1 st2">ge</tspan><tspan x="43.31055" y="0" class="st6 st1 st2">n</tspan><tspan x="48.37598" y="0" class="st6 st1 st2">om</tspan><tspan x="61.03809" y="0" class="st6 st1 st2">me</tspan><tspan x="73.33203" y="0" class="st6 st1 st2">n </tspan><tspan x="80.57715" y="0" class="st6 st1 st2">ab</tspan><tspan x="90.22754" y="0" class="st6 st1 st2"> SPM</tspan><tspan x="109.3623" y="0" class="st6 st1 st2">1</tspan><tspan x="114.08398" y="0" class="st6 st1 st2">9</tspan></text>
<text transform="matrix(1 0 0 1 449.83453 54.63289)"><tspan x="0" y="0" class="st6 st1 st2">9</tspan><tspan x="4.72949" y="0" class="st6 st1 st2">0</tspan></text>
<text transform="matrix(1 0 0 1 458.39508 54.63289)" class="st6 st1 st2"> </text>
<text transform="matrix(1 0 0 1 460.46149 54.63289)" class="st6 st1 st2">%</text>
<text transform="matrix(1 0 0 1 449.96539 64.43221)"><tspan x="0" y="0" class="st6 st1 st2">9</tspan><tspan x="4.72949" y="0" class="st6 st1 st2">4</tspan></text>
<text transform="matrix(1 0 0 1 458.39508 64.43221)" class="st6 st1 st2"> </text>
<text transform="matrix(1 0 0 1 460.46149 64.43221)" class="st6 st1 st2">%</text>
<text transform="matrix(1 0 0 1 449.89996 81.5699)"><tspan x="0" y="0" class="st6 st1 st2">9</tspan><tspan x="4.72949" y="0" class="st6 st1 st2">5</tspan></text>
<text transform="matrix(1 0 0 1 458.39508 81.5699)" class="st6 st1 st2"> </text>
<text transform="matrix(1 0 0 1 460.46149 81.5699)" class="st6 st1 st2">%</text>
<text transform="matrix(1 0 0 1 449.91656 91.36922)"><tspan x="0" y="0" class="st6 st1 st2">9</tspan><tspan x="4.72949" y="0" class="st6 st1 st2">6</tspan></text>
<text transform="matrix(1 0 0 1 458.39508 91.36922)" class="st6 st1 st2"> </text>
<text transform="matrix(1 0 0 1 460.46149 91.36922)" class="st6 st1 st2">%</text>
<text transform="matrix(1 0 0 1 449.96539 108.50691)"><tspan x="0" y="0" class="st6 st1 st2">9</tspan><tspan x="4.72949" y="0" class="st6 st1 st2">4</tspan></text>
<text transform="matrix(1 0 0 1 458.39508 108.50691)" class="st6 st1 st2"> </text>
<text transform="matrix(1 0 0 1 460.46149 108.50691)" class="st6 st1 st2">%</text>
<text transform="matrix(1 0 0 1 449.96539 118.30623)"><tspan x="0" y="0" class="st6 st1 st2">9</tspan><tspan x="4.72949" y="0" class="st6 st1 st2">4</tspan></text>
<text transform="matrix(1 0 0 1 458.39508 118.30623)" class="st6 st1 st2"> </text>
<text transform="matrix(1 0 0 1 460.46149 118.30623)" class="st6 st1 st2">%</text>
<text transform="matrix(1 0 0 1 449.98199 135.44392)"><tspan x="0" y="0" class="st6 st1 st2">8</tspan><tspan x="4.72168" y="0" class="st6 st1 st2">8</tspan></text>
<text transform="matrix(1 0 0 1 458.39508 135.44392)" class="st6 st1 st2"> </text>
<text transform="matrix(1 0 0 1 460.46149 135.44392)" class="st6 st1 st2">%</text>
<text transform="matrix(1 0 0 1 450.27789 145.24324)"><tspan x="0" y="0" class="st6 st1 st2">9</tspan><tspan x="4.72949" y="0" class="st6 st1 st2">2</tspan></text>
<text transform="matrix(1 0 0 1 458.39508 145.24324)" class="st6 st1 st2"> </text>
<text transform="matrix(1 0 0 1 460.46149 145.24324)" class="st6 st1 st2">%</text>
<text transform="matrix(1 0 0 1 450.37555 162.38094)"><tspan x="0" y="0" class="st6 st1 st2">7</tspan><tspan x="5.00879" y="0" class="st6 st1 st2">3</tspan></text>
<text transform="matrix(1 0 0 1 458.39508 162.38094)" class="st6 st1 st2"> </text>
<text transform="matrix(1 0 0 1 460.46149 162.38094)" class="st6 st1 st2">%</text>
<text transform="matrix(1 0 0 1 451.61383 172.18025)"><tspan x="0" y="0" class="st6 st1 st2">8</tspan><tspan x="4.77051" y="0" class="st6 st1 st2">1</tspan></text>
<text transform="matrix(1 0 0 1 458.39508 172.18025)" class="st6 st1 st2"> </text>
<text transform="matrix(1 0 0 1 460.46149 172.18025)" class="st6 st1 st2">%</text>
<text transform="matrix(1 0 0 1 449.7359 189.31795)"><tspan x="0" y="0" class="st6 st1 st2">6</tspan><tspan x="4.79492" y="0" class="st6 st1 st2">0</tspan></text>
<text transform="matrix(1 0 0 1 458.39606 189.31795)" class="st6 st1 st2"> </text>
<text transform="matrix(1 0 0 1 460.46149 189.31795)" class="st6 st1 st2">%</text>
<text transform="matrix(1 0 0 1 449.86774 199.11726)"><tspan x="0" y="0" class="st6 st1 st2">6</tspan><tspan x="4.72949" y="0" class="st6 st1 st2">5</tspan></text>
<text transform="matrix(1 0 0 1 458.39606 199.11726)" class="st6 st1 st2"> </text>
<text transform="matrix(1 0 0 1 460.46149 199.11726)" class="st6 st1 st2">%</text>
<text transform="matrix(1 0 0 1 451.59821 216.25496)"><tspan x="0" y="0" class="st6 st1 st2">9</tspan><tspan x="4.77832" y="0" class="st6 st1 st2">1</tspan></text>
<text transform="matrix(1 0 0 1 458.39508 216.25496)" class="st6 st1 st2"> </text>
<text transform="matrix(1 0 0 1 460.46149 216.25496)" class="st6 st1 st2">%</text>
<text transform="matrix(1 0 0 1 450.27789 226.05428)"><tspan x="0" y="0" class="st6 st1 st2">9</tspan><tspan x="4.72949" y="0" class="st6 st1 st2">2</tspan></text>
<text transform="matrix(1 0 0 1 458.39508 226.05428)" class="st6 st1 st2"> </text>
<text transform="matrix(1 0 0 1 460.46149 226.05428)" class="st6 st1 st2">%</text>
<text transform="matrix(1 0 0 1 449.99078 242.59334)"><tspan x="0" y="0" class="st6 st1 st2">8</tspan><tspan x="4.69629" y="0" class="st6 st1 st2">9</tspan></text>
<text transform="matrix(1 0 0 1 458.39606 242.59334)" class="st6 st1 st2"> </text>
<text transform="matrix(1 0 0 1 460.46149 242.59334)" class="st6 st1 st2">%</text>
<text transform="matrix(1 0 0 1 449.83453 252.39217)"><tspan x="0" y="0" class="st6 st1 st2">9</tspan><tspan x="4.72949" y="0" class="st6 st1 st2">0</tspan></text>
<text transform="matrix(1 0 0 1 458.39606 252.39217)" class="st6 st1 st2"> </text>
<text transform="matrix(1 0 0 1 460.46149 252.39217)" class="st6 st1 st2">%</text>
<text transform="matrix(1 0 0 1 449.99078 275.03281)"><tspan x="0" y="0" class="st6 st1 st2">8</tspan><tspan x="4.69629" y="0" class="st6 st1 st2">9</tspan></text>
<text transform="matrix(1 0 0 1 458.39606 275.03281)" class="st6 st1 st2"> </text>
<text transform="matrix(1 0 0 1 460.46149 275.03281)" class="st6 st1 st2">%</text>
<text transform="matrix(1 0 0 1 449.94977 299.01816)"><tspan x="0" y="0" class="st6 st1 st2">9</tspan><tspan x="4.72949" y="0" class="st6 st1 st2">9</tspan></text>
<text transform="matrix(1 0 0 1 458.39606 299.01816)" class="st6 st1 st2"> </text>
<text transform="matrix(1 0 0 1 460.46149 299.01816)" class="st6 st1 st2">%</text>
<text transform="matrix(1 0 0 1 450.60602 320.46054)"><tspan x="0" y="0" class="st6 st1 st2">7</tspan><tspan x="4.72949" y="0" class="st6 st1 st2">6</tspan></text>
<text transform="matrix(1 0 0 1 458.39606 320.46054)" class="st6 st1 st2"> </text>
<text transform="matrix(1 0 0 1 460.46149 320.46054)" class="st6 st1 st2">%</text>
<text transform="matrix(1 0 0 1 449.85114 330.25937)"><tspan x="0" y="0" class="st6 st1 st2">8</tspan><tspan x="4.72168" y="0" class="st6 st1 st2">0</tspan></text>
<text transform="matrix(1 0 0 1 458.39606 330.25937)" class="st6 st1 st2"> </text>
<text transform="matrix(1 0 0 1 460.46149 330.25937)" class="st6 st1 st2">%</text>
<text transform="matrix(1 0 0 1 449.81891 347.60312)"><tspan x="0" y="0" class="st6 st1 st2">4</tspan><tspan x="4.7627" y="0" class="st6 st1 st2">0</tspan></text>
<text transform="matrix(1 0 0 1 458.39606 347.60312)" class="st6 st1 st2"> </text>
<text transform="matrix(1 0 0 1 460.46149 347.60312)" class="st6 st1 st2">%</text>
<text transform="matrix(1 0 0 1 449.81012 357.40195)"><tspan x="0" y="0" class="st6 st1 st2">4</tspan><tspan x="4.83594" y="0" class="st6 st1 st2">5</tspan></text>
<text transform="matrix(1 0 0 1 458.39606 357.40195)" class="st6 st1 st2"> </text>
<text transform="matrix(1 0 0 1 460.46149 357.40195)" class="st6 st1 st2">%</text>
<g>
	<defs>
		<rect id="SVGID_3_" x="-330.51508" y="-70.1143" width="841.89001" height="595.276"/>
	</defs>
	<clipPath id="SVGID_4_">
		<use xlink:href="#SVGID_3_"  style="overflow:visible;"/>
	</clipPath>
	<path class="st12" d="M133.83492,403.0802h0.15698c1.88901,0,3.42099,1.53201,3.42099,3.422
		c0,1.88901-1.53198,3.42102-3.42099,3.42102h-0.15698c-1.89001,0-3.42203-1.53201-3.42203-3.42102
		C130.41289,404.61221,131.9449,403.0802,133.83492,403.0802"/>
</g>
<text transform="matrix(1 0 0 1 144.72807 409.51523)"><tspan x="0" y="0" class="st6 st1 st2">2</tspan><tspan x="4.75391" y="0" class="st6 st1 st2">01</tspan><tspan x="14.21289" y="0" class="st6 st1 st2">8</tspan></text>
<text transform="matrix(1 0 0 1 145.21147 420.1998)"><tspan x="0" y="0" class="st13 st1 st2">n</tspan><tspan x="5.07422" y="0" class="st13 st1 st2">=</tspan><tspan x="9.77051" y="0" class="st13 st1 st2">1</tspan></text>
<text transform="matrix(1 0 0 1 157.03569 420.1998)" class="st13 st1 st2"> </text>
<text transform="matrix(1 0 0 1 158.44682 420.1998)"><tspan x="0" y="0" class="st13 st1 st2">01</tspan><tspan x="9.45898" y="0" class="st13 st1 st2">8</tspan></text>
<g>
	<path class="st14" d="M203.3887,402.90286h0.15698c1.88901,0,3.42099,1.53198,3.42099,3.422c0,1.88998-1.53198,3.422-3.42099,3.422
		h-0.15698c-1.89001,0-3.42203-1.53201-3.42203-3.422C199.96667,404.43484,201.49869,402.90286,203.3887,402.90286"/>
</g>
<text transform="matrix(1 0 0 1 214.28188 409.33762)"><tspan x="0" y="0" class="st6 st1 st2">2</tspan><tspan x="4.75391" y="0" class="st6 st1 st2">01</tspan><tspan x="14.21289" y="0" class="st6 st1 st2">9</tspan></text>
<text transform="matrix(1 0 0 1 214.76527 420.02219)"><tspan x="0" y="0" class="st13 st1 st2">n</tspan><tspan x="5.07422" y="0" class="st13 st1 st2">=</tspan><tspan x="9.77051" y="0" class="st13 st1 st2">1</tspan></text>
<text transform="matrix(1 0 0 1 226.58949 420.02219)" class="st13 st1 st2"> </text>
<text transform="matrix(1 0 0 1 227.99965 420.02219)"><tspan x="0" y="0" class="st13 st1 st2">0</tspan><tspan x="4.72949" y="0" class="st13 st1 st2">1</tspan></text>
<text transform="matrix(1 0 0 1 234.98695 420.02219)" class="st13 st1 st2"> </text>
<text transform="matrix(1 0 0 1 235.37172 420.02219)" class="st13 st1 st2">1</text>
</svg>
