<?xml version="1.0" encoding="utf-8"?>
<!-- Generator: Adobe Illustrator 24.0.1, SVG Export Plug-In . SVG Version: 6.00 Build 0)  -->
<svg version="1.1" xmlns="http://www.w3.org/2000/svg" xmlns:xlink="http://www.w3.org/1999/xlink" x="0px" y="0px"
	 viewBox="0 0 571.75372 571.70239" style="enable-background:new 0 0 571.75372 571.70239;" xml:space="preserve">
<style type="text/css">
	.st0{fill:#3D3D3B;}
	.st1{font-family:'OpenSans-Regular';}
	.st2{font-size:10px;}
	.st3{letter-spacing:1;}
	.st4{fill:#878787;}
	.st5{font-size:8.2px;}
	.st6{fill:#B3B2B2;}
	.st7{fill:none;stroke:#DEDEDE;stroke-width:0.25;stroke-miterlimit:10;}
	.st8{fill:#CCCCD7;}
	.st9{fill:#B2B2B2;}
	.st10{font-size:8.1654px;}
	.st11{fill:#AF9ACA;}
	.st12{fill:#56B99C;}
	
		.st13{fill:none;stroke:#2E4C9B;stroke-width:1.3;stroke-linecap:round;stroke-linejoin:round;stroke-miterlimit:10;stroke-dasharray:0,2.672;}
	.st14{fill:none;stroke:#2E4C9B;stroke-width:1.3;stroke-linecap:round;stroke-linejoin:round;stroke-miterlimit:10;}
	.st15{clip-path:url(#SVGID_1_);}
	.st16{clip-path:url(#SVGID_2_);fill:#C5C5CD;}
	.st17{clip-path:url(#SVGID_3_);fill:#9DA7D5;}
	.st18{clip-path:url(#SVGID_4_);fill:#E5E5EB;}
	.st19{clip-path:url(#SVGID_5_);fill:#EC6352;}
	.st20{clip-path:url(#SVGID_6_);fill:#FBCD7F;}
	.st21{clip-path:url(#SVGID_7_);fill:#B5A3CF;}
	.st22{clip-path:url(#SVGID_8_);fill:#BA64A3;}
	.st23{clip-path:url(#SVGID_9_);fill:#9278B5;}
	.st24{clip-path:url(#SVGID_10_);fill:#B5A3CF;}
	.st25{clip-path:url(#SVGID_11_);fill:#BA64A3;}
	.st26{clip-path:url(#SVGID_12_);fill:#9278B5;}
	.st27{clip-path:url(#SVGID_13_);}
	.st28{clip-path:url(#SVGID_14_);fill:#AF9ACA;}
	.st29{clip-path:url(#SVGID_13_);fill:#AF9ACA;}
	.st30{clip-path:url(#SVGID_15_);fill:#B5A3CF;}
	.st31{clip-path:url(#SVGID_16_);fill:#BA64A3;}
	.st32{clip-path:url(#SVGID_17_);fill:#BE99C7;}
	.st33{clip-path:url(#SVGID_18_);fill:#9278B5;}
	.st34{clip-path:url(#SVGID_19_);fill:#5B5FA7;}
	.st35{clip-path:url(#SVGID_20_);fill:#2E4C9B;}
	.st36{clip-path:url(#SVGID_21_);fill:#56B99C;}
	
		.st37{clip-path:url(#SVGID_22_);fill:none;stroke:#AF9ACA;stroke-width:1.5;stroke-linecap:round;stroke-linejoin:round;stroke-miterlimit:10;stroke-dasharray:0,4.385;}
	
		.st38{clip-path:url(#SVGID_22_);fill:none;stroke:#AF9ACA;stroke-width:1.5;stroke-linecap:round;stroke-linejoin:round;stroke-miterlimit:10;stroke-dasharray:0,4.773;}
	
		.st39{clip-path:url(#SVGID_22_);fill:none;stroke:#AF9ACA;stroke-width:1.5;stroke-linecap:round;stroke-linejoin:round;stroke-miterlimit:10;stroke-dasharray:0,4.802;}
	
		.st40{clip-path:url(#SVGID_22_);fill:none;stroke:#AF9ACA;stroke-width:1.5;stroke-linecap:round;stroke-linejoin:round;stroke-miterlimit:10;stroke-dasharray:0,4.26;}
	
		.st41{clip-path:url(#SVGID_22_);fill:none;stroke:#AF9ACA;stroke-width:1.5;stroke-linecap:round;stroke-linejoin:round;stroke-miterlimit:10;stroke-dasharray:0,4.42;}
	
		.st42{clip-path:url(#SVGID_22_);fill:none;stroke:#AF9ACA;stroke-width:1.5;stroke-linecap:round;stroke-linejoin:round;stroke-miterlimit:10;stroke-dasharray:0,4.454;}
	
		.st43{clip-path:url(#SVGID_22_);fill:none;stroke:#AF9ACA;stroke-width:1.5;stroke-linecap:round;stroke-linejoin:round;stroke-miterlimit:10;stroke-dasharray:0,4.386;}
	
		.st44{clip-path:url(#SVGID_22_);fill:none;stroke:#AF9ACA;stroke-width:1.5;stroke-linecap:round;stroke-linejoin:round;stroke-miterlimit:10;stroke-dasharray:0,4.401;}
	
		.st45{clip-path:url(#SVGID_22_);fill:none;stroke:#AF9ACA;stroke-width:1.5;stroke-linecap:round;stroke-linejoin:round;stroke-miterlimit:10;stroke-dasharray:0,4.53;}
	
		.st46{clip-path:url(#SVGID_22_);fill:none;stroke:#AF9ACA;stroke-width:1.5;stroke-linecap:round;stroke-linejoin:round;stroke-miterlimit:10;stroke-dasharray:0,4.149;}
	
		.st47{clip-path:url(#SVGID_22_);fill:none;stroke:#AF9ACA;stroke-width:1.5;stroke-linecap:round;stroke-linejoin:round;stroke-miterlimit:10;}
	
		.st48{clip-path:url(#SVGID_23_);fill:none;stroke:#2E4C9B;stroke-width:1.5;stroke-linecap:round;stroke-linejoin:round;stroke-miterlimit:10;stroke-dasharray:0,4.385;}
	
		.st49{clip-path:url(#SVGID_23_);fill:none;stroke:#2E4C9B;stroke-width:1.5;stroke-linecap:round;stroke-linejoin:round;stroke-miterlimit:10;stroke-dasharray:0,4.773;}
	
		.st50{clip-path:url(#SVGID_23_);fill:none;stroke:#2E4C9B;stroke-width:1.5;stroke-linecap:round;stroke-linejoin:round;stroke-miterlimit:10;stroke-dasharray:0,4.802;}
	
		.st51{clip-path:url(#SVGID_23_);fill:none;stroke:#2E4C9B;stroke-width:1.5;stroke-linecap:round;stroke-linejoin:round;stroke-miterlimit:10;stroke-dasharray:0,4.26;}
	
		.st52{clip-path:url(#SVGID_23_);fill:none;stroke:#2E4C9B;stroke-width:1.5;stroke-linecap:round;stroke-linejoin:round;stroke-miterlimit:10;stroke-dasharray:0,4.621;}
	
		.st53{clip-path:url(#SVGID_23_);fill:none;stroke:#2E4C9B;stroke-width:1.5;stroke-linecap:round;stroke-linejoin:round;stroke-miterlimit:10;stroke-dasharray:0,4.401;}
	
		.st54{clip-path:url(#SVGID_23_);fill:none;stroke:#2E4C9B;stroke-width:1.5;stroke-linecap:round;stroke-linejoin:round;stroke-miterlimit:10;stroke-dasharray:0,4.438;}
	
		.st55{clip-path:url(#SVGID_23_);fill:none;stroke:#2E4C9B;stroke-width:1.5;stroke-linecap:round;stroke-linejoin:round;stroke-miterlimit:10;stroke-dasharray:0,4.149;}
	
		.st56{clip-path:url(#SVGID_23_);fill:none;stroke:#2E4C9B;stroke-width:1.5;stroke-linecap:round;stroke-linejoin:round;stroke-miterlimit:10;stroke-dasharray:0,4.386;}
	
		.st57{clip-path:url(#SVGID_23_);fill:none;stroke:#2E4C9B;stroke-width:1.5;stroke-linecap:round;stroke-linejoin:round;stroke-miterlimit:10;stroke-dasharray:0,4.884;}
	
		.st58{clip-path:url(#SVGID_23_);fill:none;stroke:#2E4C9B;stroke-width:1.5;stroke-linecap:round;stroke-linejoin:round;stroke-miterlimit:10;stroke-dasharray:0,4.535;}
	
		.st59{clip-path:url(#SVGID_23_);fill:none;stroke:#2E4C9B;stroke-width:1.5;stroke-linecap:round;stroke-linejoin:round;stroke-miterlimit:10;}
	.st60{clip-path:url(#SVGID_24_);fill:none;stroke:#D1D1DA;stroke-miterlimit:10;}
</style>
<g id="Ebene_1">
	<text transform="matrix(1 0 0 1 148.11546 35.68568)"><tspan x="0" y="0" class="st0 st1 st2">B</tspan><tspan x="7.40967" y="0" class="st0 st1 st2 st3">E</tspan><tspan x="13.97119" y="0" class="st0 st1 st2 st3">K</tspan><tspan x="21.18848" y="0" class="st0 st1 st2 st3">A</tspan><tspan x="28.55664" y="0" class="st0 st1 st2 st3">N</tspan><tspan x="37.146" y="0" class="st0 st1 st2 st3">N</tspan><tspan x="45.71484" y="0" class="st0 st1 st2 st3">T</tspan><tspan x="52.24707" y="0" class="st0 st1 st2 st3">H</tspan><tspan x="60.67529" y="0" class="st0 st1 st2 st3">E</tspan><tspan x="67.23682" y="0" class="st0 st1 st2 st3">I</tspan><tspan x="71.05469" y="0" class="st0 st1 st2 st3">T </tspan><tspan x="81.18457" y="0" class="st0 st1 st2 st3">U</tspan><tspan x="89.55469" y="0" class="st0 st1 st2 st3">N</tspan><tspan x="98.15381" y="0" class="st0 st1 st2 st3">D IM</tspan><tspan x="123.85791" y="0" class="st0 st1 st2">A</tspan><tspan x="131.07617" y="0" class="st0 st1 st2 st3">GE </tspan><tspan x="149.51562" y="0" class="st0 st1 st2">V</tspan><tspan x="156.42773" y="0" class="st0 st1 st2 st3">O</tspan><tspan x="165.25586" y="0" class="st0 st1 st2 st3">N </tspan><tspan x="177.39258" y="0" class="st0 st1 st2 st3">Z</tspan><tspan x="184.39062" y="0" class="st0 st1 st2 st3">A</tspan><tspan x="191.75879" y="0" class="st0 st1 st2 st3">H</tspan><tspan x="200.18652" y="0" class="st0 st1 st2">L</tspan><tspan x="206.26709" y="0" class="st0 st1 st2 st3">UN</tspan><tspan x="223.24658" y="0" class="st0 st1 st2 st3">G</tspan><tspan x="231.59668" y="0" class="st0 st1 st2">S</tspan><tspan x="238.04492" y="0" class="st0 st1 st2 st3">M</tspan><tspan x="248.1333" y="0" class="st0 st1 st2 st3">I</tspan><tspan x="251.94141" y="0" class="st0 st1 st2 st3">T</tspan><tspan x="258.72363" y="0" class="st0 st1 st2 st3">TE</tspan><tspan x="271.81738" y="0" class="st0 st1 st2 st3">L</tspan><tspan x="278.07764" y="0" class="st0 st1 st2">N</tspan></text>
	<text transform="matrix(1 0 0 1 373.40811 450.69672)"><tspan x="0" y="0" class="st4 st1 st5">A</tspan><tspan x="5.271" y="0" class="st4 st1 st5">b</tspan><tspan x="10.32861" y="0" class="st4 st1 st5">b. </tspan><tspan x="19.78857" y="0" class="st4 st1 st5">5</tspan></text>
	<text transform="matrix(1 0 0 1 373.40768 503.67328)"><tspan x="0" y="0" class="st4 st1 st5">B</tspan><tspan x="5.40332" y="0" class="st4 st1 st5">a</tspan><tspan x="9.93945" y="0" class="st4 st1 st5">s</tspan><tspan x="13.85938" y="0" class="st4 st1 st5">i</tspan><tspan x="15.97412" y="0" class="st4 st1 st5">s</tspan><tspan x="19.91895" y="0" class="st4 st1 st5">: </tspan><tspan x="24.31299" y="0" class="st4 st1 st5">P</tspan><tspan x="29.15967" y="0" class="st4 st1 st5">e</tspan><tspan x="33.80127" y="0" class="st4 st1 st5">r</tspan><tspan x="37.23877" y="0" class="st4 st1 st5">s</tspan><tspan x="41.20801" y="0" class="st4 st1 st5">o</tspan><tspan x="46.20166" y="0" class="st4 st1 st5">n</tspan><tspan x="51.26709" y="0" class="st4 st1 st5">e</tspan><tspan x="55.90869" y="0" class="st4 st1 st5">n</tspan><tspan x="60.99902" y="0" class="st4 st1 st5">, di</tspan><tspan x="72.40186" y="0" class="st4 st1 st5">e</tspan><tspan x="77.03516" y="0" class="st4 st1 st5"> </tspan><tspan x="79.20654" y="0" class="st4 st1 st5">d</tspan><tspan x="84.24756" y="0" class="st4 st1 st5">a</tspan><tspan x="88.78369" y="0" class="st4 st1 st5">s Zahlungsmittel</tspan><tspan x="0" y="9.83984" class="st4 st1 st5">kennen; Zufallsauswahl für Bargeld, </tspan><tspan x="0" y="19.67969" class="st4 st1 st5">Debitkarte und Kreditkarte </tspan></text>
	<text transform="matrix(1 0 0 1 373.40805 463.72797)"><tspan x="0" y="0" class="st4 st1 st5">Frage</tspan><tspan x="21.68359" y="0" class="st4 st1 st5">: </tspan><tspan x="26.07764" y="0" class="st4 st1 st5">In wiefern treffen die aufgeführten</tspan><tspan x="0" y="9.83984" class="st4 st1 st5">Beschreibungen/Eigenschften Ihrer Ansicht </tspan><tspan x="0" y="19.67969" class="st4 st1 st5">auf «Zahlungsmittel» zu? </tspan></text>
	<text transform="matrix(1 0 0 1 96.80526 68.86888)"><tspan x="0" y="0" class="st6 st1 st5">u</tspan><tspan x="5.03271" y="0" class="st6 st1 st5">m</tspan><tspan x="12.61914" y="0" class="st6 st1 st5">s</tspan><tspan x="16.58838" y="0" class="st6 st1 st5">tändlich</tspan></text>
	<text transform="matrix(1 0 0 1 85.93417 88.56517)"><tspan x="0" y="0" class="st6 st1 st5">u</tspan><tspan x="5.03271" y="0" class="st6 st1 st5">n</tspan><tspan x="10.0166" y="0" class="st6 st1 st5">s</tspan><tspan x="13.92822" y="0" class="st6 st1 st5">y</tspan><tspan x="18.01123" y="0" class="st6 st1 st5">mp</tspan><tspan x="30.66357" y="0" class="st6 st1 st5">a</tspan><tspan x="35.19922" y="0" class="st6 st1 st5">t</tspan><tspan x="38.07764" y="0" class="st6 st1 st5">hi</tspan><tspan x="45.18457" y="0" class="st6 st1 st5">s</tspan><tspan x="49.12109" y="0" class="st6 st1 st5">ch</tspan></text>
	<text transform="matrix(1 0 0 1 112.26717 108.26146)"><tspan x="0" y="0" class="st6 st1 st5">unn</tspan><tspan x="15.09863" y="0" class="st6 st1 st5">ö</tspan><tspan x="20.1333" y="0" class="st6 st1 st5">tig </tspan></text>
	<text transform="matrix(1 0 0 1 92.00985 127.95775)"><tspan x="0" y="0" class="st6 st1 st5">un</tspan><tspan x="10.06592" y="0" class="st6 st1 st5">z</tspan><tspan x="13.83594" y="0" class="st6 st1 st5">u</tspan><tspan x="18.91797" y="0" class="st6 st1 st5">ve</tspan><tspan x="27.62646" y="0" class="st6 st1 st5">r</tspan><tspan x="31.02295" y="0" class="st6 st1 st5">l</tspan><tspan x="33.08057" y="0" class="st6 st1 st5">ä</tspan><tspan x="37.5752" y="0" class="st6 st1 st5">s</tspan><tspan x="41.52002" y="0" class="st6 st1 st5">s</tspan><tspan x="45.41553" y="0" class="st6 st1 st5">ig</tspan></text>
	<text transform="matrix(1 0 0 1 44.29549 147.65453)"><tspan x="0" y="0" class="st6 st1 st5">p</tspan><tspan x="5.0249" y="0" class="st6 st1 st5">a</tspan><tspan x="9.51953" y="0" class="st6 st1 st5">s</tspan><tspan x="13.47266" y="0" class="st6 st1 st5">s</tspan><tspan x="17.43359" y="0" class="st6 st1 st5">t nicht </tspan><tspan x="43.52686" y="0" class="st6 st1 st5">z</tspan><tspan x="47.29688" y="0" class="st6 st1 st5">u meinem Stil</tspan></text>
	<text transform="matrix(1 0 0 1 102.29549 166.65355)"><tspan x="0" y="0" class="st6 st1 st5">u</tspan><tspan x="5.03271" y="0" class="st6 st1 st5">n</tspan><tspan x="9.99219" y="0" class="st6 st1 st5">a</tspan><tspan x="14.52783" y="0" class="st6 st1 st5">t</tspan><tspan x="17.47168" y="0" class="st6 st1 st5">t</tspan><tspan x="20.32568" y="0" class="st6 st1 st5">r</tspan><tspan x="23.57471" y="0" class="st6 st1 st5">a</tspan><tspan x="28.13477" y="0" class="st6 st1 st5">k</tspan><tspan x="32.61963" y="0" class="st6 st1 st5">tiv</tspan></text>
	<text transform="matrix(1 0 0 1 114.21249 185.65306)"><tspan x="0" y="0" class="st6 st1 st5">s</tspan><tspan x="3.83789" y="0" class="st6 st1 st5">u</tspan><tspan x="8.87109" y="0" class="st6 st1 st5">s</tspan><tspan x="12.7583" y="0" class="st6 st1 st5">p</tspan><tspan x="17.7832" y="0" class="st6 st1 st5">e</tspan><tspan x="22.3999" y="0" class="st6 st1 st5">k</tspan><tspan x="26.88428" y="0" class="st6 st1 st5">t</tspan></text>
	<text transform="matrix(1 0 0 1 111.80624 205.34935)"><tspan x="0" y="0" class="st6 st1 st5">l</tspan><tspan x="2.05762" y="0" class="st6 st1 st5">an</tspan><tspan x="11.65088" y="0" class="st6 st1 st5">g</tspan><tspan x="16.08594" y="0" class="st6 st1 st5">sam</tspan></text>
	<text transform="matrix(1 0 0 1 31.46248 225.04613)"><tspan x="0" y="0" class="st6 st1 st5">gering</tspan><tspan x="24.03955" y="0" class="st6 st1 st5">e</tspan><tspan x="28.67285" y="0" class="st6 st1 st5">s </tspan><tspan x="34.71436" y="0" class="st6 st1 st5">G</tspan><tspan x="40.75" y="0" class="st6 st1 st5">e</tspan><tspan x="45.43262" y="0" class="st6 st1 st5">f</tspan><tspan x="48.25195" y="0" class="st6 st1 st5">ühl der </tspan><tspan x="77.62451" y="0" class="st6 st1 st5">K</tspan><tspan x="82.69873" y="0" class="st6 st1 st5">on</tspan><tspan x="92.68457" y="0" class="st6 st1 st5">t</tspan><tspan x="95.54639" y="0" class="st6 st1 st5">r</tspan><tspan x="98.82812" y="0" class="st6 st1 st5">olle</tspan></text>
	<text transform="matrix(1 0 0 1 40.60408 244.74242)"><tspan x="0" y="0" class="st6 st1 st5">g</tspan><tspan x="4.45947" y="0" class="st6 st1 st5">e</tspan><tspan x="9.01904" y="0" class="st6 st1 st5">ri</tspan><tspan x="14.37451" y="0" class="st6 st1 st5">n</tspan><tspan x="19.3667" y="0" class="st6 st1 st5">g</tspan><tspan x="23.82617" y="0" class="st6 st1 st5">e</tspan><tspan x="28.38574" y="0" class="st6 st1 st5"> </tspan><tspan x="30.48291" y="0" class="st6 st1 st5">A</tspan><tspan x="35.54883" y="0" class="st6 st1 st5">u</tspan><tspan x="40.54932" y="0" class="st6 st1 st5">s</tspan><tspan x="44.41992" y="0" class="st6 st1 st5">g</tspan><tspan x="48.82227" y="0" class="st6 st1 st5">abe</tspan><tspan x="62.88477" y="0" class="st6 st1 st5">n</tspan><tspan x="67.83594" y="0" class="st6 st1 st5">ü</tspan><tspan x="72.83594" y="0" class="st6 st1 st5">be</tspan><tspan x="82.37939" y="0" class="st6 st1 st5">r</tspan><tspan x="85.73486" y="0" class="st6 st1 st5">s</tspan><tspan x="89.58105" y="0" class="st6 st1 st5">ich</tspan><tspan x="100.49316" y="0" class="st6 st1 st5">t</tspan></text>
	<text transform="matrix(1 0 0 1 91.30917 258.73996)"><tspan x="0" y="0" class="st6 st1 st5">e</tspan><tspan x="4.60059" y="0" class="st6 st1 st5">r</tspan><tspan x="8.27588" y="0" class="st6 st1 st5">f</tspan><tspan x="11.09521" y="0" class="st6 st1 st5">o</tspan><tspan x="16.04834" y="0" class="st6 st1 st5">r</tspan><tspan x="19.33789" y="0" class="st6 st1 st5">de</tspan><tspan x="28.96338" y="0" class="st6 st1 st5">r</tspan><tspan x="32.63867" y="0" class="st6 st1 st5">t </tspan><tspan x="37.66357" y="0" class="st6 st1 st5">v</tspan><tspan x="41.78809" y="0" class="st6 st1 st5">i</tspan><tspan x="43.86182" y="0" class="st6 st1 st5">e</tspan><tspan x="48.479" y="0" class="st6 st1 st5">l </tspan></text>
	<text transform="matrix(1 0 0 1 75.0621 267.74338)"><tspan x="0" y="0" class="st6 st1 st5">A</tspan><tspan x="5.10693" y="0" class="st6 st1 st5">us</tspan><tspan x="14.05176" y="0" class="st6 st1 st5">g</tspan><tspan x="18.49512" y="0" class="st6 st1 st5">abendi</tspan><tspan x="44.8125" y="0" class="st6 st1 st5">s</tspan><tspan x="48.79004" y="0" class="st6 st1 st5">z</tspan><tspan x="52.65039" y="0" class="st6 st1 st5">iplin</tspan></text>
	<text transform="matrix(1 0 0 1 123.51571 283.24094)" class="st6 st1 st5">teuer</text>
	<text transform="matrix(1 0 0 1 73.3702 298.73898)"><tspan x="0" y="0" class="st6 st1 st5">ti</tspan><tspan x="4.96875" y="0" class="st6 st1 st5">e</tspan><tspan x="9.65967" y="0" class="st6 st1 st5">f</tspan><tspan x="12.47119" y="0" class="st6 st1 st5">e </tspan><tspan x="19.20166" y="0" class="st6 st1 st5">A</tspan><tspan x="24.43164" y="0" class="st6 st1 st5">k</tspan><tspan x="29.03906" y="0" class="st6 st1 st5">ze</tspan><tspan x="37.47559" y="0" class="st6 st1 st5">p</tspan><tspan x="42.57422" y="0" class="st6 st1 st5">tanz an</tspan></text>
	<text transform="matrix(1 0 0 1 142.75984 298.77316)" class="st6 st1 st5"> </text>
	<text transform="matrix(1 0 0 1 68.566 307.77316)"><tspan x="0" y="0" class="st6 st1 st5">den </tspan><tspan x="16.78809" y="0" class="st6 st1 st5">V</tspan><tspan x="21.29199" y="0" class="st6 st1 st5">e</tspan><tspan x="25.89258" y="0" class="st6 st1 st5">r</tspan><tspan x="29.28906" y="0" class="st6 st1 st5">k</tspan><tspan x="33.69971" y="0" class="st6 st1 st5">a</tspan><tspan x="38.23535" y="0" class="st6 st1 st5">u</tspan><tspan x="43.34229" y="0" class="st6 st1 st5">f</tspan><tspan x="46.22754" y="0" class="st6 st1 st5">s</tspan><tspan x="50.17188" y="0" class="st6 st1 st5">s</tspan><tspan x="54.13281" y="0" class="st6 st1 st5">t</tspan><tspan x="57.02783" y="0" class="st6 st1 st5">e</tspan><tspan x="61.64453" y="0" class="st6 st1 st5">llen</tspan></text>
	<text transform="matrix(1 0 0 1 111.12118 323.27121)"><tspan x="0" y="0" class="st6 st1 st5">u</tspan><tspan x="5.03271" y="0" class="st6 st1 st5">n</tspan><tspan x="10.0166" y="0" class="st6 st1 st5">s</tspan><tspan x="13.91211" y="0" class="st6 st1 st5">icher</tspan></text>
	<text transform="matrix(1 0 0 1 102.43661 342.86887)"><tspan x="0" y="0" class="st6 st1 st5">t</tspan><tspan x="2.854" y="0" class="st6 st1 st5">r</tspan><tspan x="6.11084" y="0" class="st6 st1 st5">ad</tspan><tspan x="15.69629" y="0" class="st6 st1 st5">i</tspan><tspan x="17.83594" y="0" class="st6 st1 st5">tion</tspan><tspan x="32.79053" y="0" class="st6 st1 st5">e</tspan><tspan x="37.40723" y="0" class="st6 st1 st5">ll</tspan></text>
	<text transform="matrix(1 0 0 1 108.24715 362.46652)"><tspan x="0" y="0" class="st6 st1 st5">im </tspan><tspan x="11.83154" y="0" class="st6 st1 st5">I</tspan><tspan x="14.03564" y="0" class="st6 st1 st5">n</tspan><tspan x="19.06885" y="0" class="st6 st1 st5">l</tspan><tspan x="21.12646" y="0" class="st6 st1 st5">and</tspan></text>
	<text transform="matrix(1 0 0 1 76.0284 382.16281)"><tspan x="0" y="0" class="st6 st1 st5">f</tspan><tspan x="2.82812" y="0" class="st6 st1 st5">ür kleine </tspan><tspan x="38.1543" y="0" class="st6 st1 st5">B</tspan><tspan x="43.49219" y="0" class="st6 st1 st5">e</tspan><tspan x="48.19922" y="0" class="st6 st1 st5">t</tspan><tspan x="51.05273" y="0" class="st6 st1 st5">r</tspan><tspan x="54.31006" y="0" class="st6 st1 st5">äge</tspan></text>
	<text transform="matrix(1 0 0 1 77.25448 401.8591)"><tspan x="0" y="0" class="st6 st1 st5">f</tspan><tspan x="2.82812" y="0" class="st6 st1 st5">ür </tspan><tspan x="13.33789" y="0" class="st6 st1 st5">S</tspan><tspan x="17.77295" y="0" class="st6 st1 st5">pontan</tspan><tspan x="45.27148" y="0" class="st6 st1 st5">k</tspan><tspan x="49.67432" y="0" class="st6 st1 st5">ä</tspan><tspan x="54.21826" y="0" class="st6 st1 st5">u</tspan><tspan x="59.31689" y="0" class="st6 st1 st5">f</tspan><tspan x="62.13672" y="0" class="st6 st1 st5">e</tspan></text>
	<text transform="matrix(1 0 0 1 439.69199 68.85765)"><tspan x="0" y="0" class="st6 st1 st5">p</tspan><tspan x="5.02441" y="0" class="st6 st1 st5">r</tspan><tspan x="8.27344" y="0" class="st6 st1 st5">a</tspan><tspan x="12.83398" y="0" class="st6 st1 st5">k</tspan><tspan x="17.31836" y="0" class="st6 st1 st5">ti</tspan><tspan x="22.28809" y="0" class="st6 st1 st5">s</tspan><tspan x="26.21582" y="0" class="st6 st1 st5">ch</tspan></text>
	<text transform="matrix(1 0 0 1 439.69199 88.55394)"><tspan x="0" y="0" class="st6 st1 st5">s</tspan><tspan x="3.91211" y="0" class="st6 st1 st5">y</tspan><tspan x="7.99414" y="0" class="st6 st1 st5">mp</tspan><tspan x="20.64648" y="0" class="st6 st1 st5">a</tspan><tspan x="25.18262" y="0" class="st6 st1 st5">t</tspan><tspan x="28.06152" y="0" class="st6 st1 st5">hi</tspan><tspan x="35.16797" y="0" class="st6 st1 st5">s</tspan><tspan x="39.10449" y="0" class="st6 st1 st5">ch</tspan></text>
	<text transform="matrix(1 0 0 1 439.69199 108.25023)"><tspan x="0" y="0" class="st6 st1 st5">u</tspan><tspan x="5.0332" y="0" class="st6 st1 st5">n</tspan><tspan x="9.99219" y="0" class="st6 st1 st5">ve</tspan><tspan x="18.7002" y="0" class="st6 st1 st5">r</tspan><tspan x="22.24414" y="0" class="st6 st1 st5">z</tspan><tspan x="26.10449" y="0" class="st6 st1 st5">ich</tspan><tspan x="37.11523" y="0" class="st6 st1 st5">t</tspan><tspan x="39.99414" y="0" class="st6 st1 st5">bar</tspan></text>
	<text transform="matrix(1 0 0 1 439.69199 127.94701)"><tspan x="0" y="0" class="st6 st1 st5">z</tspan><tspan x="3.77051" y="0" class="st6 st1 st5">u</tspan><tspan x="8.85254" y="0" class="st6 st1 st5">ve</tspan><tspan x="17.56055" y="0" class="st6 st1 st5">r</tspan><tspan x="20.95703" y="0" class="st6 st1 st5">l</tspan><tspan x="23.01465" y="0" class="st6 st1 st5">ä</tspan><tspan x="27.51758" y="0" class="st6 st1 st5">s</tspan><tspan x="31.46289" y="0" class="st6 st1 st5">s</tspan><tspan x="35.35742" y="0" class="st6 st1 st5">ig</tspan></text>
	<text transform="matrix(1 0 0 1 439.69199 147.6433)"><tspan x="0" y="0" class="st6 st1 st5">p</tspan><tspan x="5.02441" y="0" class="st6 st1 st5">a</tspan><tspan x="9.52832" y="0" class="st6 st1 st5">s</tspan><tspan x="13.47266" y="0" class="st6 st1 st5">s</tspan><tspan x="17.44141" y="0" class="st6 st1 st5">t </tspan><tspan x="22.4668" y="0" class="st6 st1 st5">z</tspan><tspan x="26.23633" y="0" class="st6 st1 st5">u meinem Stil</tspan></text>
	<text transform="matrix(1 0 0 1 439.69199 166.64281)"><tspan x="0" y="0" class="st6 st1 st5">a</tspan><tspan x="4.53613" y="0" class="st6 st1 st5">t</tspan><tspan x="7.47949" y="0" class="st6 st1 st5">t</tspan><tspan x="10.33398" y="0" class="st6 st1 st5">r</tspan><tspan x="13.58301" y="0" class="st6 st1 st5">a</tspan><tspan x="18.14258" y="0" class="st6 st1 st5">k</tspan><tspan x="22.62793" y="0" class="st6 st1 st5">tiv</tspan></text>
	<text transform="matrix(1 0 0 1 439.69199 185.64183)"><tspan x="0" y="0" class="st6 st1 st5">ve</tspan><tspan x="8.70801" y="0" class="st6 st1 st5">r</tspan><tspan x="12.37598" y="0" class="st6 st1 st5">t</tspan><tspan x="15.2373" y="0" class="st6 st1 st5">r</tspan><tspan x="18.48633" y="0" class="st6 st1 st5">a</tspan><tspan x="23.02246" y="0" class="st6 st1 st5">ue</tspan><tspan x="32.65527" y="0" class="st6 st1 st5">ns</tspan><tspan x="41.50195" y="0" class="st6 st1 st5">w</tspan><tspan x="47.76562" y="0" class="st6 st1 st5">ü</tspan><tspan x="52.79785" y="0" class="st6 st1 st5">r</tspan><tspan x="56.08008" y="0" class="st6 st1 st5">dig</tspan></text>
	<text transform="matrix(1 0 0 1 439.69199 205.33861)"><tspan x="0" y="0" class="st6 st1 st5">s</tspan><tspan x="3.92773" y="0" class="st6 st1 st5">chn</tspan><tspan x="17.89746" y="0" class="st6 st1 st5">e</tspan><tspan x="22.52246" y="0" class="st6 st1 st5">ll</tspan></text>
	<text transform="matrix(1 0 0 1 439.69199 225.0349)"><tspan x="0" y="0" class="st6 st1 st5">s</tspan><tspan x="3.81348" y="0" class="st6 st1 st5">t</tspan><tspan x="6.55273" y="0" class="st6 st1 st5">a</tspan><tspan x="10.94922" y="0" class="st6 st1 st5">r</tspan><tspan x="14.19727" y="0" class="st6 st1 st5">k</tspan><tspan x="18.32129" y="0" class="st6 st1 st5">e</tspan><tspan x="22.79883" y="0" class="st6 st1 st5">s</tspan><tspan x="26.54688" y="0" class="st6 st1 st5"> </tspan><tspan x="28.52148" y="0" class="st6 st1 st5">G</tspan><tspan x="34.40039" y="0" class="st6 st1 st5">e</tspan><tspan x="38.92773" y="0" class="st6 st1 st5">f</tspan><tspan x="41.59961" y="0" class="st6 st1 st5">ü</tspan><tspan x="46.47656" y="0" class="st6 st1 st5">h</tspan><tspan x="51.3457" y="0" class="st6 st1 st5">l </tspan><tspan x="55.23828" y="0" class="st6 st1 st5">de</tspan><tspan x="64.53516" y="0" class="st6 st1 st5">r </tspan><tspan x="69.70117" y="0" class="st6 st1 st5">K</tspan><tspan x="74.61914" y="0" class="st6 st1 st5">o</tspan><tspan x="79.41602" y="0" class="st6 st1 st5">n</tspan><tspan x="84.28516" y="0" class="st6 st1 st5">t</tspan><tspan x="86.9834" y="0" class="st6 st1 st5">r</tspan><tspan x="90.10059" y="0" class="st6 st1 st5">oll</tspan><tspan x="98.73438" y="0" class="st6 st1 st5">e</tspan></text>
	<text transform="matrix(1 0 0 1 439.69199 244.73119)"><tspan x="0" y="0" class="st6 st1 st5">g</tspan><tspan x="4.49219" y="0" class="st6 st1 st5">u</tspan><tspan x="9.59863" y="0" class="st6 st1 st5">te </tspan><tspan x="19.22461" y="0" class="st6 st1 st5">A</tspan><tspan x="24.33105" y="0" class="st6 st1 st5">us</tspan><tspan x="33.27637" y="0" class="st6 st1 st5">g</tspan><tspan x="37.71973" y="0" class="st6 st1 st5">abe</tspan><tspan x="51.90527" y="0" class="st6 st1 st5">n</tspan><tspan x="56.88867" y="0" class="st6 st1 st5">übe</tspan><tspan x="71.54688" y="0" class="st6 st1 st5">r</tspan><tspan x="74.93555" y="0" class="st6 st1 st5">s</tspan><tspan x="78.83105" y="0" class="st6 st1 st5">icht</tspan></text>
	<text transform="matrix(1 0 0 1 439.69199 258.72873)"><tspan x="0" y="0" class="st6 st1 st5">e</tspan><tspan x="4.60059" y="0" class="st6 st1 st5">r</tspan><tspan x="8.27539" y="0" class="st6 st1 st5">f</tspan><tspan x="11.08691" y="0" class="st6 st1 st5">o</tspan><tspan x="16.04004" y="0" class="st6 st1 st5">r</tspan><tspan x="19.32129" y="0" class="st6 st1 st5">de</tspan><tspan x="28.94727" y="0" class="st6 st1 st5">r</tspan><tspan x="32.61426" y="0" class="st6 st1 st5">t </tspan><tspan x="37.63867" y="0" class="st6 st1 st5">w</tspan><tspan x="43.93555" y="0" class="st6 st1 st5">enig </tspan></text>
	<text transform="matrix(1 0 0 1 439.69199 267.73215)"><tspan x="0" y="0" class="st6 st1 st5">A</tspan><tspan x="5.10742" y="0" class="st6 st1 st5">us</tspan><tspan x="14.05176" y="0" class="st6 st1 st5">g</tspan><tspan x="18.49512" y="0" class="st6 st1 st5">abendi</tspan><tspan x="44.8125" y="0" class="st6 st1 st5">s</tspan><tspan x="48.79004" y="0" class="st6 st1 st5">z</tspan><tspan x="52.65039" y="0" class="st6 st1 st5">iplin</tspan></text>
	<text transform="matrix(1 0 0 1 439.69199 283.23019)"><tspan x="0" y="0" class="st6 st1 st5">k</tspan><tspan x="4.28809" y="0" class="st6 st1 st5">o</tspan><tspan x="9.27344" y="0" class="st6 st1 st5">s</tspan><tspan x="13.24219" y="0" class="st6 st1 st5">tengü</tspan><tspan x="35.2959" y="0" class="st6 st1 st5">n</tspan><tspan x="40.28809" y="0" class="st6 st1 st5">s</tspan><tspan x="44.24902" y="0" class="st6 st1 st5">tig</tspan></text>
	<text transform="matrix(1 0 0 1 439.69199 298.72824)"><tspan x="0" y="0" class="st6 st1 st5">hohe </tspan><tspan x="21.74902" y="0" class="st6 st1 st5">A</tspan><tspan x="26.9707" y="0" class="st6 st1 st5">k</tspan><tspan x="31.57812" y="0" class="st6 st1 st5">ze</tspan><tspan x="40.01465" y="0" class="st6 st1 st5">p</tspan><tspan x="45.11328" y="0" class="st6 st1 st5">tanz an den </tspan></text>
	<text transform="matrix(1 0 0 1 439.69199 307.73215)"><tspan x="0" y="0" class="st6 st1 st5">V</tspan><tspan x="4.51172" y="0" class="st6 st1 st5">e</tspan><tspan x="9.1123" y="0" class="st6 st1 st5">r</tspan><tspan x="12.5166" y="0" class="st6 st1 st5">k</tspan><tspan x="16.91992" y="0" class="st6 st1 st5">a</tspan><tspan x="21.46387" y="0" class="st6 st1 st5">u</tspan><tspan x="26.5625" y="0" class="st6 st1 st5">f</tspan><tspan x="29.44727" y="0" class="st6 st1 st5">s</tspan><tspan x="33.40039" y="0" class="st6 st1 st5">s</tspan><tspan x="37.36133" y="0" class="st6 st1 st5">t</tspan><tspan x="40.25586" y="0" class="st6 st1 st5">e</tspan><tspan x="44.88086" y="0" class="st6 st1 st5">llen</tspan></text>
	<text transform="matrix(1 0 0 1 439.69199 323.23019)"><tspan x="0" y="0" class="st6 st1 st5">s</tspan><tspan x="3.88672" y="0" class="st6 st1 st5">icher</tspan></text>
	<text transform="matrix(1 0 0 1 439.69199 342.82785)"><tspan x="0" y="0" class="st6 st1 st5">z</tspan><tspan x="3.77051" y="0" class="st6 st1 st5">u</tspan><tspan x="8.80273" y="0" class="st6 st1 st5">k</tspan><tspan x="13.00098" y="0" class="st6 st1 st5">un</tspan><tspan x="23.06641" y="0" class="st6 st1 st5">f</tspan><tspan x="25.90234" y="0" class="st6 st1 st5">t</tspan><tspan x="28.84668" y="0" class="st6 st1 st5">s</tspan><tspan x="32.70898" y="0" class="st6 st1 st5">w</tspan><tspan x="39.01367" y="0" class="st6 st1 st5">ei</tspan><tspan x="45.68848" y="0" class="st6 st1 st5">s</tspan><tspan x="49.61621" y="0" class="st6 st1 st5">end</tspan></text>
	<text transform="matrix(1 0 0 1 439.69199 362.42551)"><tspan x="0" y="0" class="st6 st1 st5">im </tspan><tspan x="11.83105" y="0" class="st6 st1 st5">A</tspan><tspan x="16.93848" y="0" class="st6 st1 st5">u</tspan><tspan x="21.97168" y="0" class="st6 st1 st5">s</tspan><tspan x="25.83398" y="0" class="st6 st1 st5">l</tspan><tspan x="27.8916" y="0" class="st6 st1 st5">and</tspan></text>
	<text transform="matrix(1 0 0 1 439.69199 382.1218)"><tspan x="0" y="0" class="st6 st1 st5">f</tspan><tspan x="2.82812" y="0" class="st6 st1 st5">ür g</tspan><tspan x="17.83008" y="0" class="st6 st1 st5">r</tspan><tspan x="21.12012" y="0" class="st6 st1 st5">o</tspan><tspan x="26.10645" y="0" class="st6 st1 st5">s</tspan><tspan x="30.05859" y="0" class="st6 st1 st5">s</tspan><tspan x="33.9873" y="0" class="st6 st1 st5">e </tspan><tspan x="40.71777" y="0" class="st6 st1 st5">B</tspan><tspan x="46.04688" y="0" class="st6 st1 st5">e</tspan><tspan x="50.7627" y="0" class="st6 st1 st5">t</tspan><tspan x="53.61621" y="0" class="st6 st1 st5">r</tspan><tspan x="56.86523" y="0" class="st6 st1 st5">äge</tspan></text>
	<text transform="matrix(1 0 0 1 439.69199 401.81906)"><tspan x="0" y="0" class="st6 st1 st5">f</tspan><tspan x="2.82812" y="0" class="st6 st1 st5">ür gep</tspan><tspan x="27.45605" y="0" class="st6 st1 st5">l</tspan><tspan x="29.51367" y="0" class="st6 st1 st5">ante </tspan><tspan x="48.73242" y="0" class="st6 st1 st5">K</tspan><tspan x="53.92871" y="0" class="st6 st1 st5">ä</tspan><tspan x="58.47266" y="0" class="st6 st1 st5">u</tspan><tspan x="63.57129" y="0" class="st6 st1 st5">f</tspan><tspan x="66.38281" y="0" class="st6 st1 st5">e</tspan></text>
	<line class="st7" x1="153.53941" y1="66.43037" x2="430.98843" y2="66.43037"/>
	<line class="st7" x1="291.22513" y1="65.64958" x2="291.22513" y2="398.88556"/>
	<line class="st7" x1="153.53941" y1="183.64919" x2="430.98843" y2="183.64919"/>
	<line class="st7" x1="153.53941" y1="203.18629" x2="430.98843" y2="203.18629"/>
	<line class="st7" x1="153.53941" y1="320.40497" x2="430.98843" y2="320.40497"/>
	<line class="st7" x1="153.53941" y1="105.50368" x2="430.98843" y2="105.50368"/>
	<line class="st7" x1="153.53941" y1="242.25859" x2="430.98843" y2="242.25859"/>
	<line class="st7" x1="153.53941" y1="359.47827" x2="430.98843" y2="359.47827"/>
	<line class="st7" x1="153.53941" y1="144.57588" x2="430.98843" y2="144.57588"/>
	<line class="st7" x1="153.53941" y1="281.33176" x2="430.98843" y2="281.33176"/>
	<line class="st7" x1="153.53941" y1="398.55148" x2="430.98843" y2="398.55148"/>
	<line class="st7" x1="153.53941" y1="85.96657" x2="430.98843" y2="85.96657"/>
	<line class="st7" x1="153.53941" y1="222.72237" x2="430.98843" y2="222.72237"/>
	<line class="st7" x1="153.53941" y1="339.94116" x2="430.98843" y2="339.94116"/>
	<line class="st7" x1="153.53941" y1="125.03978" x2="430.98843" y2="125.03978"/>
	<line class="st7" x1="153.53941" y1="261.79565" x2="430.98843" y2="261.79565"/>
	<line class="st7" x1="153.53941" y1="379.01437" x2="430.98843" y2="379.01437"/>
	<line class="st7" x1="153.53941" y1="164.11299" x2="430.98843" y2="164.11299"/>
	<line class="st7" x1="153.53941" y1="300.86887" x2="430.98843" y2="300.86887"/>
	<text transform="matrix(1 0 0 1 359.1832 414.7507)" class="st6 st1 st5">1</text>
	<text transform="matrix(1 0 0 1 428.39902 414.7507)" class="st6 st1 st5">2</text>
	<text transform="matrix(1 0 0 1 148.11531 414.7507)"><tspan x="0" y="0" class="st6 st1 st5">-</tspan><tspan x="2.53174" y="0" class="st6 st1 st5">2</tspan></text>
	<text transform="matrix(1 0 0 1 218.5367 414.7507)"><tspan x="0" y="0" class="st6 st1 st5">-</tspan><tspan x="2.62988" y="0" class="st6 st1 st5">1</tspan></text>
	<text transform="matrix(1 0 0 1 288.75351 414.7507)" class="st6 st1 st5">0</text>
	<text transform="matrix(1 0 0 1 281.26965 515.52319)"><tspan x="0" y="0" class="st8 st1 st5">n</tspan><tspan x="5.07422" y="0" class="st8 st1 st5">=</tspan><tspan x="9.95898" y="0" class="st8 st1 st5">4</tspan><tspan x="14.73828" y="0" class="st8 st1 st5">6</tspan><tspan x="19.45898" y="0" class="st8 st1 st5">8</tspan></text>
	<text transform="matrix(1 0 0 1 281.26965 485.25656)"><tspan x="0" y="0" class="st9 st1 st5">M</tspan><tspan x="7.37891" y="0" class="st9 st1 st5">o</tspan><tspan x="12.37207" y="0" class="st9 st1 st5">b</tspan><tspan x="17.42969" y="0" class="st9 st1 st5">il</tspan><tspan x="21.66016" y="0" class="st9 st1 st5">e</tspan><tspan x="26.33398" y="0" class="st9 st1 st5">s </tspan></text>
	<text transform="matrix(1 0 0 1 281.26965 494.45676)"><tspan x="0" y="0" class="st9 st1 st5">B</tspan><tspan x="5.37891" y="0" class="st9 st1 st5">e</tspan><tspan x="10.02051" y="0" class="st9 st1 st5">z</tspan><tspan x="13.91309" y="0" class="st9 st1 st5">a</tspan><tspan x="18.50684" y="0" class="st9 st1 st5">hl</tspan><tspan x="25.69531" y="0" class="st9 st1 st5">e</tspan><tspan x="30.3291" y="0" class="st9 st1 st5">n </tspan></text>
	<text transform="matrix(1 0 0 1 281.26965 503.65793)"><tspan x="0" y="0" class="st9 st1 st5">onlin</tspan><tspan x="19.37207" y="0" class="st9 st1 st5">e</tspan></text>
	<text transform="matrix(1 0 0 1 209.39272 515.52319)"><tspan x="0" y="0" class="st8 st1 st5">n</tspan><tspan x="5.07422" y="0" class="st8 st1 st5">=</tspan><tspan x="9.85254" y="0" class="st8 st1 st5">5</tspan><tspan x="14.54102" y="0" class="st8 st1 st5">2</tspan><tspan x="19.45117" y="0" class="st8 st1 st5">3</tspan></text>
	<text transform="matrix(1 0 0 1 209.39272 485.25656)"><tspan x="0" y="0" class="st9 st1 st5">M</tspan><tspan x="7.37891" y="0" class="st9 st1 st5">o</tspan><tspan x="12.37207" y="0" class="st9 st1 st5">b</tspan><tspan x="17.42969" y="0" class="st9 st1 st5">il</tspan><tspan x="21.66016" y="0" class="st9 st1 st5">e</tspan><tspan x="26.33398" y="0" class="st9 st1 st5">s </tspan></text>
	<text transform="matrix(1 0 0 1.00424 209.39272 494.45773)"><tspan x="0" y="0" class="st9 st1 st10">B</tspan><tspan x="5.33984" y="0" class="st9 st1 st10">e</tspan><tspan x="9.94531" y="0" class="st9 st1 st10">z</tspan><tspan x="13.81348" y="0" class="st9 st1 st10">ahl</tspan><tspan x="25.53027" y="0" class="st9 st1 st10">e</tspan><tspan x="30.13574" y="0" class="st9 st1 st10">n</tspan></text>
	<text transform="matrix(1 0 0 1.00424 239.9767 494.45773)" class="st9 st1 st10"> </text>
	<text transform="matrix(1 0 0 1 209.39272 503.65793)"><tspan x="0" y="0" class="st9 st1 st5">P</tspan><tspan x="5.06836" y="0" class="st9 st1 st5">O</tspan><tspan x="11.49512" y="0" class="st9 st1 st5">S</tspan></text>
	<text transform="matrix(1 0 0 1 280.45227 462.32492)"><tspan x="0" y="0" class="st8 st1 st5">n=</tspan><tspan x="9.80371" y="0" class="st8 st1 st5">6</tspan><tspan x="14.56543" y="0" class="st8 st1 st5">1</tspan><tspan x="19.32031" y="0" class="st8 st1 st5">9</tspan></text>
	<text transform="matrix(1 0 0 1 280.45227 450.69699)"><tspan x="0" y="0" class="st9 st1 st5">I</tspan><tspan x="2.24512" y="0" class="st9 st1 st5">n</tspan><tspan x="7.26172" y="0" class="st9 st1 st5">-</tspan><tspan x="9.86719" y="0" class="st9 st1 st5">A</tspan><tspan x="15.13867" y="0" class="st9 st1 st5">p</tspan><tspan x="20.2041" y="0" class="st9 st1 st5">p</tspan><tspan x="25.41797" y="0" class="st9 st1 st5">-</tspan><tspan x="27.94141" y="0" class="st9 st1 st5">Z</tspan><tspan x="32.77832" y="0" class="st9 st1 st5">a</tspan><tspan x="37.37109" y="0" class="st9 st1 st5">h</tspan><tspan x="42.44531" y="0" class="st9 st1 st5">l</tspan><tspan x="44.52734" y="0" class="st9 st1 st5">u</tspan><tspan x="49.59277" y="0" class="st9 st1 st5">n</tspan><tspan x="54.66699" y="0" class="st9 st1 st5">g</tspan></text>
	<text transform="matrix(1 0 0 1 61.56947 515.52319)"><tspan x="0" y="0" class="st8 st1 st5">n</tspan><tspan x="5.07422" y="0" class="st8 st1 st5">=</tspan><tspan x="9.95898" y="0" class="st8 st1 st5">4</tspan><tspan x="14.85254" y="0" class="st8 st1 st5">8</tspan><tspan x="19.66406" y="0" class="st8 st1 st5">3</tspan></text>
	<text transform="matrix(1 0 0 1 61.56947 485.58469)"><tspan x="0" y="0" class="st9 st1 st5">K</tspan><tspan x="5.11523" y="0" class="st9 st1 st5">on</tspan><tspan x="15.18262" y="0" class="st9 st1 st5">ta</tspan><tspan x="22.70312" y="0" class="st9 st1 st5">kl</tspan><tspan x="29.16406" y="0" class="st9 st1 st5">o</tspan><tspan x="34.19043" y="0" class="st9 st1 st5">s</tspan><tspan x="38.15918" y="0" class="st9 st1 st5">e</tspan><tspan x="42.8252" y="0" class="st9 st1 st5">s </tspan></text>
	<text transform="matrix(1 0 0 1 61.56947 494.78488)"><tspan x="0" y="0" class="st9 st1 st5">B</tspan><tspan x="5.37891" y="0" class="st9 st1 st5">e</tspan><tspan x="10.01172" y="0" class="st9 st1 st5">z</tspan><tspan x="13.91309" y="0" class="st9 st1 st5">a</tspan><tspan x="18.50684" y="0" class="st9 st1 st5">hl</tspan><tspan x="25.69531" y="0" class="st9 st1 st5">e</tspan><tspan x="30.3291" y="0" class="st9 st1 st5">n </tspan></text>
	<text transform="matrix(1 0 0 1 61.56947 503.98508)"><tspan x="0" y="0" class="st9 st1 st5">K</tspan><tspan x="5.13086" y="0" class="st9 st1 st5">r</tspan><tspan x="8.46191" y="0" class="st9 st1 st5">e</tspan><tspan x="13.12793" y="0" class="st9 st1 st5">d</tspan><tspan x="18.19434" y="0" class="st9 st1 st5">i</tspan><tspan x="20.375" y="0" class="st9 st1 st5">t</tspan><tspan x="23.27734" y="0" class="st9 st1 st5">k</tspan><tspan x="27.72949" y="0" class="st9 st1 st5">a</tspan><tspan x="32.32324" y="0" class="st9 st1 st5">r</tspan><tspan x="36.03125" y="0" class="st9 st1 st5">t</tspan><tspan x="38.9668" y="0" class="st9 st1 st5">e</tspan></text>
	<text transform="matrix(1 0 0 1 134.6808 462.32492)"><tspan x="0" y="0" class="st8 st1 st5">n=35</tspan><tspan x="19.2627" y="0" class="st8 st1 st5">0</tspan></text>
	<text transform="matrix(1 0 0 1 134.86147 450.24582)"><tspan x="0" y="0" class="st9 st1 st5">D</tspan><tspan x="6.06836" y="0" class="st9 st1 st5">e</tspan><tspan x="10.72559" y="0" class="st9 st1 st5">b</tspan><tspan x="15.79199" y="0" class="st9 st1 st5">i</tspan><tspan x="17.96387" y="0" class="st9 st1 st5">t</tspan><tspan x="20.86719" y="0" class="st9 st1 st5">k</tspan><tspan x="25.31934" y="0" class="st9 st1 st5">a</tspan><tspan x="29.91211" y="0" class="st9 st1 st5">r</tspan><tspan x="33.62891" y="0" class="st9 st1 st5">t</tspan><tspan x="36.55566" y="0" class="st9 st1 st5">e</tspan></text>
	<text transform="matrix(1 0 0 1 61.70033 462.32492)"><tspan x="0" y="0" class="st8 st1 st5">n=3</tspan><tspan x="14.5332" y="0" class="st8 st1 st5">2</tspan><tspan x="19.49219" y="0" class="st8 st1 st5">1</tspan></text>
	<text transform="matrix(1 0 0 1 61.381 450.24582)"><tspan x="0" y="0" class="st9 st1 st5">K</tspan><tspan x="5.13086" y="0" class="st9 st1 st5">r</tspan><tspan x="8.46191" y="0" class="st9 st1 st5">e</tspan><tspan x="13.12793" y="0" class="st9 st1 st5">d</tspan><tspan x="18.19434" y="0" class="st9 st1 st5">i</tspan><tspan x="20.375" y="0" class="st9 st1 st5">t</tspan><tspan x="23.27734" y="0" class="st9 st1 st5">k</tspan><tspan x="27.72949" y="0" class="st9 st1 st5">a</tspan><tspan x="32.32324" y="0" class="st9 st1 st5">r</tspan><tspan x="36.03125" y="0" class="st9 st1 st5">t</tspan><tspan x="38.9668" y="0" class="st9 st1 st5">e</tspan></text>
	<g>
		<path class="st11" d="M50.88863,451.34448c7.4857-1.0083-0.1123-12.22345-3.40292-3.40201
			C47.56306,449.10349,48.3085,450.7262,50.88863,451.34448"/>
	</g>
	<text transform="matrix(1 0 0 1 210.46303 462.32492)"><tspan x="0" y="0" class="st8 st1 st5">n=</tspan><tspan x="9.80371" y="0" class="st8 st1 st5">3</tspan><tspan x="14.72949" y="0" class="st8 st1 st5">4</tspan><tspan x="19.50879" y="0" class="st8 st1 st5">0</tspan></text>
	<text transform="matrix(1 0 0 1 210.1017 450.24582)"><tspan x="0" y="0" class="st9 st1 st5">B</tspan><tspan x="5.40332" y="0" class="st9 st1 st5">a</tspan><tspan x="9.99707" y="0" class="st9 st1 st5">r</tspan><tspan x="13.31934" y="0" class="st9 st1 st5">g</tspan><tspan x="17.85254" y="0" class="st9 st1 st5">e</tspan><tspan x="22.51855" y="0" class="st9 st1 st5">l</tspan><tspan x="24.63379" y="0" class="st9 st1 st5">d</tspan></text>
	<g>
		<path class="st12" d="M199.61256,451.34448c7.4857-1.00836-0.1123-12.22342-3.40295-3.40201
			C196.28697,449.10349,197.03242,450.7262,199.61256,451.34448"/>
	</g>
	<text transform="matrix(1 0 0 1 134.11732 515.52319)"><tspan x="0" y="0" class="st8 st1 st5">n</tspan><tspan x="5.07422" y="0" class="st8 st1 st5">=</tspan><tspan x="9.95898" y="0" class="st8 st1 st5">4</tspan><tspan x="14.73828" y="0" class="st8 st1 st5">6</tspan><tspan x="19.46777" y="0" class="st8 st1 st5">5</tspan></text>
	<text transform="matrix(1 0 0 1 134.11732 485.27316)"><tspan x="0" y="0" class="st9 st1 st5">K</tspan><tspan x="5.11523" y="0" class="st9 st1 st5">on</tspan><tspan x="15.18262" y="0" class="st9 st1 st5">ta</tspan><tspan x="22.70312" y="0" class="st9 st1 st5">kl</tspan><tspan x="29.16406" y="0" class="st9 st1 st5">o</tspan><tspan x="34.19043" y="0" class="st9 st1 st5">s</tspan><tspan x="38.15918" y="0" class="st9 st1 st5">e</tspan><tspan x="42.8252" y="0" class="st9 st1 st5">s </tspan></text>
	<text transform="matrix(1 0 0 1 134.11732 494.47336)"><tspan x="0" y="0" class="st9 st1 st5">B</tspan><tspan x="5.37891" y="0" class="st9 st1 st5">e</tspan><tspan x="10.01172" y="0" class="st9 st1 st5">z</tspan><tspan x="13.90527" y="0" class="st9 st1 st5">a</tspan><tspan x="18.49805" y="0" class="st9 st1 st5">hle</tspan><tspan x="30.3291" y="0" class="st9 st1 st5">n </tspan></text>
	<text transform="matrix(1 0 0 1 134.11732 503.67355)"><tspan x="0" y="0" class="st9 st1 st5">D</tspan><tspan x="6.06836" y="0" class="st9 st1 st5">e</tspan><tspan x="10.73438" y="0" class="st9 st1 st5">b</tspan><tspan x="15.79199" y="0" class="st9 st1 st5">i</tspan><tspan x="17.96387" y="0" class="st9 st1 st5">t</tspan><tspan x="20.875" y="0" class="st9 st1 st5">k</tspan><tspan x="25.32715" y="0" class="st9 st1 st5">a</tspan><tspan x="29.9209" y="0" class="st9 st1 st5">r</tspan><tspan x="33.62891" y="0" class="st9 st1 st5">t</tspan><tspan x="36.56445" y="0" class="st9 st1 st5">e</tspan></text>
	<g>
		<path class="st13" d="M126.49162,485.96356c0.31299-0.314,0.56598-0.68698,0.73798-1.10397"/>
		<path class="st13" d="M126.49162,481.15308c-0.31302-0.314-0.68802-0.56601-1.10303-0.73801"/>
		<path class="st13" d="M121.68114,481.15308c-0.31302,0.31201-0.56601,0.68701-0.73801,1.10199"/>
		<path class="st13" d="M121.68114,485.96356c0.31299,0.31201,0.68698,0.56403,1.103,0.73801"/>
		<path class="st14" d="M124.08592,486.95938L124.08592,486.95938 M120.68492,483.55737L120.68492,483.55737 M124.08592,480.1554
			L124.08592,480.1554 M127.48793,483.55737L127.48793,483.55737"/>
	</g>
</g>
<g id="Ebene_2">
	<g>
		<defs>
			<rect id="SVGID_49_" x="-269.80341" y="-23.46276" width="841.89001" height="595.276"/>
		</defs>
		<clipPath id="SVGID_1_">
			<use xlink:href="#SVGID_49_"  style="overflow:visible;"/>
		</clipPath>
		<g class="st15">
			<g>
				<defs>
					<rect id="SVGID_51_" x="295.75159" y="59.20423" width="18.815" height="8.25"/>
				</defs>
				<clipPath id="SVGID_2_">
					<use xlink:href="#SVGID_51_"  style="overflow:visible;"/>
				</clipPath>
				<polygon class="st16" points="305.42871,66.20435 305.00067,66.20435 304.75171,66.45435 305.56665,66.45435 				"/>
			</g>
		</g>
		<g class="st15">
			<g>
				<defs>
					<rect id="SVGID_53_" x="370.52057" y="59.20423" width="20.28503" height="8.25"/>
				</defs>
				<clipPath id="SVGID_3_">
					<use xlink:href="#SVGID_53_"  style="overflow:visible;"/>
				</clipPath>
				<path class="st17" d="M381.7934,66.20435c-0.55984,0.1525-0.64859-0.33629-2.27301,0.25h2.27301
					C381.80743,66.37598,381.79514,66.45528,381.7934,66.20435"/>
			</g>
		</g>
		<g class="st15">
			<g>
				<defs>
					<rect id="SVGID_55_" x="246.35162" y="79.57124" width="138.995" height="320.108"/>
				</defs>
				<clipPath id="SVGID_4_">
					<use xlink:href="#SVGID_55_"  style="overflow:visible;"/>
				</clipPath>
				<path class="st18" d="M338.61847,86.57124l-1.18597,1.66l0.22198,0.23801c-0.76703,0.47297-2.48065,2.8584-3.53003,4.38998
					l0.73804,0.68802c0.90186-1.37539,3.59094-4.47466,4.01599-6.69702L338.61847,86.57124z M333.53845,93.68125l-8.32898,11.65399
					c1.48291,1.77788,10.63708,15.49561,12.06598,16.513l-0.151,0.16199l1.18604,1.66101l0.37097-0.39801
					c0.69687-0.47795-12.17438-17.6311-12.24402-17.93698l7.83801-10.96802L333.53845,93.68125z M340.3985,124.87223l-0.16901,0.237
					v0.00201l0.16998-0.23801L340.3985,124.87223z M339.12146,124.93925l-0.96698,1.354l0.46997,0.33499l0.57703-1.61401
					L339.12146,124.93925z M336.99249,127.92023l-1.16302,1.62701l0.81299,0.58099l-1.16199,1.62799l-0.81299-0.58301
					l-1.16302,1.62802l0.81201,0.58099l-1.16199,1.62799l-0.81299-0.58099l0.37-0.51801l-1.53302,2.14502l0.08301,0.05899
					l1.54602-0.61801l5.29797-7.414v-0.00098l-0.29901,0.41998L336.99249,127.92023z M331.73047,137.00424L331.73047,137.00424
					l-0.90198,1.26001l-0.80701-0.57602l-0.013,0.005l-1.15601,1.61899l0.81396,0.58002l-1.16296,1.62698l-0.81299-0.58099
					l-2.56702,3.591l1.40399-1.96399l0.81403,0.582l-0.42401,0.59299L331.73047,137.00424z M326.52545,144.28925l-0.29498,0.41199
					l-0.33301-0.23898l-0.28601,0.409l1.63904,1.147l0.573-0.82001l1.638,1.146l-0.57202,0.82001l1.638,1.147l0.573-0.82001
					l1.63898,1.147l-0.573,0.819l1.63904,1.147l0.57196-0.819l1.63904,1.146l-0.573,0.82001l1.63898,1.146l0.573-0.819l1.638,1.147
					l-0.57196,0.819l1.63898,1.147l0.57202-0.82001l1.63898,1.147l-0.573,0.819l1.638,1.146l0.57202-0.81799l1.63995,1.146
					l-0.57196,0.819l1.63696,1.146l0.57404-0.81799l0.70697,0.495C348.29688,159.5222,326.73111,144.4341,326.52545,144.28925
					 M349.03448,160.23624l-0.48199,0.68701l1.70697,1.19498l-0.06799-0.04797l0.31903-0.45602L349.03448,160.23624z
					 M351.98749,162.99124l-0.15802,0.22501l0.91803,0.64301l0.11298-0.052L351.98749,162.99124z M354.0575,163.55524
					l0.47894,0.44699l0.08002-0.05698L354.0575,163.55524z M354.01648,164.36523c-4.67001,2.29924-13.5701,8.02338-17.88702,11.297
					l-0.58197,1.62701L354.01648,164.36523z M334.71344,176.65323l-9.93298,6.95102l17.09399,6.83499
					c-2.13211-2.37076-12.38281-5.97607-15.00598-7.07599l7.263-5.08301L334.71344,176.65323z M342.34949,189.55225
					c1.07944,0.60362,2.01004,1.91325,4.33301,2.27499l-0.12305,0.48499l1.87201,0.74902l0.19-0.742l1.79199,0.457
					L342.34949,189.55225z M350.55347,192.83325l-0.24103,0.94998l-0.20697-0.05301
					c0.97037,0.33151,2.11182,1.02718,4.01001,1.34402l-0.052,0.23898l1.88397,0.75302l0.12402-0.57101l1.95398,0.42099
					l-0.19501,0.90302l15.19305,6.07498l-31.93304,7.448l1.51904-0.25l0.146,0.888l1.95197-0.45599l-0.12396-0.75699
					l1.97198-0.32501l0.104,0.62701l1.95197-0.45502l-0.08197-0.49698l1.974-0.323l0.06,0.36499l1.95197-0.45599l-0.039-0.23502
					l1.974-0.32401l0.01703,0.104l21.87903-5.103c-0.46655-0.12126-12.17798-5.0002-12.66705-4.98801l0.01605-0.07098
					l-1.88403-0.75201l-0.086,0.40201l-1.95599-0.42099l0.159-0.73401c-0.96057-0.34427-1.96808-0.92027-3.80103-1.32001
					l0.04602-0.18198l-1.87299-0.74802l-0.112,0.43799l-1.93701-0.49399l0.17603-0.69299L350.55347,192.83325z M340.64044,210.44724
					l-1.95099,0.45502l0.13501,0.827l-1.97198,0.32401l-0.11603-0.69601l-1.95197,0.45599l0.09399,0.565l-1.974,0.32602
					l-0.07202-0.436c-0.29822,0.06761-0.82718,0.18466-1.93597,0.55099l0.03497,0.20898
					c-0.68698,0.05893-2.31223,0.44121-3.88898,0.99002l0.11096,0.60098l1.95001-0.45499l-0.09796-0.52499l1.96698-0.367
					l0.08099,0.43799l1.94897-0.45599l-0.065-0.34799l1.966-0.367l0.04901,0.26099l1.95001-0.45499l-0.03198-0.17401
					l1.96497-0.36499l0.01599,0.08398l2.40601-0.56097l-0.45898,0.07599L340.64044,210.44724z M325.11847,214.61624
					l-1.92297,0.59799l0.05896,0.314l1.95001-0.45398L325.11847,214.61624z M321.27344,215.81223l-1.92297,0.59802l0.005,0.02798
					l1.95001-0.45499L321.27344,215.81223z M317.22247,215.90924l-1.94904,0.45499l0.04706,0.25302l1.922-0.59802
					L317.22247,215.90924z M313.32349,216.81924l-1.95001,0.45401l0.10101,0.53998l1.92297-0.59799L313.32349,216.81924z
					 M309.42346,217.72824l-1.95001,0.45499l0.08899,0.47501l-1.96594,0.367l-0.07202-0.38699l-1.95001,0.45398l0.05701,0.30002
					l-1.96698,0.366l-0.039-0.211l-1.95001,0.45499l0.02301,0.12302l-1.96704,0.367l-0.00598-0.035
					c-1.88742,0.36575-3.96149,0.83705-6.18903,2.32898l0.047,0.13c3.89035-0.89986,15.7356-3.55479,18.97101-4.81699
					l-1.02496,0.19199L309.42346,217.72824z M290.73944,222.08624l-0.19397,0.04498l-0.02899,0.07901L290.73944,222.08624z
					 M290.39349,222.55524l-1.94501,5.444l0.70801,0.991l1.76794-4.948L290.39349,222.55524z M288.03845,229.14624l-0.60498,1.69199
					l0.36798,1.03l-0.84302,0.30103c-1.13989,5.55411-6.52124,14.93015-10.32599,19.29599l1.29401-0.604l-0.133-0.19
					c5.19617-3.47334,9.26691-15.1954,10.953-20.534L288.03845,229.14624z M277.29449,252.25925l-0.62604,0.29199l0.06,0.086
					l-1.63696,1.147l-0.05804-0.082l-5.87097,8.21799l23.93396,6.69901c-4.92642-2.40848-16.76682-5.88165-22.29095-7.27899
					L277.29449,252.25925z M298.32349,269.63223c1.62952,0.66162,4.01639,1.68097,6.41797,2.246L298.32349,269.63223z
					 M305.01947,270.91623c8.03912,3.1499,25.32175,8.31955,33.77301,10.492c-1.92728,2.28506-8.90805,7.01904-9.04803,9.80902
					l1.58801-1.48203l-0.211-0.29498l0.81299-0.58099l0.13501,0.18799l8.70703-8.12299l-1.30603-0.36502l-0.29297,0.94302
					l-1.909-0.59402l0.276-0.888l-1.927-0.53998l-0.26001,0.83398l-1.909-0.595l0.24298-0.77798l-1.927-0.54001l-0.22699,0.72501
					l-1.909-0.59399l0.20801-0.67001l-1.92603-0.539l-0.19098,0.61499l-1.91101-0.59399l0.17499-0.56l-1.92596-0.54001
					l-0.15802,0.50702l-1.909-0.595l0.14001-0.45102l-1.927-0.539l-0.12402,0.39603l-1.909-0.59402l0.10602-0.34097l-1.927-0.54001
					l-0.09003,0.28799l-1.909-0.59399l0.073-0.233l-1.927-0.539l-0.05499,0.17801l-1.91101-0.59402l0.039-0.12399l-1.92596-0.539
					l-0.02203,0.07001l-1.909-0.59601l0.00403-0.013L305.01947,270.91623z M328.88348,290.65323l-2.12103,1.979l1.12701,0.31601
					C328.3667,292.50296,328.21103,292.40939,328.88348,290.65323z M325.90649,293.43124l-7.64301,7.13101l7.06,19.76398
					c0.73581-1.93503-2.09784-8.79312-2.86401-10.98999l-0.57501,0.26901l-0.42297-0.905l0.65997-0.30801l-0.02698-0.07599
					l-0.50903,0.20398l-0.37201-0.92899l0.54401-0.21701l-2.33197-6.52899l7.60797-7.099L325.90649,293.43124z M326.32349,319.90225
					L326.32349,319.90225l2.41901,0.96698L326.32349,319.90225z M351.87549,331.19626
					c-0.06305-0.02563,10.24518,4.09808,10.84796,4.33798L351.87549,331.19626z M374.98846,340.23425
					c0.01068,0.00031-0.02655,0.00015-0.20203,0.03299L374.98846,340.23425z M356.44244,343.11826l-1.97595,0.30698l0.03101,0.18201
					c0.32715-0.05746,0.47986-0.10239,1.95697-0.41699L356.44244,343.11826z M352.48944,343.73325l-1.97595,0.30701l0.03796,0.21698
					l1.97302-0.32397L352.48944,343.73325z M348.53644,344.34824l-1.97699,0.30701l0.04401,0.25201l1.974-0.32401
					L348.53644,344.34824z M344.58246,344.96225l-1.97601,0.30798l0.05005,0.28702l1.974-0.32501L344.58246,344.96225z
					 M340.36444,345.61826l-1.711,0.26599l0.05603,0.323l1.97302-0.32501l-0.03204-0.18597l-0.26001,0.05197L340.36444,345.61826z
					 M336.40948,346.23325l-1.70905,0.267l0.06201,0.35699l1.97302-0.32498l-0.008-0.05103l-0.258,0.052L336.40948,346.23325z
					 M332.30444,346.87225l-1.55701,0.242l0.06805,0.39297l1.48895-0.245V346.87225z M328.49744,347.46423l-1.70398,0.26501
					l0.07501,0.42801l1.711-0.28201L328.49744,347.46423z M324.54047,348.07925l-1.70001,0.26498l0.08099,0.46301l1.70801-0.28201
					L324.54047,348.07925z M322.60944,348.38025l-0.047,0.00699l0.00104,0.00101L322.60944,348.38025z M320.58447,348.69424
					c-5.20432,0.81842-62.668,9.70309-65.23303,10.224l3.89905,10.91501l0.46698,0.16699l-0.20398,0.569
					c0.66891,1.75302,1.6076,5.39001,3.34198,7.21399l0.14899-0.41699l-3.40601-9.53299l-0.14996-0.05402l0.065-0.18298
					l-2.81702-7.88602l20.83398-3.42999l-0.00299-0.01401l1.96997-0.345l0.00604,0.034l1.97296-0.32498l-0.00897-0.05301
					l1.97101-0.345l0.013,0.073l1.97296-0.32401l-0.01599-0.09399l1.97003-0.34399l0.01898,0.112l1.974-0.32401l-0.02399-0.133
					l1.97101-0.345l0.02698,0.15201l1.97302-0.32401l-0.03003-0.173l1.97003-0.34399l0.034,0.19199l1.97296-0.32498l-0.03699-0.211
					l1.97101-0.34399l0.03998,0.22998l1.97302-0.32498l-0.04401-0.25l1.97003-0.345l0.04797,0.26999l1.97302-0.32501
					l-0.05103-0.28998l1.97101-0.34399l0.05402,0.30899l1.69897-0.28l-0.01697-0.08499l0.27399-0.05502l-0.04004-0.23398
					l1.97003-0.34402l0.06097,0.34802l1.70105-0.28l-0.04303-0.21902l0.27502-0.05499l-0.02502-0.13901l1.97101-0.345l0.06799,0.388
					l1.70398-0.28l-0.07098-0.35397l0.27698-0.05502l-0.008-0.043l1.97003-0.345l0.07501,0.42801l1.70599-0.28201
					L320.58447,348.69424z M263.37445,378.50925l0.07703,0.108l-0.03302-0.09299L263.37445,378.50925z M263.45148,378.61725
					l0.51898,1.452l0.34302-0.245l0.12897,0.17899L263.45148,378.61725z M265.47644,381.45123l-0.80695,0.57703
					c-0.0238,0.00916,5.36606,7.50949,5.80695,8.14099l0.81403-0.582l-1.90997-2.672l0.74695,1.04498l-0.81299,0.582
					l-1.16296-1.62698l0.81299-0.582l-2.19702-3.07602l1.034,1.44901l-0.81299,0.58099l-1.16199-1.62799l0.81299-0.57999
					L265.47644,381.45123z M271.99445,390.57224l0.45905,0.64301l-0.81403,0.58099l-0.77197-1.07898l1.935,2.70599l0.81299-0.58099
					L271.99445,390.57224z M272.9325,393.60623l3.625,5.07303l0.81396-0.58102l-0.26697-0.375l-0.81305,0.58301l-1.164-1.62799
					l0.81305-0.58099l1.06995,1.495l-2.40198-3.362l0.16998,0.23898l-0.81299,0.58099L272.9325,393.60623z"/>
			</g>
		</g>
		<g class="st15">
			<g>
				<defs>
					<rect id="SVGID_57_" x="266.8786" y="58.97223" width="118.513" height="340.586"/>
				</defs>
				<clipPath id="SVGID_5_">
					<use xlink:href="#SVGID_57_"  style="overflow:visible;"/>
				</clipPath>
				<path class="st19" d="M353.3374,65.97245c-7.65936,8.7233-18.63373,27.89757-21.06403,39.362l6.979,19.53702l-7.02899,19.67999
					l20.67798,19.293l-35.15302,19.67902l41.59204,19.40298l-62.08301,19.30798l7.02802,19.66901l-28.40601,19.87601
					l56.28497,19.69299c-5.09274,9.74731-8.30673,28.63315-6.841,39.108l47.65399,19.05301l-89.88196,19.35098l14.24896,19.94501
					l-6.89099,19.29099l0.94098,0.33701l7.06805-19.784l-13.66901-19.13098l91.59796-19.72101l-50.06799-20.01901
					c-2.03839-19.2916,5.06903-33.10129,7.12103-39.04199l-55.39404-19.379l27.43402-19.198l-6.93402-19.405l63.55804-19.76599
					l-42.16803-19.66901l34.64502-19.396l-21.20001-19.77802l6.92902-19.39797l-6.98004-19.53702
					c4.36072-17.84464,16.40335-32.93477,20.81604-38.78098L353.3374,65.97245z"/>
			</g>
		</g>
		<g class="st15">
			<g>
				<defs>
					<rect id="SVGID_59_" x="239.1666" y="58.97223" width="146.72202" height="340.58398"/>
				</defs>
				<clipPath id="SVGID_6_">
					<use xlink:href="#SVGID_59_"  style="overflow:visible;"/>
				</clipPath>
				<path class="st20" d="M318.43787,65.97245c-7.05078,9.86837-21.26846,29.76411-28.21405,39.48203l27.74805,19.41898
					l-27.98505,19.583l34.995,19.591l-20.82996,19.435l20.82996,19.436l-34.66998,19.40799l7.01099,19.62601l-21.27496,19.85001
					l48.61896,19.44l-34.58496,19.35898l21.52399,20.08301l60.87201,18.931l-124.31201,19.32999
					c7.63161,8.79416,18.97128,28.08038,21.34698,39.61102l0.94202-0.33502c-4.16486-17.15591-15.83357-32.56238-20.53101-38.53799
					l126.96399-19.745c-65.46957-19.85477-64.6954-17.89078-85.12201-39.133l35.216-19.71399l-49.10095-19.63303l20.60498-19.224
					l-6.94897-19.44897l35.12897-19.66501l-21.04999-19.638l21.04999-19.638l-34.802-19.48199l27.85199-19.48901l-28.09198-19.65799
					c6.91006-9.66788,20.82742-29.14432,27.62701-38.66199L318.43787,65.97245z"/>
			</g>
		</g>
		<g class="st15">
			<g>
				<defs>
					<rect id="SVGID_61_" x="322.2616" y="85.85923" width="21.60101" height="52.14502"/>
				</defs>
				<clipPath id="SVGID_7_">
					<use xlink:href="#SVGID_61_"  style="overflow:visible;"/>
				</clipPath>
				<path class="st21" d="M334.12451,92.85954l-0.586,0.82101l0.737,0.68799l0.58704-0.82098L334.12451,92.85954z
					 M332.80756,135.49753l-1.54602,0.61801l0.73102,0.522L332.80756,135.49753z M331.75757,136.96652l-0.02704,0.03802
					L331.75757,136.96652z"/>
			</g>
		</g>
		<g class="st15">
			<g>
				<defs>
					<rect id="SVGID_63_" x="326.44958" y="64.24723" width="33.34802" height="72.27002"/>
				</defs>
				<clipPath id="SVGID_8_">
					<use xlink:href="#SVGID_63_"  style="overflow:visible;"/>
				</clipPath>
				<path class="st22" d="M350.79749,71.24686c-1.01038,0.47462-2.48624,1.28631-3.41199,3.056
					C348.39517,73.82787,349.87143,73.01569,350.79749,71.24686z M336.07947,94.68287l-0.367,1.02698l0.79602,0.74301l0.367-1.02701
					L336.07947,94.68287z M337.13751,133.76584l-1.23901,0.49503l-0.44904,1.25598l1.23901-0.495L337.13751,133.76584z"/>
			</g>
		</g>
		<g class="st15">
			<g>
				<defs>
					<rect id="SVGID_65_" x="319.5816" y="81.37223" width="19.466" height="9.36801"/>
				</defs>
				<clipPath id="SVGID_9_">
					<use xlink:href="#SVGID_65_"  style="overflow:visible;"/>
				</clipPath>
				<polygon class="st23" points="329.31458,88.37183 328.58154,89.05686 329.31354,89.73985 330.04755,89.05585 				"/>
			</g>
		</g>
		<g class="st15">
			<g>
				<defs>
					<rect id="SVGID_67_" x="321.00861" y="130.68323" width="32.97101" height="61.88"/>
				</defs>
				<clipPath id="SVGID_10_">
					<use xlink:href="#SVGID_67_"  style="overflow:visible;"/>
				</clipPath>
				<path class="st24" d="M330.01575,137.68292l-0.00702,0.01001l0.013-0.005L330.01575,137.68292z M336.12872,175.66193
					l-1.41602,0.991l-0.58099,1.62802l1.41602-0.992L336.12872,175.66193z M338.28577,187.92792
					c1.56464,1.12086,3.79105,2.84805,6.40094,3.63501l0.05804-0.22998l0.23499,0.06
					C343.7605,190.295,340.81018,188.75844,338.28577,187.92792z"/>
			</g>
		</g>
		<g class="st15">
			<g>
				<defs>
					<rect id="SVGID_69_" x="326.37457" y="165.62622" width="19.83905" height="10.17603"/>
				</defs>
				<clipPath id="SVGID_11_">
					<use xlink:href="#SVGID_69_"  style="overflow:visible;"/>
				</clipPath>
				<polygon class="st25" points="337.21307,172.62674 335.88605,173.36975 335.37402,174.80276 336.70105,174.05975 				"/>
			</g>
		</g>
		<g class="st15">
			<g>
				<defs>
					<rect id="SVGID_71_" x="311.70959" y="132.66824" width="36.57599" height="36.409"/>
				</defs>
				<clipPath id="SVGID_12_">
					<use xlink:href="#SVGID_71_"  style="overflow:visible;"/>
				</clipPath>
				<path class="st26" d="M322.37433,139.66827l-1.06,0.42398l-0.604,0.845l0.42499,0.30402l0.823-0.32901l0.72803-1.01999
					L322.37433,139.66827z M339.13837,166.45724l-0.91302,0.36502l-0.44904,1.255l1.23804-0.49503l0.271-0.75699
					L339.13837,166.45724z"/>
			</g>
		</g>
		<g class="st15">
			<g>
				<defs>
					<rect id="SVGID_73_" x="238.02759" y="52.82624" width="140.87701" height="346.99899"/>
				</defs>
				<clipPath id="SVGID_13_">
					<use xlink:href="#SVGID_73_"  style="overflow:visible;"/>
				</clipPath>
				<g class="st27">
					<g>
						<defs>
							<rect id="SVGID_75_" x="315.98157" y="58.82624" width="54.52002" height="79.17801"/>
						</defs>
						<clipPath id="SVGID_14_">
							<use xlink:href="#SVGID_75_"  style="overflow:visible;"/>
						</clipPath>
						<path class="st28" d="M360.48059,65.82606c-1.80679,1.23652-10.59509,5.14719-11.047,7.33002l11.53497-6.45801
							L360.48059,65.82606z M348.74957,72.39307l-23.76801,13.30499l3.60004,3.358l0.73297-0.68399l-2.64899-2.47101
							C328.25058,84.6873,349.52237,74.06996,348.74957,72.39307z M330.04761,89.05506l-0.73401,0.685l4.22498,3.94101
							l0.586-0.82101l-0.58801-0.54898l-0.26898,0.25198l-0.68298-0.73099l0.21997-0.20401L330.04761,89.05506z M334.86261,93.54807
							l-0.58704,0.82001l1.43701,1.34198l0.367-1.02698L334.86261,93.54807z M336.87561,95.42606l-0.367,1.026
							c7.45905,5.26595,18.85709,21.37459,23.43896,28.19299l-22.81,9.12099l-0.44897,1.25601l24.81299-9.92199
							C356.50574,117.58414,344.29828,100.63116,336.87561,95.42606z M335.89862,134.26105l-3.091,1.23602
							c-0.15756,0.22075-0.43149,0.60373-1.07703,1.508l3.71899-1.48801L335.89862,134.26105z"/>
					</g>
				</g>
				<path class="st29" d="M331.08521,136.18573l-8.711,3.483l0.31299,0.224l-0.729,1.01999l8.05096-3.21997
					C330.12863,137.52774,330.29144,137.29721,331.08521,136.18573z M321.31415,140.09274l-10.495,4.19699l28.36603,19.84702
					l-0.96002,2.68597l0.91302-0.36499l0.14697,0.36801l1.09705-3.07202l-27.474-19.22299l8.22699-3.289l-0.42499-0.30399
					L321.31415,140.09274z M339.0152,167.58273l-1.23804,0.495l-1.89099,5.29199l1.32703-0.74298l0.30499-0.853l-0.31104-0.66501
					l0.65802-0.30701L339.0152,167.58273z M336.70117,174.05972l-1.32697,0.74301l-0.66101,1.85001l1.41595-0.991
					L336.70117,174.05972z M335.54816,177.28973l-1.41699,0.991l-1.92596,5.392c2.37256,1.73964,6.85574,5.01367,10.14398,5.88
					l-8.94501-6.26001L335.54816,177.28973z M341.87421,190.43872c0.12421-0.02052-0.08481,0.20471,0.93195,0.40201
					l-0.05396,0.21301l1.75098,1.22501l0.18298-0.71503L341.87421,190.43872z"/>
				<path class="st29" d="M344.56067,192.31955c0.26389,0.06738,0.54816,0.61989,1.73303,1.07098l-0.026,0.12302l1.77795,1.24399
					l0.20404-0.94598l0.26801,0.05698l-1.99902-1.39798l-0.08197,0.32599L344.56067,192.31955z M348.11371,194.80453
					c2.87497,2.15764,9.22784,6.53865,12.85199,7.77499l-10.914-7.63699l-0.05701,0.267L348.11371,194.80453z M359.24268,202.88153
					l-49.81396,12.67401l1.60596-0.26401l0.13904,0.85202l1.94696-0.49503l-0.112-0.68198l1.97198-0.32602l0.08502,0.513
					l1.94598-0.495l-0.05701-0.34201l1.97406-0.32599l0.02795,0.173l1.94501-0.495v-0.00101
					c9.59402-2.25293,29.12628-7.54559,38.43903-10.741L359.24268,202.88153z M361.84467,203.19455l-1.008,0.31299l1.06799-0.271
					L361.84467,203.19455z M309.06567,215.64755l-1.94501,0.495l0.12903,0.785l-1.97198,0.32498l-0.10205-0.61499l-1.94598,0.495
					l0.07404,0.44501l-1.97406,0.32498l-0.04498-0.27499c-0.67191-0.01848-2.86978,1.29958-4.35901,2.142l0.64105-0.16299
					l-0.01801-0.09698c0.4245,0.05428,11.52194-2.84465,12.09399-2.97601l-0.41901,0.069L309.06567,215.64755z M296.55469,218.83054
					l-13.44299,3.42102l0.383,0.53598l0.94299-0.33701l0.672,1.884l-0.40497,0.14502l3.33398,4.66699l0.40997-1.147l-3.672-5.13901
					l1.13599-0.289l-0.15997-0.862l1.966-0.366l0.13599,0.733l1.94299-0.49399l-0.11401-0.60602l1.96704-0.367l0.08899,0.479
					c0.3392-0.18463,0.74475,0.02115,1.91602-0.63498l-0.039-0.21002C294.28708,220.21829,295.10837,219.62341,296.55469,218.83054z
					 M289.15668,228.99054l-0.40997,1.146l8.401,11.759c-1.14612,0.81987-8.64679,3.32611-8.91003,4.81702l-0.56-0.40002
					c-0.42215,0.25682-5.28641,2.34621-6.03302,2.88501l-0.03699-0.05301l-1.83997,0.858l0.23895,0.34201l-1.63898,1.146
					l-0.25897-0.371l-0.815,1.14001c0.53461-0.49608,8.73126-3.56651,8.96899-4.50101l0.26801,0.19199
					c2.34384-1.21507,9.39096-3.84435,10.79199-5.99799C297.30591,239.58783,290.27856,230.72604,289.15668,228.99054z
					 M298.35266,241.86154l0.133,0.37302l-0.29797,0.27798l0.47302-0.22101L298.35266,241.86154z M276.63269,251.46555
					l-21.60498,10.078c30.05304,23.94662,43.69998,24.15781,55.53595,27.59299l1.23602-0.69199
					c-32.83514-6.53644-43.33389-19.47318-54.77997-26.72702c1.74408-0.9758,14.59653-6.47646,15.85797-7.60599l0.10999,0.15701
					l1.841-0.85901l-0.31201-0.444l1.63904-1.147l0.11096,0.15799L276.63269,251.46555z M313.16467,288.82654l-1.23596,0.69202
					l13.97797,3.91199l0.85498-0.798L313.16467,288.82654z M327.88867,292.94855l-0.85498,0.798l0.677,0.19l0.33698-0.944
					L327.88867,292.94855z M329.01367,293.26254l-0.33801,0.944l7.31305,2.047l-0.21704-0.30499l0.79999-0.57001
					L329.01367,293.26254z M336.59967,295.38556l0.92603,1.297l15.39697,4.31c-1.95877,2.98862-15.39594,20.32611-15.17999,23.47598
					l0.92902,0.371c-0.03775-3.65274,14.18127-21.59348,15.89197-24.42499l-14.27997-3.99701v0.271h-1v-0.55099L336.59967,295.38556
					z M337.4057,325.41156l-0.72302,2.02399l0.95599,0.298l0.69598-1.95102L337.4057,325.41156z M336.3457,328.37854
					l-0.95105,2.66299l0.97302,0.24802l0.24402-0.68301l-0.289-0.07401l0.24799-0.96899l0.37903,0.09702l0.35199-0.98502
					L336.3457,328.37854z M335.0567,331.98755c-1.54681,3.33694-3.43063,9.88654-2.75201,13.87399l0.99902-0.155
					c-0.71902-3.46622,1.18607-10.08569,2.72595-13.47101L335.0567,331.98755z M332.52869,347.22455l-0.224,0.03699v1.12802
					l0.99902-0.215v-0.651l-0.44202,0.077l-0.05798-0.33502l-0.25702,0.05103L332.52869,347.22455z M333.30371,349.19855
					l-0.99902,0.215v10.061l13.72797,19.21301l-34.41296,19.26498l0.48798,0.87201l35.388-19.811l-14.19196-19.85901V349.19855z"/>
			</g>
		</g>
		<g class="st15">
			<g>
				<defs>
					<rect id="SVGID_77_" x="267.2666" y="220.99924" width="74.26196" height="127.263"/>
				</defs>
				<clipPath id="SVGID_15_">
					<use xlink:href="#SVGID_77_"  style="overflow:visible;"/>
				</clipPath>
				<path class="st30" d="M288.44788,227.99884l-0.409,1.147l0.70795,0.991l0.409-1.146L288.44788,227.99884z M277.92688,250.86185
					c-0.27237,0.34409-0.85715-0.07428-1.66003,1.11499l0.40198,0.57501c0.43436-0.19626,0.76947-0.29964,1.43903-1.43201
					L277.92688,250.86185z M326.76184,292.63284l-0.85602,0.798l1.12805,0.315l0.85498-0.798L326.76184,292.63284z
					 M332.45288,346.84885l-0.14801,0.02301v0.38998l0.224-0.03699L332.45288,346.84885z"/>
			</g>
		</g>
		<g class="st15">
			<g>
				<defs>
					<rect id="SVGID_79_" x="318.71057" y="193.14224" width="52.13403" height="157.27199"/>
				</defs>
				<clipPath id="SVGID_16_">
					<use xlink:href="#SVGID_79_"  style="overflow:visible;"/>
				</clipPath>
				<path class="st31" d="M355.74066,200.14255l3.80402,2.66199l-0.302,0.077l0.09802,0.04501l-17.005,5.289
					c2.14587-0.59096,17.99243-4.48688,19.50897-5.021C361.79532,202.91852,356.74243,200.59351,355.74066,200.14255z
					 M328.04767,292.99255l-0.33698,0.944l0.96497,0.26999l0.33801-0.944L328.04767,292.99255z M337.74268,324.46753l-0.33698,0.944
					l0.92896,0.371l0.33704-0.94299L337.74268,324.46753z M333.30371,348.17453l-0.99902,0.21503v1.02399l0.99902-0.215V348.17453z"
					/>
			</g>
		</g>
		<g class="st15">
			<g>
				<defs>
					<rect id="SVGID_81_" x="284.17261" y="210.87622" width="62.466" height="136.99602"/>
				</defs>
				<clipPath id="SVGID_17_">
					<use xlink:href="#SVGID_81_"  style="overflow:visible;"/>
				</clipPath>
				<path class="st32" d="M300.30768,217.87634l-0.96802,0.246l0.01703,0.10501c-1.31525,0.13036-3.16147,0.59776-5.11798,1.89999
					l1.34497-0.25101l0.04102,0.224C296.49802,220.09813,298.81357,218.73434,300.30768,217.87634z M293.6557,220.45435
					l-0.48303,0.26999l0.51001-0.13L293.6557,220.45435z M296.22668,238.88635l1.09601,3.06699l-2.065,1.92599
					c0.0986-0.15698,2.15076-0.77696,3.22797-1.64499C298.40741,241.71989,297.04721,240.1248,296.22668,238.88635z
					 M311.79968,288.44434l-1.23602,0.69202l1.36505,0.38199l1.23596-0.69199L311.79968,288.44434z M336.68268,327.43533
					l-0.33698,0.94302l0.95599,0.297l0.33698-0.94202L336.68268,327.43533z M333.30371,345.70633l-0.99902,0.15503v1.01099
					l0.14801-0.02301l-0.10303-0.513l0.95404-0.19098V345.70633z"/>
			</g>
		</g>
		<g class="st15">
			<g>
				<defs>
					<rect id="SVGID_83_" x="262.98462" y="186.32724" width="96.06696" height="161.989"/>
				</defs>
				<clipPath id="SVGID_18_">
					<use xlink:href="#SVGID_83_"  style="overflow:visible;"/>
				</clipPath>
				<path class="st33" d="M346.00171,193.32724l0.26599,0.186l0.026-0.12302L346.00171,193.32724z M348.24969,193.81125
					l-0.20404,0.94598c0.29575,0.15015,0.47705,0.11006,1.94904,0.452l0.05701-0.267
					C349.78217,194.86528,349.48364,194.32104,348.24969,193.81125z M320.9187,213.66525l-0.01703,0.00198v0.00101
					L320.9187,213.66525z M318.92871,213.99124l-1.97406,0.32501l0.05701,0.34299l1.94501-0.495L318.92871,213.99124z
					 M314.98065,214.64124l-1.97198,0.32501l0.112,0.68201l1.94501-0.49503L314.98065,214.64124z M311.03467,215.29123
					c-0.27615,0.07033-0.75626,0.07298-1.96899,0.35602l0.15802,0.95499c0.54871-0.08798,0.56186-0.10518,1.95001-0.45801
					L311.03467,215.29123z M307.12067,216.14325l-1.94501,0.49399l0.10205,0.61499l1.97198-0.32498L307.12067,216.14325z
					 M303.22968,217.13223l-1.94501,0.495l0.04498,0.27502l1.97406-0.32501L303.22968,217.13223z M299.33966,218.12225
					l-1.19995,0.30499l1.21698-0.20001L299.33966,218.12225z M281.94568,248.98624l-0.33801,0.15802l0.03699,0.05298
					L281.94568,248.98624z M279.7677,250.00226l-1.841,0.85898c0.05365,0.07698-0.02454-0.03645,0.44098,0.629l1.63898-1.146
					L279.7677,250.00226z M276.1557,251.81824l-1.63904,1.147l0.31201,0.444l1.84003-0.858
					C276.70679,252.60521,276.56137,252.3989,276.1557,251.81824z M272.87769,254.11124l-0.89398,0.625l1.00397-0.46799
					L272.87769,254.11124z M336.57166,295.37823l-0.79999,0.57101l0.21704,0.30399l1.53699,0.43002l-0.92603-1.297
					L336.57166,295.37823z M335.39465,331.04126l-0.33795,0.94598l0.97296,0.24802l0.33801-0.94601L335.39465,331.04126z
					 M333.30371,346.14523l-0.95404,0.19101c-0.02722-0.13449,0.0744,0.36948,0.19702,0.98001l0.25702-0.05099l-0.11304-0.64902
					l0.61304-0.108V346.14523z"/>
			</g>
		</g>
		<g class="st15">
			<g>
				<defs>
					<rect id="SVGID_85_" x="274.49561" y="84.62724" width="81.02399" height="263.974"/>
				</defs>
				<clipPath id="SVGID_19_">
					<use xlink:href="#SVGID_85_"  style="overflow:visible;"/>
				</clipPath>
				<path class="st34" d="M332.80469,91.62754l-0.22003,0.20502l0.68304,0.72998l0.26898-0.25198L332.80469,91.62754z
					 M331.26166,136.11554l-0.177,0.07001l-1.06897,1.49799l0.00598,0.004l1.70898-0.68298
					c0.05997-0.08432-0.01212,0.01685,0.26202-0.367L331.26166,136.11554z M337.86469,170.80154l-0.65802,0.30701l0.31104,0.66599
					L337.86469,170.80154z M342.24469,190.69754l0.508,0.35599l0.05402-0.21201L342.24469,190.69754z M344.74469,191.33353
					c-0.07999,0.31668-0.0087,0.03755-0.24103,0.94601c0.27975,0.13869,0.47852,0.12654,1.93304,0.517l0.08197-0.32599
					C346.25861,192.3799,345.95667,191.89568,344.74469,191.33353z M299.0517,219.22855l-1.50299,0.28l0.01801,0.09799
					L299.0517,219.22855z M295.58368,219.87653c-0.45248,0.0844-0.5701,0.10652-1.96698,0.367
					c-0.00061-0.00572,0.00861,0.0519,0.06598,0.35101l1.94202-0.49399L295.58368,219.87653z M291.6507,220.60953l-1.96704,0.367
					l0.11401,0.60602l1.94202-0.49402L291.6507,220.60953z M287.71869,221.34354l-1.966,0.366l0.15997,0.86099l1.94202-0.49399
					L287.71869,221.34354z M284.43768,222.45053l-0.94299,0.33701l1.21002,1.69202l0.40497-0.14502L284.43768,222.45053z
					 M288.94769,245.72055l-1.27002,0.59198l0.56,0.40002L288.94769,245.72055z M286.2627,247.75854l-0.341,0.47598l0.60901-0.284
					L286.2627,247.75854z M339.28369,296.13754v0.55099h1v-0.271L339.28369,296.13754z M336.57068,329.56354l-0.24799,0.96899
					l0.289,0.07401l0.33801-0.94598L336.57068,329.56354z M333.30371,346.50854l-0.61304,0.10699
					c-0.00772-0.04343,0.03766,0.21448,0.17102,0.98502l0.44202-0.077V346.50854z"/>
			</g>
		</g>
		<g class="st15">
			<g>
				<defs>
					<rect id="SVGID_87_" x="259.39056" y="58.89722" width="132.21301" height="340.85699"/>
				</defs>
				<clipPath id="SVGID_20_">
					<use xlink:href="#SVGID_87_"  style="overflow:visible;"/>
				</clipPath>
				<path class="st35" d="M374.34302,65.89725l-21.09906,19.68503v20.013l27.48004,19.22998l-34.573,19.355
					c6.45001,25.96196,19.2713,29.97006,27.95197,39.444l-6.79999,19.03198l-42.10297,19.64001l6.97998,19.53699l-42.513,19.83301
					c21.78387,7.74957,65.62158,26.73727,84.51697,39.33099v18.92499c-38.84378,20.60156-82.9855,32.20258-105.79297,39.36401
					l56.487,19.76401l-20.33502,18.97299l0.68304,0.73099l21.54297-20.10199l-55.19098-19.31
					c26.42798-7.11392,80.19363-25.43784,103.60596-38.78299v-20.14801c-20.8154-13.62421-62.43292-31.4736-83.00195-38.81601
					l41.24597-19.241l-6.97998-19.53799l41.65601-19.43201l7.16101-20.043c-24.79715-20.07199-24.26917-28.54128-27.888-38.70099
					l35.22595-19.721l-28.35901-19.84399V86.01728l20.78101-19.38901L374.34302,65.89725z"/>
			</g>
		</g>
		<g class="st15">
			<g>
				<defs>
					<rect id="SVGID_89_" x="230.82159" y="59.26325" width="168.25897" height="340.53497"/>
				</defs>
				<clipPath id="SVGID_21_">
					<use xlink:href="#SVGID_89_"  style="overflow:visible;"/>
				</clipPath>
				<path class="st36" d="M346.26428,66.26295c0,9.77827,0,29.53596,0,39.39102l40.94495,19.10098l-69.18597,19.36501
					c16.18481,29.00058,37.23709,28.79657,55.66498,39.44998l-27.42395,19.19c1.96039,40.05191-12.74438,43.15659-28.26202,58.97198
					c17.504,9.7988,52.66565,29.48172,69.91101,39.13501l-13.513,18.91101l-134.57901,19.82397l63.37997,19.71201l-62.25696,19.362
					l28.75299,20.12201l0.573-0.81799l-27.08398-18.95401l63.38196-19.71201l-62.25897-19.36099l130.65796-19.24799
					l14.40802-20.16501c-17.44867-9.76736-52.49866-29.38791-69.68896-39.01099c27.27338-21.72408,28.4343-35.55539,27.578-58.24902
					l28.41595-19.88397c-45.00742-19.9677-43.58875-19.57841-56.01398-38.69601l70.41498-19.70998l-42.81696-19.97299
					c0-9.6083,0-29.06506,0-38.75403H346.26428z"/>
			</g>
		</g>
		<g class="st15">
			<g>
				<defs>
					<rect id="SVGID_91_" x="253.53961" y="58.94623" width="145.13898" height="341.625"/>
				</defs>
				<clipPath id="SVGID_22_">
					<use xlink:href="#SVGID_91_"  style="overflow:visible;"/>
				</clipPath>
				<line class="st37" x1="377.8772" y1="68.32395" x2="335.12518" y2="85.41895"/>
				<line class="st38" x1="329.599" y1="89.48905" x2="313.89398" y2="104.14207"/>
				<line class="st38" x1="315.63898" y1="109.02564" x2="331.34393" y2="123.67866"/>
				<line class="st39" x1="330.297" y1="129.21362" x2="320.52496" y2="142.88965"/>
				<line class="st40" x1="322.61908" y1="147.28543" x2="345.30408" y2="163.15945"/>
				<line class="st37" x1="342.97729" y1="166.00803" x2="300.22528" y2="183.10303"/>
				<line class="st41" x1="302.51001" y1="184.84692" x2="386.76801" y2="202.98795"/>
				<line class="st42" x1="384.53412" y1="204.17703" x2="272.46606" y2="222.62906"/>
				<line class="st38" x1="273.75922" y1="226.24634" x2="289.46417" y2="240.89935"/>
				<line class="st40" x1="287.71918" y1="244.96902" x2="265.03412" y2="260.84305"/>
				<line class="st43" x1="267.47729" y1="263.36642" x2="324.01526" y2="280.94943"/>
				<line class="st39" x1="328.90112" y1="285.50803" x2="338.6731" y2="299.18405"/>
				<line class="st37" x1="335.99731" y1="302.76532" x2="293.2453" y2="319.86032"/>
				<line class="st44" x1="295.47467" y1="321.76004" x2="365.85565" y2="339.66904"/>
				<line class="st45" x1="363.54712" y1="341.09933" x2="272.49011" y2="359.30435"/>
				<line class="st46" x1="268.87317" y1="363.65503" x2="263.98712" y2="377.33105"/>
				<line class="st39" x1="266.0813" y1="383.19214" x2="275.85327" y2="396.86816"/>
				<path class="st47" d="M277.2489,398.82104L277.2489,398.82104 M263.28888,379.28503L263.28888,379.28503 M270.26886,359.74805
					L270.26886,359.74805 M367.98889,340.21106L367.98889,340.21106 M291.20886,320.67505L291.20886,320.67505 M340.06891,301.13705
					L340.06891,301.13705 M326.10889,281.60104L326.10889,281.60104 M263.28888,262.06406L263.28888,262.06406 M291.20886,242.52704
					L291.20886,242.52704 M270.26886,222.99005L270.26886,222.99005 M388.92889,203.45306L388.92889,203.45306 M298.1889,183.91705
					L298.1889,183.91705 M347.04889,164.38007L347.04889,164.38007 M319.12891,144.84305L319.12891,144.84305 M333.08887,125.30607
					L333.08887,125.30607 M312.14886,105.77006L312.14886,105.77006 M333.08887,86.23307L333.08887,86.23307 M381.94891,66.69605
					L381.94891,66.69605"/>
			</g>
		</g>
		<g class="st15">
			<g>
				<defs>
					<rect id="SVGID_93_" x="246.27661" y="58.40924" width="152.12" height="341.625"/>
				</defs>
				<clipPath id="SVGID_23_">
					<use xlink:href="#SVGID_93_"  style="overflow:visible;"/>
				</clipPath>
				<line class="st48" x1="384.57452" y1="67.78684" x2="341.82251" y2="84.88184"/>
				<line class="st49" x1="336.29626" y1="88.95194" x2="320.59125" y2="103.60496"/>
				<line class="st49" x1="322.33636" y1="108.48905" x2="338.04132" y2="123.14106"/>
				<line class="st50" x1="336.99432" y1="128.67654" x2="327.22229" y2="142.35257"/>
				<line class="st51" x1="329.31641" y1="146.74832" x2="352.0014" y2="162.62234"/>
				<line class="st52" x1="349.55817" y1="165.79663" x2="313.96014" y2="182.40265"/>
				<line class="st53" x1="316.13177" y1="184.46512" x2="386.51276" y2="202.37415"/>
				<line class="st54" x1="384.28369" y1="203.73022" x2="286.12769" y2="222.04623"/>
				<line class="st55" x1="285.34247" y1="226.36063" x2="290.22845" y2="240.03665"/>
				<line class="st50" x1="288.13452" y1="245.89725" x2="278.36249" y2="259.57327"/>
				<line class="st56" x1="281.15442" y1="262.82935" x2="337.69238" y2="280.41235"/>
				<line class="st57" x1="339.78632" y1="285.94803" x2="339.78632" y2="298.15805"/>
				<line class="st52" x1="335.59827" y1="302.55392" x2="300.00024" y2="319.15994"/>
				<line class="st53" x1="302.17188" y1="321.22293" x2="372.55286" y2="339.13196"/>
				<line class="st58" x1="370.21899" y1="340.45535" x2="265.23999" y2="358.82034"/>
				<line class="st55" x1="261.6106" y1="363.11795" x2="256.72455" y2="376.79395"/>
				<line class="st50" x1="258.8186" y1="382.65503" x2="268.59058" y2="396.33105"/>
				<path class="st59" d="M269.98608,398.28394L269.98608,398.28394 M256.02612,378.74792L256.02612,378.74792 M263.0061,359.21094
					L263.0061,359.21094 M374.6861,339.67395L374.6861,339.67395 M297.90607,320.13794L297.90607,320.13794 M339.78607,300.59995
					L339.78607,300.59995 M339.78607,281.06393L339.78607,281.06393 M276.96606,261.52695L276.96606,261.52695 M290.92609,241.98993
					L290.92609,241.98993 M283.94611,222.45294L283.94611,222.45294 M388.64612,202.91595L388.64612,202.91595 M311.86609,183.37994
					L311.86609,183.37994 M353.74609,163.84296L353.74609,163.84296 M325.82611,144.30594L325.82611,144.30594 M339.78607,124.76896
					L339.78607,124.76896 M318.84607,105.23295L318.84607,105.23295 M339.78607,85.69596L339.78607,85.69596 M388.64612,66.15894
					L388.64612,66.15894"/>
			</g>
		</g>
		<g class="st15">
			<g>
				<defs>
					<rect id="SVGID_95_" x="246.30359" y="59.10126" width="139.18402" height="340.70697"/>
				</defs>
				<clipPath id="SVGID_24_">
					<use xlink:href="#SVGID_95_"  style="overflow:visible;"/>
				</clipPath>
				<path class="st60" d="M353.69617,66.39185c-6.98367,9.77364-21.04816,29.45684-27.92004,39.07401l13.96002,19.53601
					l-13.96002,19.53698l27.92004,19.53702l-27.92004,19.53699l48.85999,19.53601l-83.75995,19.53699
					c-4.5134,18.22458-16.35599,32.97896-20.94,39.07401l69.79999,19.53699l-20.94,19.53601l6.97998,19.53799l48.85999,19.53601
					l-118.65997,19.53699c4.51349,18.22519,16.35544,32.97748,20.94,39.073"/>
			</g>
		</g>
	</g>
</g>
</svg>
