<?xml version="1.0" encoding="utf-8"?>
<!-- Generator: Adobe Illustrator 24.0.1, SVG Export Plug-In . SVG Version: 6.00 Build 0)  -->
<svg version="1.1" id="Ebene_1" xmlns="http://www.w3.org/2000/svg" xmlns:xlink="http://www.w3.org/1999/xlink" x="0px" y="0px"
	 viewBox="0 0 481.9 249.9" style="enable-background:new 0 0 481.9 249.9;" xml:space="preserve">
<style type="text/css">
	.st0{fill:#FFFFFF;}
	.st1{fill:none;stroke:#000000;stroke-width:0.3985;stroke-miterlimit:10;}
	.st2{font-family:'ArialMT';}
	.st3{font-size:9.9626px;}
	.st4{letter-spacing:1;}
</style>
<rect x="0" y="0.2" class="st0" width="481.7" height="249.3"/>
<line class="st1" x1="0" y1="0.2" x2="481.9" y2="0.2"/>
<line class="st1" x1="0.2" y1="13.9" x2="0.2" y2="0.4"/>
<text transform="matrix(1 0 0 1 6.3761 9.8826)" class="st2 st3">Höh</text>
<text transform="matrix(1 0 0 1 24.652 9.8826)" class="st2 st3 st4">e</text>
<text transform="matrix(1 0 0 1 32.9425 9.8826)" class="st2 st3">i</text>
<text transform="matrix(1 0 0 1 35.1559 9.8826)" class="st2 st3 st4">n</text>
<text transform="matrix(1 0 0 1 43.4562 9.8826)" class="st2 st3">cm</text>
<line class="st1" x1="63" y1="13.9" x2="63" y2="0.4"/>
<line class="st1" x1="95.8" y1="13.9" x2="95.8" y2="0.4"/>
<text transform="matrix(1 0 0 1 137.3063 9.8826)" class="st2 st3">100</text>
<line class="st1" x1="160.1" y1="13.9" x2="160.1" y2="0.4"/>
<text transform="matrix(1 0 0 1 202.3634 9.8826)" class="st2 st3">1</text>
<text transform="matrix(1 0 0 1 207.1671 9.8826)" class="st2 st3">10</text>
<line class="st1" x1="224.4" y1="13.9" x2="224.4" y2="0.4"/>
<text transform="matrix(1 0 0 1 265.9401 9.8826)" class="st2 st3">120</text>
<line class="st1" x1="288.7" y1="13.9" x2="288.7" y2="0.4"/>
<text transform="matrix(1 0 0 1 330.2574 9.8826)" class="st2 st3">130</text>
<line class="st1" x1="353.1" y1="13.9" x2="353.1" y2="0.4"/>
<text transform="matrix(1 0 0 1 394.5739 9.8826)" class="st2 st3">140</text>
<line class="st1" x1="417.4" y1="13.9" x2="417.4" y2="0.4"/>
<text transform="matrix(1 0 0 1 458.8912 9.8826)" class="st2 st3">150</text>
<line class="st1" x1="481.7" y1="13.9" x2="481.7" y2="0.4"/>
<line class="st1" x1="0.2" y1="27.5" x2="0.2" y2="13.9"/>
<line class="st1" x1="63" y1="27.5" x2="63" y2="13.9"/>
<line class="st1" x1="95.8" y1="27.5" x2="95.8" y2="13.9"/>
<text transform="matrix(1 0 0 1 137.3063 23.4315)" class="st2 st3">105</text>
<line class="st1" x1="160.1" y1="27.5" x2="160.1" y2="13.9"/>
<text transform="matrix(1 0 0 1 202.3634 23.4315)" class="st2 st3">1</text>
<text transform="matrix(1 0 0 1 207.1671 23.4315)" class="st2 st3">15</text>
<line class="st1" x1="224.4" y1="27.5" x2="224.4" y2="13.9"/>
<text transform="matrix(1 0 0 1 265.9401 23.4315)" class="st2 st3">125</text>
<line class="st1" x1="288.7" y1="27.5" x2="288.7" y2="13.9"/>
<text transform="matrix(1 0 0 1 330.2574 23.4315)" class="st2 st3">135</text>
<line class="st1" x1="353.1" y1="27.5" x2="353.1" y2="13.9"/>
<text transform="matrix(1 0 0 1 394.5739 23.4315)" class="st2 st3">145</text>
<line class="st1" x1="417.4" y1="27.5" x2="417.4" y2="13.9"/>
<text transform="matrix(1 0 0 1 458.8912 23.4315)" class="st2 st3">155</text>
<line class="st1" x1="481.7" y1="27.5" x2="481.7" y2="13.9"/>
<line class="st1" x1="0" y1="27.7" x2="481.9" y2="27.7"/>
<line class="st1" x1="0.2" y1="41.4" x2="0.2" y2="27.9"/>
<line class="st1" x1="63" y1="41.4" x2="63" y2="27.9"/>
<line class="st1" x1="95.8" y1="41.4" x2="95.8" y2="27.9"/>
<text transform="matrix(1 0 0 1 110.7365 37.3787)" class="st2 st3">B/R/N100</text>
<line class="st1" x1="160.1" y1="41.4" x2="160.1" y2="27.9"/>
<text transform="matrix(1 0 0 1 185.2052 37.3787)" class="st2 st3">R/N</text>
<text transform="matrix(1 0 0 1 202.3624 37.3787)" class="st2 st3">1</text>
<text transform="matrix(1 0 0 1 207.1661 37.3787)" class="st2 st3">10</text>
<line class="st1" x1="224.4" y1="41.4" x2="224.4" y2="27.9"/>
<text transform="matrix(1 0 0 1 248.7833 37.3787)" class="st2 st3">R/N120</text>
<line class="st1" x1="288.7" y1="41.4" x2="288.7" y2="27.9"/>
<text transform="matrix(1 0 0 1 313.1002 37.3787)" class="st2 st3">R/N130</text>
<line class="st1" x1="353.1" y1="41.4" x2="353.1" y2="27.9"/>
<text transform="matrix(1 0 0 1 387.3805 37.3787)" class="st2 st3">N140</text>
<line class="st1" x1="417.4" y1="41.4" x2="417.4" y2="27.9"/>
<text transform="matrix(1 0 0 1 451.6969 37.3787)" class="st2 st3">N150</text>
<line class="st1" x1="481.7" y1="41.4" x2="481.7" y2="27.9"/>
<line class="st1" x1="0.2" y1="55" x2="0.2" y2="41.4"/>
<line class="st1" x1="63" y1="55" x2="63" y2="41.4"/>
<line class="st1" x1="95.8" y1="55" x2="95.8" y2="41.4"/>
<text transform="matrix(1 0 0 1 110.7365 50.9285)" class="st2 st3">B/R/N105</text>
<line class="st1" x1="160.1" y1="55" x2="160.1" y2="41.4"/>
<text transform="matrix(1 0 0 1 185.2052 50.9285)" class="st2 st3">R/N</text>
<text transform="matrix(1 0 0 1 202.3624 50.9285)" class="st2 st3">1</text>
<text transform="matrix(1 0 0 1 207.1661 50.9285)" class="st2 st3">15</text>
<line class="st1" x1="224.4" y1="55" x2="224.4" y2="41.4"/>
<text transform="matrix(1 0 0 1 248.7833 50.9285)" class="st2 st3">R/N125</text>
<line class="st1" x1="288.7" y1="55" x2="288.7" y2="41.4"/>
<text transform="matrix(1 0 0 1 313.1002 50.9285)" class="st2 st3">R/N135</text>
<line class="st1" x1="353.1" y1="55" x2="353.1" y2="41.4"/>
<text transform="matrix(1 0 0 1 387.3805 50.9285)" class="st2 st3">N145</text>
<line class="st1" x1="417.4" y1="55" x2="417.4" y2="41.4"/>
<text transform="matrix(1 0 0 1 451.6969 50.9285)" class="st2 st3">N155</text>
<line class="st1" x1="481.7" y1="55" x2="481.7" y2="41.4"/>
<line class="st1" x1="0.2" y1="68.5" x2="0.2" y2="55"/>
<line class="st1" x1="63" y1="68.5" x2="63" y2="55"/>
<line class="st1" x1="95.8" y1="68.5" x2="95.8" y2="55"/>
<text transform="matrix(1 0 0 1 119.5802 64.4774)" class="st2 st3">Sen100</text>
<line class="st1" x1="160.1" y1="68.5" x2="160.1" y2="55"/>
<text transform="matrix(1 0 0 1 178.7311 64.4774)" class="st2 st3">J</text>
<text transform="matrix(1 0 0 1 183.7125 64.4774)" class="st2 st3">1</text>
<text transform="matrix(1 0 0 1 188.5157 64.4774)" class="st2 st3">10/</text>
<text transform="matrix(1 0 0 1 202.3654 64.4774)" class="st2 st3">1</text>
<text transform="matrix(1 0 0 1 207.1686 64.4774)" class="st2 st3">15</text>
<line class="st1" x1="224.4" y1="68.5" x2="224.4" y2="55"/>
<text transform="matrix(1 0 0 1 241.5695 64.4774)" class="st2 st3">J120/125</text>
<line class="st1" x1="288.7" y1="68.5" x2="288.7" y2="55"/>
<line class="st1" x1="353.1" y1="68.5" x2="353.1" y2="55"/>
<line class="st1" x1="417.4" y1="68.5" x2="417.4" y2="55"/>
<line class="st1" x1="481.7" y1="68.5" x2="481.7" y2="55"/>
<line class="st1" x1="0.2" y1="82.1" x2="0.2" y2="68.5"/>
<line class="st1" x1="63" y1="82.1" x2="63" y2="68.5"/>
<line class="st1" x1="95.8" y1="82.1" x2="95.8" y2="68.5"/>
<text transform="matrix(1 0 0 1 119.5802 78.0272)" class="st2 st3">Sen105</text>
<line class="st1" x1="160.1" y1="82.1" x2="160.1" y2="68.5"/>
<text transform="matrix(1 0 0 1 166.2823 78.0272)" class="st2 st3">Sen</text>
<text transform="matrix(1 0 0 1 184.0089 78.0272)" class="st2 st3">1</text>
<text transform="matrix(1 0 0 1 188.8121 78.0272)" class="st2 st3">10/</text>
<text transform="matrix(1 0 0 1 202.6617 78.0272)" class="st2 st3">1</text>
<text transform="matrix(1 0 0 1 207.465 78.0272)" class="st2 st3">15</text>
<line class="st1" x1="224.4" y1="82.1" x2="224.4" y2="68.5"/>
<text transform="matrix(1 0 0 1 230.5992 78.0272)" class="st2 st3">Sen120/125</text>
<line class="st1" x1="288.7" y1="82.1" x2="288.7" y2="68.5"/>
<line class="st1" x1="353.1" y1="82.1" x2="353.1" y2="68.5"/>
<line class="st1" x1="417.4" y1="82.1" x2="417.4" y2="68.5"/>
<line class="st1" x1="481.7" y1="82.1" x2="481.7" y2="68.5"/>
<line class="st1" x1="0" y1="82.3" x2="481.9" y2="82.3"/>
<line class="st1" x1="0.2" y1="96" x2="0.2" y2="82.5"/>
<text transform="matrix(1 0 0 1 6.3761 91.9745)" class="st2 st3">1</text>
<text transform="matrix(1 0 0 1 11.9166 91.9745)" class="st2 st3 st4">.</text>
<text transform="matrix(1 0 0 1 17.4445 91.9745)" class="st2 st3">Rang</text>
<line class="st1" x1="63" y1="96" x2="63" y2="82.5"/>
<text transform="matrix(1 0 0 1 69.1364 91.9745)" class="st2 st3">CHF</text>
<line class="st1" x1="95.8" y1="96" x2="95.8" y2="82.5"/>
<text transform="matrix(1 0 0 1 123.4572 91.9745)" class="st2 st3">100.00</text>
<line class="st1" x1="160.1" y1="96" x2="160.1" y2="82.5"/>
<text transform="matrix(1 0 0 1 187.774 91.9745)" class="st2 st3">150.00</text>
<line class="st1" x1="224.4" y1="96" x2="224.4" y2="82.5"/>
<text transform="matrix(1 0 0 1 252.0914 91.9745)" class="st2 st3">200.00</text>
<line class="st1" x1="288.7" y1="96" x2="288.7" y2="82.5"/>
<text transform="matrix(1 0 0 1 316.4078 91.9745)" class="st2 st3">300.00</text>
<line class="st1" x1="353.1" y1="96" x2="353.1" y2="82.5"/>
<text transform="matrix(1 0 0 1 380.7252 91.9745)" class="st2 st3">600.00</text>
<line class="st1" x1="417.4" y1="96" x2="417.4" y2="82.5"/>
<text transform="matrix(1 0 0 1 445.0426 91.9745)" class="st2 st3">800.00</text>
<line class="st1" x1="481.7" y1="96" x2="481.7" y2="82.5"/>
<line class="st1" x1="0" y1="96.2" x2="481.9" y2="96.2"/>
<line class="st1" x1="0.2" y1="110" x2="0.2" y2="96.4"/>
<text transform="matrix(1 0 0 1 6.3761 105.9227)" class="st2 st3">2</text>
<text transform="matrix(1 0 0 1 11.9166 105.9227)" class="st2 st3 st4">.</text>
<text transform="matrix(1 0 0 1 17.4445 105.9227)" class="st2 st3">Rang</text>
<line class="st1" x1="63" y1="110" x2="63" y2="96.4"/>
<text transform="matrix(1 0 0 1 69.1364 105.9227)" class="st2 st3">CHF</text>
<line class="st1" x1="95.8" y1="110" x2="95.8" y2="96.4"/>
<text transform="matrix(1 0 0 1 128.9972 105.9227)" class="st2 st3">80.00</text>
<line class="st1" x1="160.1" y1="110" x2="160.1" y2="96.4"/>
<text transform="matrix(1 0 0 1 187.774 105.9227)" class="st2 st3">120.00</text>
<line class="st1" x1="224.4" y1="110" x2="224.4" y2="96.4"/>
<text transform="matrix(1 0 0 1 252.0914 105.9227)" class="st2 st3">160.00</text>
<line class="st1" x1="288.7" y1="110" x2="288.7" y2="96.4"/>
<text transform="matrix(1 0 0 1 316.4078 105.9227)" class="st2 st3">240.00</text>
<line class="st1" x1="353.1" y1="110" x2="353.1" y2="96.4"/>
<text transform="matrix(1 0 0 1 380.7252 105.9227)" class="st2 st3">480.00</text>
<line class="st1" x1="417.4" y1="110" x2="417.4" y2="96.4"/>
<text transform="matrix(1 0 0 1 445.0426 105.9227)" class="st2 st3">640.00</text>
<line class="st1" x1="481.7" y1="110" x2="481.7" y2="96.4"/>
<line class="st1" x1="0" y1="110.2" x2="481.9" y2="110.2"/>
<line class="st1" x1="0.2" y1="123.9" x2="0.2" y2="110.4"/>
<text transform="matrix(1 0 0 1 6.3761 119.87)" class="st2 st3">3</text>
<text transform="matrix(1 0 0 1 11.9166 119.87)" class="st2 st3 st4">.</text>
<text transform="matrix(1 0 0 1 17.4445 119.87)" class="st2 st3">Rang</text>
<line class="st1" x1="63" y1="123.9" x2="63" y2="110.4"/>
<text transform="matrix(1 0 0 1 69.1364 119.87)" class="st2 st3">CHF</text>
<line class="st1" x1="95.8" y1="123.9" x2="95.8" y2="110.4"/>
<text transform="matrix(1 0 0 1 128.9972 119.87)" class="st2 st3">65.00</text>
<line class="st1" x1="160.1" y1="123.9" x2="160.1" y2="110.4"/>
<text transform="matrix(1 0 0 1 187.774 119.87)" class="st2 st3">100.00</text>
<line class="st1" x1="224.4" y1="123.9" x2="224.4" y2="110.4"/>
<text transform="matrix(1 0 0 1 252.0914 119.87)" class="st2 st3">130.00</text>
<line class="st1" x1="288.7" y1="123.9" x2="288.7" y2="110.4"/>
<text transform="matrix(1 0 0 1 316.4078 119.87)" class="st2 st3">195.00</text>
<line class="st1" x1="353.1" y1="123.9" x2="353.1" y2="110.4"/>
<text transform="matrix(1 0 0 1 380.7252 119.87)" class="st2 st3">385.00</text>
<line class="st1" x1="417.4" y1="123.9" x2="417.4" y2="110.4"/>
<text transform="matrix(1 0 0 1 445.0426 119.87)" class="st2 st3">515.00</text>
<line class="st1" x1="481.7" y1="123.9" x2="481.7" y2="110.4"/>
<line class="st1" x1="0" y1="124.1" x2="481.9" y2="124.1"/>
<line class="st1" x1="0.2" y1="137.9" x2="0.2" y2="124.3"/>
<text transform="matrix(1 0 0 1 6.3761 133.8172)" class="st2 st3">4</text>
<text transform="matrix(1 0 0 1 11.9166 133.8172)" class="st2 st3 st4">.</text>
<text transform="matrix(1 0 0 1 17.4445 133.8172)" class="st2 st3">Rang</text>
<line class="st1" x1="63" y1="137.9" x2="63" y2="124.3"/>
<text transform="matrix(1 0 0 1 69.1364 133.8172)" class="st2 st3">CHF</text>
<line class="st1" x1="95.8" y1="137.9" x2="95.8" y2="124.3"/>
<text transform="matrix(1 0 0 1 128.9972 133.8172)" class="st2 st3">55.00</text>
<line class="st1" x1="160.1" y1="137.9" x2="160.1" y2="124.3"/>
<text transform="matrix(1 0 0 1 193.3151 133.8172)" class="st2 st3">80.00</text>
<line class="st1" x1="224.4" y1="137.9" x2="224.4" y2="124.3"/>
<text transform="matrix(1 0 0 1 252.0914 133.8172)" class="st2 st3">105.00</text>
<line class="st1" x1="288.7" y1="137.9" x2="288.7" y2="124.3"/>
<text transform="matrix(1 0 0 1 316.4078 133.8172)" class="st2 st3">160.00</text>
<line class="st1" x1="353.1" y1="137.9" x2="353.1" y2="124.3"/>
<text transform="matrix(1 0 0 1 380.7252 133.8172)" class="st2 st3">310.00</text>
<line class="st1" x1="417.4" y1="137.9" x2="417.4" y2="124.3"/>
<text transform="matrix(1 0 0 1 445.0426 133.8172)" class="st2 st3">415.00</text>
<line class="st1" x1="481.7" y1="137.9" x2="481.7" y2="124.3"/>
<line class="st1" x1="0" y1="138.1" x2="481.9" y2="138.1"/>
<line class="st1" x1="0.2" y1="151.8" x2="0.2" y2="138.3"/>
<text transform="matrix(1 0 0 1 6.3761 147.7655)" class="st2 st3">5</text>
<text transform="matrix(1 0 0 1 11.9166 147.7655)" class="st2 st3 st4">.</text>
<text transform="matrix(1 0 0 1 17.4445 147.7655)" class="st2 st3">Rang</text>
<line class="st1" x1="63" y1="151.8" x2="63" y2="138.3"/>
<text transform="matrix(1 0 0 1 69.1364 147.7655)" class="st2 st3">CHF</text>
<line class="st1" x1="95.8" y1="151.8" x2="95.8" y2="138.3"/>
<text transform="matrix(1 0 0 1 128.9972 147.7655)" class="st2 st3">45.00</text>
<line class="st1" x1="160.1" y1="151.8" x2="160.1" y2="138.3"/>
<text transform="matrix(1 0 0 1 193.3151 147.7655)" class="st2 st3">65.00</text>
<line class="st1" x1="224.4" y1="151.8" x2="224.4" y2="138.3"/>
<text transform="matrix(1 0 0 1 257.6325 147.7655)" class="st2 st3">85.00</text>
<line class="st1" x1="288.7" y1="151.8" x2="288.7" y2="138.3"/>
<text transform="matrix(1 0 0 1 316.4078 147.7655)" class="st2 st3">130.00</text>
<line class="st1" x1="353.1" y1="151.8" x2="353.1" y2="138.3"/>
<text transform="matrix(1 0 0 1 380.7252 147.7655)" class="st2 st3">250.00</text>
<line class="st1" x1="417.4" y1="151.8" x2="417.4" y2="138.3"/>
<text transform="matrix(1 0 0 1 445.0426 147.7655)" class="st2 st3">335.00</text>
<line class="st1" x1="481.7" y1="151.8" x2="481.7" y2="138.3"/>
<line class="st1" x1="0" y1="152" x2="481.9" y2="152"/>
<line class="st1" x1="0.2" y1="165.8" x2="0.2" y2="152.2"/>
<text transform="matrix(1 0 0 1 6.3761 161.7137)" class="st2 st3">6</text>
<text transform="matrix(1 0 0 1 11.9166 161.7137)" class="st2 st3 st4">.</text>
<text transform="matrix(1 0 0 1 17.4445 161.7137)" class="st2 st3">Rang</text>
<line class="st1" x1="63" y1="165.8" x2="63" y2="152.2"/>
<text transform="matrix(1 0 0 1 69.1364 161.7137)" class="st2 st3">CHF</text>
<line class="st1" x1="95.8" y1="165.8" x2="95.8" y2="152.2"/>
<text transform="matrix(1 0 0 1 128.9972 161.7137)" class="st2 st3">40.00</text>
<line class="st1" x1="160.1" y1="165.8" x2="160.1" y2="152.2"/>
<text transform="matrix(1 0 0 1 193.3151 161.7137)" class="st2 st3">55.00</text>
<line class="st1" x1="224.4" y1="165.8" x2="224.4" y2="152.2"/>
<text transform="matrix(1 0 0 1 257.6325 161.7137)" class="st2 st3">70.00</text>
<line class="st1" x1="288.7" y1="165.8" x2="288.7" y2="152.2"/>
<text transform="matrix(1 0 0 1 316.4078 161.7137)" class="st2 st3">105.00</text>
<line class="st1" x1="353.1" y1="165.8" x2="353.1" y2="152.2"/>
<text transform="matrix(1 0 0 1 380.7252 161.7137)" class="st2 st3">200.00</text>
<line class="st1" x1="417.4" y1="165.8" x2="417.4" y2="152.2"/>
<text transform="matrix(1 0 0 1 445.0426 161.7137)" class="st2 st3">270.00</text>
<line class="st1" x1="481.7" y1="165.8" x2="481.7" y2="152.2"/>
<line class="st1" x1="0" y1="166" x2="481.9" y2="166"/>
<line class="st1" x1="0.2" y1="179.7" x2="0.2" y2="166.2"/>
<text transform="matrix(1 0 0 1 6.3761 175.66)" class="st2 st3">7</text>
<text transform="matrix(1 0 0 1 11.9166 175.66)" class="st2 st3 st4">.</text>
<text transform="matrix(1 0 0 1 17.4445 175.66)" class="st2 st3">Rang</text>
<line class="st1" x1="63" y1="179.7" x2="63" y2="166.2"/>
<text transform="matrix(1 0 0 1 69.1364 175.66)" class="st2 st3">CHF</text>
<line class="st1" x1="95.8" y1="179.7" x2="95.8" y2="166.2"/>
<text transform="matrix(1 0 0 1 128.9972 175.66)" class="st2 st3">35.00</text>
<line class="st1" x1="160.1" y1="179.7" x2="160.1" y2="166.2"/>
<text transform="matrix(1 0 0 1 193.3151 175.66)" class="st2 st3">45.00</text>
<line class="st1" x1="224.4" y1="179.7" x2="224.4" y2="166.2"/>
<text transform="matrix(1 0 0 1 257.6325 175.66)" class="st2 st3">60.00</text>
<line class="st1" x1="288.7" y1="179.7" x2="288.7" y2="166.2"/>
<text transform="matrix(1 0 0 1 321.9489 175.66)" class="st2 st3">85.00</text>
<line class="st1" x1="353.1" y1="179.7" x2="353.1" y2="166.2"/>
<text transform="matrix(1 0 0 1 380.7252 175.66)" class="st2 st3">160.00</text>
<line class="st1" x1="417.4" y1="179.7" x2="417.4" y2="166.2"/>
<text transform="matrix(1 0 0 1 445.0426 175.66)" class="st2 st3">220.00</text>
<line class="st1" x1="481.7" y1="179.7" x2="481.7" y2="166.2"/>
<line class="st1" x1="0" y1="179.9" x2="481.9" y2="179.9"/>
<line class="st1" x1="0.2" y1="193.7" x2="0.2" y2="180.1"/>
<text transform="matrix(1 0 0 1 6.3761 189.6083)" class="st2 st3">8</text>
<text transform="matrix(1 0 0 1 11.9166 189.6083)" class="st2 st3 st4">.</text>
<text transform="matrix(1 0 0 1 17.4445 189.6083)" class="st2 st3">Rang</text>
<line class="st1" x1="63" y1="193.7" x2="63" y2="180.1"/>
<text transform="matrix(1 0 0 1 69.1364 189.6083)" class="st2 st3">CHF</text>
<line class="st1" x1="95.8" y1="193.7" x2="95.8" y2="180.1"/>
<text transform="matrix(1 0 0 1 128.9972 189.6083)" class="st2 st3">30.00</text>
<line class="st1" x1="160.1" y1="193.7" x2="160.1" y2="180.1"/>
<text transform="matrix(1 0 0 1 193.3151 189.6083)" class="st2 st3">40.00</text>
<line class="st1" x1="224.4" y1="193.7" x2="224.4" y2="180.1"/>
<text transform="matrix(1 0 0 1 257.6325 189.6083)" class="st2 st3">50.00</text>
<line class="st1" x1="288.7" y1="193.7" x2="288.7" y2="180.1"/>
<text transform="matrix(1 0 0 1 321.9489 189.6083)" class="st2 st3">70.00</text>
<line class="st1" x1="353.1" y1="193.7" x2="353.1" y2="180.1"/>
<text transform="matrix(1 0 0 1 380.7252 189.6083)" class="st2 st3">130.00</text>
<line class="st1" x1="417.4" y1="193.7" x2="417.4" y2="180.1"/>
<text transform="matrix(1 0 0 1 445.0426 189.6083)" class="st2 st3">180.00</text>
<line class="st1" x1="481.7" y1="193.7" x2="481.7" y2="180.1"/>
<line class="st1" x1="0" y1="193.9" x2="481.9" y2="193.9"/>
<line class="st1" x1="0.2" y1="207.6" x2="0.2" y2="194.1"/>
<text transform="matrix(1 0 0 1 6.3761 203.5565)" class="st2 st3">9</text>
<text transform="matrix(1 0 0 1 11.9166 203.5565)" class="st2 st3 st4">.</text>
<text transform="matrix(1 0 0 1 17.4445 203.5565)" class="st2 st3">Rang</text>
<line class="st1" x1="63" y1="207.6" x2="63" y2="194.1"/>
<text transform="matrix(1 0 0 1 69.1364 203.5565)" class="st2 st3">CHF</text>
<line class="st1" x1="95.8" y1="207.6" x2="95.8" y2="194.1"/>
<text transform="matrix(1 0 0 1 128.9972 203.5565)" class="st2 st3">25.00</text>
<line class="st1" x1="160.1" y1="207.6" x2="160.1" y2="194.1"/>
<text transform="matrix(1 0 0 1 193.3151 203.5565)" class="st2 st3">35.00</text>
<line class="st1" x1="224.4" y1="207.6" x2="224.4" y2="194.1"/>
<text transform="matrix(1 0 0 1 257.6325 203.5565)" class="st2 st3">40.00</text>
<line class="st1" x1="288.7" y1="207.6" x2="288.7" y2="194.1"/>
<text transform="matrix(1 0 0 1 321.9489 203.5565)" class="st2 st3">60.00</text>
<line class="st1" x1="353.1" y1="207.6" x2="353.1" y2="194.1"/>
<text transform="matrix(1 0 0 1 380.7252 203.5565)" class="st2 st3">120.00</text>
<line class="st1" x1="417.4" y1="207.6" x2="417.4" y2="194.1"/>
<text transform="matrix(1 0 0 1 445.0426 203.5565)" class="st2 st3">160.00</text>
<line class="st1" x1="481.7" y1="207.6" x2="481.7" y2="194.1"/>
<line class="st1" x1="0" y1="207.8" x2="481.9" y2="207.8"/>
<line class="st1" x1="0.2" y1="221.6" x2="0.2" y2="208"/>
<text transform="matrix(1 0 0 1 6.3761 217.5028)" class="st2 st3">10</text>
<text transform="matrix(1 0 0 1 17.4576 217.5028)" class="st2 st3 st4">.</text>
<text transform="matrix(1 0 0 1 22.985 217.5028)" class="st2 st3">Rang</text>
<line class="st1" x1="63" y1="221.6" x2="63" y2="208"/>
<text transform="matrix(1 0 0 1 69.1364 217.5028)" class="st2 st3">CHF</text>
<line class="st1" x1="95.8" y1="221.6" x2="95.8" y2="208"/>
<text transform="matrix(1 0 0 1 128.9972 217.5028)" class="st2 st3">20.00</text>
<line class="st1" x1="160.1" y1="221.6" x2="160.1" y2="208"/>
<text transform="matrix(1 0 0 1 193.3151 217.5028)" class="st2 st3">30.00</text>
<line class="st1" x1="224.4" y1="221.6" x2="224.4" y2="208"/>
<text transform="matrix(1 0 0 1 257.6325 217.5028)" class="st2 st3">40.00</text>
<line class="st1" x1="288.7" y1="221.6" x2="288.7" y2="208"/>
<text transform="matrix(1 0 0 1 321.9489 217.5028)" class="st2 st3">60.00</text>
<line class="st1" x1="353.1" y1="221.6" x2="353.1" y2="208"/>
<text transform="matrix(1 0 0 1 380.7252 217.5028)" class="st2 st3">120.00</text>
<line class="st1" x1="417.4" y1="221.6" x2="417.4" y2="208"/>
<text transform="matrix(1 0 0 1 445.0426 217.5028)" class="st2 st3">160.00</text>
<line class="st1" x1="481.7" y1="221.6" x2="481.7" y2="208"/>
<line class="st1" x1="0" y1="221.8" x2="481.9" y2="221.8"/>
<line class="st1" x1="0.2" y1="235.5" x2="0.2" y2="222"/>
<line class="st1" x1="63" y1="235.5" x2="63" y2="222"/>
<line class="st1" x1="95.8" y1="235.5" x2="95.8" y2="222"/>
<line class="st1" x1="160.1" y1="235.5" x2="160.1" y2="222"/>
<line class="st1" x1="224.4" y1="235.5" x2="224.4" y2="222"/>
<line class="st1" x1="288.7" y1="235.5" x2="288.7" y2="222"/>
<line class="st1" x1="353.1" y1="235.5" x2="353.1" y2="222"/>
<line class="st1" x1="417.4" y1="235.5" x2="417.4" y2="222"/>
<line class="st1" x1="481.7" y1="235.5" x2="481.7" y2="222"/>
<line class="st1" x1="0" y1="235.7" x2="481.9" y2="235.7"/>
<line class="st1" x1="0.2" y1="249.5" x2="0.2" y2="235.9"/>
<text transform="matrix(1 0 0 1 6.3761 245.3993)" class="st2 st3">Nenngeld**</text>
<line class="st1" x1="63" y1="249.5" x2="63" y2="235.9"/>
<line class="st1" x1="95.8" y1="249.5" x2="95.8" y2="235.9"/>
<text transform="matrix(1 0 0 1 128.9972 245.3993)" class="st2 st3">10.00</text>
<line class="st1" x1="160.1" y1="249.5" x2="160.1" y2="235.9"/>
<text transform="matrix(1 0 0 1 193.3151 245.3993)" class="st2 st3">15.00</text>
<line class="st1" x1="224.4" y1="249.5" x2="224.4" y2="235.9"/>
<text transform="matrix(1 0 0 1 257.6325 245.3993)" class="st2 st3">20.00</text>
<line class="st1" x1="288.7" y1="249.5" x2="288.7" y2="235.9"/>
<text transform="matrix(1 0 0 1 321.9489 245.3993)" class="st2 st3">30.00</text>
<line class="st1" x1="353.1" y1="249.5" x2="353.1" y2="235.9"/>
<text transform="matrix(1 0 0 1 386.2662 245.3993)" class="st2 st3">60.00</text>
<line class="st1" x1="417.4" y1="249.5" x2="417.4" y2="235.9"/>
<text transform="matrix(1 0 0 1 450.5836 245.3993)" class="st2 st3">80.00</text>
<line class="st1" x1="481.7" y1="249.5" x2="481.7" y2="235.9"/>
<line class="st1" x1="0" y1="249.7" x2="481.9" y2="249.7"/>
</svg>
