<?xml version="1.0" encoding="utf-8"?>
<!-- Generator: Adobe Illustrator 24.0.1, SVG Export Plug-In . SVG Version: 6.00 Build 0)  -->
<svg version="1.1" id="Ebene_1" xmlns="http://www.w3.org/2000/svg" xmlns:xlink="http://www.w3.org/1999/xlink" x="0px" y="0px"
	 viewBox="0 0 481.89026 249.86249" style="enable-background:new 0 0 481.89026 249.86249;" xml:space="preserve">
<style type="text/css">
	.st0{fill:none;stroke:#000000;stroke-width:0.3985;stroke-miterlimit:10;}
	.st1{font-family:'ArialMT';}
	.st2{font-size:9.9626px;}
	.st3{letter-spacing:2;}
</style>
<line class="st0" x1="0.00025" y1="0.19925" x2="481.89026" y2="0.19925"/>
<line class="st0" x1="0.19925" y1="13.9473" x2="0.19925" y2="0.39829"/>
<text transform="matrix(1 0 0 1 6.3761 9.88266)"><tspan x="0" y="0" class="st1 st2">Höh</tspan><tspan x="18.27588" y="0" class="st1 st2 st3">e</tspan><tspan x="26.56641" y="0" class="st1 st2">i</tspan><tspan x="28.77979" y="0" class="st1 st2 st3">n</tspan><tspan x="37.08008" y="0" class="st1 st2">cm</tspan></text>
<line class="st0" x1="62.96025" y1="13.9473" x2="62.96025" y2="0.39829"/>
<line class="st0" x1="95.78825" y1="13.9473" x2="95.78825" y2="0.39829"/>
<text transform="matrix(1 0 0 1 137.30627 9.88266)" class="st1 st2">100</text>
<line class="st0" x1="160.10526" y1="13.9473" x2="160.10526" y2="0.39829"/>
<text transform="matrix(1 0 0 1 202.3634 9.88266)"><tspan x="0" y="0" class="st1 st2">1</tspan><tspan x="4.80371" y="0" class="st1 st2">10</tspan></text>
<line class="st0" x1="224.42224" y1="13.9473" x2="224.42224" y2="0.39829"/>
<text transform="matrix(1 0 0 1 265.94006 9.88266)" class="st1 st2">120</text>
<line class="st0" x1="288.73926" y1="13.9473" x2="288.73926" y2="0.39829"/>
<text transform="matrix(1 0 0 1 330.25745 9.88266)" class="st1 st2">130</text>
<line class="st0" x1="353.05624" y1="13.9473" x2="353.05624" y2="0.39829"/>
<text transform="matrix(1 0 0 1 394.57385 9.88266)" class="st1 st2">140</text>
<line class="st0" x1="417.37326" y1="13.9473" x2="417.37326" y2="0.39829"/>
<text transform="matrix(1 0 0 1 458.8912 9.88266)" class="st1 st2">150</text>
<line class="st0" x1="481.69025" y1="13.9473" x2="481.69025" y2="0.39829"/>
<line class="st0" x1="0.19925" y1="27.49625" x2="0.19925" y2="13.9473"/>
<line class="st0" x1="62.96025" y1="27.49625" x2="62.96025" y2="13.9473"/>
<line class="st0" x1="95.78825" y1="27.49625" x2="95.78825" y2="13.9473"/>
<text transform="matrix(1 0 0 1 137.30627 23.43149)" class="st1 st2">105</text>
<line class="st0" x1="160.10526" y1="27.49625" x2="160.10526" y2="13.9473"/>
<text transform="matrix(1 0 0 1 202.3634 23.43149)"><tspan x="0" y="0" class="st1 st2">1</tspan><tspan x="4.80371" y="0" class="st1 st2">15</tspan></text>
<line class="st0" x1="224.42224" y1="27.49625" x2="224.42224" y2="13.9473"/>
<text transform="matrix(1 0 0 1 265.94006 23.43149)" class="st1 st2">125</text>
<line class="st0" x1="288.73926" y1="27.49625" x2="288.73926" y2="13.9473"/>
<text transform="matrix(1 0 0 1 330.25745 23.43149)" class="st1 st2">135</text>
<line class="st0" x1="353.05624" y1="27.49625" x2="353.05624" y2="13.9473"/>
<text transform="matrix(1 0 0 1 394.57385 23.43149)" class="st1 st2">145</text>
<line class="st0" x1="417.37326" y1="27.49625" x2="417.37326" y2="13.9473"/>
<text transform="matrix(1 0 0 1 458.8912 23.43149)" class="st1 st2">155</text>
<line class="st0" x1="481.69025" y1="27.49625" x2="481.69025" y2="13.9473"/>
<line class="st0" x1="0.00025" y1="27.69528" x2="481.89026" y2="27.69528"/>
<line class="st0" x1="0.19925" y1="41.44424" x2="0.19925" y2="27.89529"/>
<line class="st0" x1="62.96025" y1="41.44424" x2="62.96025" y2="27.89529"/>
<line class="st0" x1="95.78825" y1="41.44424" x2="95.78825" y2="27.89529"/>
<text transform="matrix(1 0 0 1 110.73645 37.37875)" class="st1 st2">B/R/N100</text>
<line class="st0" x1="160.10526" y1="41.44424" x2="160.10526" y2="27.89529"/>
<text transform="matrix(1 0 0 1 185.2052 37.37875)"><tspan x="0" y="0" class="st1 st2">R/N</tspan><tspan x="17.15723" y="0" class="st1 st2">1</tspan><tspan x="21.96094" y="0" class="st1 st2">10</tspan></text>
<line class="st0" x1="224.42224" y1="41.44424" x2="224.42224" y2="27.89529"/>
<text transform="matrix(1 0 0 1 248.78334 37.37875)" class="st1 st2">R/N120</text>
<line class="st0" x1="288.73926" y1="41.44424" x2="288.73926" y2="27.89529"/>
<text transform="matrix(1 0 0 1 313.10022 37.37875)" class="st1 st2">R/N130</text>
<line class="st0" x1="353.05624" y1="41.44424" x2="353.05624" y2="27.89529"/>
<text transform="matrix(1 0 0 1 387.38049 37.37875)" class="st1 st2">N140</text>
<line class="st0" x1="417.37326" y1="41.44424" x2="417.37326" y2="27.89529"/>
<text transform="matrix(1 0 0 1 451.6969 37.37875)" class="st1 st2">N150</text>
<line class="st0" x1="481.69025" y1="41.44424" x2="481.69025" y2="27.89529"/>
<line class="st0" x1="0.19925" y1="54.99326" x2="0.19925" y2="41.44424"/>
<line class="st0" x1="62.96025" y1="54.99326" x2="62.96025" y2="41.44424"/>
<line class="st0" x1="95.78825" y1="54.99326" x2="95.78825" y2="41.44424"/>
<text transform="matrix(1 0 0 1 110.73645 50.92856)" class="st1 st2">B/R/N105</text>
<line class="st0" x1="160.10526" y1="54.99326" x2="160.10526" y2="41.44424"/>
<text transform="matrix(1 0 0 1 185.2052 50.92856)"><tspan x="0" y="0" class="st1 st2">R/N</tspan><tspan x="17.15723" y="0" class="st1 st2">1</tspan><tspan x="21.96094" y="0" class="st1 st2">15</tspan></text>
<line class="st0" x1="224.42224" y1="54.99326" x2="224.42224" y2="41.44424"/>
<text transform="matrix(1 0 0 1 248.78334 50.92856)" class="st1 st2">R/N125</text>
<line class="st0" x1="288.73926" y1="54.99326" x2="288.73926" y2="41.44424"/>
<text transform="matrix(1 0 0 1 313.10022 50.92856)" class="st1 st2">R/N135</text>
<line class="st0" x1="353.05624" y1="54.99326" x2="353.05624" y2="41.44424"/>
<text transform="matrix(1 0 0 1 387.38049 50.92856)" class="st1 st2">N145</text>
<line class="st0" x1="417.37326" y1="54.99326" x2="417.37326" y2="41.44424"/>
<text transform="matrix(1 0 0 1 451.6969 50.92856)" class="st1 st2">N155</text>
<line class="st0" x1="481.69025" y1="54.99326" x2="481.69025" y2="41.44424"/>
<line class="st0" x1="0.19925" y1="68.54227" x2="0.19925" y2="54.99326"/>
<line class="st0" x1="62.96025" y1="68.54227" x2="62.96025" y2="54.99326"/>
<line class="st0" x1="95.78825" y1="68.54227" x2="95.78825" y2="54.99326"/>
<text transform="matrix(1 0 0 1 119.58021 64.47739)" class="st1 st2">Sen100</text>
<line class="st0" x1="160.10526" y1="68.54227" x2="160.10526" y2="54.99326"/>
<text transform="matrix(1 0 0 1 178.73108 64.47739)"><tspan x="0" y="0" class="st1 st2">J</tspan><tspan x="4.98145" y="0" class="st1 st2">1</tspan><tspan x="9.78467" y="0" class="st1 st2">10/</tspan><tspan x="23.63428" y="0" class="st1 st2">1</tspan><tspan x="28.4375" y="0" class="st1 st2">15</tspan></text>
<line class="st0" x1="224.42224" y1="68.54227" x2="224.42224" y2="54.99326"/>
<text transform="matrix(1 0 0 1 241.56946 64.47739)" class="st1 st2">J120/125</text>
<line class="st0" x1="288.73926" y1="68.54227" x2="288.73926" y2="54.99326"/>
<line class="st0" x1="353.05624" y1="68.54227" x2="353.05624" y2="54.99326"/>
<line class="st0" x1="417.37326" y1="68.54227" x2="417.37326" y2="54.99326"/>
<line class="st0" x1="481.69025" y1="68.54227" x2="481.69025" y2="54.99326"/>
<line class="st0" x1="0.19925" y1="82.09128" x2="0.19925" y2="68.54227"/>
<line class="st0" x1="62.96025" y1="82.09128" x2="62.96025" y2="68.54227"/>
<line class="st0" x1="95.78825" y1="82.09128" x2="95.78825" y2="68.54227"/>
<text transform="matrix(1 0 0 1 119.58021 78.02719)" class="st1 st2">Sen105</text>
<line class="st0" x1="160.10526" y1="82.09128" x2="160.10526" y2="68.54227"/>
<text transform="matrix(1 0 0 1 166.28235 78.02719)"><tspan x="0" y="0" class="st1 st2">Sen</tspan><tspan x="17.72656" y="0" class="st1 st2">1</tspan><tspan x="22.52979" y="0" class="st1 st2">10/</tspan><tspan x="36.37939" y="0" class="st1 st2">1</tspan><tspan x="41.18262" y="0" class="st1 st2">15</tspan></text>
<line class="st0" x1="224.42224" y1="82.09128" x2="224.42224" y2="68.54227"/>
<text transform="matrix(1 0 0 1 230.59923 78.02719)" class="st1 st2">Sen120/125</text>
<line class="st0" x1="288.73926" y1="82.09128" x2="288.73926" y2="68.54227"/>
<line class="st0" x1="353.05624" y1="82.09128" x2="353.05624" y2="68.54227"/>
<line class="st0" x1="417.37326" y1="82.09128" x2="417.37326" y2="68.54227"/>
<line class="st0" x1="481.69025" y1="82.09128" x2="481.69025" y2="68.54227"/>
<line class="st0" x1="0.00025" y1="82.29129" x2="481.89026" y2="82.29129"/>
<line class="st0" x1="0.19925" y1="96.03928" x2="0.19925" y2="82.49026"/>
<text transform="matrix(1 0 0 1 6.3761 91.97446)"><tspan x="0" y="0" class="st1 st2">1</tspan><tspan x="5.54053" y="0" class="st1 st2 st3">.</tspan><tspan x="11.06836" y="0" class="st1 st2">Rang</tspan></text>
<line class="st0" x1="62.96025" y1="96.03928" x2="62.96025" y2="82.49026"/>
<text transform="matrix(1 0 0 1 69.13635 91.97446)" class="st1 st2">CHF</text>
<line class="st0" x1="95.78825" y1="96.03928" x2="95.78825" y2="82.49026"/>
<text transform="matrix(1 0 0 1 123.45715 91.97446)" class="st1 st2">100.00</text>
<line class="st0" x1="160.10526" y1="96.03928" x2="160.10526" y2="82.49026"/>
<text transform="matrix(1 0 0 1 187.77405 91.97446)" class="st1 st2">150.00</text>
<line class="st0" x1="224.42224" y1="96.03928" x2="224.42224" y2="82.49026"/>
<text transform="matrix(1 0 0 1 252.09143 91.97446)" class="st1 st2">200.00</text>
<line class="st0" x1="288.73926" y1="96.03928" x2="288.73926" y2="82.49026"/>
<text transform="matrix(1 0 0 1 316.40784 91.97446)" class="st1 st2">300.00</text>
<line class="st0" x1="353.05624" y1="96.03928" x2="353.05624" y2="82.49026"/>
<text transform="matrix(1 0 0 1 380.72522 91.97446)" class="st1 st2">600.00</text>
<line class="st0" x1="417.37326" y1="96.03928" x2="417.37326" y2="82.49026"/>
<text transform="matrix(1 0 0 1 445.0426 91.97446)" class="st1 st2">800.00</text>
<line class="st0" x1="481.69025" y1="96.03928" x2="481.69025" y2="82.49026"/>
<line class="st0" x1="0.00025" y1="96.23825" x2="481.89026" y2="96.23825"/>
<line class="st0" x1="0.19925" y1="109.98727" x2="0.19925" y2="96.43826"/>
<text transform="matrix(1 0 0 1 6.3761 105.9227)"><tspan x="0" y="0" class="st1 st2">2</tspan><tspan x="5.54053" y="0" class="st1 st2 st3">.</tspan><tspan x="11.06836" y="0" class="st1 st2">Rang</tspan></text>
<line class="st0" x1="62.96025" y1="109.98727" x2="62.96025" y2="96.43826"/>
<text transform="matrix(1 0 0 1 69.13635 105.9227)" class="st1 st2">CHF</text>
<line class="st0" x1="95.78825" y1="109.98727" x2="95.78825" y2="96.43826"/>
<text transform="matrix(1 0 0 1 128.99719 105.9227)" class="st1 st2">80.00</text>
<line class="st0" x1="160.10526" y1="109.98727" x2="160.10526" y2="96.43826"/>
<text transform="matrix(1 0 0 1 187.77405 105.9227)" class="st1 st2">120.00</text>
<line class="st0" x1="224.42224" y1="109.98727" x2="224.42224" y2="96.43826"/>
<text transform="matrix(1 0 0 1 252.09143 105.9227)" class="st1 st2">160.00</text>
<line class="st0" x1="288.73926" y1="109.98727" x2="288.73926" y2="96.43826"/>
<text transform="matrix(1 0 0 1 316.40784 105.9227)" class="st1 st2">240.00</text>
<line class="st0" x1="353.05624" y1="109.98727" x2="353.05624" y2="96.43826"/>
<text transform="matrix(1 0 0 1 380.72522 105.9227)" class="st1 st2">480.00</text>
<line class="st0" x1="417.37326" y1="109.98727" x2="417.37326" y2="96.43826"/>
<text transform="matrix(1 0 0 1 445.0426 105.9227)" class="st1 st2">640.00</text>
<line class="st0" x1="481.69025" y1="109.98727" x2="481.69025" y2="96.43826"/>
<line class="st0" x1="0.00025" y1="110.18625" x2="481.89026" y2="110.18625"/>
<line class="st0" x1="0.19925" y1="123.93423" x2="0.19925" y2="110.38528"/>
<text transform="matrix(1 0 0 1 6.3761 119.86996)"><tspan x="0" y="0" class="st1 st2">3</tspan><tspan x="5.54053" y="0" class="st1 st2 st3">.</tspan><tspan x="11.06836" y="0" class="st1 st2">Rang</tspan></text>
<line class="st0" x1="62.96025" y1="123.93423" x2="62.96025" y2="110.38528"/>
<text transform="matrix(1 0 0 1 69.13635 119.86996)" class="st1 st2">CHF</text>
<line class="st0" x1="95.78825" y1="123.93423" x2="95.78825" y2="110.38528"/>
<text transform="matrix(1 0 0 1 128.99719 119.86996)" class="st1 st2">65.00</text>
<line class="st0" x1="160.10526" y1="123.93423" x2="160.10526" y2="110.38528"/>
<text transform="matrix(1 0 0 1 187.77405 119.86996)" class="st1 st2">100.00</text>
<line class="st0" x1="224.42224" y1="123.93423" x2="224.42224" y2="110.38528"/>
<text transform="matrix(1 0 0 1 252.09143 119.86996)" class="st1 st2">130.00</text>
<line class="st0" x1="288.73926" y1="123.93423" x2="288.73926" y2="110.38528"/>
<text transform="matrix(1 0 0 1 316.40784 119.86996)" class="st1 st2">195.00</text>
<line class="st0" x1="353.05624" y1="123.93423" x2="353.05624" y2="110.38528"/>
<text transform="matrix(1 0 0 1 380.72522 119.86996)" class="st1 st2">385.00</text>
<line class="st0" x1="417.37326" y1="123.93423" x2="417.37326" y2="110.38528"/>
<text transform="matrix(1 0 0 1 445.0426 119.86996)" class="st1 st2">515.00</text>
<line class="st0" x1="481.69025" y1="123.93423" x2="481.69025" y2="110.38528"/>
<line class="st0" x1="0.00025" y1="124.13425" x2="481.89026" y2="124.13425"/>
<line class="st0" x1="0.19925" y1="137.88223" x2="0.19925" y2="124.33328"/>
<text transform="matrix(1 0 0 1 6.3761 133.81723)"><tspan x="0" y="0" class="st1 st2">4</tspan><tspan x="5.54053" y="0" class="st1 st2 st3">.</tspan><tspan x="11.06836" y="0" class="st1 st2">Rang</tspan></text>
<line class="st0" x1="62.96025" y1="137.88223" x2="62.96025" y2="124.33328"/>
<text transform="matrix(1 0 0 1 69.13635 133.81723)" class="st1 st2">CHF</text>
<line class="st0" x1="95.78825" y1="137.88223" x2="95.78825" y2="124.33328"/>
<text transform="matrix(1 0 0 1 128.99719 133.81723)" class="st1 st2">55.00</text>
<line class="st0" x1="160.10526" y1="137.88223" x2="160.10526" y2="124.33328"/>
<text transform="matrix(1 0 0 1 193.31506 133.81723)" class="st1 st2">80.00</text>
<line class="st0" x1="224.42224" y1="137.88223" x2="224.42224" y2="124.33328"/>
<text transform="matrix(1 0 0 1 252.09143 133.81723)" class="st1 st2">105.00</text>
<line class="st0" x1="288.73926" y1="137.88223" x2="288.73926" y2="124.33328"/>
<text transform="matrix(1 0 0 1 316.40784 133.81723)" class="st1 st2">160.00</text>
<line class="st0" x1="353.05624" y1="137.88223" x2="353.05624" y2="124.33328"/>
<text transform="matrix(1 0 0 1 380.72522 133.81723)" class="st1 st2">310.00</text>
<line class="st0" x1="417.37326" y1="137.88223" x2="417.37326" y2="124.33328"/>
<text transform="matrix(1 0 0 1 445.0426 133.81723)" class="st1 st2">415.00</text>
<line class="st0" x1="481.69025" y1="137.88223" x2="481.69025" y2="124.33328"/>
<line class="st0" x1="0.00025" y1="138.08127" x2="481.89026" y2="138.08127"/>
<line class="st0" x1="0.19925" y1="151.83023" x2="0.19925" y2="138.28128"/>
<text transform="matrix(1 0 0 1 6.3761 147.76547)"><tspan x="0" y="0" class="st1 st2">5</tspan><tspan x="5.54053" y="0" class="st1 st2 st3">.</tspan><tspan x="11.06836" y="0" class="st1 st2">Rang</tspan></text>
<line class="st0" x1="62.96025" y1="151.83023" x2="62.96025" y2="138.28128"/>
<text transform="matrix(1 0 0 1 69.13635 147.76547)" class="st1 st2">CHF</text>
<line class="st0" x1="95.78825" y1="151.83023" x2="95.78825" y2="138.28128"/>
<text transform="matrix(1 0 0 1 128.99719 147.76547)" class="st1 st2">45.00</text>
<line class="st0" x1="160.10526" y1="151.83023" x2="160.10526" y2="138.28128"/>
<text transform="matrix(1 0 0 1 193.31506 147.76547)" class="st1 st2">65.00</text>
<line class="st0" x1="224.42224" y1="151.83023" x2="224.42224" y2="138.28128"/>
<text transform="matrix(1 0 0 1 257.63248 147.76547)" class="st1 st2">85.00</text>
<line class="st0" x1="288.73926" y1="151.83023" x2="288.73926" y2="138.28128"/>
<text transform="matrix(1 0 0 1 316.40784 147.76547)" class="st1 st2">130.00</text>
<line class="st0" x1="353.05624" y1="151.83023" x2="353.05624" y2="138.28128"/>
<text transform="matrix(1 0 0 1 380.72522 147.76547)" class="st1 st2">250.00</text>
<line class="st0" x1="417.37326" y1="151.83023" x2="417.37326" y2="138.28128"/>
<text transform="matrix(1 0 0 1 445.0426 147.76547)" class="st1 st2">335.00</text>
<line class="st0" x1="481.69025" y1="151.83023" x2="481.69025" y2="138.28128"/>
<line class="st0" x1="0.00025" y1="152.02927" x2="481.89026" y2="152.02927"/>
<line class="st0" x1="0.19925" y1="165.77829" x2="0.19925" y2="152.22824"/>
<text transform="matrix(1 0 0 1 6.3761 161.71371)"><tspan x="0" y="0" class="st1 st2">6</tspan><tspan x="5.54053" y="0" class="st1 st2 st3">.</tspan><tspan x="11.06836" y="0" class="st1 st2">Rang</tspan></text>
<line class="st0" x1="62.96025" y1="165.77829" x2="62.96025" y2="152.22824"/>
<text transform="matrix(1 0 0 1 69.13635 161.71371)" class="st1 st2">CHF</text>
<line class="st0" x1="95.78825" y1="165.77829" x2="95.78825" y2="152.22824"/>
<text transform="matrix(1 0 0 1 128.99719 161.71371)" class="st1 st2">40.00</text>
<line class="st0" x1="160.10526" y1="165.77829" x2="160.10526" y2="152.22824"/>
<text transform="matrix(1 0 0 1 193.31506 161.71371)" class="st1 st2">55.00</text>
<line class="st0" x1="224.42224" y1="165.77829" x2="224.42224" y2="152.22824"/>
<text transform="matrix(1 0 0 1 257.63248 161.71371)" class="st1 st2">70.00</text>
<line class="st0" x1="288.73926" y1="165.77829" x2="288.73926" y2="152.22824"/>
<text transform="matrix(1 0 0 1 316.40784 161.71371)" class="st1 st2">105.00</text>
<line class="st0" x1="353.05624" y1="165.77829" x2="353.05624" y2="152.22824"/>
<text transform="matrix(1 0 0 1 380.72522 161.71371)" class="st1 st2">200.00</text>
<line class="st0" x1="417.37326" y1="165.77829" x2="417.37326" y2="152.22824"/>
<text transform="matrix(1 0 0 1 445.0426 161.71371)" class="st1 st2">270.00</text>
<line class="st0" x1="481.69025" y1="165.77829" x2="481.69025" y2="152.22824"/>
<line class="st0" x1="0.00025" y1="165.97726" x2="481.89026" y2="165.97726"/>
<line class="st0" x1="0.19925" y1="179.72525" x2="0.19925" y2="166.17624"/>
<text transform="matrix(1 0 0 1 6.3761 175.66)"><tspan x="0" y="0" class="st1 st2">7</tspan><tspan x="5.54053" y="0" class="st1 st2 st3">.</tspan><tspan x="11.06836" y="0" class="st1 st2">Rang</tspan></text>
<line class="st0" x1="62.96025" y1="179.72525" x2="62.96025" y2="166.17624"/>
<text transform="matrix(1 0 0 1 69.13635 175.66)" class="st1 st2">CHF</text>
<line class="st0" x1="95.78825" y1="179.72525" x2="95.78825" y2="166.17624"/>
<text transform="matrix(1 0 0 1 128.99719 175.66)" class="st1 st2">35.00</text>
<line class="st0" x1="160.10526" y1="179.72525" x2="160.10526" y2="166.17624"/>
<text transform="matrix(1 0 0 1 193.31506 175.66)" class="st1 st2">45.00</text>
<line class="st0" x1="224.42224" y1="179.72525" x2="224.42224" y2="166.17624"/>
<text transform="matrix(1 0 0 1 257.63248 175.66)" class="st1 st2">60.00</text>
<line class="st0" x1="288.73926" y1="179.72525" x2="288.73926" y2="166.17624"/>
<text transform="matrix(1 0 0 1 321.94885 175.66)" class="st1 st2">85.00</text>
<line class="st0" x1="353.05624" y1="179.72525" x2="353.05624" y2="166.17624"/>
<text transform="matrix(1 0 0 1 380.72522 175.66)" class="st1 st2">160.00</text>
<line class="st0" x1="417.37326" y1="179.72525" x2="417.37326" y2="166.17624"/>
<text transform="matrix(1 0 0 1 445.0426 175.66)" class="st1 st2">220.00</text>
<line class="st0" x1="481.69025" y1="179.72525" x2="481.69025" y2="166.17624"/>
<line class="st0" x1="0.00025" y1="179.92429" x2="481.89026" y2="179.92429"/>
<line class="st0" x1="0.19925" y1="193.67325" x2="0.19925" y2="180.12424"/>
<text transform="matrix(1 0 0 1 6.3761 189.60825)"><tspan x="0" y="0" class="st1 st2">8</tspan><tspan x="5.54053" y="0" class="st1 st2 st3">.</tspan><tspan x="11.06836" y="0" class="st1 st2">Rang</tspan></text>
<line class="st0" x1="62.96025" y1="193.67325" x2="62.96025" y2="180.12424"/>
<text transform="matrix(1 0 0 1 69.13635 189.60825)" class="st1 st2">CHF</text>
<line class="st0" x1="95.78825" y1="193.67325" x2="95.78825" y2="180.12424"/>
<text transform="matrix(1 0 0 1 128.99719 189.60825)" class="st1 st2">30.00</text>
<line class="st0" x1="160.10526" y1="193.67325" x2="160.10526" y2="180.12424"/>
<text transform="matrix(1 0 0 1 193.31506 189.60825)" class="st1 st2">40.00</text>
<line class="st0" x1="224.42224" y1="193.67325" x2="224.42224" y2="180.12424"/>
<text transform="matrix(1 0 0 1 257.63248 189.60825)" class="st1 st2">50.00</text>
<line class="st0" x1="288.73926" y1="193.67325" x2="288.73926" y2="180.12424"/>
<text transform="matrix(1 0 0 1 321.94885 189.60825)" class="st1 st2">70.00</text>
<line class="st0" x1="353.05624" y1="193.67325" x2="353.05624" y2="180.12424"/>
<text transform="matrix(1 0 0 1 380.72522 189.60825)" class="st1 st2">130.00</text>
<line class="st0" x1="417.37326" y1="193.67325" x2="417.37326" y2="180.12424"/>
<text transform="matrix(1 0 0 1 445.0426 189.60825)" class="st1 st2">180.00</text>
<line class="st0" x1="481.69025" y1="193.67325" x2="481.69025" y2="180.12424"/>
<line class="st0" x1="0.00025" y1="193.87228" x2="481.89026" y2="193.87228"/>
<line class="st0" x1="0.19925" y1="207.62125" x2="0.19925" y2="194.07126"/>
<text transform="matrix(1 0 0 1 6.3761 203.55649)"><tspan x="0" y="0" class="st1 st2">9</tspan><tspan x="5.54053" y="0" class="st1 st2 st3">.</tspan><tspan x="11.06836" y="0" class="st1 st2">Rang</tspan></text>
<line class="st0" x1="62.96025" y1="207.62125" x2="62.96025" y2="194.07126"/>
<text transform="matrix(1 0 0 1 69.13635 203.55649)" class="st1 st2">CHF</text>
<line class="st0" x1="95.78825" y1="207.62125" x2="95.78825" y2="194.07126"/>
<text transform="matrix(1 0 0 1 128.99719 203.55649)" class="st1 st2">25.00</text>
<line class="st0" x1="160.10526" y1="207.62125" x2="160.10526" y2="194.07126"/>
<text transform="matrix(1 0 0 1 193.31506 203.55649)" class="st1 st2">35.00</text>
<line class="st0" x1="224.42224" y1="207.62125" x2="224.42224" y2="194.07126"/>
<text transform="matrix(1 0 0 1 257.63248 203.55649)" class="st1 st2">40.00</text>
<line class="st0" x1="288.73926" y1="207.62125" x2="288.73926" y2="194.07126"/>
<text transform="matrix(1 0 0 1 321.94885 203.55649)" class="st1 st2">60.00</text>
<line class="st0" x1="353.05624" y1="207.62125" x2="353.05624" y2="194.07126"/>
<text transform="matrix(1 0 0 1 380.72522 203.55649)" class="st1 st2">120.00</text>
<line class="st0" x1="417.37326" y1="207.62125" x2="417.37326" y2="194.07126"/>
<text transform="matrix(1 0 0 1 445.0426 203.55649)" class="st1 st2">160.00</text>
<line class="st0" x1="481.69025" y1="207.62125" x2="481.69025" y2="194.07126"/>
<line class="st0" x1="0.00025" y1="207.82028" x2="481.89026" y2="207.82028"/>
<line class="st0" x1="0.19925" y1="221.56827" x2="0.19925" y2="208.01926"/>
<text transform="matrix(1 0 0 1 6.3761 217.50278)"><tspan x="0" y="0" class="st1 st2">10</tspan><tspan x="11.08154" y="0" class="st1 st2 st3">.</tspan><tspan x="16.60889" y="0" class="st1 st2">Rang</tspan></text>
<line class="st0" x1="62.96025" y1="221.56827" x2="62.96025" y2="208.01926"/>
<text transform="matrix(1 0 0 1 69.13635 217.50278)" class="st1 st2">CHF</text>
<line class="st0" x1="95.78825" y1="221.56827" x2="95.78825" y2="208.01926"/>
<text transform="matrix(1 0 0 1 128.99719 217.50278)" class="st1 st2">20.00</text>
<line class="st0" x1="160.10526" y1="221.56827" x2="160.10526" y2="208.01926"/>
<text transform="matrix(1 0 0 1 193.31506 217.50278)" class="st1 st2">30.00</text>
<line class="st0" x1="224.42224" y1="221.56827" x2="224.42224" y2="208.01926"/>
<text transform="matrix(1 0 0 1 257.63248 217.50278)" class="st1 st2">40.00</text>
<line class="st0" x1="288.73926" y1="221.56827" x2="288.73926" y2="208.01926"/>
<text transform="matrix(1 0 0 1 321.94885 217.50278)" class="st1 st2">60.00</text>
<line class="st0" x1="353.05624" y1="221.56827" x2="353.05624" y2="208.01926"/>
<text transform="matrix(1 0 0 1 380.72522 217.50278)" class="st1 st2">120.00</text>
<line class="st0" x1="417.37326" y1="221.56827" x2="417.37326" y2="208.01926"/>
<text transform="matrix(1 0 0 1 445.0426 217.50278)" class="st1 st2">160.00</text>
<line class="st0" x1="481.69025" y1="221.56827" x2="481.69025" y2="208.01926"/>
<line class="st0" x1="0.00025" y1="221.76724" x2="481.89026" y2="221.76724"/>
<line class="st0" x1="0.19925" y1="235.51624" x2="0.19925" y2="221.96725"/>
<line class="st0" x1="62.96025" y1="235.51624" x2="62.96025" y2="221.96725"/>
<line class="st0" x1="95.78825" y1="235.51624" x2="95.78825" y2="221.96725"/>
<line class="st0" x1="160.10526" y1="235.51624" x2="160.10526" y2="221.96725"/>
<line class="st0" x1="224.42224" y1="235.51624" x2="224.42224" y2="221.96725"/>
<line class="st0" x1="288.73926" y1="235.51624" x2="288.73926" y2="221.96725"/>
<line class="st0" x1="353.05624" y1="235.51624" x2="353.05624" y2="221.96725"/>
<line class="st0" x1="417.37326" y1="235.51624" x2="417.37326" y2="221.96725"/>
<line class="st0" x1="481.69025" y1="235.51624" x2="481.69025" y2="221.96725"/>
<line class="st0" x1="0.00025" y1="235.71524" x2="481.89026" y2="235.71524"/>
<line class="st0" x1="0.19925" y1="249.46423" x2="0.19925" y2="235.91425"/>
<text transform="matrix(1 0 0 1 6.3761 245.39926)" class="st1 st2">Nenngeld**</text>
<line class="st0" x1="62.96025" y1="249.46423" x2="62.96025" y2="235.91425"/>
<line class="st0" x1="95.78825" y1="249.46423" x2="95.78825" y2="235.91425"/>
<text transform="matrix(1 0 0 1 128.99719 245.39926)" class="st1 st2">10.00</text>
<line class="st0" x1="160.10526" y1="249.46423" x2="160.10526" y2="235.91425"/>
<text transform="matrix(1 0 0 1 193.31506 245.39926)" class="st1 st2">15.00</text>
<line class="st0" x1="224.42224" y1="249.46423" x2="224.42224" y2="235.91425"/>
<text transform="matrix(1 0 0 1 257.63248 245.39926)" class="st1 st2">20.00</text>
<line class="st0" x1="288.73926" y1="249.46423" x2="288.73926" y2="235.91425"/>
<text transform="matrix(1 0 0 1 321.94885 245.39926)" class="st1 st2">30.00</text>
<line class="st0" x1="353.05624" y1="249.46423" x2="353.05624" y2="235.91425"/>
<text transform="matrix(1 0 0 1 386.26624 245.39926)" class="st1 st2">60.00</text>
<line class="st0" x1="417.37326" y1="249.46423" x2="417.37326" y2="235.91425"/>
<text transform="matrix(1 0 0 1 450.58362 245.39926)" class="st1 st2">80.00</text>
<line class="st0" x1="481.69025" y1="249.46423" x2="481.69025" y2="235.91425"/>
<line class="st0" x1="0.00025" y1="249.66324" x2="481.89026" y2="249.66324"/>
</svg>
