<?xml version="1.0" encoding="UTF-8"?>
<svg width="1152px" height="215px" viewBox="0 0 1152 215" version="1.1" xmlns="http://www.w3.org/2000/svg" xmlns:xlink="http://www.w3.org/1999/xlink">
    <!-- Generator: Sketch 60.1 (88133) - https://sketch.com -->
    <title>hn-2</title>
    <desc>Created with Sketch.</desc>
    <defs>
        <linearGradient x1="0.960208007%" y1="48.2915434%" x2="101.811635%" y2="51.7699089%" id="linearGradient-1">
            <stop stop-color="#FFFBFD" offset="0%"></stop>
            <stop stop-color="#F5F8FF" offset="99.9076225%"></stop>
        </linearGradient>
        <linearGradient x1="45.5%" y1="0%" x2="54.6799998%" y2="100.999999%" id="linearGradient-2">
            <stop stop-color="#3023AE" offset="0%"></stop>
            <stop stop-color="#C86DD7" offset="100%"></stop>
        </linearGradient>
        <linearGradient x1="48.875%" y1="0%" x2="51.17%" y2="100.999999%" id="linearGradient-3">
            <stop stop-color="#3023AE" offset="0%"></stop>
            <stop stop-color="#C86DD7" offset="100%"></stop>
        </linearGradient>
        <linearGradient x1="49.5%" y1="0%" x2="50.52%" y2="100.999999%" id="linearGradient-4">
            <stop stop-color="#3023AE" offset="0%"></stop>
            <stop stop-color="#C86DD7" offset="100%"></stop>
        </linearGradient>
        <linearGradient x1="50%" y1="0%" x2="50%" y2="100%" id="linearGradient-5">
            <stop stop-color="#FFFFFF" offset="0%"></stop>
            <stop stop-color="#D4D4D4" offset="49.7307855%"></stop>
            <stop stop-color="#FFFFFF" offset="100%"></stop>
        </linearGradient>
    </defs>
    <g id="hn-2" stroke="none" stroke-width="1" fill="none" fill-rule="evenodd">
        <rect id="Rectangle" fill="url(#linearGradient-1)" x="0" y="0" width="1152" height="215" rx="3"></rect>
        <rect id="Rectangle" fill="url(#linearGradient-2)" x="1039" y="59.75" width="3" height="10" rx="1.5"></rect>
        <rect id="Rectangle-Copy-4" fill="url(#linearGradient-2)" x="1079" y="59.75" width="3" height="10" rx="1.5"></rect>
        <rect id="Rectangle-Copy-6" fill="url(#linearGradient-2)" x="1099" y="59.75" width="3" height="10" rx="1.5"></rect>
        <rect id="Rectangle-Copy" fill="url(#linearGradient-3)" x="1049" y="55.25" width="3" height="20" rx="1.5"></rect>
        <rect id="Rectangle-Copy-5" fill="url(#linearGradient-3)" x="1089" y="55.25" width="3" height="20" rx="1.5"></rect>
        <rect id="Rectangle-Copy-3" fill="url(#linearGradient-3)" x="1069" y="55.25" width="3" height="20" rx="1.5"></rect>
        <rect id="Rectangle-Copy-2" fill="url(#linearGradient-4)" x="1059" y="50" width="3" height="30" rx="1.5"></rect>
        <path d="M789.798288,132.593751 L788.021301,128.656255 L791.102264,124.744327 L789.77272,124.744327 L786.551132,128.579551 L786.525564,128.707391 L786.538348,128.707391 L786.525564,128.758528 L788.468744,132.593751 L789.798288,132.593751 Z M786.525564,132.593751 L784.748577,128.656255 L787.82954,124.744327 L786.499996,124.744327 L783.278408,128.579551 L783.25284,128.707391 L783.265624,128.707391 L783.25284,128.758528 L785.19602,132.593751 L786.525564,132.593751 Z M796.416155,134 L801.043991,123.568192 L801.146264,123.568192 L802.296831,134 L803.933193,134 L809.686028,120.909103 L808.075234,120.909103 L803.575239,131.571025 L803.447398,131.571025 L802.424672,120.909103 L800.634901,120.909103 L796.083768,131.571025 L795.955928,131.571025 L794.984338,120.909103 L793.373544,120.909103 L794.779792,134 L796.416155,134 Z M810.704475,134 L811.676065,128.093756 C811.982883,126.380689 813.235723,125.409103 814.718676,125.409103 C816.124925,125.409103 816.840833,126.303985 816.585152,127.863642 L815.562425,134 L817.070946,134 L818.119241,127.76137 C818.528331,125.230122 817.377764,124.053987 815.383448,124.053987 C813.823791,124.053987 812.826632,124.693191 812.212997,125.715917 L812.085156,125.715917 L812.877769,120.909103 L811.369247,120.909103 L809.195954,134 L810.704475,134 Z M822.602167,122.519897 C823.190235,122.519897 823.67603,122.05967 823.67603,121.497171 C823.67603,120.934672 823.190235,120.474445 822.602167,120.474445 C822.0141,120.474445 821.528305,120.934672 821.528305,121.497171 C821.528305,122.05967 822.0141,122.519897 822.602167,122.519897 Z M821.259839,134 L822.896201,124.181828 L821.38768,124.181828 L819.751318,134 L821.259839,134 Z M827.903268,134.204545 C830.07017,134.204545 831.706532,132.875001 832.275423,131.136366 L830.766902,131.136366 C830.300283,132.210229 829.303125,132.849433 828.133382,132.849433 C826.337219,132.849433 825.416765,131.36648 825.80668,129.090914 C826.158242,126.866484 827.590058,125.409099 829.360653,125.409099 C830.683806,125.409099 831.348578,126.22728 831.431674,127.122166 L832.940195,127.122166 C832.98494,125.281258 831.629827,124.053987 829.565199,124.053987 C826.899718,124.053987 824.777561,126.150576 824.298158,129.14205 C823.805971,132.082388 825.135515,134.204545 827.903268,134.204545 Z M835.416021,134 L836.387611,128.093756 C836.694429,126.380689 837.947268,125.409103 839.430221,125.409103 C840.83647,125.409103 841.552379,126.303985 841.296697,127.863642 L840.273971,134 L841.782492,134 L842.830786,127.76137 C843.239877,125.230122 842.08931,124.053987 840.094994,124.053987 C838.535336,124.053987 837.538178,124.693191 836.924542,125.715917 L836.796701,125.715917 L837.589314,120.909103 L836.080793,120.909103 L833.907499,134 L835.416021,134 Z M853.5097,134.204545 C856.117652,134.204545 858.188673,132.235797 858.674468,129.244323 C859.179439,126.125008 857.702878,124.053987 854.992653,124.053987 C852.384701,124.053987 850.31368,126.022735 849.827885,129.039777 C849.329306,132.133525 850.799475,134.204545 853.5097,134.204545 Z M853.535268,132.849433 C851.56652,132.849433 850.978453,131.161935 851.28527,129.244323 C851.611264,127.224438 852.896064,125.409099 854.967085,125.409099 C856.935833,125.409099 857.523901,127.122166 857.217083,129.039777 C856.891089,131.066054 855.606289,132.849433 853.535268,132.849433 Z M861.610521,134 L862.582111,128.093756 C862.888929,126.380689 864.090632,125.409099 865.548017,125.409099 C866.954266,125.409099 867.644606,126.329553 867.388924,127.863642 L866.366198,134 L867.874719,134 L868.923014,127.76137 C869.332104,125.25569 868.181537,124.053987 866.212789,124.053987 C864.729836,124.053987 863.681542,124.718759 863.067906,125.715917 L862.940065,125.715917 L863.195747,124.181828 L861.738362,124.181828 L860.101999,134 L861.610521,134 Z M874.645996,134.204545 C876.646704,134.204545 878.257498,133.207387 878.967014,131.724434 L877.586334,131.315343 C877.030226,132.33807 876.084204,132.849433 874.876109,132.849433 C872.984065,132.849433 871.974123,132.005684 872.338469,129.602277 L879.478377,129.602277 L879.58065,128.963073 C880.200678,125.306826 878.23193,124.053987 876.180085,124.053987 C873.527389,124.053987 871.405232,126.150576 870.913045,129.167618 C870.408073,132.184661 871.814322,134.204545 874.645996,134.204545 Z M878.148833,128.298301 L872.549407,128.298301 C872.849833,126.904836 874.300825,125.409099 875.949972,125.409099 C877.592726,125.409099 878.436475,126.636371 878.148833,128.298301 Z M888.814963,122.519897 C889.40303,122.519897 889.888825,122.05967 889.888825,121.497171 C889.888825,120.934672 889.40303,120.474445 888.814963,120.474445 C888.226895,120.474445 887.7411,120.934672 887.7411,121.497171 C887.7411,122.05967 888.226895,122.519897 888.814963,122.519897 Z M887.472634,134 L889.108996,124.181828 L887.600475,124.181828 L885.964113,134 L887.472634,134 Z M893.425724,134.204545 C895.70129,134.204545 897.465492,132.951706 897.746742,131.264207 C897.976856,129.883527 897.260947,129.039777 895.573449,128.605119 L894.1672,128.247165 C893.067769,127.965915 892.607543,127.556824 892.735383,126.815348 C892.863224,125.971599 893.860382,125.357963 895.062086,125.357963 C896.39163,125.357963 896.80072,126.073871 896.954129,126.764211 L898.385946,126.380689 C898.130265,124.97444 897.235379,124.053987 895.292199,124.053987 C893.221178,124.053987 891.482544,125.230122 891.201294,126.892052 C890.971181,128.247165 891.635953,129.14205 893.374587,129.576709 L894.934245,129.960231 C895.905835,130.190345 896.289357,130.650571 896.161516,131.340912 C896.033676,132.184661 895.010949,132.875001 893.604701,132.875001 C892.377429,132.875001 891.687089,132.33807 891.610384,131.289775 L890.101863,131.64773 C890.178568,133.30966 891.405839,134.204545 893.425724,134.204545 Z M909.141563,134.204545 C911.596106,134.204545 913.641559,132.235797 914.152922,129.116482 C914.664285,126.022735 913.283605,124.053987 910.803493,124.053987 C908.885882,124.053987 908.093269,125.230122 907.684178,125.741485 L907.556337,125.741485 L908.34895,120.909103 L906.840429,120.909103 L904.667136,134 L906.124521,134 L906.380202,132.491479 L906.559179,132.491479 C906.814861,133.02841 907.24952,134.204545 909.141563,134.204545 Z M909.167131,132.849433 C907.351792,132.849433 906.610316,131.315343 906.96827,129.090914 C907.326224,126.892052 908.553496,125.409099 910.394403,125.409099 C912.312015,125.409099 912.976787,127.019893 912.644401,129.090914 C912.286447,131.187503 911.059175,132.849433 909.167131,132.849433 Z M919.620223,134.204545 C922.228175,134.204545 924.299196,132.235797 924.784991,129.244323 C925.289962,126.125008 923.813401,124.053987 921.103176,124.053987 C918.495224,124.053987 916.424203,126.022735 915.938408,129.039777 C915.439829,132.133525 916.909998,134.204545 919.620223,134.204545 Z M919.645791,132.849433 C917.677043,132.849433 917.088975,131.161935 917.395793,129.244323 C917.721787,127.224438 919.006587,125.409099 921.077608,125.409099 C923.046356,125.409099 923.634424,127.122166 923.327606,129.039777 C923.001612,131.066054 921.716812,132.849433 919.645791,132.849433 Z M929.510814,134.127841 C930.073314,134.127841 930.456836,134.025568 930.68695,133.948864 L930.584677,132.593751 C930.456836,132.619319 930.252291,132.670456 929.919905,132.670456 C929.255133,132.670456 928.641497,132.465911 928.846042,131.187503 L929.798456,125.460235 L931.914221,125.460235 L932.118767,124.181828 L930.015786,124.181828 L930.4057,121.829557 L928.897179,121.829557 L928.507264,124.181828 L927.030703,124.181828 L926.826158,125.460235 L928.296327,125.460235 L927.286385,131.596593 C927.005135,133.30966 928.232407,134.127841 929.510814,134.127841 Z M934.390043,134 L935.361633,128.093756 C935.668451,126.380689 936.921291,125.409103 938.404244,125.409103 C939.810493,125.409103 940.526401,126.303985 940.27072,127.863642 L939.247993,134 L940.756515,134 L941.804809,127.76137 C942.2139,125.230122 941.063333,124.053987 939.069016,124.053987 C937.509359,124.053987 936.512201,124.693191 935.898565,125.715917 L935.770724,125.715917 L936.563337,120.909103 L935.054816,120.909103 L932.881522,134 L934.390043,134 Z M947.527791,134.204545 C949.528499,134.204545 951.139293,133.207387 951.84881,131.724434 L950.468129,131.315343 C949.912022,132.33807 948.966,132.849433 947.757904,132.849433 C945.865861,132.849433 944.855919,132.005684 945.220265,129.602277 L952.360173,129.602277 L952.462445,128.963073 C953.082473,125.306826 951.113725,124.053987 949.06188,124.053987 C946.409184,124.053987 944.287027,126.150576 943.79484,129.167618 C943.289869,132.184661 944.696118,134.204545 947.527791,134.204545 Z M951.030629,128.298301 L945.431202,128.298301 C945.731628,126.904836 947.182621,125.409099 948.831767,125.409099 C950.474521,125.409099 951.31827,126.636371 951.030629,128.298301 Z M955.37293,134 L956.395656,127.786938 C956.62577,126.457394 957.827473,125.485804 959.25929,125.485804 C959.66838,125.485804 960.077471,125.562508 960.179743,125.588076 L960.435425,124.053987 C960.256448,124.028419 959.872926,124.028419 959.642812,124.028419 C958.466677,124.028419 957.31611,124.693191 956.804747,125.664781 L956.702474,125.664781 L956.958156,124.181828 L955.500771,124.181828 L953.864409,134 L955.37293,134 Z M963.35869,122.519897 C963.946758,122.519897 964.432553,122.05967 964.432553,121.497171 C964.432553,120.934672 963.946758,120.474445 963.35869,120.474445 C962.770622,120.474445 962.284827,120.934672 962.284827,121.497171 C962.284827,122.05967 962.770622,122.519897 963.35869,122.519897 Z M962.016362,134 L963.652724,124.181828 L962.144202,124.181828 L960.50784,134 L962.016362,134 Z M966.205248,134 L967.176838,128.093756 C967.483656,126.380689 968.685359,125.409099 970.142744,125.409099 C971.548993,125.409099 972.239333,126.329553 971.983652,127.863642 L970.960925,134 L972.469447,134 L973.517741,127.76137 C973.926832,125.25569 972.776264,124.053987 970.807516,124.053987 C969.324563,124.053987 968.276269,124.718759 967.662633,125.715917 L967.534792,125.715917 L967.790474,124.181828 L966.333089,124.181828 L964.696727,134 L966.205248,134 Z M978.499246,137.88636 C980.838733,137.88636 982.909753,136.812497 983.331628,134.28125 L984.993558,124.181828 L983.536173,124.181828 L983.280492,125.741485 L983.127083,125.741485 C982.884185,125.230122 982.462311,124.053987 980.544699,124.053987 C978.064588,124.053987 976.025527,126.022735 975.53334,129.039777 C975.021977,132.107956 976.524106,133.846591 978.908337,133.846591 C980.819557,133.846591 981.618561,132.721592 982.027652,132.184661 L982.155493,132.184661 L981.848675,134.178977 C981.567425,135.815339 980.250665,136.556816 978.678223,136.556816 C976.875668,136.556816 976.453794,135.617186 976.146976,135.073863 L974.791863,135.917612 C975.245698,136.94673 976.293993,137.88636 978.499246,137.88636 Z M979.291859,132.491479 C977.387031,132.491479 976.703083,131.059662 977.041861,129.014209 C977.374247,127.019893 978.51203,125.409099 980.442426,125.409099 C982.270549,125.409099 983.069554,126.892052 982.717992,129.014209 C982.360038,131.187503 981.094414,132.491479 979.291859,132.491479 Z M991.389806,137.656247 C992.71935,137.656247 993.831565,136.972298 994.66253,135.419033 L1000.68383,124.181828 L998.983549,124.181828 L994.969348,132.031252 L994.867075,132.031252 L993.460827,124.181828 L991.888385,124.181828 L993.857133,134 L993.435259,134.767045 C992.629862,136.230822 991.977874,136.428975 990.929579,136.147725 L990.315943,137.477269 C990.456568,137.553974 990.878443,137.656247 991.389806,137.656247 Z M1004.68096,134.204545 C1007.28891,134.204545 1009.35993,132.235797 1009.84573,129.244323 C1010.3507,126.125008 1008.87414,124.053987 1006.16391,124.053987 C1003.55596,124.053987 1001.48494,126.022735 1000.99915,129.039777 C1000.50057,132.133525 1001.97074,134.204545 1004.68096,134.204545 Z M1004.70653,132.849433 C1002.73778,132.849433 1002.14971,131.161935 1002.45653,129.244323 C1002.78253,127.224438 1004.06733,125.409099 1006.13835,125.409099 C1008.10709,125.409099 1008.69516,127.122166 1008.38834,129.039777 C1008.06235,131.066054 1006.77755,132.849433 1004.70653,132.849433 Z M1014.41814,134.127841 C1015.9011,134.127841 1017.0261,133.335228 1017.63973,132.33807 L1017.742,132.33807 L1017.46075,134 L1018.96928,134 L1020.60564,124.181828 L1019.09712,124.181828 L1018.12553,129.985799 C1017.81871,131.826707 1016.28462,132.670456 1015.15962,132.670456 C1013.90678,132.670456 1013.1653,131.750002 1013.39542,130.318185 L1014.41814,124.181828 L1012.90962,124.181828 L1011.86133,130.420458 C1011.45224,132.926137 1012.57724,134.127841 1014.41814,134.127841 Z M1029.92944,134.127841 C1030.49194,134.127841 1030.87546,134.025568 1031.10557,133.948864 L1031.0033,132.593751 C1030.87546,132.619319 1030.67092,132.670456 1030.33853,132.670456 C1029.67376,132.670456 1029.06012,132.465911 1029.26467,131.187503 L1030.21708,125.460235 L1032.33285,125.460235 L1032.53739,124.181828 L1030.43441,124.181828 L1030.82433,121.829557 L1029.3158,121.829557 L1028.92589,124.181828 L1027.44933,124.181828 L1027.24478,125.460235 L1028.71495,125.460235 L1027.70501,131.596593 C1027.42376,133.30966 1028.65103,134.127841 1029.92944,134.127841 Z M1034.80867,134 L1035.78026,128.093756 C1036.08708,126.380689 1037.33992,125.409103 1038.82287,125.409103 C1040.22912,125.409103 1040.94503,126.303985 1040.68934,127.863642 L1039.66662,134 L1041.17514,134 L1042.22343,127.76137 C1042.63252,125.230122 1041.48196,124.053987 1039.48764,124.053987 C1037.92798,124.053987 1036.93083,124.693191 1036.31719,125.715917 L1036.18935,125.715917 L1036.98196,120.909103 L1035.47344,120.909103 L1033.30015,134 L1034.80867,134 Z M1047.94642,134.204545 C1049.94712,134.204545 1051.55792,133.207387 1052.26743,131.724434 L1050.88675,131.315343 C1050.33065,132.33807 1049.38462,132.849433 1048.17653,132.849433 C1046.28449,132.849433 1045.27454,132.005684 1045.63889,129.602277 L1052.7788,129.602277 L1052.88107,128.963073 C1053.5011,125.306826 1051.53235,124.053987 1049.48051,124.053987 C1046.82781,124.053987 1044.70565,126.150576 1044.21347,129.167618 C1043.70849,132.184661 1045.11474,134.204545 1047.94642,134.204545 Z M1051.44925,128.298301 L1045.84983,128.298301 C1046.15025,126.904836 1047.60125,125.409099 1049.25039,125.409099 C1050.89315,125.409099 1051.7369,126.636371 1051.44925,128.298301 Z M1060.77305,134 L1061.79578,127.863642 C1062.02589,126.431825 1063.25317,125.409099 1064.4293,125.409099 C1065.57987,125.409099 1066.24464,126.150576 1066.06566,127.275575 L1064.94066,134 L1066.47475,134 L1067.54862,127.607961 C1067.75316,126.329553 1068.69918,125.409099 1070.07986,125.409099 C1071.15373,125.409099 1071.97191,125.971599 1071.74179,127.428984 L1070.64236,134 L1072.15088,134 L1073.25032,127.428984 C1073.63384,125.127849 1072.55998,124.053987 1070.82134,124.053987 C1069.41509,124.053987 1068.26453,124.693191 1067.59975,125.715917 L1067.49748,125.715917 C1067.19066,124.667623 1066.42362,124.053987 1065.14521,124.053987 C1063.8668,124.053987 1062.81851,124.667623 1062.23044,125.715917 L1062.1026,125.715917 L1062.35828,124.181828 L1060.9009,124.181828 L1059.26453,134 L1060.77305,134 Z M1078.8966,134.204545 C1081.50455,134.204545 1083.57557,132.235797 1084.06137,129.244323 C1084.56634,126.125008 1083.08978,124.053987 1080.37955,124.053987 C1077.7716,124.053987 1075.70058,126.022735 1075.21478,129.039777 C1074.7162,132.133525 1076.18637,134.204545 1078.8966,134.204545 Z M1078.92217,132.849433 C1076.95342,132.849433 1076.36535,131.161935 1076.67217,129.244323 C1076.99816,127.224438 1078.28296,125.409099 1080.35398,125.409099 C1082.32273,125.409099 1082.9108,127.122166 1082.60398,129.039777 C1082.27799,131.066054 1080.99319,132.849433 1078.92217,132.849433 Z M1088.76162,134.204545 C1091.03719,134.204545 1092.80139,132.951706 1093.08264,131.264207 C1093.31275,129.883527 1092.59684,129.039777 1090.90935,128.605119 L1089.5031,128.247165 C1088.40367,127.965915 1087.94344,127.556824 1088.07128,126.815348 C1088.19912,125.971599 1089.19628,125.357963 1090.39798,125.357963 C1091.72753,125.357963 1092.13662,126.073871 1092.29003,126.764211 L1093.72184,126.380689 C1093.46616,124.97444 1092.57128,124.053987 1090.6281,124.053987 C1088.55708,124.053987 1086.81844,125.230122 1086.53719,126.892052 C1086.30708,128.247165 1086.97185,129.14205 1088.71049,129.576709 L1090.27014,129.960231 C1091.24173,130.190345 1091.62525,130.650571 1091.49741,131.340912 C1091.36957,132.184661 1090.34685,132.875001 1088.9406,132.875001 C1087.71333,132.875001 1087.02299,132.33807 1086.94628,131.289775 L1085.43776,131.64773 C1085.51447,133.30966 1086.74174,134.204545 1088.76162,134.204545 Z M1098.11528,134.127841 C1098.67778,134.127841 1099.0613,134.025568 1099.29142,133.948864 L1099.18914,132.593751 C1099.0613,132.619319 1098.85676,132.670456 1098.52437,132.670456 C1097.8596,132.670456 1097.24596,132.465911 1097.45051,131.187503 L1098.40292,125.460235 L1100.51869,125.460235 L1100.72323,124.181828 L1098.62025,124.181828 L1099.01017,121.829557 L1097.50164,121.829557 L1097.11173,124.181828 L1095.63517,124.181828 L1095.43062,125.460235 L1096.90079,125.460235 L1095.89085,131.596593 C1095.6096,133.30966 1096.83687,134.127841 1098.11528,134.127841 Z M787.241472,159.204545 C789.696015,159.204545 791.741468,157.235797 792.252831,154.116482 C792.764194,151.022735 791.383514,149.053987 788.903403,149.053987 C786.985791,149.053987 786.193178,150.230122 785.784087,150.741485 L785.656247,150.741485 L786.448859,145.909103 L784.940338,145.909103 L782.767045,159 L784.22443,159 L784.480111,157.491479 L784.659088,157.491479 C784.91477,158.02841 785.349429,159.204545 787.241472,159.204545 Z M787.26704,157.849433 C785.451701,157.849433 784.710225,156.315343 785.068179,154.090914 C785.426133,151.892052 786.653405,150.409099 788.494312,150.409099 C790.411924,150.409099 791.076696,152.019893 790.74431,154.090914 C790.386356,156.187503 789.159084,157.849433 787.26704,157.849433 Z M797.7457,159.204545 C799.746408,159.204545 801.357202,158.207387 802.066719,156.724434 L800.686038,156.315343 C800.129931,157.33807 799.183909,157.849433 797.975814,157.849433 C796.08377,157.849433 795.073828,157.005684 795.438174,154.602277 L802.578082,154.602277 L802.680354,153.963073 C803.300382,150.306826 801.331634,149.053987 799.27979,149.053987 C796.627093,149.053987 794.504936,151.150576 794.012749,154.167618 C793.507778,157.184661 794.914027,159.204545 797.7457,159.204545 Z M801.248538,153.298301 L795.649111,153.298301 C795.949537,151.904836 797.40053,150.409099 799.049676,150.409099 C800.69243,150.409099 801.536179,151.636371 801.248538,153.298301 Z M807.38061,159.127841 C807.943109,159.127841 808.326632,159.025568 808.556745,158.948864 L808.454473,157.593751 C808.326632,157.619319 808.122087,157.670456 807.7897,157.670456 C807.124928,157.670456 806.511293,157.465911 806.715838,156.187503 L807.668252,150.460235 L809.784017,150.460235 L809.988562,149.181828 L807.885581,149.181828 L808.275495,146.829557 L806.766974,146.829557 L806.37706,149.181828 L804.900499,149.181828 L804.695953,150.460235 L806.166122,150.460235 L805.15618,156.596593 C804.874931,158.30966 806.102202,159.127841 807.38061,159.127841 Z M814.254155,159 L817.65472,151.457394 L817.808129,151.457394 L818.703014,159 L820.185968,159 L824.813804,149.181828 L823.228578,149.181828 L819.853581,156.673298 L819.751309,156.673298 L818.933128,149.181828 L817.322334,149.181828 L813.972905,156.698866 L813.870633,156.698866 L813.001315,149.181828 L811.41609,149.181828 L812.771202,159 L814.254155,159 Z M828.849291,159.204545 C830.849999,159.204545 832.460793,158.207387 833.17031,156.724434 L831.789629,156.315343 C831.233522,157.33807 830.2875,157.849433 829.079404,157.849433 C827.187361,157.849433 826.177419,157.005684 826.541765,154.602277 L833.681673,154.602277 L833.783945,153.963073 C834.403973,150.306826 832.435225,149.053987 830.38338,149.053987 C827.730684,149.053987 825.608527,151.150576 825.11634,154.167618 C824.611369,157.184661 826.017618,159.204545 828.849291,159.204545 Z M832.352129,153.298301 L826.752702,153.298301 C827.053128,151.904836 828.504121,150.409099 830.153267,150.409099 C831.796021,150.409099 832.63977,151.636371 832.352129,153.298301 Z M839.276814,159.204545 C841.277522,159.204545 842.888316,158.207387 843.597832,156.724434 L842.217152,156.315343 C841.661044,157.33807 840.715023,157.849433 839.506927,157.849433 C837.614884,157.849433 836.604941,157.005684 836.969288,154.602277 L844.109195,154.602277 L844.211468,153.963073 C844.831496,150.306826 842.862748,149.053987 840.810903,149.053987 C838.158207,149.053987 836.03605,151.150576 835.543863,154.167618 C835.038892,157.184661 836.44514,159.204545 839.276814,159.204545 Z M842.779651,153.298301 L837.180225,153.298301 C837.480651,151.904836 838.931644,150.409099 840.58079,150.409099 C842.223544,150.409099 843.067293,151.636371 842.779651,153.298301 Z M847.121953,159 L848.093543,153.093756 C848.40036,151.380689 849.602064,150.409099 851.059449,150.409099 C852.465697,150.409099 853.156038,151.329553 852.900356,152.863642 L851.87763,159 L853.386151,159 L854.434446,152.76137 C854.843536,150.25569 853.692969,149.053987 851.724221,149.053987 C850.241268,149.053987 849.192973,149.718759 848.579338,150.715917 L848.451497,150.715917 L848.707178,149.181828 L847.249793,149.181828 L845.613431,159 L847.121953,159 Z M865.445745,159 L870.712786,149.181828 L869.012503,149.181828 L864.998303,157.005684 L864.89603,157.005684 L863.489781,149.181828 L861.91734,149.181828 L863.911656,159 L865.445745,159 Z M874.697132,159.204545 C877.305084,159.204545 879.376105,157.235797 879.8619,154.244323 C880.366871,151.125008 878.89031,149.053987 876.180085,149.053987 C873.572133,149.053987 871.501112,151.022735 871.015317,154.039777 C870.516738,157.133525 871.986907,159.204545 874.697132,159.204545 Z M874.7227,157.849433 C872.753952,157.849433 872.165884,156.161935 872.472702,154.244323 C872.798696,152.224438 874.083496,150.409099 876.154517,150.409099 C878.123265,150.409099 878.711333,152.122166 878.404515,154.039777 C878.078521,156.066054 876.793721,157.849433 874.7227,157.849433 Z M882.797953,159 L883.820679,152.863642 C884.050792,151.431825 885.278064,150.409099 886.454199,150.409099 C887.604766,150.409099 888.269538,151.150576 888.090561,152.275575 L886.965562,159 L888.499652,159 L889.573514,152.607961 C889.77806,151.329553 890.724081,150.409099 892.104762,150.409099 C893.178624,150.409099 893.996806,150.971599 893.766692,152.428984 L892.667261,159 L894.175783,159 L895.275213,152.428984 C895.658736,150.127849 894.584873,149.053987 892.846238,149.053987 C891.43999,149.053987 890.289431,149.693191 889.624651,150.715917 L889.522378,150.715917 C889.21556,149.667623 888.448515,149.053987 887.170107,149.053987 C885.8917,149.053987 884.843405,149.667623 884.255338,150.715917 L884.127497,150.715917 L884.383178,149.181828 L882.925793,149.181828 L881.289431,159 L882.797953,159 Z M899.707008,147.519897 C900.295076,147.519897 900.780871,147.05967 900.780871,146.497171 C900.780871,145.934672 900.295076,145.474445 899.707008,145.474445 C899.11894,145.474445 898.633145,145.934672 898.633145,146.497171 C898.633145,147.05967 899.11894,147.519897 899.707008,147.519897 Z M898.36468,159 L900.001042,149.181828 L898.492521,149.181828 L896.856159,159 L898.36468,159 Z M904.343337,159.127841 C904.905837,159.127841 905.289359,159.025568 905.519472,158.948864 L905.4172,157.593751 C905.289359,157.619319 905.084814,157.670456 904.752428,157.670456 C904.087656,157.670456 903.47402,157.465911 903.678565,156.187503 L904.630979,150.460235 L906.746744,150.460235 L906.951289,149.181828 L904.848308,149.181828 L905.238223,146.829557 L903.729701,146.829557 L903.339787,149.181828 L901.863226,149.181828 L901.658681,150.460235 L903.12885,150.460235 L902.118908,156.596593 C901.837658,158.30966 903.064929,159.127841 904.343337,159.127841 Z M910.360349,147.519897 C910.948417,147.519897 911.434212,147.05967 911.434212,146.497171 C911.434212,145.934672 910.948417,145.474445 910.360349,145.474445 C909.772281,145.474445 909.286486,145.934672 909.286486,146.497171 C909.286486,147.05967 909.772281,147.519897 910.360349,147.519897 Z M909.018021,159 L910.654383,149.181828 L909.145862,149.181828 L907.509499,159 L909.018021,159 Z M913.206907,159 L914.178497,153.093756 C914.485315,151.380689 915.687018,150.409099 917.144403,150.409099 C918.550652,150.409099 919.240992,151.329553 918.985311,152.863642 L917.962584,159 L919.471106,159 L920.5194,152.76137 C920.928491,150.25569 919.777924,149.053987 917.809175,149.053987 C916.326222,149.053987 915.277928,149.718759 914.664292,150.715917 L914.536451,150.715917 L914.792133,149.181828 L913.334748,149.181828 L911.698386,159 L913.206907,159 Z M925.500905,162.88636 C927.840392,162.88636 929.911413,161.812497 930.333287,159.28125 L931.995217,149.181828 L930.537832,149.181828 L930.282151,150.741485 L930.128742,150.741485 C929.885844,150.230122 929.46397,149.053987 927.546358,149.053987 C925.066247,149.053987 923.027186,151.022735 922.534999,154.039777 C922.023636,157.107956 923.525765,158.846591 925.909996,158.846591 C927.821216,158.846591 928.620221,157.721592 929.029311,157.184661 L929.157152,157.184661 L928.850334,159.178977 C928.569084,160.815339 927.252324,161.556816 925.679882,161.556816 C923.877327,161.556816 923.455453,160.617186 923.148635,160.073863 L921.793523,160.917612 C922.247357,161.94673 923.295652,162.88636 925.500905,162.88636 Z M926.293518,157.491479 C924.388691,157.491479 923.704742,156.059662 924.04352,154.014209 C924.375906,152.019893 925.513689,150.409099 927.444085,150.409099 C929.272209,150.409099 930.071214,151.892052 929.719651,154.014209 C929.361697,156.187503 928.096073,157.491479 926.293518,157.491479 Z M940.88436,159.230113 C942.597427,159.230113 943.645721,158.30966 944.054812,157.670456 L944.131516,157.670456 L943.901403,159 L945.409924,159 L946.483787,152.531256 C946.99515,149.411941 944.694016,149.053987 943.441176,149.053987 C941.958223,149.053987 940.168452,149.56535 939.120158,151.355121 L940.449702,151.866484 C940.909929,151.150576 941.881519,150.383531 943.313335,150.383531 C944.694016,150.383531 945.205379,151.125008 945.000834,152.377847 L945.000834,152.428984 C944.872993,153.144892 944.131516,153.093756 942.316177,153.323869 C940.449702,153.553987 938.404249,153.963073 938.020727,156.213071 C937.713909,158.130683 939.017885,159.230113 940.88436,159.230113 Z M941.319019,157.875001 C940.117316,157.875001 939.350271,157.33807 939.529248,156.289775 C939.708225,155.139208 940.833224,154.781254 942.034927,154.627845 C942.674131,154.551141 944.412766,154.372164 944.719584,154.065346 L944.489471,155.446026 C944.284925,156.673298 943.10879,157.875001 941.319019,157.875001 Z M949.598816,159 L950.570406,153.093756 C950.877224,151.380689 952.078927,150.409099 953.536312,150.409099 C954.942561,150.409099 955.632901,151.329553 955.37722,152.863642 L954.354493,159 L955.863015,159 L956.911309,152.76137 C957.3204,150.25569 956.169833,149.053987 954.201085,149.053987 C952.718131,149.053987 951.669837,149.718759 951.056201,150.715917 L950.92836,150.715917 L951.184042,149.181828 L949.726657,149.181828 L948.090295,159 L949.598816,159 Z M962.250769,159.204545 C964.13642,159.204545 964.973777,158.02841 965.395652,157.491479 L965.574629,157.491479 L965.318948,159 L966.776333,159 L968.949626,145.909103 L967.441105,145.909103 L966.635708,150.741485 L966.507867,150.741485 C966.264969,150.230122 965.868663,149.053987 963.951051,149.053987 C961.47094,149.053987 959.431879,151.022735 958.914124,154.116482 C958.402761,157.235797 959.789834,159.204545 962.250769,159.204545 Z M962.621507,157.849433 C960.729463,157.849433 960.083867,156.187503 960.435429,154.090914 C960.774208,152.019893 961.937559,150.409099 963.848778,150.409099 C965.696078,150.409099 966.475907,151.892052 966.11156,154.090914 C965.740822,156.315343 964.436846,157.849433 962.621507,157.849433 Z M977.941042,159.127841 C978.503541,159.127841 978.887064,159.025568 979.117177,158.948864 L979.014904,157.593751 C978.887064,157.619319 978.682518,157.670456 978.350132,157.670456 C977.68536,157.670456 977.071724,157.465911 977.27627,156.187503 L978.228684,150.460235 L980.344449,150.460235 L980.548994,149.181828 L978.446013,149.181828 L978.835927,146.829557 L977.327406,146.829557 L976.937492,149.181828 L975.460931,149.181828 L975.256385,150.460235 L976.726554,150.460235 L975.716612,156.596593 C975.435362,158.30966 976.662634,159.127841 977.941042,159.127841 Z M982.820271,159 L983.791861,153.093756 C984.098679,151.380689 985.351518,150.409103 986.834471,150.409103 C988.24072,150.409103 988.956629,151.303985 988.700947,152.863642 L987.678221,159 L989.186742,159 L990.235036,152.76137 C990.644127,150.230122 989.49356,149.053987 987.499244,149.053987 C985.939586,149.053987 984.942428,149.693191 984.328792,150.715917 L984.200951,150.715917 L984.993564,145.909103 L983.485043,145.909103 L981.311749,159 L982.820271,159 Z M993.375634,159 L994.398361,152.786938 C994.628474,151.457394 995.830178,150.485804 997.261994,150.485804 C997.671085,150.485804 998.080175,150.562508 998.182448,150.588076 L998.43813,149.053987 C998.259152,149.028419 997.87563,149.028419 997.645517,149.028419 C996.469381,149.028419 995.318814,149.693191 994.807451,150.664781 L994.705179,150.664781 L994.96086,149.181828 L993.503475,149.181828 L991.867113,159 L993.375634,159 Z M1002.26906,159.204545 C1004.87702,159.204545 1006.94804,157.235797 1007.43383,154.244323 C1007.9388,151.125008 1006.46224,149.053987 1003.75202,149.053987 C1001.14406,149.053987 999.073044,151.022735 998.587249,154.039777 C998.08867,157.133525 999.558839,159.204545 1002.26906,159.204545 Z M1002.29463,157.849433 C1000.32588,157.849433 999.737816,156.161935 1000.04463,154.244323 C1000.37063,152.224438 1001.65543,150.409099 1003.72645,150.409099 C1005.6952,150.409099 1006.28326,152.122166 1005.97645,154.039777 C1005.65045,156.066054 1004.36565,157.849433 1002.29463,157.849433 Z M1011.725,159.230113 C1013.43806,159.230113 1014.48636,158.30966 1014.89545,157.670456 L1014.97215,157.670456 L1014.74204,159 L1016.25056,159 L1017.32442,152.531256 C1017.83579,149.411941 1015.53465,149.053987 1014.28181,149.053987 C1012.79886,149.053987 1011.00909,149.56535 1009.96079,151.355121 L1011.29034,151.866484 C1011.75056,151.150576 1012.72215,150.383531 1014.15397,150.383531 C1015.53465,150.383531 1016.04602,151.125008 1015.84147,152.377847 L1015.84147,152.428984 C1015.71363,153.144892 1014.97215,153.093756 1013.15681,153.323869 C1011.29034,153.553987 1009.24489,153.963073 1008.86136,156.213071 C1008.55455,158.130683 1009.85852,159.230113 1011.725,159.230113 Z M1012.15966,157.875001 C1010.95795,157.875001 1010.19091,157.33807 1010.36988,156.289775 C1010.54886,155.139208 1011.67386,154.781254 1012.87556,154.627845 C1013.51477,154.551141 1015.2534,154.372164 1015.56022,154.065346 L1015.33011,155.446026 C1015.12556,156.673298 1013.94943,157.875001 1012.15966,157.875001 Z M1022.22922,159.127841 C1022.79172,159.127841 1023.17525,159.025568 1023.40536,158.948864 L1023.30309,157.593751 C1023.17525,157.619319 1022.9707,157.670456 1022.63831,157.670456 C1021.97354,157.670456 1021.35991,157.465911 1021.56445,156.187503 L1022.51687,150.460235 L1024.63263,150.460235 L1024.83718,149.181828 L1022.73419,149.181828 L1023.12411,146.829557 L1021.61559,146.829557 L1021.22567,149.181828 L1019.74911,149.181828 L1019.54457,150.460235 L1021.01474,150.460235 L1020.00479,156.596593 C1019.72354,158.30966 1020.95082,159.127841 1022.22922,159.127841 Z M1031.27177,162.681815 L1032.14109,157.491479 L1032.26893,157.491479 C1032.52461,158.02841 1032.95927,159.204545 1034.85131,159.204545 C1037.30586,159.204545 1039.35131,157.235797 1039.86267,154.116482 C1040.37404,151.022735 1038.99335,149.053987 1036.51324,149.053987 C1034.59563,149.053987 1033.80302,150.230122 1033.39393,150.741485 L1033.21495,150.741485 L1033.47063,149.181828 L1032.01325,149.181828 L1029.76325,162.681815 L1031.27177,162.681815 Z M1034.87688,157.849433 C1033.06154,157.849433 1032.32007,156.315343 1032.67802,154.090914 C1033.03597,151.892052 1034.26325,150.409099 1036.10415,150.409099 C1038.02176,150.409099 1038.68654,152.019893 1038.35415,154.090914 C1037.9962,156.187503 1036.76893,157.849433 1034.87688,157.849433 Z M1044.12827,159.230113 C1045.84134,159.230113 1046.88963,158.30966 1047.29872,157.670456 L1047.37543,157.670456 L1047.14531,159 L1048.65383,159 L1049.7277,152.531256 C1050.23906,149.411941 1047.93792,149.053987 1046.68509,149.053987 C1045.20213,149.053987 1043.41236,149.56535 1042.36407,151.355121 L1043.69361,151.866484 C1044.15384,151.150576 1045.12543,150.383531 1046.55724,150.383531 C1047.93792,150.383531 1048.44929,151.125008 1048.24474,152.377847 L1048.24474,152.428984 C1048.1169,153.144892 1047.37543,153.093756 1045.56009,153.323869 C1043.69361,153.553987 1041.64816,153.963073 1041.26464,156.213071 C1040.95782,158.130683 1042.26179,159.230113 1044.12827,159.230113 Z M1044.56293,157.875001 C1043.36122,157.875001 1042.59418,157.33807 1042.77316,156.289775 C1042.95213,155.139208 1044.07713,154.781254 1045.27884,154.627845 C1045.91804,154.551141 1047.65668,154.372164 1047.96349,154.065346 L1047.73338,155.446026 C1047.52883,156.673298 1046.3527,157.875001 1044.56293,157.875001 Z M1054.18505,147.519897 C1054.77312,147.519897 1055.25892,147.05967 1055.25892,146.497171 C1055.25892,145.934672 1054.77312,145.474445 1054.18505,145.474445 C1053.59699,145.474445 1053.11119,145.934672 1053.11119,146.497171 C1053.11119,147.05967 1053.59699,147.519897 1054.18505,147.519897 Z M1052.84273,159 L1054.47909,149.181828 L1052.97057,149.181828 L1051.3342,159 L1052.84273,159 Z M1057.03161,159 L1058.0032,153.093756 C1058.31002,151.380689 1059.51172,150.409099 1060.96911,150.409099 C1062.37536,150.409099 1063.0657,151.329553 1062.81002,152.863642 L1061.78729,159 L1063.29581,159 L1064.3441,152.76137 C1064.7532,150.25569 1063.60263,149.053987 1061.63388,149.053987 C1060.15093,149.053987 1059.10263,149.718759 1058.489,150.715917 L1058.36116,150.715917 L1058.61684,149.181828 L1057.15945,149.181828 L1055.52309,159 L1057.03161,159 Z M1070.09265,155.318185 L1070.11822,155.164776 C1070.39947,153.630687 1070.9364,152.940347 1072.16368,152.250006 C1073.39095,151.585234 1074.2347,150.588076 1074.46481,149.181828 C1074.7972,147.187511 1073.56992,145.730126 1071.31993,145.730126 C1069.24891,145.730126 1067.408,147.008534 1066.94777,149.181828 L1068.55857,149.181828 C1068.89095,147.673306 1070.06709,147.05967 1071.11538,147.05967 C1072.31708,147.05967 1073.13527,147.852283 1072.93072,149.105123 C1072.77731,150.127849 1072.0614,150.843758 1071.24322,151.303985 C1069.8945,152.051853 1069.00601,152.780546 1068.58413,155.164776 L1068.55857,155.318185 L1070.09265,155.318185 Z M1068.94209,159.102273 C1069.56851,159.102273 1070.07987,158.590909 1070.09265,157.951706 C1070.10544,157.33807 1069.56851,156.826707 1068.94209,156.826707 C1068.31567,156.826707 1067.77874,157.312502 1067.79152,157.951706 C1067.8043,158.590909 1068.2901,159.102273 1068.94209,159.102273 Z M1076.4037,157.593751 L1079.62529,153.758528 L1079.65086,153.630687 L1079.63807,153.630687 L1079.65086,153.579551 L1077.70768,149.744327 L1076.37813,149.744327 L1078.15512,153.681823 L1075.07416,157.593751 L1076.4037,157.593751 Z M1079.67643,157.593751 L1082.89801,153.758528 L1082.92358,153.630687 L1082.9108,153.630687 L1082.92358,153.579551 L1080.9804,149.744327 L1079.65086,149.744327 L1081.42785,153.681823 L1078.34688,157.593751 L1079.67643,157.593751 Z" id="«Whichoneisbotheringyouthemostbetweenvomitingandthroatpain?»" fill="#000000" fill-rule="nonzero"></path>
        <rect id="Rectangle" fill="url(#linearGradient-5)" x="576" y="50" width="1" height="115"></rect>
        <path d="M590.04801,113.5 L591.14531,110.410514 L595.555817,110.410514 L596.653117,113.5 L598.038059,113.5 L594.032381,102.590919 L592.668746,102.590919 L588.663068,113.5 L590.04801,113.5 Z M595.140334,109.23864 L591.560792,109.23864 L593.30795,104.31677 L593.393177,104.31677 L595.140334,109.23864 Z M600.761759,113.5 L600.761759,102.590919 L599.504658,102.590919 L599.504658,113.5 L600.761759,113.5 Z M606.425791,113.670454 C608.087721,113.670454 609.302209,112.839489 609.685731,111.603695 L608.471244,111.262786 C608.151642,112.115058 607.41123,112.541194 606.425791,112.541194 C604.950295,112.541194 603.932896,111.587715 603.874302,109.835231 L609.813572,109.835231 L609.813572,109.302561 C609.813572,106.255689 608.002494,105.211656 606.29795,105.211656 C604.082043,105.211656 602.611874,106.958813 602.611874,109.473015 C602.611874,111.987217 604.060737,113.670454 606.425791,113.670454 Z M608.535164,108.748584 L603.874302,108.748584 C603.959529,107.475503 604.859741,106.340916 606.29795,106.340916 C607.661585,106.340916 608.535164,107.363642 608.535164,108.748584 Z M612.388123,113.5 L614.348348,110.325287 L616.308574,113.5 L617.757436,113.5 L615.115393,109.409095 L617.757436,105.31819 L616.308574,105.31819 L614.348348,108.663357 L612.388123,105.31819 L610.939261,105.31819 L613.53869,109.409095 L610.939261,113.5 L612.388123,113.5 Z M621.887383,113.691761 C623.314938,113.691761 624.060676,112.924716 624.316358,112.392047 L624.380278,112.392047 L624.380278,113.5 L625.637379,113.5 L625.637379,108.10938 C625.637379,105.509951 623.655847,105.211656 622.611814,105.211656 C621.37602,105.211656 619.969771,105.637792 619.330567,107.129267 L620.523748,107.555403 C620.800736,106.958813 621.45592,106.319609 622.654428,106.319609 C623.810321,106.319609 624.380278,106.93218 624.380278,107.981539 L624.380278,108.024153 C624.380278,108.631397 623.762381,108.57813 622.270905,108.769891 C620.752796,108.966979 619.096192,109.302561 619.096192,111.177559 C619.096192,112.775569 620.331987,113.691761 621.887383,113.691761 Z M622.079144,112.562501 C621.077725,112.562501 620.353294,112.115058 620.353294,111.241479 C620.353294,110.282674 621.226872,109.984378 622.206985,109.856538 C622.739655,109.792617 624.16721,109.64347 624.380278,109.387788 L624.380278,110.538355 C624.380278,111.561081 623.57062,112.562501 622.079144,112.562501 Z" id="Alexa" fill="#3023AE" fill-rule="nonzero" transform="translate(607.150224, 108.141340) rotate(-90.000000) translate(-607.150224, -108.141340) "></path>
        <path d="M531.295509,113.5 L531.295509,105.211656 L531.402043,105.211656 L534.811131,113.5 L536.004311,113.5 L539.413399,105.211656 L539.519933,105.211656 L539.519933,113.5 L540.755727,113.5 L540.755727,102.590919 L539.179024,102.590919 L535.471641,111.646309 L535.343801,111.646309 L531.636418,102.590919 L530.059715,102.590919 L530.059715,113.5 L531.295509,113.5 Z M544.139941,103.954555 C544.629998,103.954555 545.034827,103.571032 545.034827,103.102283 C545.034827,102.633533 544.629998,102.250011 544.139941,102.250011 C543.649885,102.250011 543.245056,102.633533 543.245056,103.102283 C543.245056,103.571032 543.649885,103.954555 544.139941,103.954555 Z M544.757839,113.5 L544.757839,105.31819 L543.500738,105.31819 L543.500738,113.5 L544.757839,113.5 Z M548.248577,113.5 L548.248577,110.437148 L549.127483,109.622163 L552.190335,113.5 L553.788345,113.5 L550.075635,108.812504 L553.532663,105.31819 L551.977267,105.31819 L548.397725,108.961652 L548.248577,108.961652 L548.248577,102.590919 L546.991476,102.590919 L546.991476,113.5 L548.248577,113.5 Z M558.173973,113.670454 C559.835903,113.670454 561.050391,112.839489 561.433913,111.603695 L560.219425,111.262786 C559.899824,112.115058 559.159412,112.541194 558.173973,112.541194 C556.698477,112.541194 555.681078,111.587715 555.622484,109.835231 L561.561754,109.835231 L561.561754,109.302561 C561.561754,106.255689 559.750676,105.211656 558.046132,105.211656 C555.830225,105.211656 554.360056,106.958813 554.360056,109.473015 C554.360056,111.987217 555.808918,113.670454 558.173973,113.670454 Z M560.283346,108.748584 L555.622484,108.748584 C555.707711,107.475503 556.607923,106.340916 558.046132,106.340916 C559.409767,106.340916 560.283346,107.363642 560.283346,108.748584 Z" id="Mike" fill="#000000" fill-rule="nonzero" transform="translate(545.810734, 107.960233) rotate(-90.000000) translate(-545.810734, -107.960233) "></path>
    </g>
</svg>