<?xml version="1.0" encoding="UTF-8"?>
<svg width="1152px" height="322px" viewBox="0 0 1152 322" version="1.1" xmlns="http://www.w3.org/2000/svg" xmlns:xlink="http://www.w3.org/1999/xlink">
    <!-- Generator: Sketch 60.1 (88133) - https://sketch.com -->
    <title>hn-4</title>
    <desc>Created with Sketch.</desc>
    <defs>
        <linearGradient x1="0.960208007%" y1="46.144044%" x2="101.811635%" y2="53.9946529%" id="linearGradient-1">
            <stop stop-color="#FFFBFD" offset="0%"></stop>
            <stop stop-color="#F5F8FF" offset="99.9076225%"></stop>
        </linearGradient>
        <linearGradient x1="45.5%" y1="0%" x2="54.6799998%" y2="100.999999%" id="linearGradient-2">
            <stop stop-color="#3023AE" offset="0%"></stop>
            <stop stop-color="#C86DD7" offset="100%"></stop>
        </linearGradient>
        <linearGradient x1="48.875%" y1="0%" x2="51.17%" y2="100.999999%" id="linearGradient-3">
            <stop stop-color="#3023AE" offset="0%"></stop>
            <stop stop-color="#C86DD7" offset="100%"></stop>
        </linearGradient>
        <linearGradient x1="49.5%" y1="0%" x2="50.52%" y2="100.999999%" id="linearGradient-4">
            <stop stop-color="#3023AE" offset="0%"></stop>
            <stop stop-color="#C86DD7" offset="100%"></stop>
        </linearGradient>
        <linearGradient x1="50%" y1="0%" x2="50%" y2="100%" id="linearGradient-5">
            <stop stop-color="#FFFFFF" offset="0%"></stop>
            <stop stop-color="#D4D4D4" offset="49.7307855%"></stop>
            <stop stop-color="#FFFFFF" offset="100%"></stop>
        </linearGradient>
    </defs>
    <g id="hn-4" stroke="none" stroke-width="1" fill="none" fill-rule="evenodd">
        <rect id="Rectangle-Copy-7" fill="url(#linearGradient-1)" x="0" y="0" width="1152" height="323" rx="3"></rect>
        <rect id="Rectangle" fill="url(#linearGradient-2)" x="1039" y="59.75" width="3" height="10" rx="1.5"></rect>
        <rect id="Rectangle-Copy-4" fill="url(#linearGradient-2)" x="1079" y="59.75" width="3" height="10" rx="1.5"></rect>
        <rect id="Rectangle-Copy-6" fill="url(#linearGradient-2)" x="1099" y="59.75" width="3" height="10" rx="1.5"></rect>
        <rect id="Rectangle-Copy" fill="url(#linearGradient-3)" x="1049" y="55.25" width="3" height="20" rx="1.5"></rect>
        <rect id="Rectangle-Copy-5" fill="url(#linearGradient-3)" x="1089" y="55.25" width="3" height="20" rx="1.5"></rect>
        <rect id="Rectangle-Copy-3" fill="url(#linearGradient-3)" x="1069" y="55.25" width="3" height="20" rx="1.5"></rect>
        <rect id="Rectangle-Copy-2" fill="url(#linearGradient-4)" x="1059" y="50" width="3" height="30" rx="1.5"></rect>
        <path d="M789.798288,132.593751 L788.021301,128.656255 L791.102264,124.744327 L789.77272,124.744327 L786.551132,128.579551 L786.525564,128.707391 L786.538348,128.707391 L786.525564,128.758528 L788.468744,132.593751 L789.798288,132.593751 Z M786.525564,132.593751 L784.748577,128.656255 L787.82954,124.744327 L786.499996,124.744327 L783.278408,128.579551 L783.25284,128.707391 L783.265624,128.707391 L783.25284,128.758528 L785.19602,132.593751 L786.525564,132.593751 Z M793.98718,134 L794.95877,128.144892 L801.938877,128.144892 L800.967287,134 L802.552512,134 L804.725806,120.909103 L803.14058,120.909103 L802.16899,126.738643 L795.188883,126.738643 L796.160473,120.909103 L794.575247,120.909103 L792.401954,134 L793.98718,134 Z M809.502768,134.204545 C812.11072,134.204545 814.181741,132.235797 814.667536,129.244323 C815.172507,126.125008 813.695946,124.053987 810.985721,124.053987 C808.377769,124.053987 806.306749,126.022735 805.820954,129.039777 C805.322375,132.133525 806.792544,134.204545 809.502768,134.204545 Z M809.528336,132.849433 C807.559588,132.849433 806.971521,131.161935 807.278339,129.244323 C807.604333,127.224438 808.889133,125.409099 810.960153,125.409099 C812.928901,125.409099 813.516969,127.122166 813.210151,129.039777 C812.884157,131.066054 811.599357,132.849433 809.528336,132.849433 Z M819.470064,134 L822.870629,126.457394 L823.024038,126.457394 L823.918924,134 L825.401877,134 L830.029713,124.181828 L828.444487,124.181828 L825.069491,131.673298 L824.967218,131.673298 L824.149037,124.181828 L822.538243,124.181828 L819.188814,131.698866 L819.086542,131.698866 L818.217224,124.181828 L816.631999,124.181828 L817.987111,134 L819.470064,134 Z M839.967154,134.204545 C842.421697,134.204545 844.46715,132.235797 844.978513,129.116482 C845.489876,126.022735 844.109196,124.053987 841.629084,124.053987 C839.711473,124.053987 838.91886,125.230122 838.509769,125.741485 L838.381928,125.741485 L839.174541,120.909103 L837.66602,120.909103 L835.492727,134 L836.950112,134 L837.205793,132.491479 L837.38477,132.491479 C837.640452,133.02841 838.07511,134.204545 839.967154,134.204545 Z M839.992722,132.849433 C838.177383,132.849433 837.435907,131.315343 837.793861,129.090914 C838.151815,126.892052 839.379086,125.409099 841.219994,125.409099 C843.137606,125.409099 843.802378,127.019893 843.469992,129.090914 C843.112037,131.187503 841.884766,132.849433 839.992722,132.849433 Z M849.24411,134.230113 C850.957177,134.230113 852.005471,133.30966 852.414562,132.670456 L852.491266,132.670456 L852.261153,134 L853.769674,134 L854.843537,127.531256 C855.3549,124.411941 853.053766,124.053987 851.800926,124.053987 C850.317973,124.053987 848.528202,124.56535 847.479908,126.355121 L848.809452,126.866484 C849.269679,126.150576 850.241269,125.383531 851.673085,125.383531 C853.053766,125.383531 853.565129,126.125008 853.360584,127.377847 L853.360584,127.428984 C853.232743,128.144892 852.491266,128.093756 850.675927,128.323869 C848.809452,128.553987 846.763999,128.963073 846.380477,131.213071 C846.073659,133.130683 847.377635,134.230113 849.24411,134.230113 Z M849.678769,132.875001 C848.477066,132.875001 847.710021,132.33807 847.888998,131.289775 C848.067975,130.139208 849.192974,129.781254 850.394677,129.627845 C851.033881,129.551141 852.772516,129.372164 853.079334,129.065346 L852.849221,130.446026 C852.644675,131.673298 851.46854,132.875001 849.678769,132.875001 Z M860.157428,134.204545 C862.043079,134.204545 862.880437,133.02841 863.302311,132.491479 L863.481288,132.491479 L863.225607,134 L864.682992,134 L866.856285,120.909103 L865.347764,120.909103 L864.542367,125.741485 L864.414526,125.741485 C864.171628,125.230122 863.775322,124.053987 861.85771,124.053987 C859.377599,124.053987 857.338538,126.022735 856.820783,129.116482 C856.30942,132.235797 857.696493,134.204545 860.157428,134.204545 Z M860.528166,132.849433 C858.636122,132.849433 857.990526,131.187503 858.342089,129.090914 C858.680867,127.019893 859.844218,125.409099 861.755438,125.409099 C863.602737,125.409099 864.382566,126.892052 864.01822,129.090914 C863.647481,131.315343 862.343505,132.849433 860.528166,132.849433 Z M875.400258,122.519897 C875.988326,122.519897 876.474121,122.05967 876.474121,121.497171 C876.474121,120.934672 875.988326,120.474445 875.400258,120.474445 C874.81219,120.474445 874.326395,120.934672 874.326395,121.497171 C874.326395,122.05967 874.81219,122.519897 875.400258,122.519897 Z M874.05793,134 L875.694292,124.181828 L874.185771,124.181828 L872.549409,134 L874.05793,134 Z M880.011019,134.204545 C882.286585,134.204545 884.050788,132.951706 884.332038,131.264207 C884.562151,129.883527 883.846243,129.039777 882.158744,128.605119 L880.752496,128.247165 C879.653065,127.965915 879.192838,127.556824 879.320679,126.815348 C879.44852,125.971599 880.445678,125.357963 881.647381,125.357963 C882.976925,125.357963 883.386016,126.073871 883.539425,126.764211 L884.971242,126.380689 C884.71556,124.97444 883.820675,124.053987 881.877495,124.053987 C879.806474,124.053987 878.067839,125.230122 877.786589,126.892052 C877.556476,128.247165 878.221248,129.14205 879.959883,129.576709 L881.51954,129.960231 C882.49113,130.190345 882.874653,130.650571 882.746812,131.340912 C882.618971,132.184661 881.596245,132.875001 880.189996,132.875001 C878.962725,132.875001 878.272384,132.33807 878.19568,131.289775 L876.687159,131.64773 C876.763863,133.30966 877.991135,134.204545 880.011019,134.204545 Z M891.418624,137.656247 C892.748168,137.656247 893.860383,136.972298 894.691348,135.419033 L900.712649,124.181828 L899.012367,124.181828 L894.998166,132.031252 L894.895894,132.031252 L893.489645,124.181828 L891.917203,124.181828 L893.885951,134 L893.464077,134.767045 C892.65868,136.230822 892.006692,136.428975 890.958397,136.147725 L890.344761,137.477269 C890.485386,137.553974 890.907261,137.656247 891.418624,137.656247 Z M904.70978,134.204545 C907.317732,134.204545 909.388752,132.235797 909.874547,129.244323 C910.379519,126.125008 908.902957,124.053987 906.192733,124.053987 C903.584781,124.053987 901.51376,126.022735 901.027965,129.039777 C900.529386,132.133525 901.999555,134.204545 904.70978,134.204545 Z M904.735348,132.849433 C902.7666,132.849433 902.178532,131.161935 902.48535,129.244323 C902.811344,127.224438 904.096144,125.409099 906.167165,125.409099 C908.135913,125.409099 908.72398,127.122166 908.417163,129.039777 C908.091168,131.066054 906.806369,132.849433 904.735348,132.849433 Z M914.446962,134.127841 C915.929916,134.127841 917.054914,133.335228 917.66855,132.33807 L917.770823,132.33807 L917.489573,134 L918.998094,134 L920.634456,124.181828 L919.125935,124.181828 L918.154345,129.985799 C917.847527,131.826707 916.313438,132.670456 915.188439,132.670456 C913.935599,132.670456 913.194123,131.750002 913.424236,130.318185 L914.446962,124.181828 L912.938441,124.181828 L911.890147,130.420458 C911.481056,132.926137 912.606055,134.127841 914.446962,134.127841 Z M923.186987,134 L924.209713,127.786938 C924.439826,126.457394 925.64153,125.485804 927.073347,125.485804 C927.482437,125.485804 927.891528,125.562508 927.9938,125.588076 L928.249482,124.053987 C928.070505,124.028419 927.686982,124.028419 927.456869,124.028419 C926.280734,124.028419 925.130167,124.693191 924.618803,125.664781 L924.516531,125.664781 L924.772212,124.181828 L923.314827,124.181828 L921.678465,134 L923.186987,134 Z M936.601689,134.127841 C937.164189,134.127841 937.547711,134.025568 937.777825,133.948864 L937.675552,132.593751 C937.547711,132.619319 937.343166,132.670456 937.01078,132.670456 C936.346008,132.670456 935.732372,132.465911 935.936917,131.187503 L936.889331,125.460235 L939.005096,125.460235 L939.209642,124.181828 L937.106661,124.181828 L937.496575,121.829557 L935.988054,121.829557 L935.598139,124.181828 L934.121578,124.181828 L933.917033,125.460235 L935.387202,125.460235 L934.37726,131.596593 C934.09601,133.30966 935.323282,134.127841 936.601689,134.127841 Z M941.480918,134 L942.452508,128.093756 C942.759326,126.380689 944.012166,125.409103 945.495119,125.409103 C946.901368,125.409103 947.617276,126.303985 947.361595,127.863642 L946.338868,134 L947.84739,134 L948.895684,127.76137 C949.304775,125.230122 948.154208,124.053987 946.159891,124.053987 C944.600234,124.053987 943.603076,124.693191 942.98944,125.715917 L942.861599,125.715917 L943.654212,120.909103 L942.145691,120.909103 L939.972397,134 L941.480918,134 Z M952.036282,134 L953.059008,127.786938 C953.289122,126.457394 954.490825,125.485804 955.922642,125.485804 C956.331733,125.485804 956.740823,125.562508 956.843096,125.588076 L957.098777,124.053987 C956.9198,124.028419 956.536278,124.028419 956.306164,124.028419 C955.130029,124.028419 953.979462,124.693191 953.468099,125.664781 L953.365826,125.664781 L953.621508,124.181828 L952.164123,124.181828 L950.527761,134 L952.036282,134 Z M960.929711,134.204545 C963.537664,134.204545 965.608684,132.235797 966.094479,129.244323 C966.59945,126.125008 965.122889,124.053987 962.412665,124.053987 C959.804713,124.053987 957.733692,126.022735 957.247897,129.039777 C956.749318,132.133525 958.219487,134.204545 960.929711,134.204545 Z M960.95528,132.849433 C958.986532,132.849433 958.398464,131.161935 958.705282,129.244323 C959.031276,127.224438 960.316076,125.409099 962.387096,125.409099 C964.355845,125.409099 964.943912,127.122166 964.637094,129.039777 C964.3111,131.066054 963.0263,132.849433 960.95528,132.849433 Z M970.385644,134.230113 C972.098711,134.230113 973.147005,133.30966 973.556096,132.670456 L973.6328,132.670456 L973.402687,134 L974.911208,134 L975.985071,127.531256 C976.496434,124.411941 974.1953,124.053987 972.94246,124.053987 C971.459507,124.053987 969.669736,124.56535 968.621442,126.355121 L969.950986,126.866484 C970.411213,126.150576 971.382803,125.383531 972.814619,125.383531 C974.1953,125.383531 974.706663,126.125008 974.502118,127.377847 L974.502118,127.428984 C974.374277,128.144892 973.6328,128.093756 971.817461,128.323869 C969.950986,128.553987 967.905533,128.963073 967.522011,131.213071 C967.215193,133.130683 968.519169,134.230113 970.385644,134.230113 Z M970.820303,132.875001 C969.6186,132.875001 968.851555,132.33807 969.030532,131.289775 C969.209509,130.139208 970.334508,129.781254 971.536212,129.627845 C972.175415,129.551141 973.91405,129.372164 974.220868,129.065346 L973.990755,130.446026 C973.786209,131.673298 972.610074,132.875001 970.820303,132.875001 Z M980.889871,134.127841 C981.452371,134.127841 981.835893,134.025568 982.066007,133.948864 L981.963734,132.593751 C981.835893,132.619319 981.631348,132.670456 981.298962,132.670456 C980.63419,132.670456 980.020554,132.465911 980.225099,131.187503 L981.177513,125.460235 L983.293278,125.460235 L983.497823,124.181828 L981.394842,124.181828 L981.784757,121.829557 L980.276236,121.829557 L979.886321,124.181828 L978.40976,124.181828 L978.205215,125.460235 L979.675384,125.460235 L978.665442,131.596593 C978.384192,133.30966 979.611463,134.127841 980.889871,134.127841 Z M989.932419,137.681815 L990.801736,132.491479 L990.929577,132.491479 C991.185259,133.02841 991.619917,134.204545 993.511961,134.204545 C995.966504,134.204545 998.011957,132.235797 998.52332,129.116482 C999.034683,126.022735 997.654003,124.053987 995.173891,124.053987 C993.25628,124.053987 992.463667,125.230122 992.054576,125.741485 L991.875599,125.741485 L992.131281,124.181828 L990.673896,124.181828 L988.423898,137.681815 L989.932419,137.681815 Z M993.537529,132.849433 C991.72219,132.849433 990.980714,131.315343 991.338668,129.090914 C991.696622,126.892052 992.923893,125.409099 994.764801,125.409099 C996.682413,125.409099 997.347185,127.019893 997.014799,129.090914 C996.656844,131.187503 995.429573,132.849433 993.537529,132.849433 Z M1002.78892,134.230113 C1004.50198,134.230113 1005.55028,133.30966 1005.95937,132.670456 L1006.03607,132.670456 L1005.80596,134 L1007.31448,134 L1008.38834,127.531256 C1008.89971,124.411941 1006.59857,124.053987 1005.34573,124.053987 C1003.86278,124.053987 1002.07301,124.56535 1001.02471,126.355121 L1002.35426,126.866484 C1002.81449,126.150576 1003.78608,125.383531 1005.21789,125.383531 C1006.59857,125.383531 1007.10994,126.125008 1006.90539,127.377847 L1006.90539,127.428984 C1006.77755,128.144892 1006.03607,128.093756 1004.22073,128.323869 C1002.35426,128.553987 1000.30881,128.963073 999.925284,131.213071 C999.618466,133.130683 1000.92244,134.230113 1002.78892,134.230113 Z M1003.22358,132.875001 C1002.02187,132.875001 1001.25483,132.33807 1001.4338,131.289775 C1001.61278,130.139208 1002.73778,129.781254 1003.93948,129.627845 C1004.57869,129.551141 1006.31732,129.372164 1006.62414,129.065346 L1006.39403,130.446026 C1006.18948,131.673298 1005.01335,132.875001 1003.22358,132.875001 Z M1012.8457,122.519897 C1013.43377,122.519897 1013.91956,122.05967 1013.91956,121.497171 C1013.91956,120.934672 1013.43377,120.474445 1012.8457,120.474445 C1012.25763,120.474445 1011.77184,120.934672 1011.77184,121.497171 C1011.77184,122.05967 1012.25763,122.519897 1012.8457,122.519897 Z M1011.50337,134 L1013.13974,124.181828 L1011.63121,124.181828 L1009.99485,134 L1011.50337,134 Z M1015.69226,134 L1016.66385,128.093756 C1016.97067,126.380689 1018.17237,125.409099 1019.62976,125.409099 C1021.036,125.409099 1021.72634,126.329553 1021.47066,127.863642 L1020.44794,134 L1021.95646,134 L1023.00475,127.76137 C1023.41384,125.25569 1022.26328,124.053987 1020.29453,124.053987 C1018.81157,124.053987 1017.76328,124.718759 1017.14964,125.715917 L1017.0218,125.715917 L1017.27749,124.181828 L1015.8201,124.181828 L1014.18374,134 L1015.69226,134 Z M1028.7533,130.318185 L1028.77887,130.164776 C1029.06012,128.630687 1029.59705,127.940347 1030.82432,127.250006 C1032.05159,126.585234 1032.89534,125.588076 1033.12546,124.181828 C1033.45784,122.187511 1032.23057,120.730126 1029.98057,120.730126 C1027.90955,120.730126 1026.06865,122.008534 1025.60842,124.181828 L1027.21921,124.181828 C1027.5516,122.673306 1028.72773,122.05967 1029.77603,122.05967 C1030.97773,122.05967 1031.79591,122.852283 1031.59137,124.105123 C1031.43796,125.127849 1030.72205,125.843758 1029.90387,126.303985 C1028.55515,127.051853 1027.66666,127.780546 1027.24478,130.164776 L1027.21921,130.318185 L1028.7533,130.318185 Z M1027.60274,134.102273 C1028.22916,134.102273 1028.74052,133.590909 1028.7533,132.951706 C1028.76609,132.33807 1028.22916,131.826707 1027.60274,131.826707 C1026.97632,131.826707 1026.43938,132.312502 1026.45217,132.951706 C1026.46495,133.590909 1026.95075,134.102273 1027.60274,134.102273 Z M1040.45494,134 L1041.42653,128.144892 L1048.40664,128.144892 L1047.43505,134 L1049.02027,134 L1051.19357,120.909103 L1049.60834,120.909103 L1048.63675,126.738643 L1041.65664,126.738643 L1042.62823,120.909103 L1041.04301,120.909103 L1038.86972,134 L1040.45494,134 Z M1055.97053,134.204545 C1058.57848,134.204545 1060.6495,132.235797 1061.1353,129.244323 C1061.64027,126.125008 1060.16371,124.053987 1057.45348,124.053987 C1054.84553,124.053987 1052.77451,126.022735 1052.28872,129.039777 C1051.79014,132.133525 1053.2603,134.204545 1055.97053,134.204545 Z M1055.9961,132.849433 C1054.02735,132.849433 1053.43928,131.161935 1053.7461,129.244323 C1054.07209,127.224438 1055.35689,125.409099 1057.42791,125.409099 C1059.39666,125.409099 1059.98473,127.122166 1059.67791,129.039777 C1059.35192,131.066054 1058.06712,132.849433 1055.9961,132.849433 Z M1065.93783,134 L1069.33839,126.457394 L1069.4918,126.457394 L1070.38668,134 L1071.86964,134 L1076.49747,124.181828 L1074.91225,124.181828 L1071.53725,131.673298 L1071.43498,131.673298 L1070.6168,124.181828 L1069.006,124.181828 L1065.65658,131.698866 L1065.5543,131.698866 L1064.68499,124.181828 L1063.09976,124.181828 L1064.45487,134 L1065.93783,134 Z M784.071021,159 L785.093747,152.863642 C785.32386,151.431825 786.551132,150.409099 787.727267,150.409099 C788.877834,150.409099 789.542606,151.150576 789.363629,152.275575 L788.23863,159 L789.77272,159 L790.846582,152.607961 C791.051128,151.329553 791.99715,150.409099 793.37783,150.409099 C794.451693,150.409099 795.269874,150.971599 795.03976,152.428984 L793.94033,159 L795.448851,159 L796.548282,152.428984 C796.931804,150.127849 795.857941,149.053987 794.119307,149.053987 C792.713058,149.053987 791.562499,149.693191 790.897719,150.715917 L790.795446,150.715917 C790.488628,149.667623 789.721584,149.053987 788.443176,149.053987 C787.164768,149.053987 786.116473,149.667623 785.528406,150.715917 L785.400565,150.715917 L785.656247,149.181828 L784.198862,149.181828 L782.562499,159 L784.071021,159 Z M801.27411,159.127841 C802.757063,159.127841 803.882062,158.335228 804.495698,157.33807 L804.597971,157.33807 L804.316721,159 L805.825242,159 L807.461604,149.181828 L805.953083,149.181828 L804.981493,154.985799 C804.674675,156.826707 803.140586,157.670456 802.015587,157.670456 C800.762747,157.670456 800.02127,156.750002 800.251384,155.318185 L801.27411,149.181828 L799.765589,149.181828 L798.717294,155.420458 C798.308204,157.926137 799.433203,159.127841 801.27411,159.127841 Z M812.468678,159.204545 C814.635579,159.204545 816.271941,157.875001 816.840832,156.136366 L815.332311,156.136366 C814.865692,157.210229 813.868534,157.849433 812.698791,157.849433 C810.902628,157.849433 809.982174,156.36648 810.372089,154.090914 C810.723651,151.866484 812.155468,150.409099 813.926062,150.409099 C815.249215,150.409099 815.913987,151.22728 815.997083,152.122166 L817.505605,152.122166 C817.550349,150.281258 816.195236,149.053987 814.130608,149.053987 C811.465127,149.053987 809.34297,151.150576 808.863567,154.14205 C808.37138,157.082388 809.700924,159.204545 812.468678,159.204545 Z M819.98143,159 L820.95302,153.093756 C821.259838,151.380689 822.512677,150.409103 823.995631,150.409103 C825.401879,150.409103 826.117788,151.303985 825.862106,152.863642 L824.83938,159 L826.347901,159 L827.396195,152.76137 C827.805286,150.230122 826.654719,149.053987 824.660403,149.053987 C823.100745,149.053987 822.103587,149.693191 821.489951,150.715917 L821.36211,150.715917 L822.154723,145.909103 L820.646202,145.909103 L818.472909,159 L819.98143,159 Z M837.717155,159.204545 C839.602807,159.204545 840.440164,158.02841 840.862038,157.491479 L841.041015,157.491479 L840.785334,159 L842.242719,159 L844.416012,145.909103 L842.907491,145.909103 L842.102094,150.741485 L841.974253,150.741485 C841.731356,150.230122 841.335049,149.053987 839.417437,149.053987 C836.937326,149.053987 834.898266,151.022735 834.38051,154.116482 C833.869147,157.235797 835.25622,159.204545 837.717155,159.204545 Z M838.087893,157.849433 C836.19585,157.849433 835.550254,156.187503 835.901816,154.090914 C836.240594,152.019893 837.403945,150.409099 839.315165,150.409099 C841.162464,150.409099 841.942293,151.892052 841.577947,154.090914 C841.207209,156.315343 839.903232,157.849433 838.087893,157.849433 Z M849.192973,159.204545 C851.800925,159.204545 853.871946,157.235797 854.357741,154.244323 C854.862712,151.125008 853.386151,149.053987 850.675926,149.053987 C848.067974,149.053987 845.996953,151.022735 845.511158,154.039777 C845.012579,157.133525 846.482748,159.204545 849.192973,159.204545 Z M849.218541,157.849433 C847.249793,157.849433 846.661725,156.161935 846.968543,154.244323 C847.294537,152.224438 848.579337,150.409099 850.650358,150.409099 C852.619106,150.409099 853.207174,152.122166 852.900356,154.039777 C852.574362,156.066054 851.289562,157.849433 849.218541,157.849433 Z M859.876177,159.204545 C861.876886,159.204545 863.48768,158.207387 864.197196,156.724434 L862.816515,156.315343 C862.260408,157.33807 861.314386,157.849433 860.106291,157.849433 C858.214247,157.849433 857.204305,157.005684 857.568651,154.602277 L864.708559,154.602277 L864.810832,153.963073 C865.43086,150.306826 863.462111,149.053987 861.410267,149.053987 C858.75757,149.053987 856.635413,151.150576 856.143226,154.167618 C855.638255,157.184661 857.044504,159.204545 859.876177,159.204545 Z M863.379015,153.298301 L857.779588,153.298301 C858.080014,151.904836 859.531007,150.409099 861.180153,150.409099 C862.822908,150.409099 863.666657,151.636371 863.379015,153.298301 Z M869.485519,159.204545 C871.761085,159.204545 873.525288,157.951706 873.806538,156.264207 C874.036651,154.883527 873.320743,154.039777 871.633244,153.605119 L870.226996,153.247165 C869.127565,152.965915 868.667338,152.556824 868.795179,151.815348 C868.92302,150.971599 869.920178,150.357963 871.121881,150.357963 C872.451425,150.357963 872.860516,151.073871 873.013925,151.764211 L874.445742,151.380689 C874.19006,149.97444 873.295175,149.053987 871.351995,149.053987 C869.280974,149.053987 867.542339,150.230122 867.261089,151.892052 C867.030976,153.247165 867.695748,154.14205 869.434383,154.576709 L870.99404,154.960231 C871.96563,155.190345 872.349153,155.650571 872.221312,156.340912 C872.093471,157.184661 871.070745,157.875001 869.664496,157.875001 C868.437225,157.875001 867.746884,157.33807 867.67018,156.289775 L866.161659,156.64773 C866.238363,158.30966 867.465635,159.204545 869.485519,159.204545 Z M883.373235,147.519897 C883.961303,147.519897 884.447098,147.05967 884.447098,146.497171 C884.447098,145.934672 883.961303,145.474445 883.373235,145.474445 C882.785168,145.474445 882.299373,145.934672 882.299373,146.497171 C882.299373,147.05967 882.785168,147.519897 883.373235,147.519897 Z M882.030907,159 L883.667269,149.181828 L882.158748,149.181828 L880.522386,159 L882.030907,159 Z M888.009564,159.127841 C888.572064,159.127841 888.955586,159.025568 889.1857,158.948864 L889.083427,157.593751 C888.955586,157.619319 888.751041,157.670456 888.418655,157.670456 C887.753883,157.670456 887.140247,157.465911 887.344792,156.187503 L888.297206,150.460235 L890.412971,150.460235 L890.617517,149.181828 L888.514536,149.181828 L888.90445,146.829557 L887.395929,146.829557 L887.006014,149.181828 L885.529453,149.181828 L885.324908,150.460235 L886.795077,150.460235 L885.785135,156.596593 C885.503885,158.30966 886.731157,159.127841 888.009564,159.127841 Z M897.665748,159 L898.637338,153.093756 C898.944156,151.380689 900.196996,150.409103 901.679949,150.409103 C903.086197,150.409103 903.802106,151.303985 903.546424,152.863642 L902.523698,159 L904.032219,159 L905.080514,152.76137 C905.489604,150.230122 904.339037,149.053987 902.344721,149.053987 C900.785063,149.053987 899.787905,149.693191 899.174269,150.715917 L899.046429,150.715917 L899.839041,145.909103 L898.33052,145.909103 L896.157227,159 L897.665748,159 Z M909.857474,159.127841 C911.340427,159.127841 912.465426,158.335228 913.079062,157.33807 L913.181334,157.33807 L912.900084,159 L914.408606,159 L916.044968,149.181828 L914.536447,149.181828 L913.564857,154.985799 C913.258039,156.826707 911.723949,157.670456 910.59895,157.670456 C909.346111,157.670456 908.604634,156.750002 908.834747,155.318185 L909.857474,149.181828 L908.348952,149.181828 L907.300658,155.420458 C906.891567,157.926137 908.016566,159.127841 909.857474,159.127841 Z M918.597498,159 L919.620224,152.786938 C919.850338,151.457394 921.052041,150.485804 922.483858,150.485804 C922.892948,150.485804 923.302039,150.562508 923.404312,150.588076 L923.659993,149.053987 C923.481016,149.028419 923.097494,149.028419 922.86738,149.028419 C921.691245,149.028419 920.540678,149.693191 920.029315,150.664781 L919.927042,150.664781 L920.182724,149.181828 L918.725339,149.181828 L917.088977,159 L918.597498,159 Z M927.644337,159.127841 C928.206837,159.127841 928.590359,159.025568 928.820472,158.948864 L928.7182,157.593751 C928.590359,157.619319 928.385814,157.670456 928.053428,157.670456 C927.388656,157.670456 926.77502,157.465911 926.979565,156.187503 L927.931979,150.460235 L930.047744,150.460235 L930.252289,149.181828 L928.149308,149.181828 L928.539223,146.829557 L927.030701,146.829557 L926.640787,149.181828 L925.164226,149.181828 L924.959681,150.460235 L926.42985,150.460235 L925.419908,156.596593 C925.138658,158.30966 926.365929,159.127841 927.644337,159.127841 Z M934.926973,155.318185 L934.952541,155.164776 C935.233791,153.630687 935.770722,152.940347 936.997994,152.250006 C938.225265,151.585234 939.069014,150.588076 939.299128,149.181828 C939.631514,147.187511 938.404242,145.730126 936.154244,145.730126 C934.083224,145.730126 932.242316,147.008534 931.782089,149.181828 L933.392883,149.181828 C933.725269,147.673306 934.901405,147.05967 935.949699,147.05967 C937.151403,147.05967 937.969584,147.852283 937.765038,149.105123 C937.611629,150.127849 936.895721,150.843758 936.07754,151.303985 C934.72882,152.051853 933.840326,152.780546 933.418452,155.164776 L933.392883,155.318185 L934.926973,155.318185 Z M933.776406,159.102273 C934.402826,159.102273 934.914189,158.590909 934.926973,157.951706 C934.939757,157.33807 934.402826,156.826707 933.776406,156.826707 C933.149986,156.826707 932.613055,157.312502 932.625839,157.951706 C932.638623,158.590909 933.124418,159.102273 933.776406,159.102273 Z M950.029176,159 L951.972356,147.315352 L956.08883,147.315352 L956.318943,145.909103 L946.500771,145.909103 L946.270657,147.315352 L950.387131,147.315352 L948.443951,159 L950.029176,159 Z M958.973746,159.204545 C960.974454,159.204545 962.585248,158.207387 963.294764,156.724434 L961.914084,156.315343 C961.357976,157.33807 960.411954,157.849433 959.203859,157.849433 C957.311815,157.849433 956.301873,157.005684 956.666219,154.602277 L963.806127,154.602277 L963.9084,153.963073 C964.528428,150.306826 962.55968,149.053987 960.507835,149.053987 C957.855139,149.053987 955.732982,151.150576 955.240795,154.167618 C954.735823,157.184661 956.142072,159.204545 958.973746,159.204545 Z M962.476583,153.298301 L956.877157,153.298301 C957.177583,151.904836 958.628575,150.409099 960.277722,150.409099 C961.920476,150.409099 962.764225,151.636371 962.476583,153.298301 Z M966.818884,159 L968.992178,145.909103 L967.483656,145.909103 L965.310363,159 L966.818884,159 Z M971.007771,159 L973.181064,145.909103 L971.672543,145.909103 L969.499249,159 L971.007771,159 Z M980.178157,159 L981.200883,152.863642 C981.430997,151.431825 982.658268,150.409099 983.834404,150.409099 C984.984971,150.409099 985.649743,151.150576 985.470766,152.275575 L984.345767,159 L985.879856,159 L986.953719,152.607961 C987.158264,151.329553 988.104286,150.409099 989.484966,150.409099 C990.558829,150.409099 991.37701,150.971599 991.146897,152.428984 L990.047466,159 L991.555987,159 L992.655418,152.428984 C993.03894,150.127849 991.965078,149.053987 990.226443,149.053987 C988.820194,149.053987 987.669636,149.693191 987.004855,150.715917 L986.902583,150.715917 C986.595765,149.667623 985.82872,149.053987 984.550312,149.053987 C983.271904,149.053987 982.22361,149.667623 981.635542,150.715917 L981.507701,150.715917 L981.763383,149.181828 L980.305998,149.181828 L978.669636,159 L980.178157,159 Z M998.327268,159.204545 C1000.32798,159.204545 1001.93877,158.207387 1002.64829,156.724434 L1001.26761,156.315343 C1000.7115,157.33807 999.765477,157.849433 998.557382,157.849433 C996.665338,157.849433 995.655396,157.005684 996.019742,154.602277 L1003.15965,154.602277 L1003.26192,153.963073 C1003.88195,150.306826 1001.9132,149.053987 999.861358,149.053987 C997.208661,149.053987 995.086504,151.150576 994.594317,154.167618 C994.089346,157.184661 995.495595,159.204545 998.327268,159.204545 Z M1001.83011,153.298301 L996.230679,153.298301 C996.531105,151.904836 997.982098,150.409099 999.631244,150.409099 C1001.274,150.409099 1002.11775,151.636371 1001.83011,153.298301 Z M1013.71072,159.204545 C1016.31867,159.204545 1018.3897,157.235797 1018.87549,154.244323 C1019.38046,151.125008 1017.9039,149.053987 1015.19368,149.053987 C1012.58572,149.053987 1010.5147,151.022735 1010.02891,154.039777 C1009.53033,157.133525 1011.0005,159.204545 1013.71072,159.204545 Z M1013.73629,157.849433 C1011.76754,157.849433 1011.17948,156.161935 1011.48629,154.244323 C1011.81229,152.224438 1013.09709,150.409099 1015.16811,150.409099 C1017.13686,150.409099 1017.72492,152.122166 1017.41811,154.039777 C1017.09211,156.066054 1015.80731,157.849433 1013.73629,157.849433 Z M1021.81154,159 L1022.78313,153.093756 C1023.08995,151.380689 1024.29165,150.409099 1025.74904,150.409099 C1027.15529,150.409099 1027.84563,151.329553 1027.58995,152.863642 L1026.56722,159 L1028.07574,159 L1029.12404,152.76137 C1029.53313,150.25569 1028.38256,149.053987 1026.41381,149.053987 C1024.93086,149.053987 1023.88256,149.718759 1023.26893,150.715917 L1023.14109,150.715917 L1023.39677,149.181828 L1021.93938,149.181828 L1020.30302,159 L1021.81154,159 Z M1038.60125,159.230113 C1040.31431,159.230113 1041.36261,158.30966 1041.7717,157.670456 L1041.8484,157.670456 L1041.61829,159 L1043.12681,159 L1044.20067,152.531256 C1044.71204,149.411941 1042.4109,149.053987 1041.15806,149.053987 C1039.67511,149.053987 1037.88534,149.56535 1036.83704,151.355121 L1038.16659,151.866484 C1038.62681,151.150576 1039.5984,150.383531 1041.03022,150.383531 C1042.4109,150.383531 1042.92227,151.125008 1042.71772,152.377847 L1042.71772,152.428984 C1042.58988,153.144892 1041.8484,153.093756 1040.03306,153.323869 C1038.16659,153.553987 1036.12114,153.963073 1035.73761,156.213071 C1035.4308,158.130683 1036.73477,159.230113 1038.60125,159.230113 Z M1039.03591,157.875001 C1037.8342,157.875001 1037.06716,157.33807 1037.24613,156.289775 C1037.42511,155.139208 1038.55011,154.781254 1039.75181,154.627845 C1040.39102,154.551141 1042.12965,154.372164 1042.43647,154.065346 L1042.20636,155.446026 C1042.00181,156.673298 1040.82568,157.875001 1039.03591,157.875001 Z M1054.06141,159.204545 C1056.33697,159.204545 1058.10117,157.951706 1058.38242,156.264207 C1058.61254,154.883527 1057.89663,154.039777 1056.20913,153.605119 L1054.80288,153.247165 C1053.70345,152.965915 1053.24322,152.556824 1053.37107,151.815348 C1053.49891,150.971599 1054.49606,150.357963 1055.69777,150.357963 C1057.02731,150.357963 1057.4364,151.073871 1057.58981,151.764211 L1059.02163,151.380689 C1058.76595,149.97444 1057.87106,149.053987 1055.92788,149.053987 C1053.85686,149.053987 1052.11823,150.230122 1051.83698,151.892052 C1051.60686,153.247165 1052.27163,154.14205 1054.01027,154.576709 L1055.56993,154.960231 C1056.54152,155.190345 1056.92504,155.650571 1056.7972,156.340912 C1056.66936,157.184661 1055.64663,157.875001 1054.24038,157.875001 C1053.01311,157.875001 1052.32277,157.33807 1052.24607,156.289775 L1050.73754,156.64773 C1050.81425,158.30966 1052.04152,159.204545 1054.06141,159.204545 Z M1064.07984,159.204545 C1066.24674,159.204545 1067.8831,157.875001 1068.45199,156.136366 L1066.94347,156.136366 C1066.47685,157.210229 1065.47969,157.849433 1064.30995,157.849433 C1062.51379,157.849433 1061.59333,156.36648 1061.98325,154.090914 C1062.33481,151.866484 1063.76663,150.409099 1065.53722,150.409099 C1066.86037,150.409099 1067.52515,151.22728 1067.60824,152.122166 L1069.11676,152.122166 C1069.16151,150.281258 1067.8064,149.053987 1065.74177,149.053987 C1063.07629,149.053987 1060.95413,151.150576 1060.47473,154.14205 C1059.98254,157.082388 1061.31208,159.204545 1064.07984,159.204545 Z M1072.9477,159.230113 C1074.66077,159.230113 1075.70906,158.30966 1076.11815,157.670456 L1076.19486,157.670456 L1075.96474,159 L1077.47327,159 L1078.54713,152.531256 C1079.05849,149.411941 1076.75736,149.053987 1075.50452,149.053987 C1074.02156,149.053987 1072.23179,149.56535 1071.1835,151.355121 L1072.51304,151.866484 C1072.97327,151.150576 1073.94486,150.383531 1075.37668,150.383531 C1076.75736,150.383531 1077.26872,151.125008 1077.06417,152.377847 L1077.06417,152.428984 C1076.93633,153.144892 1076.19486,153.093756 1074.37952,153.323869 C1072.51304,153.553987 1070.46759,153.963073 1070.08407,156.213071 C1069.77725,158.130683 1071.08123,159.230113 1072.9477,159.230113 Z M1073.38236,157.875001 C1072.18066,157.875001 1071.41361,157.33807 1071.59259,156.289775 C1071.77157,155.139208 1072.89656,154.781254 1074.09827,154.627845 C1074.73747,154.551141 1076.47611,154.372164 1076.78292,154.065346 L1076.55281,155.446026 C1076.34827,156.673298 1075.17213,157.875001 1073.38236,157.875001 Z M1081.66216,159 L1083.83545,145.909103 L1082.32693,145.909103 L1080.15364,159 L1081.66216,159 Z M1088.43343,159.204545 C1090.43414,159.204545 1092.04493,158.207387 1092.75445,156.724434 L1091.37377,156.315343 C1090.81766,157.33807 1089.87164,157.849433 1088.66354,157.849433 C1086.7715,157.849433 1085.76155,157.005684 1086.1259,154.602277 L1093.26581,154.602277 L1093.36808,153.963073 C1093.98811,150.306826 1092.01936,149.053987 1089.96752,149.053987 C1087.31482,149.053987 1085.19266,151.150576 1084.70048,154.167618 C1084.19551,157.184661 1085.60175,159.204545 1088.43343,159.204545 Z M1091.93626,153.298301 L1086.33684,153.298301 C1086.63726,151.904836 1088.08826,150.409099 1089.7374,150.409099 C1091.38016,150.409099 1092.22391,151.636371 1091.93626,153.298301 Z M786.627836,184.204545 C789.235789,184.204545 791.306809,182.235797 791.792604,179.244323 C792.297575,176.125008 790.821014,174.053987 788.11079,174.053987 C785.502838,174.053987 783.431817,176.022735 782.946022,179.039777 C782.447443,182.133525 783.917612,184.204545 786.627836,184.204545 Z M786.653405,182.849433 C784.684657,182.849433 784.096589,181.161935 784.403407,179.244323 C784.729401,177.224438 786.014201,175.409099 788.085221,175.409099 C790.05397,175.409099 790.642037,177.122166 790.335219,179.039777 C790.009225,181.066054 788.724425,182.849433 786.653405,182.849433 Z M795.393429,184 L796.80607,175.460235 L799.024108,175.460235 L799.228653,174.181828 L797.017007,174.181828 L797.1832,173.184669 C797.362177,172.213079 797.847972,171.701716 798.84513,171.701716 C799.279789,171.701716 799.509903,171.803989 799.663312,171.855125 L800.302515,170.551149 C800.09797,170.448877 799.663312,170.295468 798.921835,170.295468 C797.515586,170.295468 796.007065,171.139217 795.751383,172.826715 L795.527662,174.181828 L793.936044,174.181828 L793.731499,175.460235 L795.310333,175.460235 L793.884908,184 L795.393429,184 Z M812.02972,184 L812.259833,182.593751 L806.660407,182.593751 L806.685975,182.491479 L813.282559,175.383531 L813.487105,174.181828 L806.149043,174.181828 L805.91893,175.588076 L811.313811,175.588076 L811.288243,175.690349 L804.53825,182.849433 L804.333704,184 L812.02972,184 Z M818.085086,184.204545 C820.085795,184.204545 821.696589,183.207387 822.406105,181.724434 L821.025425,181.315343 C820.469317,182.33807 819.523295,182.849433 818.3152,182.849433 C816.423156,182.849433 815.413214,182.005684 815.77756,179.602277 L822.917468,179.602277 L823.019741,178.963073 C823.639769,175.306826 821.671021,174.053987 819.619176,174.053987 C816.96648,174.053987 814.844323,176.150576 814.352135,179.167618 C813.847164,182.184661 815.253413,184.204545 818.085086,184.204545 Z M821.587924,178.298301 L815.988498,178.298301 C816.288923,176.904836 817.739916,175.409099 819.389063,175.409099 C821.031817,175.409099 821.875566,176.636371 821.587924,178.298301 Z M825.930225,184 L826.952952,177.786938 C827.183065,176.457394 828.384768,175.485804 829.816585,175.485804 C830.225676,175.485804 830.634766,175.562508 830.737039,175.588076 L830.99272,174.053987 C830.813743,174.028419 830.430221,174.028419 830.200108,174.028419 C829.023972,174.028419 827.873405,174.693191 827.362042,175.664781 L827.259769,175.664781 L827.515451,174.181828 L826.058066,174.181828 L824.421704,184 L825.930225,184 Z M834.823655,184.204545 C837.431607,184.204545 839.502627,182.235797 839.988422,179.244323 C840.493394,176.125008 839.016832,174.053987 836.306608,174.053987 C833.698656,174.053987 831.627635,176.022735 831.14184,179.039777 C830.643261,182.133525 832.11343,184.204545 834.823655,184.204545 Z M834.849223,182.849433 C832.880475,182.849433 832.292407,181.161935 832.599225,179.244323 C832.925219,177.224438 834.210019,175.409099 836.28104,175.409099 C838.249788,175.409099 838.837855,177.122166 838.531038,179.039777 C838.205043,181.066054 836.920244,182.849433 834.849223,182.849433 Z M849.695746,184.127841 C850.258246,184.127841 850.641768,184.025568 850.871882,183.948864 L850.769609,182.593751 C850.641768,182.619319 850.437223,182.670456 850.104837,182.670456 C849.440065,182.670456 848.826429,182.465911 849.030974,181.187503 L849.983388,175.460235 L852.099153,175.460235 L852.303698,174.181828 L850.200717,174.181828 L850.590632,171.829557 L849.082111,171.829557 L848.692196,174.181828 L847.215635,174.181828 L847.01109,175.460235 L848.481259,175.460235 L847.471317,181.596593 C847.190067,183.30966 848.417338,184.127841 849.695746,184.127841 Z M856.824973,184.204545 C859.432925,184.204545 861.503946,182.235797 861.989741,179.244323 C862.494712,176.125008 861.018151,174.053987 858.307926,174.053987 C855.699974,174.053987 853.628953,176.022735 853.143158,179.039777 C852.644579,182.133525 854.114748,184.204545 856.824973,184.204545 Z M856.850541,182.849433 C854.881793,182.849433 854.293725,181.161935 854.600543,179.244323 C854.926537,177.224438 856.211337,175.409099 858.282358,175.409099 C860.251106,175.409099 860.839174,177.122166 860.532356,179.039777 C860.206362,181.066054 858.921562,182.849433 856.850541,182.849433 Z M871.697064,184.127841 C872.259564,184.127841 872.643086,184.025568 872.8732,183.948864 L872.770927,182.593751 C872.643086,182.619319 872.438541,182.670456 872.106155,182.670456 C871.441383,182.670456 870.827747,182.465911 871.032292,181.187503 L871.984706,175.460235 L874.100471,175.460235 L874.305017,174.181828 L872.202036,174.181828 L872.59195,171.829557 L871.083429,171.829557 L870.693514,174.181828 L869.216953,174.181828 L869.012408,175.460235 L870.482577,175.460235 L869.472635,181.596593 C869.191385,183.30966 870.418657,184.127841 871.697064,184.127841 Z M878.851859,184.204545 C880.852568,184.204545 882.463361,183.207387 883.172878,181.724434 L881.792197,181.315343 C881.23609,182.33807 880.290068,182.849433 879.081973,182.849433 C877.189929,182.849433 876.179987,182.005684 876.544333,179.602277 L883.684241,179.602277 L883.786514,178.963073 C884.406541,175.306826 882.437793,174.053987 880.385949,174.053987 C877.733252,174.053987 875.611095,176.150576 875.118908,179.167618 C874.613937,182.184661 876.020186,184.204545 878.851859,184.204545 Z M882.354697,178.298301 L876.75527,178.298301 C877.055696,176.904836 878.506689,175.409099 880.155835,175.409099 C881.798589,175.409099 882.642339,176.636371 882.354697,178.298301 Z M886.696998,184 L887.668588,178.093756 C887.975406,176.380689 889.177109,175.409099 890.634494,175.409099 C892.040743,175.409099 892.731083,176.329553 892.475402,177.863642 L891.452675,184 L892.961197,184 L894.009491,177.76137 C894.418582,175.25569 893.268014,174.053987 891.299266,174.053987 C889.816313,174.053987 888.768019,174.718759 888.154383,175.715917 L888.026542,175.715917 L888.282224,174.181828 L886.824839,174.181828 L885.188477,184 L886.696998,184 Z M899.758041,180.318185 L899.783609,180.164776 C900.064859,178.630687 900.60179,177.940347 901.829062,177.250006 C903.056333,176.585234 903.900082,175.588076 904.130196,174.181828 C904.462582,172.187511 903.23531,170.730126 900.985313,170.730126 C898.914292,170.730126 897.073384,172.008534 896.613158,174.181828 L898.223952,174.181828 C898.556338,172.673306 899.732473,172.05967 900.780767,172.05967 C901.982471,172.05967 902.800652,172.852283 902.596106,174.105123 C902.442698,175.127849 901.726789,175.843758 900.908608,176.303985 C899.559888,177.051853 898.671394,177.780546 898.24952,180.164776 L898.223952,180.318185 L899.758041,180.318185 Z M898.607474,184.102273 C899.233894,184.102273 899.745257,183.590909 899.758041,182.951706 C899.770825,182.33807 899.233894,181.826707 898.607474,181.826707 C897.981054,181.826707 897.444123,182.312502 897.456907,182.951706 C897.469691,183.590909 897.955486,184.102273 898.607474,184.102273 Z M906.069089,182.593751 L909.290677,178.758528 L909.316245,178.630687 L909.303461,178.630687 L909.316245,178.579551 L907.373065,174.744327 L906.043521,174.744327 L907.820508,178.681823 L904.739545,182.593751 L906.069089,182.593751 Z M909.341813,182.593751 L912.563401,178.758528 L912.588969,178.630687 L912.576185,178.630687 L912.588969,178.579551 L910.645789,174.744327 L909.316245,174.744327 L911.093232,178.681823 L908.012269,182.593751 L909.341813,182.593751 Z" id="«Howbadisyourthroatpain?Howmuchdoesithurt?Tellmeonascaleofzerototen?»" fill="#000000" fill-rule="nonzero"></path>
        <rect id="Rectangle" fill="url(#linearGradient-5)" x="576" y="50" width="1" height="222"></rect>
        <path d="M590.54801,167.5 L591.64531,164.410514 L596.055817,164.410514 L597.153117,167.5 L598.538059,167.5 L594.532381,156.590919 L593.168746,156.590919 L589.163068,167.5 L590.54801,167.5 Z M595.640334,163.23864 L592.060792,163.23864 L593.80795,158.31677 L593.893177,158.31677 L595.640334,163.23864 Z M601.261759,167.5 L601.261759,156.590919 L600.004658,156.590919 L600.004658,167.5 L601.261759,167.5 Z M606.925791,167.670454 C608.587721,167.670454 609.802209,166.839489 610.185731,165.603695 L608.971244,165.262786 C608.651642,166.115058 607.91123,166.541194 606.925791,166.541194 C605.450295,166.541194 604.432896,165.587715 604.374302,163.835231 L610.313572,163.835231 L610.313572,163.302561 C610.313572,160.255689 608.502494,159.211656 606.79795,159.211656 C604.582043,159.211656 603.111874,160.958813 603.111874,163.473015 C603.111874,165.987217 604.560737,167.670454 606.925791,167.670454 Z M609.035164,162.748584 L604.374302,162.748584 C604.459529,161.475503 605.359741,160.340916 606.79795,160.340916 C608.161585,160.340916 609.035164,161.363642 609.035164,162.748584 Z M612.888123,167.5 L614.848348,164.325287 L616.808574,167.5 L618.257436,167.5 L615.615393,163.409095 L618.257436,159.31819 L616.808574,159.31819 L614.848348,162.663357 L612.888123,159.31819 L611.439261,159.31819 L614.03869,163.409095 L611.439261,167.5 L612.888123,167.5 Z M622.387383,167.691761 C623.814938,167.691761 624.560676,166.924716 624.816358,166.392047 L624.880278,166.392047 L624.880278,167.5 L626.137379,167.5 L626.137379,162.10938 C626.137379,159.509951 624.155847,159.211656 623.111814,159.211656 C621.87602,159.211656 620.469771,159.637792 619.830567,161.129267 L621.023748,161.555403 C621.300736,160.958813 621.95592,160.319609 623.154428,160.319609 C624.310321,160.319609 624.880278,160.93218 624.880278,161.981539 L624.880278,162.024153 C624.880278,162.631397 624.262381,162.57813 622.770905,162.769891 C621.252796,162.966979 619.596192,163.302561 619.596192,165.177559 C619.596192,166.775569 620.831987,167.691761 622.387383,167.691761 Z M622.579144,166.562501 C621.577725,166.562501 620.853294,166.115058 620.853294,165.241479 C620.853294,164.282674 621.726872,163.984378 622.706985,163.856538 C623.239655,163.792617 624.66721,163.64347 624.880278,163.387788 L624.880278,164.538355 C624.880278,165.561081 624.07062,166.562501 622.579144,166.562501 Z" id="Alexa" fill="#3023AE" fill-rule="nonzero" transform="translate(607.650224, 162.141340) rotate(-90.000000) translate(-607.650224, -162.141340) "></path>
        <path d="M531.795509,167.5 L531.795509,159.211656 L531.902043,159.211656 L535.311131,167.5 L536.504311,167.5 L539.913399,159.211656 L540.019933,159.211656 L540.019933,167.5 L541.255727,167.5 L541.255727,156.590919 L539.679024,156.590919 L535.971641,165.646309 L535.843801,165.646309 L532.136418,156.590919 L530.559715,156.590919 L530.559715,167.5 L531.795509,167.5 Z M544.639941,157.954555 C545.129998,157.954555 545.534827,157.571032 545.534827,157.102283 C545.534827,156.633533 545.129998,156.250011 544.639941,156.250011 C544.149885,156.250011 543.745056,156.633533 543.745056,157.102283 C543.745056,157.571032 544.149885,157.954555 544.639941,157.954555 Z M545.257839,167.5 L545.257839,159.31819 L544.000738,159.31819 L544.000738,167.5 L545.257839,167.5 Z M548.748577,167.5 L548.748577,164.437148 L549.627483,163.622163 L552.690335,167.5 L554.288345,167.5 L550.575635,162.812504 L554.032663,159.31819 L552.477267,159.31819 L548.897725,162.961652 L548.748577,162.961652 L548.748577,156.590919 L547.491476,156.590919 L547.491476,167.5 L548.748577,167.5 Z M558.673973,167.670454 C560.335903,167.670454 561.550391,166.839489 561.933913,165.603695 L560.719425,165.262786 C560.399824,166.115058 559.659412,166.541194 558.673973,166.541194 C557.198477,166.541194 556.181078,165.587715 556.122484,163.835231 L562.061754,163.835231 L562.061754,163.302561 C562.061754,160.255689 560.250676,159.211656 558.546132,159.211656 C556.330225,159.211656 554.860056,160.958813 554.860056,163.473015 C554.860056,165.987217 556.308918,167.670454 558.673973,167.670454 Z M560.783346,162.748584 L556.122484,162.748584 C556.207711,161.475503 557.107923,160.340916 558.546132,160.340916 C559.909767,160.340916 560.783346,161.363642 560.783346,162.748584 Z" id="Mike" fill="#000000" fill-rule="nonzero" transform="translate(546.310734, 161.960233) rotate(-90.000000) translate(-546.310734, -161.960233) "></path>
        <path d="M62.5783582,188.75 C58.758217,188.75 55.6613806,191.846836 55.6613806,195.666978 C55.6613806,199.487119 58.758217,202.583955 62.5783582,202.583955 C66.3984995,202.583955 69.4953358,199.487119 69.4953358,195.666978 C69.4953358,191.846836 66.3984995,188.75 62.5783582,188.75 Z M62.5783582,191.25 C65.0177876,191.25 66.9953358,193.227548 66.9953358,195.666978 C66.9953358,198.106407 65.0177876,200.083955 62.5783582,200.083955 C60.1389288,200.083955 58.1613806,198.106407 58.1613806,195.666978 C58.1613806,193.227548 60.1389288,191.25 62.5783582,191.25 Z" id="Oval" fill="#000000" fill-rule="nonzero"></path>
        <path d="M62.7672575,204.302705 C69.3036457,204.302705 74.6211868,209.52121 74.7808238,216.019163 L74.7845149,216.319963 L72.2845149,216.319963 C72.2845149,211.063727 68.0234936,206.802705 62.7672575,206.802705 C57.6016461,206.802705 53.3972276,210.918061 53.2537832,216.048993 L53.25,216.319963 L50.75,216.319963 C50.75,209.683015 56.1303094,204.302705 62.7672575,204.302705 Z" id="Oval" fill="#000000" fill-rule="nonzero"></path>
        <path d="M57.798288,264.593751 L56.0213011,260.656255 L59.102264,256.744327 L57.7727199,256.744327 L54.551132,260.579551 L54.5255639,260.707391 L54.5383479,260.707391 L54.5255639,260.758528 L56.4687438,264.593751 L57.798288,264.593751 Z M54.5255639,264.593751 L52.7485769,260.656255 L55.8295399,256.744327 L54.4999957,256.744327 L51.2784079,260.579551 L51.2528397,260.707391 L51.2656238,260.707391 L51.2528397,260.758528 L53.1960197,264.593751 L54.5255639,264.593751 Z M64.46729,266 L66.4104699,254.315352 L70.5269433,254.315352 L70.7570567,252.909103 L60.9388842,252.909103 L60.7087708,254.315352 L64.8252442,254.315352 L62.8820642,266 L64.46729,266 Z M72.2612935,266 L73.2328835,260.093756 C73.5397014,258.380689 74.7925411,257.409103 76.2754942,257.409103 C77.6817429,257.409103 78.3976513,258.303985 78.1419697,259.863642 L77.1192434,266 L78.6277647,266 L79.6760591,259.76137 C80.0851497,257.230122 78.9345826,256.053987 76.9402663,256.053987 C75.3806087,256.053987 74.3834505,256.693191 73.7698148,257.715917 L73.641974,257.715917 L74.4345869,252.909103 L72.9260656,252.909103 L70.7527722,266 L72.2612935,266 Z M82.8166571,266 L83.8393834,259.786938 C84.0694968,258.457394 85.2712002,257.485804 86.703017,257.485804 C87.1121076,257.485804 87.5211981,257.562508 87.6234707,257.588076 L87.8791523,256.053987 C87.7001752,256.028419 87.3166528,256.028419 87.0865394,256.028419 C85.9104042,256.028419 84.7598371,256.693191 84.2484739,257.664781 L84.1462013,257.664781 L84.4018829,256.181828 L82.9444979,256.181828 L81.3081358,266 L82.8166571,266 Z M91.7356547,266.204545 C93.736363,266.204545 95.3471569,265.207387 96.0566733,263.724434 L94.6759928,263.315343 C94.1198853,264.33807 93.1738635,264.849433 91.9657681,264.849433 C90.0737244,264.849433 89.0637822,264.005684 89.4281284,261.602277 L96.5680364,261.602277 L96.670309,260.963073 C97.2903369,257.306826 95.3215887,256.053987 93.2697441,256.053987 C90.6170478,256.053987 88.4948907,258.150576 88.0027037,261.167618 C87.4977326,264.184661 88.9039812,266.204545 91.7356547,266.204545 Z M95.2384922,260.298301 L89.6390657,260.298301 C89.9394916,258.904836 91.3904845,257.409099 93.0396307,257.409099 C94.6823848,257.409099 95.526134,258.636371 95.2384922,260.298301 Z M102.163177,266.204545 C104.163886,266.204545 105.77468,265.207387 106.484196,263.724434 L105.103515,263.315343 C104.547408,264.33807 103.601386,264.849433 102.393291,264.849433 C100.501247,264.849433 99.4913049,264.005684 99.8556512,261.602277 L106.995559,261.602277 L107.097832,260.963073 C107.71786,257.306826 105.749111,256.053987 103.697267,256.053987 C101.04457,256.053987 98.9224134,258.150576 98.4302264,261.167618 C97.9252553,264.184661 99.3315039,266.204545 102.163177,266.204545 Z M105.666015,260.298301 L100.066588,260.298301 C100.367014,258.904836 101.818007,257.409099 103.467153,257.409099 C105.109908,257.409099 105.953657,258.636371 105.666015,260.298301 Z M109.778203,266.102273 C110.404623,266.102273 110.915986,265.590909 110.92877,264.951706 C110.941554,264.33807 110.404623,263.826707 109.778203,263.826707 C109.151783,263.826707 108.614852,264.312502 108.627636,264.951706 C108.64042,265.590909 109.126215,266.102273 109.778203,266.102273 Z M114.759703,264.593751 L117.981291,260.758528 L118.006859,260.630687 L117.994075,260.630687 L118.006859,260.579551 L116.063679,256.744327 L114.734135,256.744327 L116.511121,260.681823 L113.430159,264.593751 L114.759703,264.593751 Z M118.032427,264.593751 L121.254015,260.758528 L121.279583,260.630687 L121.266799,260.630687 L121.279583,260.579551 L119.336403,256.744327 L118.006859,256.744327 L119.783846,260.681823 L116.702883,264.593751 L118.032427,264.593751 Z" id="«Three.»" fill="#000000" fill-rule="nonzero"></path>
    </g>
</svg>